<?xml version="1.0" encoding="utf-8" standalone="no"?>
<!DOCTYPE svg PUBLIC "-//W3C//DTD SVG 1.1//EN"
  "http://www.w3.org/Graphics/SVG/1.1/DTD/svg11.dtd">
<!-- Created with matplotlib (http://matplotlib.org/) -->
<svg height="345pt" version="1.1" viewBox="0 0 460 345" width="460pt" xmlns="http://www.w3.org/2000/svg" xmlns:xlink="http://www.w3.org/1999/xlink">
 <defs>
  <style type="text/css">
*{stroke-linecap:butt;stroke-linejoin:round;}
  </style>
 </defs>
 <g id="figure_1">
  <g id="patch_1">
   <path d="M 0 345.6 
L 460.8 345.6 
L 460.8 0 
L 0 0 
z
" style="fill:#ffffff;"/>
  </g>
  <g id="axes_1">
   <g id="patch_2">
    <path d="M 57.6 307.584 
L 414.72 307.584 
L 414.72 41.472 
L 57.6 41.472 
z
" style="fill:#ffffff;"/>
   </g>
   <g id="PathCollection_1">
    <defs>
     <path d="M 0 0.707107 
C 0.187527 0.707107 0.367398 0.632602 0.5 0.5 
C 0.632602 0.367398 0.707107 0.187527 0.707107 0 
C 0.707107 -0.187527 0.632602 -0.367398 0.5 -0.5 
C 0.367398 -0.632602 0.187527 -0.707107 0 -0.707107 
C -0.187527 -0.707107 -0.367398 -0.632602 -0.5 -0.5 
C -0.632602 -0.367398 -0.707107 -0.187527 -0.707107 0 
C -0.707107 0.187527 -0.632602 0.367398 -0.5 0.5 
C -0.367398 0.632602 -0.187527 0.707107 0 0.707107 
z
" id="mc52be6fe40" style="stroke:#1f77b4;"/>
    </defs>
    <g clip-path="url(#pb3429382e6)">
     <use style="fill:#1f77b4;stroke:#1f77b4;" x="62.59968" xlink:href="#mc52be6fe40" y="307.584"/>
     <use style="fill:#1f77b4;stroke:#1f77b4;" x="406.14912" xlink:href="#mc52be6fe40" y="307.584"/>
     <use style="fill:#1f77b4;stroke:#1f77b4;" x="63.31392" xlink:href="#mc52be6fe40" y="300.9312"/>
     <use style="fill:#1f77b4;stroke:#1f77b4;" x="404.72064" xlink:href="#mc52be6fe40" y="300.9312"/>
     <use style="fill:#1f77b4;stroke:#1f77b4;" x="64.38528" xlink:href="#mc52be6fe40" y="294.2784"/>
     <use style="fill:#1f77b4;stroke:#1f77b4;" x="403.29216" xlink:href="#mc52be6fe40" y="294.2784"/>
     <use style="fill:#1f77b4;stroke:#1f77b4;" x="65.45664" xlink:href="#mc52be6fe40" y="287.6256"/>
     <use style="fill:#1f77b4;stroke:#1f77b4;" x="401.86368" xlink:href="#mc52be6fe40" y="287.6256"/>
     <use style="fill:#1f77b4;stroke:#1f77b4;" x="66.88512" xlink:href="#mc52be6fe40" y="280.9728"/>
     <use style="fill:#1f77b4;stroke:#1f77b4;" x="400.07808" xlink:href="#mc52be6fe40" y="280.9728"/>
     <use style="fill:#1f77b4;stroke:#1f77b4;" x="68.67072" xlink:href="#mc52be6fe40" y="274.32"/>
     <use style="fill:#1f77b4;stroke:#1f77b4;" x="397.93536" xlink:href="#mc52be6fe40" y="274.32"/>
     <use style="fill:#1f77b4;stroke:#1f77b4;" x="70.81344" xlink:href="#mc52be6fe40" y="267.6672"/>
     <use style="fill:#1f77b4;stroke:#1f77b4;" x="395.79264" xlink:href="#mc52be6fe40" y="267.6672"/>
     <use style="fill:#1f77b4;stroke:#1f77b4;" x="72.95616" xlink:href="#mc52be6fe40" y="261.0144"/>
     <use style="fill:#1f77b4;stroke:#1f77b4;" x="393.2928" xlink:href="#mc52be6fe40" y="261.0144"/>
     <use style="fill:#1f77b4;stroke:#1f77b4;" x="76.17024" xlink:href="#mc52be6fe40" y="254.3616"/>
     <use style="fill:#1f77b4;stroke:#1f77b4;" x="390.79296" xlink:href="#mc52be6fe40" y="254.3616"/>
     <use style="fill:#1f77b4;stroke:#1f77b4;" x="79.38432" xlink:href="#mc52be6fe40" y="247.7088"/>
     <use style="fill:#1f77b4;stroke:#1f77b4;" x="387.936" xlink:href="#mc52be6fe40" y="247.7088"/>
     <use style="fill:#1f77b4;stroke:#1f77b4;" x="83.66976" xlink:href="#mc52be6fe40" y="241.056"/>
     <use style="fill:#1f77b4;stroke:#1f77b4;" x="384.72192" xlink:href="#mc52be6fe40" y="241.056"/>
     <use style="fill:#1f77b4;stroke:#1f77b4;" x="89.02656" xlink:href="#mc52be6fe40" y="234.4032"/>
     <use style="fill:#1f77b4;stroke:#1f77b4;" x="381.50784" xlink:href="#mc52be6fe40" y="234.4032"/>
     <use style="fill:#1f77b4;stroke:#1f77b4;" x="95.45472" xlink:href="#mc52be6fe40" y="227.7504"/>
     <use style="fill:#1f77b4;stroke:#1f77b4;" x="377.93664" xlink:href="#mc52be6fe40" y="227.7504"/>
     <use style="fill:#1f77b4;stroke:#1f77b4;" x="103.66848" xlink:href="#mc52be6fe40" y="221.0976"/>
     <use style="fill:#1f77b4;stroke:#1f77b4;" x="374.36544" xlink:href="#mc52be6fe40" y="221.0976"/>
     <use style="fill:#1f77b4;stroke:#1f77b4;" x="113.31072" xlink:href="#mc52be6fe40" y="214.4448"/>
     <use style="fill:#1f77b4;stroke:#1f77b4;" x="370.43712" xlink:href="#mc52be6fe40" y="214.4448"/>
     <use style="fill:#1f77b4;stroke:#1f77b4;" x="125.80992" xlink:href="#mc52be6fe40" y="207.792"/>
     <use style="fill:#1f77b4;stroke:#1f77b4;" x="366.5088" xlink:href="#mc52be6fe40" y="207.792"/>
     <use style="fill:#1f77b4;stroke:#1f77b4;" x="140.80896" xlink:href="#mc52be6fe40" y="201.1392"/>
     <use style="fill:#1f77b4;stroke:#1f77b4;" x="362.58048" xlink:href="#mc52be6fe40" y="201.1392"/>
     <use style="fill:#1f77b4;stroke:#1f77b4;" x="157.95072" xlink:href="#mc52be6fe40" y="194.4864"/>
     <use style="fill:#1f77b4;stroke:#1f77b4;" x="358.65216" xlink:href="#mc52be6fe40" y="194.4864"/>
     <use style="fill:#1f77b4;stroke:#1f77b4;" x="176.16384" xlink:href="#mc52be6fe40" y="187.8336"/>
     <use style="fill:#1f77b4;stroke:#1f77b4;" x="355.08096" xlink:href="#mc52be6fe40" y="187.8336"/>
     <use style="fill:#1f77b4;stroke:#1f77b4;" x="193.3056" xlink:href="#mc52be6fe40" y="181.1808"/>
     <use style="fill:#1f77b4;stroke:#1f77b4;" x="351.50976" xlink:href="#mc52be6fe40" y="181.1808"/>
     <use style="fill:#1f77b4;stroke:#1f77b4;" x="207.94752" xlink:href="#mc52be6fe40" y="174.528"/>
     <use style="fill:#1f77b4;stroke:#1f77b4;" x="348.29568" xlink:href="#mc52be6fe40" y="174.528"/>
     <use style="fill:#1f77b4;stroke:#1f77b4;" x="219.73248" xlink:href="#mc52be6fe40" y="167.8752"/>
     <use style="fill:#1f77b4;stroke:#1f77b4;" x="345.43872" xlink:href="#mc52be6fe40" y="167.8752"/>
     <use style="fill:#1f77b4;stroke:#1f77b4;" x="229.73184" xlink:href="#mc52be6fe40" y="161.2224"/>
     <use style="fill:#1f77b4;stroke:#1f77b4;" x="342.58176" xlink:href="#mc52be6fe40" y="161.2224"/>
     <use style="fill:#1f77b4;stroke:#1f77b4;" x="237.58848" xlink:href="#mc52be6fe40" y="154.5696"/>
     <use style="fill:#1f77b4;stroke:#1f77b4;" x="340.08192" xlink:href="#mc52be6fe40" y="154.5696"/>
     <use style="fill:#1f77b4;stroke:#1f77b4;" x="244.37376" xlink:href="#mc52be6fe40" y="147.9168"/>
     <use style="fill:#1f77b4;stroke:#1f77b4;" x="337.58208" xlink:href="#mc52be6fe40" y="147.9168"/>
     <use style="fill:#1f77b4;stroke:#1f77b4;" x="250.08768" xlink:href="#mc52be6fe40" y="141.264"/>
     <use style="fill:#1f77b4;stroke:#1f77b4;" x="335.43936" xlink:href="#mc52be6fe40" y="141.264"/>
     <use style="fill:#1f77b4;stroke:#1f77b4;" x="255.08736" xlink:href="#mc52be6fe40" y="134.6112"/>
     <use style="fill:#1f77b4;stroke:#1f77b4;" x="333.65376" xlink:href="#mc52be6fe40" y="134.6112"/>
     <use style="fill:#1f77b4;stroke:#1f77b4;" x="259.01568" xlink:href="#mc52be6fe40" y="127.9584"/>
     <use style="fill:#1f77b4;stroke:#1f77b4;" x="331.86816" xlink:href="#mc52be6fe40" y="127.9584"/>
     <use style="fill:#1f77b4;stroke:#1f77b4;" x="262.944" xlink:href="#mc52be6fe40" y="121.3056"/>
     <use style="fill:#1f77b4;stroke:#1f77b4;" x="330.08256" xlink:href="#mc52be6fe40" y="121.3056"/>
     <use style="fill:#1f77b4;stroke:#1f77b4;" x="266.15808" xlink:href="#mc52be6fe40" y="114.6528"/>
     <use style="fill:#1f77b4;stroke:#1f77b4;" x="328.65408" xlink:href="#mc52be6fe40" y="114.6528"/>
     <use style="fill:#1f77b4;stroke:#1f77b4;" x="269.37216" xlink:href="#mc52be6fe40" y="108"/>
     <use style="fill:#1f77b4;stroke:#1f77b4;" x="327.2256" xlink:href="#mc52be6fe40" y="108"/>
     <use style="fill:#1f77b4;stroke:#1f77b4;" x="271.872" xlink:href="#mc52be6fe40" y="101.3472"/>
     <use style="fill:#1f77b4;stroke:#1f77b4;" x="326.15424" xlink:href="#mc52be6fe40" y="101.3472"/>
     <use style="fill:#1f77b4;stroke:#1f77b4;" x="274.37184" xlink:href="#mc52be6fe40" y="94.6944"/>
     <use style="fill:#1f77b4;stroke:#1f77b4;" x="325.08288" xlink:href="#mc52be6fe40" y="94.6944"/>
     <use style="fill:#1f77b4;stroke:#1f77b4;" x="276.87168" xlink:href="#mc52be6fe40" y="88.0416"/>
     <use style="fill:#1f77b4;stroke:#1f77b4;" x="324.01152" xlink:href="#mc52be6fe40" y="88.0416"/>
     <use style="fill:#1f77b4;stroke:#1f77b4;" x="279.0144" xlink:href="#mc52be6fe40" y="81.3888"/>
     <use style="fill:#1f77b4;stroke:#1f77b4;" x="323.29728" xlink:href="#mc52be6fe40" y="81.3888"/>
     <use style="fill:#1f77b4;stroke:#1f77b4;" x="281.15712" xlink:href="#mc52be6fe40" y="74.736"/>
     <use style="fill:#1f77b4;stroke:#1f77b4;" x="322.58304" xlink:href="#mc52be6fe40" y="74.736"/>
     <use style="fill:#1f77b4;stroke:#1f77b4;" x="282.94272" xlink:href="#mc52be6fe40" y="68.0832"/>
     <use style="fill:#1f77b4;stroke:#1f77b4;" x="322.22592" xlink:href="#mc52be6fe40" y="68.0832"/>
     <use style="fill:#1f77b4;stroke:#1f77b4;" x="284.72832" xlink:href="#mc52be6fe40" y="61.4304"/>
     <use style="fill:#1f77b4;stroke:#1f77b4;" x="321.8688" xlink:href="#mc52be6fe40" y="61.4304"/>
     <use style="fill:#1f77b4;stroke:#1f77b4;" x="286.51392" xlink:href="#mc52be6fe40" y="54.7776"/>
     <use style="fill:#1f77b4;stroke:#1f77b4;" x="321.51168" xlink:href="#mc52be6fe40" y="54.7776"/>
     <use style="fill:#1f77b4;stroke:#1f77b4;" x="287.9424" xlink:href="#mc52be6fe40" y="48.1248"/>
     <use style="fill:#1f77b4;stroke:#1f77b4;" x="321.15456" xlink:href="#mc52be6fe40" y="48.1248"/>
     <use style="fill:#1f77b4;stroke:#1f77b4;" x="289.37088" xlink:href="#mc52be6fe40" y="41.472"/>
     <use style="fill:#1f77b4;stroke:#1f77b4;" x="320.79744" xlink:href="#mc52be6fe40" y="41.472"/>
     <use style="fill:#1f77b4;stroke:#1f77b4;" x="291.15648" xlink:href="#mc52be6fe40" y="34.8192"/>
     <use style="fill:#1f77b4;stroke:#1f77b4;" x="320.79744" xlink:href="#mc52be6fe40" y="34.8192"/>
     <use style="fill:#1f77b4;stroke:#1f77b4;" x="292.58496" xlink:href="#mc52be6fe40" y="28.1664"/>
     <use style="fill:#1f77b4;stroke:#1f77b4;" x="320.79744" xlink:href="#mc52be6fe40" y="28.1664"/>
     <use style="fill:#1f77b4;stroke:#1f77b4;" x="294.01344" xlink:href="#mc52be6fe40" y="21.5136"/>
     <use style="fill:#1f77b4;stroke:#1f77b4;" x="320.79744" xlink:href="#mc52be6fe40" y="21.5136"/>
     <use style="fill:#1f77b4;stroke:#1f77b4;" x="295.0848" xlink:href="#mc52be6fe40" y="14.8608"/>
     <use style="fill:#1f77b4;stroke:#1f77b4;" x="320.79744" xlink:href="#mc52be6fe40" y="14.8608"/>
     <use style="fill:#1f77b4;stroke:#1f77b4;" x="296.51328" xlink:href="#mc52be6fe40" y="8.208"/>
     <use style="fill:#1f77b4;stroke:#1f77b4;" x="321.15456" xlink:href="#mc52be6fe40" y="8.208"/>
     <use style="fill:#1f77b4;stroke:#1f77b4;" x="297.94176" xlink:href="#mc52be6fe40" y="1.5552"/>
     <use style="fill:#1f77b4;stroke:#1f77b4;" x="321.15456" xlink:href="#mc52be6fe40" y="1.5552"/>
     <use style="fill:#1f77b4;stroke:#1f77b4;" x="312.6505" xlink:href="#mc52be6fe40" y="-1"/>
    </g>
   </g>
   <g id="PathCollection_2">
    <defs>
     <path d="M 0 0.707107 
C 0.187527 0.707107 0.367398 0.632602 0.5 0.5 
C 0.632602 0.367398 0.707107 0.187527 0.707107 0 
C 0.707107 -0.187527 0.632602 -0.367398 0.5 -0.5 
C 0.367398 -0.632602 0.187527 -0.707107 0 -0.707107 
C -0.187527 -0.707107 -0.367398 -0.632602 -0.5 -0.5 
C -0.632602 -0.367398 -0.707107 -0.187527 -0.707107 0 
C -0.707107 0.187527 -0.632602 0.367398 -0.5 0.5 
C -0.367398 0.632602 -0.187527 0.707107 0 0.707107 
z
" id="m4f93a6f40b" style="stroke:#ff7f0e;"/>
    </defs>
    <g clip-path="url(#pb3429382e6)">
     <use style="fill:#ff7f0e;stroke:#ff7f0e;" x="64.7424" xlink:href="#m4f93a6f40b" y="307.584"/>
     <use style="fill:#ff7f0e;stroke:#ff7f0e;" x="407.5776" xlink:href="#m4f93a6f40b" y="307.584"/>
     <use style="fill:#ff7f0e;stroke:#ff7f0e;" x="66.17088" xlink:href="#m4f93a6f40b" y="300.9312"/>
     <use style="fill:#ff7f0e;stroke:#ff7f0e;" x="406.14912" xlink:href="#m4f93a6f40b" y="300.9312"/>
     <use style="fill:#ff7f0e;stroke:#ff7f0e;" x="67.59936" xlink:href="#m4f93a6f40b" y="294.2784"/>
     <use style="fill:#ff7f0e;stroke:#ff7f0e;" x="404.72064" xlink:href="#m4f93a6f40b" y="294.2784"/>
     <use style="fill:#ff7f0e;stroke:#ff7f0e;" x="69.38496" xlink:href="#m4f93a6f40b" y="287.6256"/>
     <use style="fill:#ff7f0e;stroke:#ff7f0e;" x="402.93504" xlink:href="#m4f93a6f40b" y="287.6256"/>
     <use style="fill:#ff7f0e;stroke:#ff7f0e;" x="71.52768" xlink:href="#m4f93a6f40b" y="280.9728"/>
     <use style="fill:#ff7f0e;stroke:#ff7f0e;" x="400.79232" xlink:href="#m4f93a6f40b" y="280.9728"/>
     <use style="fill:#ff7f0e;stroke:#ff7f0e;" x="74.02752" xlink:href="#m4f93a6f40b" y="274.32"/>
     <use style="fill:#ff7f0e;stroke:#ff7f0e;" x="398.29248" xlink:href="#m4f93a6f40b" y="274.32"/>
     <use style="fill:#ff7f0e;stroke:#ff7f0e;" x="77.2416" xlink:href="#m4f93a6f40b" y="267.6672"/>
     <use style="fill:#ff7f0e;stroke:#ff7f0e;" x="395.0784" xlink:href="#m4f93a6f40b" y="267.6672"/>
     <use style="fill:#ff7f0e;stroke:#ff7f0e;" x="81.16992" xlink:href="#m4f93a6f40b" y="261.0144"/>
     <use style="fill:#ff7f0e;stroke:#ff7f0e;" x="391.15008" xlink:href="#m4f93a6f40b" y="261.0144"/>
     <use style="fill:#ff7f0e;stroke:#ff7f0e;" x="86.1696" xlink:href="#m4f93a6f40b" y="254.3616"/>
     <use style="fill:#ff7f0e;stroke:#ff7f0e;" x="386.1504" xlink:href="#m4f93a6f40b" y="254.3616"/>
     <use style="fill:#ff7f0e;stroke:#ff7f0e;" x="92.59776" xlink:href="#m4f93a6f40b" y="247.7088"/>
     <use style="fill:#ff7f0e;stroke:#ff7f0e;" x="379.72224" xlink:href="#m4f93a6f40b" y="247.7088"/>
     <use style="fill:#ff7f0e;stroke:#ff7f0e;" x="100.4544" xlink:href="#m4f93a6f40b" y="241.056"/>
     <use style="fill:#ff7f0e;stroke:#ff7f0e;" x="371.8656" xlink:href="#m4f93a6f40b" y="241.056"/>
     <use style="fill:#ff7f0e;stroke:#ff7f0e;" x="111.168" xlink:href="#m4f93a6f40b" y="234.4032"/>
     <use style="fill:#ff7f0e;stroke:#ff7f0e;" x="361.152" xlink:href="#m4f93a6f40b" y="234.4032"/>
     <use style="fill:#ff7f0e;stroke:#ff7f0e;" x="126.16704" xlink:href="#m4f93a6f40b" y="227.7504"/>
     <use style="fill:#ff7f0e;stroke:#ff7f0e;" x="346.15296" xlink:href="#m4f93a6f40b" y="227.7504"/>
     <use style="fill:#ff7f0e;stroke:#ff7f0e;" x="148.30848" xlink:href="#m4f93a6f40b" y="221.0976"/>
     <use style="fill:#ff7f0e;stroke:#ff7f0e;" x="324.01152" xlink:href="#m4f93a6f40b" y="221.0976"/>
     <use style="fill:#ff7f0e;stroke:#ff7f0e;" x="189.37728" xlink:href="#m4f93a6f40b" y="214.4448"/>
     <use style="fill:#ff7f0e;stroke:#ff7f0e;" x="282.94272" xlink:href="#m4f93a6f40b" y="214.4448"/>
    </g>
   </g>
   <g id="PathCollection_3">
    <defs>
     <path d="M 0 0.707107 
C 0.187527 0.707107 0.367398 0.632602 0.5 0.5 
C 0.632602 0.367398 0.707107 0.187527 0.707107 0 
C 0.707107 -0.187527 0.632602 -0.367398 0.5 -0.5 
C 0.367398 -0.632602 0.187527 -0.707107 0 -0.707107 
C -0.187527 -0.707107 -0.367398 -0.632602 -0.5 -0.5 
C -0.632602 -0.367398 -0.707107 -0.187527 -0.707107 0 
C -0.707107 0.187527 -0.632602 0.367398 -0.5 0.5 
C -0.367398 0.632602 -0.187527 0.707107 0 0.707107 
z
" id="m5fb90d55a8" style="stroke:#2ca02c;"/>
    </defs>
    <g clip-path="url(#pb3429382e6)">
     <use style="fill:#2ca02c;stroke:#2ca02c;" x="64.7424" xlink:href="#m5fb90d55a8" y="1307.088"/>
     <use style="fill:#2ca02c;stroke:#2ca02c;" x="71.8848" xlink:href="#m5fb90d55a8" y="725.463"/>
     <use style="fill:#2ca02c;stroke:#2ca02c;" x="79.0272" xlink:href="#m5fb90d55a8" y="531.939064"/>
     <use style="fill:#2ca02c;stroke:#2ca02c;" x="86.1696" xlink:href="#m5fb90d55a8" y="435.457565"/>
     <use style="fill:#2ca02c;stroke:#2ca02c;" x="93.312" xlink:href="#m5fb90d55a8" y="377.808"/>
     <use style="fill:#2ca02c;stroke:#2ca02c;" x="100.4544" xlink:href="#m5fb90d55a8" y="339.588"/>
     <use style="fill:#2ca02c;stroke:#2ca02c;" x="107.5968" xlink:href="#m5fb90d55a8" y="312.483349"/>
     <use style="fill:#2ca02c;stroke:#2ca02c;" x="114.7392" xlink:href="#m5fb90d55a8" y="292.338"/>
     <use style="fill:#2ca02c;stroke:#2ca02c;" x="121.8816" xlink:href="#m5fb90d55a8" y="276.844098"/>
     <use style="fill:#2ca02c;stroke:#2ca02c;" x="129.024" xlink:href="#m5fb90d55a8" y="264.618"/>
     <use style="fill:#2ca02c;stroke:#2ca02c;" x="136.1664" xlink:href="#m5fb90d55a8" y="254.780308"/>
     <use style="fill:#2ca02c;stroke:#2ca02c;" x="143.3088" xlink:href="#m5fb90d55a8" y="246.745895"/>
     <use style="fill:#2ca02c;stroke:#2ca02c;" x="150.4512" xlink:href="#m5fb90d55a8" y="240.110869"/>
     <use style="fill:#2ca02c;stroke:#2ca02c;" x="157.5936" xlink:href="#m5fb90d55a8" y="234.588"/>
     <use style="fill:#2ca02c;stroke:#2ca02c;" x="164.736" xlink:href="#m5fb90d55a8" y="229.968"/>
     <use style="fill:#2ca02c;stroke:#2ca02c;" x="171.8784" xlink:href="#m5fb90d55a8" y="226.095353"/>
     <use style="fill:#2ca02c;stroke:#2ca02c;" x="179.0208" xlink:href="#m5fb90d55a8" y="222.852706"/>
     <use style="fill:#2ca02c;stroke:#2ca02c;" x="186.1632" xlink:href="#m5fb90d55a8" y="220.1505"/>
     <use style="fill:#2ca02c;stroke:#2ca02c;" x="193.3056" xlink:href="#m5fb90d55a8" y="217.919919"/>
     <use style="fill:#2ca02c;stroke:#2ca02c;" x="200.448" xlink:href="#m5fb90d55a8" y="216.108"/>
     <use style="fill:#2ca02c;stroke:#2ca02c;" x="207.5904" xlink:href="#m5fb90d55a8" y="214.674207"/>
     <use style="fill:#2ca02c;stroke:#2ca02c;" x="214.7328" xlink:href="#m5fb90d55a8" y="213.588"/>
     <use style="fill:#2ca02c;stroke:#2ca02c;" x="221.8752" xlink:href="#m5fb90d55a8" y="212.82713"/>
     <use style="fill:#2ca02c;stroke:#2ca02c;" x="229.0176" xlink:href="#m5fb90d55a8" y="212.376462"/>
     <use style="fill:#2ca02c;stroke:#2ca02c;" x="236.16" xlink:href="#m5fb90d55a8" y="212.2272"/>
     <use style="fill:#2ca02c;stroke:#2ca02c;" x="243.3024" xlink:href="#m5fb90d55a8" y="212.376462"/>
     <use style="fill:#2ca02c;stroke:#2ca02c;" x="250.4448" xlink:href="#m5fb90d55a8" y="212.82713"/>
     <use style="fill:#2ca02c;stroke:#2ca02c;" x="257.5872" xlink:href="#m5fb90d55a8" y="213.588"/>
     <use style="fill:#2ca02c;stroke:#2ca02c;" x="264.7296" xlink:href="#m5fb90d55a8" y="214.674207"/>
     <use style="fill:#2ca02c;stroke:#2ca02c;" x="271.872" xlink:href="#m5fb90d55a8" y="216.108"/>
     <use style="fill:#2ca02c;stroke:#2ca02c;" x="279.0144" xlink:href="#m5fb90d55a8" y="217.919919"/>
     <use style="fill:#2ca02c;stroke:#2ca02c;" x="286.1568" xlink:href="#m5fb90d55a8" y="220.1505"/>
     <use style="fill:#2ca02c;stroke:#2ca02c;" x="293.2992" xlink:href="#m5fb90d55a8" y="222.852706"/>
     <use style="fill:#2ca02c;stroke:#2ca02c;" x="300.4416" xlink:href="#m5fb90d55a8" y="226.095353"/>
     <use style="fill:#2ca02c;stroke:#2ca02c;" x="307.584" xlink:href="#m5fb90d55a8" y="229.968"/>
     <use style="fill:#2ca02c;stroke:#2ca02c;" x="314.7264" xlink:href="#m5fb90d55a8" y="234.588"/>
     <use style="fill:#2ca02c;stroke:#2ca02c;" x="321.8688" xlink:href="#m5fb90d55a8" y="240.110869"/>
     <use style="fill:#2ca02c;stroke:#2ca02c;" x="329.0112" xlink:href="#m5fb90d55a8" y="246.745895"/>
     <use style="fill:#2ca02c;stroke:#2ca02c;" x="336.1536" xlink:href="#m5fb90d55a8" y="254.780308"/>
     <use style="fill:#2ca02c;stroke:#2ca02c;" x="343.296" xlink:href="#m5fb90d55a8" y="264.618"/>
     <use style="fill:#2ca02c;stroke:#2ca02c;" x="350.4384" xlink:href="#m5fb90d55a8" y="276.844098"/>
     <use style="fill:#2ca02c;stroke:#2ca02c;" x="357.5808" xlink:href="#m5fb90d55a8" y="292.338"/>
     <use style="fill:#2ca02c;stroke:#2ca02c;" x="364.7232" xlink:href="#m5fb90d55a8" y="312.483349"/>
     <use style="fill:#2ca02c;stroke:#2ca02c;" x="371.8656" xlink:href="#m5fb90d55a8" y="339.588"/>
     <use style="fill:#2ca02c;stroke:#2ca02c;" x="379.008" xlink:href="#m5fb90d55a8" y="377.808"/>
     <use style="fill:#2ca02c;stroke:#2ca02c;" x="386.1504" xlink:href="#m5fb90d55a8" y="435.457565"/>
     <use style="fill:#2ca02c;stroke:#2ca02c;" x="393.2928" xlink:href="#m5fb90d55a8" y="531.939064"/>
     <use style="fill:#2ca02c;stroke:#2ca02c;" x="400.4352" xlink:href="#m5fb90d55a8" y="725.463"/>
     <use style="fill:#2ca02c;stroke:#2ca02c;" x="407.5776" xlink:href="#m5fb90d55a8" y="1307.088"/>
    </g>
   </g>
   <g id="matplotlib.axis_1">
    <g id="xtick_1">
     <g id="line2d_1">
      <defs>
       <path d="M 0 0 
L 0 3.5 
" id="m6006c81788" style="stroke:#000000;stroke-width:0.8;"/>
      </defs>
      <g>
       <use style="stroke:#000000;stroke-width:0.8;" x="57.6" xlink:href="#m6006c81788" y="307.584"/>
      </g>
     </g>
     <g id="text_1">
      <!-- 0.0 -->
      <defs>
       <path d="M 31.78125 66.40625 
Q 24.171875 66.40625 20.328125 58.90625 
Q 16.5 51.421875 16.5 36.375 
Q 16.5 21.390625 20.328125 13.890625 
Q 24.171875 6.390625 31.78125 6.390625 
Q 39.453125 6.390625 43.28125 13.890625 
Q 47.125 21.390625 47.125 36.375 
Q 47.125 51.421875 43.28125 58.90625 
Q 39.453125 66.40625 31.78125 66.40625 
M 31.78125 74.21875 
Q 44.046875 74.21875 50.515625 64.515625 
Q 56.984375 54.828125 56.984375 36.375 
Q 56.984375 17.96875 50.515625 8.265625 
Q 44.046875 -1.421875 31.78125 -1.421875 
Q 19.53125 -1.421875 13.0625 8.265625 
Q 6.59375 17.96875 6.59375 36.375 
Q 6.59375 54.828125 13.0625 64.515625 
Q 19.53125 74.21875 31.78125 74.21875 
" id="DejaVuSans-30"/>
       <path d="M 10.6875 12.40625 
L 21 12.40625 
L 21 0 
L 10.6875 0 
z
" id="DejaVuSans-2e"/>
      </defs>
      <g transform="translate(49.648438 322.182437)scale(0.1 -0.1)">
       <use xlink:href="#DejaVuSans-30"/>
       <use x="63.623047" xlink:href="#DejaVuSans-2e"/>
       <use x="95.410156" xlink:href="#DejaVuSans-30"/>
      </g>
     </g>
    </g>
    <g id="xtick_2">
     <g id="line2d_2">
      <g>
       <use style="stroke:#000000;stroke-width:0.8;" x="129.024" xlink:href="#m6006c81788" y="307.584"/>
      </g>
     </g>
     <g id="text_2">
      <!-- 0.2 -->
      <defs>
       <path d="M 19.1875 8.296875 
L 53.609375 8.296875 
L 53.609375 0 
L 7.328125 0 
L 7.328125 8.296875 
Q 12.9375 14.109375 22.625 23.890625 
Q 32.328125 33.6875 34.8125 36.53125 
Q 39.546875 41.84375 41.421875 45.53125 
Q 43.3125 49.21875 43.3125 52.78125 
Q 43.3125 58.59375 39.234375 62.25 
Q 35.15625 65.921875 28.609375 65.921875 
Q 23.96875 65.921875 18.8125 64.3125 
Q 13.671875 62.703125 7.8125 59.421875 
L 7.8125 69.390625 
Q 13.765625 71.78125 18.9375 73 
Q 24.125 74.21875 28.421875 74.21875 
Q 39.75 74.21875 46.484375 68.546875 
Q 53.21875 62.890625 53.21875 53.421875 
Q 53.21875 48.921875 51.53125 44.890625 
Q 49.859375 40.875 45.40625 35.40625 
Q 44.1875 33.984375 37.640625 27.21875 
Q 31.109375 20.453125 19.1875 8.296875 
" id="DejaVuSans-32"/>
      </defs>
      <g transform="translate(121.072438 322.182437)scale(0.1 -0.1)">
       <use xlink:href="#DejaVuSans-30"/>
       <use x="63.623047" xlink:href="#DejaVuSans-2e"/>
       <use x="95.410156" xlink:href="#DejaVuSans-32"/>
      </g>
     </g>
    </g>
    <g id="xtick_3">
     <g id="line2d_3">
      <g>
       <use style="stroke:#000000;stroke-width:0.8;" x="200.448" xlink:href="#m6006c81788" y="307.584"/>
      </g>
     </g>
     <g id="text_3">
      <!-- 0.4 -->
      <defs>
       <path d="M 37.796875 64.3125 
L 12.890625 25.390625 
L 37.796875 25.390625 
z
M 35.203125 72.90625 
L 47.609375 72.90625 
L 47.609375 25.390625 
L 58.015625 25.390625 
L 58.015625 17.1875 
L 47.609375 17.1875 
L 47.609375 0 
L 37.796875 0 
L 37.796875 17.1875 
L 4.890625 17.1875 
L 4.890625 26.703125 
z
" id="DejaVuSans-34"/>
      </defs>
      <g transform="translate(192.496438 322.182437)scale(0.1 -0.1)">
       <use xlink:href="#DejaVuSans-30"/>
       <use x="63.623047" xlink:href="#DejaVuSans-2e"/>
       <use x="95.410156" xlink:href="#DejaVuSans-34"/>
      </g>
     </g>
    </g>
    <g id="xtick_4">
     <g id="line2d_4">
      <g>
       <use style="stroke:#000000;stroke-width:0.8;" x="271.872" xlink:href="#m6006c81788" y="307.584"/>
      </g>
     </g>
     <g id="text_4">
      <!-- 0.6 -->
      <defs>
       <path d="M 33.015625 40.375 
Q 26.375 40.375 22.484375 35.828125 
Q 18.609375 31.296875 18.609375 23.390625 
Q 18.609375 15.53125 22.484375 10.953125 
Q 26.375 6.390625 33.015625 6.390625 
Q 39.65625 6.390625 43.53125 10.953125 
Q 47.40625 15.53125 47.40625 23.390625 
Q 47.40625 31.296875 43.53125 35.828125 
Q 39.65625 40.375 33.015625 40.375 
M 52.59375 71.296875 
L 52.59375 62.3125 
Q 48.875 64.0625 45.09375 64.984375 
Q 41.3125 65.921875 37.59375 65.921875 
Q 27.828125 65.921875 22.671875 59.328125 
Q 17.53125 52.734375 16.796875 39.40625 
Q 19.671875 43.65625 24.015625 45.921875 
Q 28.375 48.1875 33.59375 48.1875 
Q 44.578125 48.1875 50.953125 41.515625 
Q 57.328125 34.859375 57.328125 23.390625 
Q 57.328125 12.15625 50.6875 5.359375 
Q 44.046875 -1.421875 33.015625 -1.421875 
Q 20.359375 -1.421875 13.671875 8.265625 
Q 6.984375 17.96875 6.984375 36.375 
Q 6.984375 53.65625 15.1875 63.9375 
Q 23.390625 74.21875 37.203125 74.21875 
Q 40.921875 74.21875 44.703125 73.484375 
Q 48.484375 72.75 52.59375 71.296875 
" id="DejaVuSans-36"/>
      </defs>
      <g transform="translate(263.920438 322.182437)scale(0.1 -0.1)">
       <use xlink:href="#DejaVuSans-30"/>
       <use x="63.623047" xlink:href="#DejaVuSans-2e"/>
       <use x="95.410156" xlink:href="#DejaVuSans-36"/>
      </g>
     </g>
    </g>
    <g id="xtick_5">
     <g id="line2d_5">
      <g>
       <use style="stroke:#000000;stroke-width:0.8;" x="343.296" xlink:href="#m6006c81788" y="307.584"/>
      </g>
     </g>
     <g id="text_5">
      <!-- 0.8 -->
      <defs>
       <path d="M 31.78125 34.625 
Q 24.75 34.625 20.71875 30.859375 
Q 16.703125 27.09375 16.703125 20.515625 
Q 16.703125 13.921875 20.71875 10.15625 
Q 24.75 6.390625 31.78125 6.390625 
Q 38.8125 6.390625 42.859375 10.171875 
Q 46.921875 13.96875 46.921875 20.515625 
Q 46.921875 27.09375 42.890625 30.859375 
Q 38.875 34.625 31.78125 34.625 
M 21.921875 38.8125 
Q 15.578125 40.375 12.03125 44.71875 
Q 8.5 49.078125 8.5 55.328125 
Q 8.5 64.0625 14.71875 69.140625 
Q 20.953125 74.21875 31.78125 74.21875 
Q 42.671875 74.21875 48.875 69.140625 
Q 55.078125 64.0625 55.078125 55.328125 
Q 55.078125 49.078125 51.53125 44.71875 
Q 48 40.375 41.703125 38.8125 
Q 48.828125 37.15625 52.796875 32.3125 
Q 56.78125 27.484375 56.78125 20.515625 
Q 56.78125 9.90625 50.3125 4.234375 
Q 43.84375 -1.421875 31.78125 -1.421875 
Q 19.734375 -1.421875 13.25 4.234375 
Q 6.78125 9.90625 6.78125 20.515625 
Q 6.78125 27.484375 10.78125 32.3125 
Q 14.796875 37.15625 21.921875 38.8125 
M 18.3125 54.390625 
Q 18.3125 48.734375 21.84375 45.5625 
Q 25.390625 42.390625 31.78125 42.390625 
Q 38.140625 42.390625 41.71875 45.5625 
Q 45.3125 48.734375 45.3125 54.390625 
Q 45.3125 60.0625 41.71875 63.234375 
Q 38.140625 66.40625 31.78125 66.40625 
Q 25.390625 66.40625 21.84375 63.234375 
Q 18.3125 60.0625 18.3125 54.390625 
" id="DejaVuSans-38"/>
      </defs>
      <g transform="translate(335.344438 322.182437)scale(0.1 -0.1)">
       <use xlink:href="#DejaVuSans-30"/>
       <use x="63.623047" xlink:href="#DejaVuSans-2e"/>
       <use x="95.410156" xlink:href="#DejaVuSans-38"/>
      </g>
     </g>
    </g>
    <g id="xtick_6">
     <g id="line2d_6">
      <g>
       <use style="stroke:#000000;stroke-width:0.8;" x="414.72" xlink:href="#m6006c81788" y="307.584"/>
      </g>
     </g>
     <g id="text_6">
      <!-- 1.0 -->
      <defs>
       <path d="M 12.40625 8.296875 
L 28.515625 8.296875 
L 28.515625 63.921875 
L 10.984375 60.40625 
L 10.984375 69.390625 
L 28.421875 72.90625 
L 38.28125 72.90625 
L 38.28125 8.296875 
L 54.390625 8.296875 
L 54.390625 0 
L 12.40625 0 
z
" id="DejaVuSans-31"/>
      </defs>
      <g transform="translate(406.768438 322.182437)scale(0.1 -0.1)">
       <use xlink:href="#DejaVuSans-31"/>
       <use x="63.623047" xlink:href="#DejaVuSans-2e"/>
       <use x="95.410156" xlink:href="#DejaVuSans-30"/>
      </g>
     </g>
    </g>
    <g id="text_7">
     <!-- Concentration $(c)$ -->
     <defs>
      <path d="M 64.40625 67.28125 
L 64.40625 56.890625 
Q 59.421875 61.53125 53.78125 63.8125 
Q 48.140625 66.109375 41.796875 66.109375 
Q 29.296875 66.109375 22.65625 58.46875 
Q 16.015625 50.828125 16.015625 36.375 
Q 16.015625 21.96875 22.65625 14.328125 
Q 29.296875 6.6875 41.796875 6.6875 
Q 48.140625 6.6875 53.78125 8.984375 
Q 59.421875 11.28125 64.40625 15.921875 
L 64.40625 5.609375 
Q 59.234375 2.09375 53.4375 0.328125 
Q 47.65625 -1.421875 41.21875 -1.421875 
Q 24.65625 -1.421875 15.125 8.703125 
Q 5.609375 18.84375 5.609375 36.375 
Q 5.609375 53.953125 15.125 64.078125 
Q 24.65625 74.21875 41.21875 74.21875 
Q 47.75 74.21875 53.53125 72.484375 
Q 59.328125 70.75 64.40625 67.28125 
" id="DejaVuSans-43"/>
      <path d="M 30.609375 48.390625 
Q 23.390625 48.390625 19.1875 42.75 
Q 14.984375 37.109375 14.984375 27.296875 
Q 14.984375 17.484375 19.15625 11.84375 
Q 23.34375 6.203125 30.609375 6.203125 
Q 37.796875 6.203125 41.984375 11.859375 
Q 46.1875 17.53125 46.1875 27.296875 
Q 46.1875 37.015625 41.984375 42.703125 
Q 37.796875 48.390625 30.609375 48.390625 
M 30.609375 56 
Q 42.328125 56 49.015625 48.375 
Q 55.71875 40.765625 55.71875 27.296875 
Q 55.71875 13.875 49.015625 6.21875 
Q 42.328125 -1.421875 30.609375 -1.421875 
Q 18.84375 -1.421875 12.171875 6.21875 
Q 5.515625 13.875 5.515625 27.296875 
Q 5.515625 40.765625 12.171875 48.375 
Q 18.84375 56 30.609375 56 
" id="DejaVuSans-6f"/>
      <path d="M 54.890625 33.015625 
L 54.890625 0 
L 45.90625 0 
L 45.90625 32.71875 
Q 45.90625 40.484375 42.875 44.328125 
Q 39.84375 48.1875 33.796875 48.1875 
Q 26.515625 48.1875 22.3125 43.546875 
Q 18.109375 38.921875 18.109375 30.90625 
L 18.109375 0 
L 9.078125 0 
L 9.078125 54.6875 
L 18.109375 54.6875 
L 18.109375 46.1875 
Q 21.34375 51.125 25.703125 53.5625 
Q 30.078125 56 35.796875 56 
Q 45.21875 56 50.046875 50.171875 
Q 54.890625 44.34375 54.890625 33.015625 
" id="DejaVuSans-6e"/>
      <path d="M 48.78125 52.59375 
L 48.78125 44.1875 
Q 44.96875 46.296875 41.140625 47.34375 
Q 37.3125 48.390625 33.40625 48.390625 
Q 24.65625 48.390625 19.8125 42.84375 
Q 14.984375 37.3125 14.984375 27.296875 
Q 14.984375 17.28125 19.8125 11.734375 
Q 24.65625 6.203125 33.40625 6.203125 
Q 37.3125 6.203125 41.140625 7.25 
Q 44.96875 8.296875 48.78125 10.40625 
L 48.78125 2.09375 
Q 45.015625 0.34375 40.984375 -0.53125 
Q 36.96875 -1.421875 32.421875 -1.421875 
Q 20.0625 -1.421875 12.78125 6.34375 
Q 5.515625 14.109375 5.515625 27.296875 
Q 5.515625 40.671875 12.859375 48.328125 
Q 20.21875 56 33.015625 56 
Q 37.15625 56 41.109375 55.140625 
Q 45.0625 54.296875 48.78125 52.59375 
" id="DejaVuSans-63"/>
      <path d="M 56.203125 29.59375 
L 56.203125 25.203125 
L 14.890625 25.203125 
Q 15.484375 15.921875 20.484375 11.0625 
Q 25.484375 6.203125 34.421875 6.203125 
Q 39.59375 6.203125 44.453125 7.46875 
Q 49.3125 8.734375 54.109375 11.28125 
L 54.109375 2.78125 
Q 49.265625 0.734375 44.1875 -0.34375 
Q 39.109375 -1.421875 33.890625 -1.421875 
Q 20.796875 -1.421875 13.15625 6.1875 
Q 5.515625 13.8125 5.515625 26.8125 
Q 5.515625 40.234375 12.765625 48.109375 
Q 20.015625 56 32.328125 56 
Q 43.359375 56 49.78125 48.890625 
Q 56.203125 41.796875 56.203125 29.59375 
M 47.21875 32.234375 
Q 47.125 39.59375 43.09375 43.984375 
Q 39.0625 48.390625 32.421875 48.390625 
Q 24.90625 48.390625 20.390625 44.140625 
Q 15.875 39.890625 15.1875 32.171875 
z
" id="DejaVuSans-65"/>
      <path d="M 18.3125 70.21875 
L 18.3125 54.6875 
L 36.8125 54.6875 
L 36.8125 47.703125 
L 18.3125 47.703125 
L 18.3125 18.015625 
Q 18.3125 11.328125 20.140625 9.421875 
Q 21.96875 7.515625 27.59375 7.515625 
L 36.8125 7.515625 
L 36.8125 0 
L 27.59375 0 
Q 17.1875 0 13.234375 3.875 
Q 9.28125 7.765625 9.28125 18.015625 
L 9.28125 47.703125 
L 2.6875 47.703125 
L 2.6875 54.6875 
L 9.28125 54.6875 
L 9.28125 70.21875 
z
" id="DejaVuSans-74"/>
      <path d="M 41.109375 46.296875 
Q 39.59375 47.171875 37.8125 47.578125 
Q 36.03125 48 33.890625 48 
Q 26.265625 48 22.1875 43.046875 
Q 18.109375 38.09375 18.109375 28.8125 
L 18.109375 0 
L 9.078125 0 
L 9.078125 54.6875 
L 18.109375 54.6875 
L 18.109375 46.1875 
Q 20.953125 51.171875 25.484375 53.578125 
Q 30.03125 56 36.53125 56 
Q 37.453125 56 38.578125 55.875 
Q 39.703125 55.765625 41.0625 55.515625 
z
" id="DejaVuSans-72"/>
      <path d="M 34.28125 27.484375 
Q 23.390625 27.484375 19.1875 25 
Q 14.984375 22.515625 14.984375 16.5 
Q 14.984375 11.71875 18.140625 8.90625 
Q 21.296875 6.109375 26.703125 6.109375 
Q 34.1875 6.109375 38.703125 11.40625 
Q 43.21875 16.703125 43.21875 25.484375 
L 43.21875 27.484375 
z
M 52.203125 31.203125 
L 52.203125 0 
L 43.21875 0 
L 43.21875 8.296875 
Q 40.140625 3.328125 35.546875 0.953125 
Q 30.953125 -1.421875 24.3125 -1.421875 
Q 15.921875 -1.421875 10.953125 3.296875 
Q 6 8.015625 6 15.921875 
Q 6 25.140625 12.171875 29.828125 
Q 18.359375 34.515625 30.609375 34.515625 
L 43.21875 34.515625 
L 43.21875 35.40625 
Q 43.21875 41.609375 39.140625 45 
Q 35.0625 48.390625 27.6875 48.390625 
Q 23 48.390625 18.546875 47.265625 
Q 14.109375 46.140625 10.015625 43.890625 
L 10.015625 52.203125 
Q 14.9375 54.109375 19.578125 55.046875 
Q 24.21875 56 28.609375 56 
Q 40.484375 56 46.34375 49.84375 
Q 52.203125 43.703125 52.203125 31.203125 
" id="DejaVuSans-61"/>
      <path d="M 9.421875 54.6875 
L 18.40625 54.6875 
L 18.40625 0 
L 9.421875 0 
z
M 9.421875 75.984375 
L 18.40625 75.984375 
L 18.40625 64.59375 
L 9.421875 64.59375 
z
" id="DejaVuSans-69"/>
      <path id="DejaVuSans-20"/>
      <path d="M 31 75.875 
Q 24.46875 64.65625 21.28125 53.65625 
Q 18.109375 42.671875 18.109375 31.390625 
Q 18.109375 20.125 21.3125 9.0625 
Q 24.515625 -2 31 -13.1875 
L 23.1875 -13.1875 
Q 15.875 -1.703125 12.234375 9.375 
Q 8.59375 20.453125 8.59375 31.390625 
Q 8.59375 42.28125 12.203125 53.3125 
Q 15.828125 64.359375 23.1875 75.875 
z
" id="DejaVuSans-28"/>
      <path d="M 53.609375 52.59375 
L 51.8125 43.703125 
Q 48.578125 46.046875 44.9375 47.21875 
Q 41.3125 48.390625 37.40625 48.390625 
Q 33.109375 48.390625 29.21875 46.875 
Q 25.34375 45.359375 22.703125 42.578125 
Q 18.5 38.328125 16.203125 32.609375 
Q 13.921875 26.90625 13.921875 20.796875 
Q 13.921875 13.421875 17.609375 9.8125 
Q 21.296875 6.203125 28.8125 6.203125 
Q 32.515625 6.203125 36.6875 7.328125 
Q 40.875 8.453125 45.40625 10.6875 
L 43.703125 1.8125 
Q 39.796875 0.203125 35.671875 -0.609375 
Q 31.546875 -1.421875 27.203125 -1.421875 
Q 16.3125 -1.421875 10.453125 4.015625 
Q 4.59375 9.46875 4.59375 19.578125 
Q 4.59375 28.078125 7.640625 35.234375 
Q 10.6875 42.390625 16.703125 48.09375 
Q 20.796875 52 26.3125 54 
Q 31.84375 56 38.375 56 
Q 42.1875 56 45.9375 55.140625 
Q 49.703125 54.296875 53.609375 52.59375 
" id="DejaVuSans-Oblique-63"/>
      <path d="M 8.015625 75.875 
L 15.828125 75.875 
Q 23.140625 64.359375 26.78125 53.3125 
Q 30.421875 42.28125 30.421875 31.390625 
Q 30.421875 20.453125 26.78125 9.375 
Q 23.140625 -1.703125 15.828125 -13.1875 
L 8.015625 -13.1875 
Q 14.5 -2 17.703125 9.0625 
Q 20.90625 20.125 20.90625 31.390625 
Q 20.90625 42.671875 17.703125 53.65625 
Q 14.5 64.65625 8.015625 75.875 
" id="DejaVuSans-29"/>
     </defs>
     <g transform="translate(192.51 335.860562)scale(0.1 -0.1)">
      <use transform="translate(0 0.015625)" xlink:href="#DejaVuSans-43"/>
      <use transform="translate(69.824219 0.015625)" xlink:href="#DejaVuSans-6f"/>
      <use transform="translate(131.005859 0.015625)" xlink:href="#DejaVuSans-6e"/>
      <use transform="translate(194.384766 0.015625)" xlink:href="#DejaVuSans-63"/>
      <use transform="translate(249.365234 0.015625)" xlink:href="#DejaVuSans-65"/>
      <use transform="translate(310.888672 0.015625)" xlink:href="#DejaVuSans-6e"/>
      <use transform="translate(374.267578 0.015625)" xlink:href="#DejaVuSans-74"/>
      <use transform="translate(413.476562 0.015625)" xlink:href="#DejaVuSans-72"/>
      <use transform="translate(454.589844 0.015625)" xlink:href="#DejaVuSans-61"/>
      <use transform="translate(515.869141 0.015625)" xlink:href="#DejaVuSans-74"/>
      <use transform="translate(555.078125 0.015625)" xlink:href="#DejaVuSans-69"/>
      <use transform="translate(582.861328 0.015625)" xlink:href="#DejaVuSans-6f"/>
      <use transform="translate(644.042969 0.015625)" xlink:href="#DejaVuSans-6e"/>
      <use transform="translate(707.421875 0.015625)" xlink:href="#DejaVuSans-20"/>
      <use transform="translate(739.208984 0.015625)" xlink:href="#DejaVuSans-28"/>
      <use transform="translate(778.222656 0.015625)" xlink:href="#DejaVuSans-Oblique-63"/>
      <use transform="translate(833.203125 0.015625)" xlink:href="#DejaVuSans-29"/>
     </g>
    </g>
   </g>
   <g id="matplotlib.axis_2">
    <g id="ytick_1">
     <g id="line2d_7">
      <defs>
       <path d="M 0 0 
L -3.5 0 
" id="m3bf457c75f" style="stroke:#000000;stroke-width:0.8;"/>
      </defs>
      <g>
       <use style="stroke:#000000;stroke-width:0.8;" x="57.6" xlink:href="#m3bf457c75f" y="307.584"/>
      </g>
     </g>
     <g id="text_8">
      <!-- 0.00 -->
      <g transform="translate(28.334375 311.383219)scale(0.1 -0.1)">
       <use xlink:href="#DejaVuSans-30"/>
       <use x="63.623047" xlink:href="#DejaVuSans-2e"/>
       <use x="95.410156" xlink:href="#DejaVuSans-30"/>
       <use x="159.033203" xlink:href="#DejaVuSans-30"/>
      </g>
     </g>
    </g>
    <g id="ytick_2">
     <g id="line2d_8">
      <g>
       <use style="stroke:#000000;stroke-width:0.8;" x="57.6" xlink:href="#m3bf457c75f" y="274.32"/>
      </g>
     </g>
     <g id="text_9">
      <!-- 0.05 -->
      <defs>
       <path d="M 10.796875 72.90625 
L 49.515625 72.90625 
L 49.515625 64.59375 
L 19.828125 64.59375 
L 19.828125 46.734375 
Q 21.96875 47.46875 24.109375 47.828125 
Q 26.265625 48.1875 28.421875 48.1875 
Q 40.625 48.1875 47.75 41.5 
Q 54.890625 34.8125 54.890625 23.390625 
Q 54.890625 11.625 47.5625 5.09375 
Q 40.234375 -1.421875 26.90625 -1.421875 
Q 22.3125 -1.421875 17.546875 -0.640625 
Q 12.796875 0.140625 7.71875 1.703125 
L 7.71875 11.625 
Q 12.109375 9.234375 16.796875 8.0625 
Q 21.484375 6.890625 26.703125 6.890625 
Q 35.15625 6.890625 40.078125 11.328125 
Q 45.015625 15.765625 45.015625 23.390625 
Q 45.015625 31 40.078125 35.4375 
Q 35.15625 39.890625 26.703125 39.890625 
Q 22.75 39.890625 18.8125 39.015625 
Q 14.890625 38.140625 10.796875 36.28125 
z
" id="DejaVuSans-35"/>
      </defs>
      <g transform="translate(28.334375 278.119219)scale(0.1 -0.1)">
       <use xlink:href="#DejaVuSans-30"/>
       <use x="63.623047" xlink:href="#DejaVuSans-2e"/>
       <use x="95.410156" xlink:href="#DejaVuSans-30"/>
       <use x="159.033203" xlink:href="#DejaVuSans-35"/>
      </g>
     </g>
    </g>
    <g id="ytick_3">
     <g id="line2d_9">
      <g>
       <use style="stroke:#000000;stroke-width:0.8;" x="57.6" xlink:href="#m3bf457c75f" y="241.056"/>
      </g>
     </g>
     <g id="text_10">
      <!-- 0.10 -->
      <g transform="translate(28.334375 244.855219)scale(0.1 -0.1)">
       <use xlink:href="#DejaVuSans-30"/>
       <use x="63.623047" xlink:href="#DejaVuSans-2e"/>
       <use x="95.410156" xlink:href="#DejaVuSans-31"/>
       <use x="159.033203" xlink:href="#DejaVuSans-30"/>
      </g>
     </g>
    </g>
    <g id="ytick_4">
     <g id="line2d_10">
      <g>
       <use style="stroke:#000000;stroke-width:0.8;" x="57.6" xlink:href="#m3bf457c75f" y="207.792"/>
      </g>
     </g>
     <g id="text_11">
      <!-- 0.15 -->
      <g transform="translate(28.334375 211.591219)scale(0.1 -0.1)">
       <use xlink:href="#DejaVuSans-30"/>
       <use x="63.623047" xlink:href="#DejaVuSans-2e"/>
       <use x="95.410156" xlink:href="#DejaVuSans-31"/>
       <use x="159.033203" xlink:href="#DejaVuSans-35"/>
      </g>
     </g>
    </g>
    <g id="ytick_5">
     <g id="line2d_11">
      <g>
       <use style="stroke:#000000;stroke-width:0.8;" x="57.6" xlink:href="#m3bf457c75f" y="174.528"/>
      </g>
     </g>
     <g id="text_12">
      <!-- 0.20 -->
      <g transform="translate(28.334375 178.327219)scale(0.1 -0.1)">
       <use xlink:href="#DejaVuSans-30"/>
       <use x="63.623047" xlink:href="#DejaVuSans-2e"/>
       <use x="95.410156" xlink:href="#DejaVuSans-32"/>
       <use x="159.033203" xlink:href="#DejaVuSans-30"/>
      </g>
     </g>
    </g>
    <g id="ytick_6">
     <g id="line2d_12">
      <g>
       <use style="stroke:#000000;stroke-width:0.8;" x="57.6" xlink:href="#m3bf457c75f" y="141.264"/>
      </g>
     </g>
     <g id="text_13">
      <!-- 0.25 -->
      <g transform="translate(28.334375 145.063219)scale(0.1 -0.1)">
       <use xlink:href="#DejaVuSans-30"/>
       <use x="63.623047" xlink:href="#DejaVuSans-2e"/>
       <use x="95.410156" xlink:href="#DejaVuSans-32"/>
       <use x="159.033203" xlink:href="#DejaVuSans-35"/>
      </g>
     </g>
    </g>
    <g id="ytick_7">
     <g id="line2d_13">
      <g>
       <use style="stroke:#000000;stroke-width:0.8;" x="57.6" xlink:href="#m3bf457c75f" y="108"/>
      </g>
     </g>
     <g id="text_14">
      <!-- 0.30 -->
      <defs>
       <path d="M 40.578125 39.3125 
Q 47.65625 37.796875 51.625 33 
Q 55.609375 28.21875 55.609375 21.1875 
Q 55.609375 10.40625 48.1875 4.484375 
Q 40.765625 -1.421875 27.09375 -1.421875 
Q 22.515625 -1.421875 17.65625 -0.515625 
Q 12.796875 0.390625 7.625 2.203125 
L 7.625 11.71875 
Q 11.71875 9.328125 16.59375 8.109375 
Q 21.484375 6.890625 26.8125 6.890625 
Q 36.078125 6.890625 40.9375 10.546875 
Q 45.796875 14.203125 45.796875 21.1875 
Q 45.796875 27.640625 41.28125 31.265625 
Q 36.765625 34.90625 28.71875 34.90625 
L 20.21875 34.90625 
L 20.21875 43.015625 
L 29.109375 43.015625 
Q 36.375 43.015625 40.234375 45.921875 
Q 44.09375 48.828125 44.09375 54.296875 
Q 44.09375 59.90625 40.109375 62.90625 
Q 36.140625 65.921875 28.71875 65.921875 
Q 24.65625 65.921875 20.015625 65.03125 
Q 15.375 64.15625 9.8125 62.3125 
L 9.8125 71.09375 
Q 15.4375 72.65625 20.34375 73.4375 
Q 25.25 74.21875 29.59375 74.21875 
Q 40.828125 74.21875 47.359375 69.109375 
Q 53.90625 64.015625 53.90625 55.328125 
Q 53.90625 49.265625 50.4375 45.09375 
Q 46.96875 40.921875 40.578125 39.3125 
" id="DejaVuSans-33"/>
      </defs>
      <g transform="translate(28.334375 111.799219)scale(0.1 -0.1)">
       <use xlink:href="#DejaVuSans-30"/>
       <use x="63.623047" xlink:href="#DejaVuSans-2e"/>
       <use x="95.410156" xlink:href="#DejaVuSans-33"/>
       <use x="159.033203" xlink:href="#DejaVuSans-30"/>
      </g>
     </g>
    </g>
    <g id="ytick_8">
     <g id="line2d_14">
      <g>
       <use style="stroke:#000000;stroke-width:0.8;" x="57.6" xlink:href="#m3bf457c75f" y="74.736"/>
      </g>
     </g>
     <g id="text_15">
      <!-- 0.35 -->
      <g transform="translate(28.334375 78.535219)scale(0.1 -0.1)">
       <use xlink:href="#DejaVuSans-30"/>
       <use x="63.623047" xlink:href="#DejaVuSans-2e"/>
       <use x="95.410156" xlink:href="#DejaVuSans-33"/>
       <use x="159.033203" xlink:href="#DejaVuSans-35"/>
      </g>
     </g>
    </g>
    <g id="ytick_9">
     <g id="line2d_15">
      <g>
       <use style="stroke:#000000;stroke-width:0.8;" x="57.6" xlink:href="#m3bf457c75f" y="41.472"/>
      </g>
     </g>
     <g id="text_16">
      <!-- 0.40 -->
      <g transform="translate(28.334375 45.271219)scale(0.1 -0.1)">
       <use xlink:href="#DejaVuSans-30"/>
       <use x="63.623047" xlink:href="#DejaVuSans-2e"/>
       <use x="95.410156" xlink:href="#DejaVuSans-34"/>
       <use x="159.033203" xlink:href="#DejaVuSans-30"/>
      </g>
     </g>
    </g>
    <g id="text_17">
     <!-- Temperature $(T)$ -->
     <defs>
      <path d="M -0.296875 72.90625 
L 61.375 72.90625 
L 61.375 64.59375 
L 35.5 64.59375 
L 35.5 0 
L 25.59375 0 
L 25.59375 64.59375 
L -0.296875 64.59375 
z
" id="DejaVuSans-54"/>
      <path d="M 52 44.1875 
Q 55.375 50.25 60.0625 53.125 
Q 64.75 56 71.09375 56 
Q 79.640625 56 84.28125 50.015625 
Q 88.921875 44.046875 88.921875 33.015625 
L 88.921875 0 
L 79.890625 0 
L 79.890625 32.71875 
Q 79.890625 40.578125 77.09375 44.375 
Q 74.3125 48.1875 68.609375 48.1875 
Q 61.625 48.1875 57.5625 43.546875 
Q 53.515625 38.921875 53.515625 30.90625 
L 53.515625 0 
L 44.484375 0 
L 44.484375 32.71875 
Q 44.484375 40.625 41.703125 44.40625 
Q 38.921875 48.1875 33.109375 48.1875 
Q 26.21875 48.1875 22.15625 43.53125 
Q 18.109375 38.875 18.109375 30.90625 
L 18.109375 0 
L 9.078125 0 
L 9.078125 54.6875 
L 18.109375 54.6875 
L 18.109375 46.1875 
Q 21.1875 51.21875 25.484375 53.609375 
Q 29.78125 56 35.6875 56 
Q 41.65625 56 45.828125 52.96875 
Q 50 49.953125 52 44.1875 
" id="DejaVuSans-6d"/>
      <path d="M 18.109375 8.203125 
L 18.109375 -20.796875 
L 9.078125 -20.796875 
L 9.078125 54.6875 
L 18.109375 54.6875 
L 18.109375 46.390625 
Q 20.953125 51.265625 25.265625 53.625 
Q 29.59375 56 35.59375 56 
Q 45.5625 56 51.78125 48.09375 
Q 58.015625 40.1875 58.015625 27.296875 
Q 58.015625 14.40625 51.78125 6.484375 
Q 45.5625 -1.421875 35.59375 -1.421875 
Q 29.59375 -1.421875 25.265625 0.953125 
Q 20.953125 3.328125 18.109375 8.203125 
M 48.6875 27.296875 
Q 48.6875 37.203125 44.609375 42.84375 
Q 40.53125 48.484375 33.40625 48.484375 
Q 26.265625 48.484375 22.1875 42.84375 
Q 18.109375 37.203125 18.109375 27.296875 
Q 18.109375 17.390625 22.1875 11.75 
Q 26.265625 6.109375 33.40625 6.109375 
Q 40.53125 6.109375 44.609375 11.75 
Q 48.6875 17.390625 48.6875 27.296875 
" id="DejaVuSans-70"/>
      <path d="M 8.5 21.578125 
L 8.5 54.6875 
L 17.484375 54.6875 
L 17.484375 21.921875 
Q 17.484375 14.15625 20.5 10.265625 
Q 23.53125 6.390625 29.59375 6.390625 
Q 36.859375 6.390625 41.078125 11.03125 
Q 45.3125 15.671875 45.3125 23.6875 
L 45.3125 54.6875 
L 54.296875 54.6875 
L 54.296875 0 
L 45.3125 0 
L 45.3125 8.40625 
Q 42.046875 3.421875 37.71875 1 
Q 33.40625 -1.421875 27.6875 -1.421875 
Q 18.265625 -1.421875 13.375 4.4375 
Q 8.5 10.296875 8.5 21.578125 
M 31.109375 56 
z
" id="DejaVuSans-75"/>
      <path d="M 5.90625 72.90625 
L 67.578125 72.90625 
L 66.015625 64.59375 
L 39.984375 64.59375 
L 27.484375 0 
L 17.578125 0 
L 30.078125 64.59375 
L 4.296875 64.59375 
z
" id="DejaVuSans-Oblique-54"/>
     </defs>
     <g transform="translate(22.234375 215.728)rotate(-90)scale(0.1 -0.1)">
      <use transform="translate(0 0.125)" xlink:href="#DejaVuSans-54"/>
      <use transform="translate(61.083984 0.125)" xlink:href="#DejaVuSans-65"/>
      <use transform="translate(122.607422 0.125)" xlink:href="#DejaVuSans-6d"/>
      <use transform="translate(220.019531 0.125)" xlink:href="#DejaVuSans-70"/>
      <use transform="translate(283.496094 0.125)" xlink:href="#DejaVuSans-65"/>
      <use transform="translate(345.019531 0.125)" xlink:href="#DejaVuSans-72"/>
      <use transform="translate(386.132812 0.125)" xlink:href="#DejaVuSans-61"/>
      <use transform="translate(447.412109 0.125)" xlink:href="#DejaVuSans-74"/>
      <use transform="translate(486.621094 0.125)" xlink:href="#DejaVuSans-75"/>
      <use transform="translate(550 0.125)" xlink:href="#DejaVuSans-72"/>
      <use transform="translate(591.113281 0.125)" xlink:href="#DejaVuSans-65"/>
      <use transform="translate(652.636719 0.125)" xlink:href="#DejaVuSans-20"/>
      <use transform="translate(684.423828 0.125)" xlink:href="#DejaVuSans-28"/>
      <use transform="translate(723.4375 0.125)" xlink:href="#DejaVuSans-Oblique-54"/>
      <use transform="translate(784.521484 0.125)" xlink:href="#DejaVuSans-29"/>
     </g>
    </g>
   </g>
   <g id="patch_3">
    <path d="M 57.6 307.584 
L 57.6 41.472 
" style="fill:none;stroke:#000000;stroke-linecap:square;stroke-linejoin:miter;stroke-width:0.8;"/>
   </g>
   <g id="patch_4">
    <path d="M 414.72 307.584 
L 414.72 41.472 
" style="fill:none;stroke:#000000;stroke-linecap:square;stroke-linejoin:miter;stroke-width:0.8;"/>
   </g>
   <g id="patch_5">
    <path d="M 57.6 307.584 
L 414.72 307.584 
" style="fill:none;stroke:#000000;stroke-linecap:square;stroke-linejoin:miter;stroke-width:0.8;"/>
   </g>
   <g id="patch_6">
    <path d="M 57.6 41.472 
L 414.72 41.472 
" style="fill:none;stroke:#000000;stroke-linecap:square;stroke-linejoin:miter;stroke-width:0.8;"/>
   </g>
   <g id="legend_1">
    <g id="patch_7">
     <path d="M 64.6 93.506375 
L 219.529687 93.506375 
Q 221.529687 93.506375 221.529687 91.506375 
L 221.529687 48.472 
Q 221.529687 46.472 219.529687 46.472 
L 64.6 46.472 
Q 62.6 46.472 62.6 48.472 
L 62.6 91.506375 
Q 62.6 93.506375 64.6 93.506375 
z
" style="fill:#ffffff;opacity:0.8;stroke:#cccccc;stroke-linejoin:miter;"/>
    </g>
    <g id="PathCollection_4">
     <g>
      <use style="fill:#1f77b4;stroke:#1f77b4;" x="76.6" xlink:href="#mc52be6fe40" y="55.445438"/>
     </g>
    </g>
    <g id="text_18">
     <!-- liquid-solid coexistance -->
     <defs>
      <path d="M 9.421875 75.984375 
L 18.40625 75.984375 
L 18.40625 0 
L 9.421875 0 
z
" id="DejaVuSans-6c"/>
      <path d="M 14.796875 27.296875 
Q 14.796875 17.390625 18.875 11.75 
Q 22.953125 6.109375 30.078125 6.109375 
Q 37.203125 6.109375 41.296875 11.75 
Q 45.40625 17.390625 45.40625 27.296875 
Q 45.40625 37.203125 41.296875 42.84375 
Q 37.203125 48.484375 30.078125 48.484375 
Q 22.953125 48.484375 18.875 42.84375 
Q 14.796875 37.203125 14.796875 27.296875 
M 45.40625 8.203125 
Q 42.578125 3.328125 38.25 0.953125 
Q 33.9375 -1.421875 27.875 -1.421875 
Q 17.96875 -1.421875 11.734375 6.484375 
Q 5.515625 14.40625 5.515625 27.296875 
Q 5.515625 40.1875 11.734375 48.09375 
Q 17.96875 56 27.875 56 
Q 33.9375 56 38.25 53.625 
Q 42.578125 51.265625 45.40625 46.390625 
L 45.40625 54.6875 
L 54.390625 54.6875 
L 54.390625 -20.796875 
L 45.40625 -20.796875 
z
" id="DejaVuSans-71"/>
      <path d="M 45.40625 46.390625 
L 45.40625 75.984375 
L 54.390625 75.984375 
L 54.390625 0 
L 45.40625 0 
L 45.40625 8.203125 
Q 42.578125 3.328125 38.25 0.953125 
Q 33.9375 -1.421875 27.875 -1.421875 
Q 17.96875 -1.421875 11.734375 6.484375 
Q 5.515625 14.40625 5.515625 27.296875 
Q 5.515625 40.1875 11.734375 48.09375 
Q 17.96875 56 27.875 56 
Q 33.9375 56 38.25 53.625 
Q 42.578125 51.265625 45.40625 46.390625 
M 14.796875 27.296875 
Q 14.796875 17.390625 18.875 11.75 
Q 22.953125 6.109375 30.078125 6.109375 
Q 37.203125 6.109375 41.296875 11.75 
Q 45.40625 17.390625 45.40625 27.296875 
Q 45.40625 37.203125 41.296875 42.84375 
Q 37.203125 48.484375 30.078125 48.484375 
Q 22.953125 48.484375 18.875 42.84375 
Q 14.796875 37.203125 14.796875 27.296875 
" id="DejaVuSans-64"/>
      <path d="M 4.890625 31.390625 
L 31.203125 31.390625 
L 31.203125 23.390625 
L 4.890625 23.390625 
z
" id="DejaVuSans-2d"/>
      <path d="M 44.28125 53.078125 
L 44.28125 44.578125 
Q 40.484375 46.53125 36.375 47.5 
Q 32.28125 48.484375 27.875 48.484375 
Q 21.1875 48.484375 17.84375 46.4375 
Q 14.5 44.390625 14.5 40.28125 
Q 14.5 37.15625 16.890625 35.375 
Q 19.28125 33.59375 26.515625 31.984375 
L 29.59375 31.296875 
Q 39.15625 29.25 43.1875 25.515625 
Q 47.21875 21.78125 47.21875 15.09375 
Q 47.21875 7.46875 41.1875 3.015625 
Q 35.15625 -1.421875 24.609375 -1.421875 
Q 20.21875 -1.421875 15.453125 -0.5625 
Q 10.6875 0.296875 5.421875 2 
L 5.421875 11.28125 
Q 10.40625 8.6875 15.234375 7.390625 
Q 20.0625 6.109375 24.8125 6.109375 
Q 31.15625 6.109375 34.5625 8.28125 
Q 37.984375 10.453125 37.984375 14.40625 
Q 37.984375 18.0625 35.515625 20.015625 
Q 33.0625 21.96875 24.703125 23.78125 
L 21.578125 24.515625 
Q 13.234375 26.265625 9.515625 29.90625 
Q 5.8125 33.546875 5.8125 39.890625 
Q 5.8125 47.609375 11.28125 51.796875 
Q 16.75 56 26.8125 56 
Q 31.78125 56 36.171875 55.265625 
Q 40.578125 54.546875 44.28125 53.078125 
" id="DejaVuSans-73"/>
      <path d="M 54.890625 54.6875 
L 35.109375 28.078125 
L 55.90625 0 
L 45.3125 0 
L 29.390625 21.484375 
L 13.484375 0 
L 2.875 0 
L 24.125 28.609375 
L 4.6875 54.6875 
L 15.28125 54.6875 
L 29.78125 35.203125 
L 44.28125 54.6875 
z
" id="DejaVuSans-78"/>
     </defs>
     <g transform="translate(94.6 58.070438)scale(0.1 -0.1)">
      <use xlink:href="#DejaVuSans-6c"/>
      <use x="27.783203" xlink:href="#DejaVuSans-69"/>
      <use x="55.566406" xlink:href="#DejaVuSans-71"/>
      <use x="119.042969" xlink:href="#DejaVuSans-75"/>
      <use x="182.421875" xlink:href="#DejaVuSans-69"/>
      <use x="210.205078" xlink:href="#DejaVuSans-64"/>
      <use x="273.681641" xlink:href="#DejaVuSans-2d"/>
      <use x="309.765625" xlink:href="#DejaVuSans-73"/>
      <use x="361.865234" xlink:href="#DejaVuSans-6f"/>
      <use x="423.046875" xlink:href="#DejaVuSans-6c"/>
      <use x="450.830078" xlink:href="#DejaVuSans-69"/>
      <use x="478.613281" xlink:href="#DejaVuSans-64"/>
      <use x="542.089844" xlink:href="#DejaVuSans-20"/>
      <use x="573.876953" xlink:href="#DejaVuSans-63"/>
      <use x="628.857422" xlink:href="#DejaVuSans-6f"/>
      <use x="690.039062" xlink:href="#DejaVuSans-65"/>
      <use x="751.546875" xlink:href="#DejaVuSans-78"/>
      <use x="810.726562" xlink:href="#DejaVuSans-69"/>
      <use x="838.509766" xlink:href="#DejaVuSans-73"/>
      <use x="890.609375" xlink:href="#DejaVuSans-74"/>
      <use x="929.818359" xlink:href="#DejaVuSans-61"/>
      <use x="991.097656" xlink:href="#DejaVuSans-6e"/>
      <use x="1054.476562" xlink:href="#DejaVuSans-63"/>
      <use x="1109.457031" xlink:href="#DejaVuSans-65"/>
     </g>
    </g>
    <g id="PathCollection_5">
     <g>
      <use style="fill:#ff7f0e;stroke:#ff7f0e;" x="76.6" xlink:href="#m4f93a6f40b" y="70.123563"/>
     </g>
    </g>
    <g id="text_19">
     <!-- metastable binodal line -->
     <defs>
      <path d="M 48.6875 27.296875 
Q 48.6875 37.203125 44.609375 42.84375 
Q 40.53125 48.484375 33.40625 48.484375 
Q 26.265625 48.484375 22.1875 42.84375 
Q 18.109375 37.203125 18.109375 27.296875 
Q 18.109375 17.390625 22.1875 11.75 
Q 26.265625 6.109375 33.40625 6.109375 
Q 40.53125 6.109375 44.609375 11.75 
Q 48.6875 17.390625 48.6875 27.296875 
M 18.109375 46.390625 
Q 20.953125 51.265625 25.265625 53.625 
Q 29.59375 56 35.59375 56 
Q 45.5625 56 51.78125 48.09375 
Q 58.015625 40.1875 58.015625 27.296875 
Q 58.015625 14.40625 51.78125 6.484375 
Q 45.5625 -1.421875 35.59375 -1.421875 
Q 29.59375 -1.421875 25.265625 0.953125 
Q 20.953125 3.328125 18.109375 8.203125 
L 18.109375 0 
L 9.078125 0 
L 9.078125 75.984375 
L 18.109375 75.984375 
z
" id="DejaVuSans-62"/>
     </defs>
     <g transform="translate(94.6 72.748563)scale(0.1 -0.1)">
      <use xlink:href="#DejaVuSans-6d"/>
      <use x="97.412109" xlink:href="#DejaVuSans-65"/>
      <use x="158.935547" xlink:href="#DejaVuSans-74"/>
      <use x="198.144531" xlink:href="#DejaVuSans-61"/>
      <use x="259.423828" xlink:href="#DejaVuSans-73"/>
      <use x="311.523438" xlink:href="#DejaVuSans-74"/>
      <use x="350.732422" xlink:href="#DejaVuSans-61"/>
      <use x="412.011719" xlink:href="#DejaVuSans-62"/>
      <use x="475.488281" xlink:href="#DejaVuSans-6c"/>
      <use x="503.271484" xlink:href="#DejaVuSans-65"/>
      <use x="564.794922" xlink:href="#DejaVuSans-20"/>
      <use x="596.582031" xlink:href="#DejaVuSans-62"/>
      <use x="660.058594" xlink:href="#DejaVuSans-69"/>
      <use x="687.841797" xlink:href="#DejaVuSans-6e"/>
      <use x="751.220703" xlink:href="#DejaVuSans-6f"/>
      <use x="812.402344" xlink:href="#DejaVuSans-64"/>
      <use x="875.878906" xlink:href="#DejaVuSans-61"/>
      <use x="937.158203" xlink:href="#DejaVuSans-6c"/>
      <use x="964.941406" xlink:href="#DejaVuSans-20"/>
      <use x="996.728516" xlink:href="#DejaVuSans-6c"/>
      <use x="1024.511719" xlink:href="#DejaVuSans-69"/>
      <use x="1052.294922" xlink:href="#DejaVuSans-6e"/>
      <use x="1115.673828" xlink:href="#DejaVuSans-65"/>
     </g>
    </g>
    <g id="PathCollection_6">
     <g>
      <use style="fill:#2ca02c;stroke:#2ca02c;" x="76.6" xlink:href="#m5fb90d55a8" y="84.801688"/>
     </g>
    </g>
    <g id="text_20">
     <!-- metastable spinodal line -->
     <g transform="translate(94.6 87.426688)scale(0.1 -0.1)">
      <use xlink:href="#DejaVuSans-6d"/>
      <use x="97.412109" xlink:href="#DejaVuSans-65"/>
      <use x="158.935547" xlink:href="#DejaVuSans-74"/>
      <use x="198.144531" xlink:href="#DejaVuSans-61"/>
      <use x="259.423828" xlink:href="#DejaVuSans-73"/>
      <use x="311.523438" xlink:href="#DejaVuSans-74"/>
      <use x="350.732422" xlink:href="#DejaVuSans-61"/>
      <use x="412.011719" xlink:href="#DejaVuSans-62"/>
      <use x="475.488281" xlink:href="#DejaVuSans-6c"/>
      <use x="503.271484" xlink:href="#DejaVuSans-65"/>
      <use x="564.794922" xlink:href="#DejaVuSans-20"/>
      <use x="596.582031" xlink:href="#DejaVuSans-73"/>
      <use x="648.681641" xlink:href="#DejaVuSans-70"/>
      <use x="712.158203" xlink:href="#DejaVuSans-69"/>
      <use x="739.941406" xlink:href="#DejaVuSans-6e"/>
      <use x="803.320312" xlink:href="#DejaVuSans-6f"/>
      <use x="864.501953" xlink:href="#DejaVuSans-64"/>
      <use x="927.978516" xlink:href="#DejaVuSans-61"/>
      <use x="989.257812" xlink:href="#DejaVuSans-6c"/>
      <use x="1017.041016" xlink:href="#DejaVuSans-20"/>
      <use x="1048.828125" xlink:href="#DejaVuSans-6c"/>
      <use x="1076.611328" xlink:href="#DejaVuSans-69"/>
      <use x="1104.394531" xlink:href="#DejaVuSans-6e"/>
      <use x="1167.773438" xlink:href="#DejaVuSans-65"/>
     </g>
    </g>
   </g>
  </g>
 </g>
 <defs>
  <clipPath id="pb3429382e6">
   <rect height="266.112" width="357.12" x="57.6" y="41.472"/>
  </clipPath>
 </defs>
</svg>
