<?xml version="1.0" encoding="utf-8" standalone="no"?>
<!DOCTYPE svg PUBLIC "-//W3C//DTD SVG 1.1//EN"
  "http://www.w3.org/Graphics/SVG/1.1/DTD/svg11.dtd">
<!-- Created with matplotlib (http://matplotlib.org/) -->
<svg height="576pt" version="1.1" viewBox="0 0 720 576" width="720pt" xmlns="http://www.w3.org/2000/svg" xmlns:xlink="http://www.w3.org/1999/xlink">
 <defs>
  <style type="text/css">
*{stroke-linecap:butt;stroke-linejoin:round;}
  </style>
 </defs>
 <g id="figure_1">
  <g id="patch_1">
   <path d="M 0 576 
L 720 576 
L 720 0 
L 0 0 
z
" style="fill:#ffffff;"/>
  </g>
  <g id="axes_1">
   <g id="patch_2">
    <path d="M 90 504 
L 648 504 
L 648 69.12 
L 90 69.12 
z
" style="fill:#ffffff;"/>
   </g>
   <g id="patch_3">
    <path clip-path="url(#p44d0454e73)" d="M 244.158945 415.292892 
L 341.229547 415.292892 
L 341.229547 332.629863 
L 244.158945 332.629863 
L 244.158945 415.292892 
z
" style="fill:none;stroke:#000000;stroke-linejoin:miter;"/>
   </g>
   <g id="patch_4">
    <path clip-path="url(#p44d0454e73)" d="M 484.795462 275.323461 
L 641.234935 275.323461 
L 641.234935 145.597399 
L 484.795462 145.597399 
L 484.795462 275.323461 
z
" style="fill:none;stroke:#000000;stroke-linejoin:miter;"/>
   </g>
   <g id="matplotlib.axis_1">
    <g id="xtick_1">
     <g id="line2d_1">
      <path clip-path="url(#p44d0454e73)" d="M 205.795462 504 
L 205.795462 69.12 
" style="fill:none;stroke:#b0b0b0;stroke-dasharray:9.6,2.4,1.6,2.4;stroke-dashoffset:0;stroke-width:0.8;"/>
     </g>
     <g id="line2d_2">
      <defs>
       <path d="M 0 0 
L 0 2 
" id="m7671d74f86" style="stroke:#000000;stroke-width:0.6;"/>
      </defs>
      <g>
       <use style="stroke:#000000;stroke-width:0.6;" x="205.795462" xlink:href="#m7671d74f86" y="504"/>
      </g>
     </g>
     <g id="text_1">
      <!-- $2\times10^{5}$ -->
      <defs>
       <path d="M 41.703125 15.453125 
L 39.90625 15.453125 
C 38.90625 8.375 38.09375 7.171875 37.703125 6.5625 
C 37.203125 5.765625 30 5.765625 28.59375 5.765625 
L 9.40625 5.765625 
C 13 9.671875 20 16.75 28.5 24.953125 
C 34.59375 30.734375 41.703125 37.53125 41.703125 47.421875 
C 41.703125 59.21875 32.296875 66 21.796875 66 
C 10.796875 66 4.09375 56.3125 4.09375 47.34375 
C 4.09375 43.4375 7 42.9375 8.203125 42.9375 
C 9.203125 42.9375 12.203125 43.546875 12.203125 47.03125 
C 12.203125 50.109375 9.59375 51 8.203125 51 
C 7.59375 51 7 50.90625 6.59375 50.703125 
C 8.5 59.21875 14.296875 63.40625 20.40625 63.40625 
C 29.09375 63.40625 34.796875 56.515625 34.796875 47.421875 
C 34.796875 38.734375 29.703125 31.25 24 24.75 
L 4.09375 2.28125 
L 4.09375 0 
L 39.296875 0 
z
" id="CMR17-50"/>
       <path d="M 38.90625 27.890625 
L 18.90625 47.796875 
C 17.703125 49 17.5 49.1875 16.703125 49.1875 
C 15.703125 49.1875 14.703125 48.296875 14.703125 47.1875 
C 14.703125 46.5 14.90625 46.296875 16 45.1875 
L 36 25.09375 
L 16 5 
C 14.90625 3.890625 14.703125 3.6875 14.703125 3 
C 14.703125 1.890625 15.703125 1 16.703125 1 
C 17.5 1 17.703125 1.1875 18.90625 2.390625 
L 38.796875 22.296875 
L 59.5 1.59375 
C 59.703125 1.5 60.40625 1 61 1 
C 62.203125 1 63 1.890625 63 3 
C 63 3.1875 63 3.59375 62.703125 4.09375 
C 62.59375 4.296875 46.703125 20 41.703125 25.09375 
L 60 43.390625 
C 60.5 44 62 45.296875 62.5 45.890625 
C 62.59375 46.09375 63 46.5 63 47.1875 
C 63 48.296875 62.203125 49.1875 61 49.1875 
C 60.203125 49.1875 59.796875 48.796875 58.703125 47.6875 
z
" id="CMSY10-2"/>
       <path d="M 26.59375 63.40625 
C 26.59375 65.5 26.5 65.5 25.09375 65.5 
C 21.203125 61.1875 15.296875 59.796875 9.703125 59.796875 
C 9.40625 59.796875 8.90625 59.796875 8.796875 59.5 
C 8.703125 59.296875 8.703125 59.09375 8.703125 57 
C 11.796875 57 17 57.59375 21 59.984375 
L 21 7.203125 
C 21 3.6875 20.796875 2.5 12.203125 2.5 
L 9.203125 2.5 
L 9.203125 0 
C 14 0 19 0 23.796875 0 
C 28.59375 0 33.59375 0 38.40625 0 
L 38.40625 2.5 
L 35.40625 2.5 
C 26.796875 2.5 26.59375 3.59375 26.59375 7.15625 
z
" id="CMR17-49"/>
       <path d="M 42 31.640625 
C 42 37.75 41.90625 48.125 37.703125 56.109375 
C 34 63.109375 28.09375 65.59375 22.90625 65.59375 
C 18.09375 65.59375 12 63.40625 8.203125 56.203125 
C 4.203125 48.71875 3.796875 39.4375 3.796875 31.640625 
C 3.796875 25.953125 3.90625 17.28125 7 9.671875 
C 11.296875 -0.609375 19 -2 22.90625 -2 
C 27.5 -2 34.5 -0.109375 38.59375 9.375 
C 41.59375 16.28125 42 24.359375 42 31.640625 
M 22.90625 -0.40625 
C 16.5 -0.40625 12.703125 5.078125 11.296875 12.6875 
C 10.203125 18.5625 10.203125 27.15625 10.203125 32.75 
C 10.203125 40.4375 10.203125 46.828125 11.5 52.921875 
C 13.40625 61.390625 19 64 22.90625 64 
C 27 64 32.296875 61.296875 34.203125 53.125 
C 35.5 47.4375 35.59375 40.734375 35.59375 32.75 
C 35.59375 26.25 35.59375 18.265625 34.40625 12.375 
C 32.296875 1.484375 26.40625 -0.40625 22.90625 -0.40625 
" id="CMR17-48"/>
       <path d="M 11.40625 57.6875 
C 12.40625 57.28125 16.5 56 20.703125 56 
C 30 56 35.09375 61.109375 38 64.0625 
C 38 64.953125 38 65.5 37.40625 65.5 
C 37.296875 65.5 37.09375 65.5 36.296875 65.046875 
C 32.796875 63.40625 28.703125 62.078125 23.703125 62.078125 
C 20.703125 62.078125 16.203125 62.484375 11.296875 64.671875 
C 10.203125 65.171875 10 65.171875 9.90625 65.171875 
C 9.40625 65.171875 9.296875 65.0625 9.296875 63.078125 
L 9.296875 34.421875 
C 9.296875 32.640625 9.296875 32.140625 10.296875 32.140625 
C 10.796875 32.140625 11 32.34375 11.5 33.03125 
C 14.703125 37.515625 19.09375 39.40625 24.09375 39.40625 
C 27.59375 39.40625 35.09375 37.21875 35.09375 20.140625 
C 35.09375 16.953125 35.09375 11.171875 32.09375 6.578125 
C 29.59375 2.484375 25.703125 0.390625 21.40625 0.390625 
C 14.796875 0.390625 8.09375 5 6.296875 12.71875 
C 6.703125 12.609375 7.5 12.421875 7.90625 12.421875 
C 9.203125 12.421875 11.703125 13.125 11.703125 16.21875 
C 11.703125 18.90625 9.796875 20 7.90625 20 
C 5.59375 20 4.09375 18.59375 4.09375 15.796875 
C 4.09375 7.09375 11 -2 21.59375 -2 
C 31.90625 -2 41.703125 6.875 41.703125 19.75 
C 41.703125 31.71875 33.90625 41 24.203125 41 
C 19.09375 41 14.796875 39.109375 11.40625 35.53125 
z
" id="CMR17-53"/>
      </defs>
      <g transform="translate(190.249603 516.402655)scale(0.1 -0.1)">
       <use transform="scale(0.996264)" xlink:href="#CMR17-50"/>
       <use transform="translate(67.829684 0)scale(0.996264)" xlink:href="#CMSY10-2"/>
       <use transform="translate(167.456359 0)scale(0.996264)" xlink:href="#CMR17-49"/>
       <use transform="translate(213.146836 0)scale(0.996264)" xlink:href="#CMR17-48"/>
       <use transform="translate(258.837313 36.153639)scale(0.697382)" xlink:href="#CMR17-53"/>
      </g>
     </g>
    </g>
    <g id="xtick_2">
     <g id="line2d_3">
      <path clip-path="url(#p44d0454e73)" d="M 369 504 
L 369 69.12 
" style="fill:none;stroke:#b0b0b0;stroke-dasharray:9.6,2.4,1.6,2.4;stroke-dashoffset:0;stroke-width:0.8;"/>
     </g>
     <g id="line2d_4">
      <g>
       <use style="stroke:#000000;stroke-width:0.6;" x="369" xlink:href="#m7671d74f86" y="504"/>
      </g>
     </g>
     <g id="text_2">
      <!-- $3\times10^{5}$ -->
      <defs>
       <path d="M 22.09375 33.703125 
C 31 33.703125 34.90625 25.96875 34.90625 17.03125 
C 34.90625 5 28.5 0.390625 22.703125 0.390625 
C 17.40625 0.390625 8.796875 3.03125 6.09375 10.828125 
C 6.59375 10.625 7.09375 10.625 7.59375 10.625 
C 10 10.625 11.796875 12.21875 11.796875 14.8125 
C 11.796875 17.703125 9.59375 19 7.59375 19 
C 5.90625 19 3.296875 18.203125 3.296875 14.46875 
C 3.296875 5.234375 12.296875 -2 22.90625 -2 
C 34 -2 42.5 6.71875 42.5 16.953125 
C 42.5 26.671875 34.5 33.703125 25 34.796875 
C 32.59375 36.375 39.90625 43.0625 39.90625 52.015625 
C 39.90625 59.6875 32 65.296875 23 65.296875 
C 13.90625 65.296875 5.90625 59.828125 5.90625 52.015625 
C 5.90625 48.59375 8.5 48 9.796875 48 
C 11.90625 48 13.703125 49.296875 13.703125 51.890625 
C 13.703125 54.46875 11.90625 55.765625 9.796875 55.765625 
C 9.40625 55.765625 8.90625 55.765625 8.5 55.578125 
C 11.40625 61.859375 19.296875 63 22.796875 63 
C 26.296875 63 32.90625 61.328125 32.90625 51.875 
C 32.90625 49.109375 32.5 44.1875 29.09375 39.84375 
C 26.09375 36 22.703125 36 19.40625 35.6875 
C 18.90625 35.6875 16.59375 35.453125 16.203125 35.453125 
C 15.5 35.359375 15.09375 35.265625 15.09375 34.5 
C 15.09375 33.796875 15.203125 33.703125 17.203125 33.703125 
z
" id="CMR17-51"/>
      </defs>
      <g transform="translate(353.45414 516.402655)scale(0.1 -0.1)">
       <use transform="scale(0.996264)" xlink:href="#CMR17-51"/>
       <use transform="translate(67.829684 0)scale(0.996264)" xlink:href="#CMSY10-2"/>
       <use transform="translate(167.456359 0)scale(0.996264)" xlink:href="#CMR17-49"/>
       <use transform="translate(213.146836 0)scale(0.996264)" xlink:href="#CMR17-48"/>
       <use transform="translate(258.837313 36.153639)scale(0.697382)" xlink:href="#CMR17-53"/>
      </g>
     </g>
    </g>
    <g id="xtick_3">
     <g id="line2d_5">
      <path clip-path="url(#p44d0454e73)" d="M 484.795462 504 
L 484.795462 69.12 
" style="fill:none;stroke:#b0b0b0;stroke-dasharray:9.6,2.4,1.6,2.4;stroke-dashoffset:0;stroke-width:0.8;"/>
     </g>
     <g id="line2d_6">
      <g>
       <use style="stroke:#000000;stroke-width:0.6;" x="484.795462" xlink:href="#m7671d74f86" y="504"/>
      </g>
     </g>
     <g id="text_3">
      <!-- $4\times10^{5}$ -->
      <defs>
       <path d="M 33.59375 64.40625 
C 33.59375 66.5 33.5 66.5 31.703125 66.5 
L 2 19.59375 
L 2 17 
L 27.796875 17 
L 27.796875 7.140625 
C 27.796875 3.5 27.59375 2.5 20.59375 2.5 
L 18.703125 2.5 
L 18.703125 0 
C 21.90625 0 27.296875 0 30.703125 0 
C 34.09375 0 39.5 0 42.703125 0 
L 42.703125 2.5 
L 40.796875 2.5 
C 33.796875 2.5 33.59375 3.5 33.59375 7.140625 
L 33.59375 17 
L 43.796875 17 
L 43.796875 19.59375 
L 33.59375 19.59375 
z
M 28.09375 57.859375 
L 28.09375 19.59375 
L 4 19.59375 
z
" id="CMR17-52"/>
      </defs>
      <g transform="translate(469.249603 516.402655)scale(0.1 -0.1)">
       <use transform="scale(0.996264)" xlink:href="#CMR17-52"/>
       <use transform="translate(67.829684 0)scale(0.996264)" xlink:href="#CMSY10-2"/>
       <use transform="translate(167.456359 0)scale(0.996264)" xlink:href="#CMR17-49"/>
       <use transform="translate(213.146836 0)scale(0.996264)" xlink:href="#CMR17-48"/>
       <use transform="translate(258.837313 36.153639)scale(0.697382)" xlink:href="#CMR17-53"/>
      </g>
     </g>
    </g>
    <g id="xtick_4">
     <g id="line2d_7">
      <path clip-path="url(#p44d0454e73)" d="M 574.613401 504 
L 574.613401 69.12 
" style="fill:none;stroke:#b0b0b0;stroke-dasharray:9.6,2.4,1.6,2.4;stroke-dashoffset:0;stroke-width:0.8;"/>
     </g>
     <g id="line2d_8">
      <g>
       <use style="stroke:#000000;stroke-width:0.6;" x="574.613401" xlink:href="#m7671d74f86" y="504"/>
      </g>
     </g>
    </g>
    <g id="xtick_5">
     <g id="line2d_9">
      <path clip-path="url(#p44d0454e73)" d="M 648 504 
L 648 69.12 
" style="fill:none;stroke:#b0b0b0;stroke-dasharray:9.6,2.4,1.6,2.4;stroke-dashoffset:0;stroke-width:0.8;"/>
     </g>
     <g id="line2d_10">
      <g>
       <use style="stroke:#000000;stroke-width:0.6;" x="648" xlink:href="#m7671d74f86" y="504"/>
      </g>
     </g>
     <g id="text_4">
      <!-- $6\times10^{5}$ -->
      <defs>
       <path d="M 10.59375 34 
C 10.59375 57.65625 21.796875 63 28.296875 63 
C 30.40625 63 35.5 62.640625 37.5 59 
C 35.90625 59 32.90625 59 32.90625 55.515625 
C 32.90625 52.828125 35.09375 51.921875 36.5 51.921875 
C 37.40625 51.921875 40.09375 52.3125 40.09375 55.625 
C 40.09375 61.78125 35.09375 65.296875 28.203125 65.296875 
C 16.296875 65.296875 3.796875 52.96875 3.796875 31 
C 3.796875 3.953125 15.09375 -2 23.09375 -2 
C 32.796875 -2 42 6.671875 42 20.046875 
C 42 32.515625 33.90625 41.59375 23.703125 41.59375 
C 17.59375 41.59375 13.09375 37.609375 10.59375 30.625 
z
M 23.09375 0.390625 
C 10.796875 0.390625 10.796875 18.75 10.796875 22.4375 
C 10.796875 29.625 14.203125 40 23.5 40 
C 25.203125 40 30.09375 40 33.40625 33.125 
C 35.203125 29.21875 35.203125 25.140625 35.203125 20.140625 
C 35.203125 14.75 35.203125 10.78125 33.09375 6.78125 
C 30.90625 2.671875 27.703125 0.390625 23.09375 0.390625 
" id="CMR17-54"/>
      </defs>
      <g transform="translate(632.45414 516.402655)scale(0.1 -0.1)">
       <use transform="scale(0.996264)" xlink:href="#CMR17-54"/>
       <use transform="translate(67.829684 0)scale(0.996264)" xlink:href="#CMSY10-2"/>
       <use transform="translate(167.456359 0)scale(0.996264)" xlink:href="#CMR17-49"/>
       <use transform="translate(213.146836 0)scale(0.996264)" xlink:href="#CMR17-48"/>
       <use transform="translate(258.837313 36.153639)scale(0.697382)" xlink:href="#CMR17-53"/>
      </g>
     </g>
    </g>
    <g id="text_5">
     <!-- Time ($\Delta t$) -->
     <defs>
      <path d="M 36.203125 62 
L 44.5 62 
C 45.703125 62 46.90625 62 48.09375 62 
L 60.59375 62 
L 60.59375 68.375 
L 3.40625 68.375 
L 3.40625 62 
L 15.90625 62 
C 17.09375 62 18.296875 62 19.5 62 
L 27.796875 62 
L 27.796875 -0.5 
L 36.203125 -0.5 
z
" id="CMSS17-84"/>
      <path d="M 15.296875 65.359375 
L 6.90625 65.359375 
L 6.90625 57 
L 15.296875 57 
z
M 14.796875 42.796875 
L 7.40625 42.796875 
L 7.40625 0 
L 14.796875 0 
z
" id="CMSS17-105"/>
      <path d="M 67 29.328125 
C 67 36.0625 65.296875 44 54.09375 44 
C 46.59375 44 42.09375 39.3125 40.09375 36.421875 
C 38.296875 41.71875 34.09375 44 28.09375 44 
C 21.296875 44 17 40.125 14.703125 37.328125 
L 14.703125 43.09375 
L 7.40625 43.09375 
L 7.40625 0 
L 15 0 
L 15 24.359375 
C 15 30.296875 17.203125 37.9375 24.296875 37.9375 
C 33.40625 37.9375 33.40625 31.5 33.40625 28.578125 
L 33.40625 0 
L 41 0 
L 41 24.359375 
C 41 30.296875 43.203125 37.9375 50.296875 37.9375 
C 59.40625 37.9375 59.40625 31.5 59.40625 28.578125 
L 59.40625 0 
L 67 0 
z
" id="CMSS17-109"/>
      <path d="M 39.09375 21.515625 
C 39.09375 24.84375 38.90625 31.296875 35.703125 36.640625 
C 32.203125 42.390625 26.5 44 22.203125 44 
C 11.796875 44 3 34.1875 3 21.484375 
C 3 9.09375 12.09375 -1 23.59375 -1 
C 28.09375 -1 33.59375 0.296875 38.59375 3.875 
C 38.59375 4.28125 38.40625 6.46875 38.296875 6.5625 
C 38.296875 6.765625 38 9.84375 38 10.25 
C 33.203125 6.359375 27.703125 5.078125 23.703125 5.078125 
C 17.296875 5.078125 10.40625 10.421875 10.09375 21.515625 
z
M 10.90625 27 
C 12.203125 32.5625 16.59375 37.828125 22.203125 37.828125 
C 23.703125 37.828125 30.703125 37.828125 32.5 27 
z
" id="CMSS17-101"/>
      <path d="M 25.203125 74.5 
C 19.796875 69.015625 7.40625 56.265625 7.40625 24.8125 
C 7.40625 -6.765625 19.796875 -19.421875 25.203125 -25 
L 31.296875 -25 
C 19 -12.25 15 5.578125 15 24.703125 
C 15 43.71875 18.796875 61.65625 31.296875 74.5 
z
" id="CMSS17-40"/>
      <path d="M 40.59375 68.796875 
C 39.796875 70.5 39.40625 70.5 38.59375 70.5 
C 37.40625 70.5 37.296875 70.296875 36.59375 68.890625 
L 4.203125 1.703125 
C 4.09375 1.5 3.703125 0.59375 3.703125 0.5 
C 3.703125 0.09375 3.796875 0 5.59375 0 
L 71.5 0 
C 73.296875 0 73.40625 0.09375 73.40625 0.5 
C 73.40625 0.59375 73 1.5 72.90625 1.703125 
z
M 36.09375 63.09375 
L 63.796875 5.59375 
L 8.296875 5.59375 
z
" id="CMR17-1"/>
      <path d="M 20.09375 40.09375 
L 29.296875 40.09375 
C 31.203125 40.09375 32.203125 40.09375 32.203125 41.890625 
C 32.203125 43 31.59375 43 29.59375 43 
L 20.796875 43 
L 24.5 57.6875 
C 24.90625 59.078125 24.90625 59.28125 24.90625 60 
C 24.90625 61.609375 23.59375 62.5 22.296875 62.5 
C 21.5 62.5 19.203125 62.203125 18.40625 58.984375 
L 14.5 43 
L 5.09375 43 
C 3.09375 43 2.203125 43 2.203125 41.09375 
C 2.203125 40.09375 2.90625 40.09375 4.796875 40.09375 
L 13.703125 40.09375 
L 7.09375 13.765625 
C 6.296875 10.28125 6 9.28125 6 7.984375 
C 6 3.296875 9.296875 -1 14.90625 -1 
C 25 -1 30.40625 13.5625 30.40625 14.25 
C 30.40625 14.859375 30 15.15625 29.40625 15.15625 
C 29.203125 15.15625 28.796875 15.15625 28.59375 14.75 
C 28.5 14.65625 28.40625 14.546875 27.703125 12.953125 
C 25.59375 7.984375 21 1 15.203125 1 
C 12.203125 1 12 3.5 12 5.6875 
C 12 5.78125 12 7.6875 12.296875 8.875 
z
" id="CMMI12-116"/>
      <path d="M 11.296875 -25 
C 16.703125 -19.515625 29.09375 -6.765625 29.09375 24.703125 
C 29.09375 56.265625 16.703125 68.921875 11.296875 74.5 
L 5.203125 74.5 
C 17.5 61.75 21.5 43.921875 21.5 24.8125 
C 21.5 5.78125 17.703125 -12.15625 5.203125 -25 
z
" id="CMSS17-41"/>
     </defs>
     <g transform="translate(334.20955 534.295002)scale(0.16 -0.16)">
      <use transform="scale(0.996264)" xlink:href="#CMSS17-84"/>
      <use transform="translate(63.819454 0)scale(0.996264)" xlink:href="#CMSS17-105"/>
      <use transform="translate(86.000177 0)scale(0.996264)" xlink:href="#CMSS17-109"/>
      <use transform="translate(160.229431 0)scale(0.996264)" xlink:href="#CMSS17-101"/>
      <use transform="translate(233.097366 0)scale(0.996264)" xlink:href="#CMSS17-40"/>
      <use transform="translate(269.53128 0)scale(0.996264)" xlink:href="#CMR17-1"/>
      <use transform="translate(346.45087 0)scale(0.996264)" xlink:href="#CMMI12-116"/>
      <use transform="translate(381.6772 0)scale(0.996264)" xlink:href="#CMSS17-41"/>
     </g>
    </g>
   </g>
   <g id="matplotlib.axis_2">
    <g id="ytick_1">
     <g id="line2d_11">
      <path clip-path="url(#p44d0454e73)" d="M 90 364.030569 
L 648 364.030569 
" style="fill:none;stroke:#b0b0b0;stroke-dasharray:9.6,2.4,1.6,2.4;stroke-dashoffset:0;stroke-width:0.8;"/>
     </g>
     <g id="line2d_12">
      <defs>
       <path d="M 0 0 
L -2 0 
" id="m4dc6790cb4" style="stroke:#000000;stroke-width:0.6;"/>
      </defs>
      <g>
       <use style="stroke:#000000;stroke-width:0.6;" x="90" xlink:href="#m4dc6790cb4" y="364.030569"/>
      </g>
     </g>
     <g id="text_6">
      <!-- $3\times10^{2}$ -->
      <g transform="translate(53.508281 367.531897)scale(0.1 -0.1)">
       <use transform="scale(0.996264)" xlink:href="#CMR17-51"/>
       <use transform="translate(67.829684 0)scale(0.996264)" xlink:href="#CMSY10-2"/>
       <use transform="translate(167.456359 0)scale(0.996264)" xlink:href="#CMR17-49"/>
       <use transform="translate(213.146836 0)scale(0.996264)" xlink:href="#CMR17-48"/>
       <use transform="translate(258.837313 36.153639)scale(0.697382)" xlink:href="#CMR17-50"/>
      </g>
     </g>
    </g>
    <g id="ytick_2">
     <g id="line2d_13">
      <path clip-path="url(#p44d0454e73)" d="M 90 224.061138 
L 648 224.061138 
" style="fill:none;stroke:#b0b0b0;stroke-dasharray:9.6,2.4,1.6,2.4;stroke-dashoffset:0;stroke-width:0.8;"/>
     </g>
     <g id="line2d_14">
      <g>
       <use style="stroke:#000000;stroke-width:0.6;" x="90" xlink:href="#m4dc6790cb4" y="224.061138"/>
      </g>
     </g>
     <g id="text_7">
      <!-- $4\times10^{2}$ -->
      <g transform="translate(53.508281 227.562465)scale(0.1 -0.1)">
       <use transform="scale(0.996264)" xlink:href="#CMR17-52"/>
       <use transform="translate(67.829684 0)scale(0.996264)" xlink:href="#CMSY10-2"/>
       <use transform="translate(167.456359 0)scale(0.996264)" xlink:href="#CMR17-49"/>
       <use transform="translate(213.146836 0)scale(0.996264)" xlink:href="#CMR17-48"/>
       <use transform="translate(258.837313 36.153639)scale(0.697382)" xlink:href="#CMR17-50"/>
      </g>
     </g>
    </g>
    <g id="ytick_3">
     <g id="line2d_15">
      <path clip-path="url(#p44d0454e73)" d="M 90 115.492412 
L 648 115.492412 
" style="fill:none;stroke:#b0b0b0;stroke-dasharray:9.6,2.4,1.6,2.4;stroke-dashoffset:0;stroke-width:0.8;"/>
     </g>
     <g id="line2d_16">
      <g>
       <use style="stroke:#000000;stroke-width:0.6;" x="90" xlink:href="#m4dc6790cb4" y="115.492412"/>
      </g>
     </g>
     <g id="text_8">
      <!-- $5\times10^{2}$ -->
      <g transform="translate(53.508281 118.99374)scale(0.1 -0.1)">
       <use transform="scale(0.996264)" xlink:href="#CMR17-53"/>
       <use transform="translate(67.829684 0)scale(0.996264)" xlink:href="#CMSY10-2"/>
       <use transform="translate(167.456359 0)scale(0.996264)" xlink:href="#CMR17-49"/>
       <use transform="translate(213.146836 0)scale(0.996264)" xlink:href="#CMR17-48"/>
       <use transform="translate(258.837313 36.153639)scale(0.697382)" xlink:href="#CMR17-50"/>
      </g>
     </g>
    </g>
    <g id="text_9">
     <!-- Average droplet radius $\langle R \rangle$ -->
     <defs>
      <path d="M 35.5 69 
L 26.90625 69 
L 2.59375 0 
L 10.203125 0 
L 17.203125 20 
L 44 20 
L 51.09375 0 
L 59.796875 0 
z
M 42.09375 25.578125 
L 19.09375 25.578125 
C 23.90625 39.5 29.90625 56.84375 30.59375 61.328125 
L 30.703125 61.328125 
C 31.40625 57.234375 33.40625 51.265625 35.09375 46.1875 
z
" id="CMSS17-65"/>
      <path d="M 41.796875 43 
L 34 43 
L 27.296875 24.3125 
C 25.203125 18.203125 22.203125 9.796875 21.703125 5.5 
L 21.59375 5.5 
C 21.40625 7.3125 20.59375 9.90625 20.09375 11.703125 
C 19.5 13.90625 18.703125 16.5 18.09375 18.3125 
L 9.296875 43 
L 1.296875 43 
L 17.09375 0 
L 26 0 
z
" id="CMSS17-118"/>
      <path d="M 14.90625 21.296875 
C 14.90625 30.703125 21.796875 37 30.59375 37 
L 30.59375 43.578125 
C 24.203125 43.578125 18.203125 40.390625 14.59375 35.203125 
L 14.59375 43.09375 
L 7.5 43.09375 
L 7.5 0 
L 14.90625 0 
z
" id="CMSS17-114"/>
      <path d="M 37.59375 27.984375 
C 37.59375 37.375 30.90625 43.875 21.90625 43.875 
C 17.5 43.875 12.703125 43.078125 7.203125 39.890625 
L 7.796875 33.359375 
C 10.296875 35.125 14.59375 38 21.796875 38 
C 26.90625 38 30 34.0625 30 27.84375 
L 30 24 
C 14 24 4 19.34375 4 11.34375 
C 4 7.203125 6.5 -1 14.796875 -1 
C 16.296875 -1 24.40625 -1 30.203125 3.390625 
L 30.203125 -0.296875 
L 37.59375 -0.296875 
z
M 30 12.75 
C 30 10.953125 30 8.5625 27 6.78125 
C 24.40625 5.078125 21.09375 5.078125 19.703125 5.078125 
C 14.703125 5.078125 11.296875 7.984375 11.296875 11.625 
C 11.296875 18.921875 26.90625 18.921875 30 18.921875 
z
" id="CMSS17-97"/>
      <path d="M 44.5 43.875 
C 38.796875 43.875 33.90625 42.78125 29.90625 40.890625 
C 26.59375 43.390625 23.203125 43.875 20.90625 43.875 
C 12.203125 43.875 5.59375 36.703125 5.59375 28.34375 
C 5.59375 22.9375 8.59375 18.859375 8.796875 18.671875 
C 7 16.171875 6 13.484375 6 10.5 
C 6 7 7.40625 4.515625 8.5 3.125 
C 3.296875 -0.046875 2.59375 -4.90625 2.59375 -6.796875 
C 2.59375 -14.03125 11.703125 -20 23.40625 -20 
C 35.203125 -20 44.296875 -14.03125 44.296875 -6.6875 
C 44.296875 7 29 7 24.796875 7 
L 16.703125 7 
C 15.203125 7 11.203125 7 11.203125 12.359375 
C 11.203125 14.390625 12.09375 15.6875 12.203125 15.78125 
C 13.703125 14.6875 16.796875 13 20.90625 13 
C 29.203125 13 36.09375 19.96875 36.09375 28.546875 
C 36.09375 33.3125 33.90625 36.796875 33 38 
L 33.296875 38 
C 33.59375 38 37.796875 38 39.296875 38 
C 42.5 38 42.796875 37.953125 45.59375 37.796875 
z
M 20.90625 18.46875 
C 17.5 18.46875 12.703125 20.546875 12.703125 28.484375 
C 12.703125 37.109375 18.203125 38.5 20.796875 38.5 
C 24.203125 38.5 29 36.421875 29 28.484375 
C 29 19.859375 23.5 18.46875 20.90625 18.46875 
M 24.703125 -0.15625 
C 27.09375 -0.15625 37.203125 -0.15625 37.203125 -6.90625 
C 37.203125 -11.15625 31 -14.515625 23.5 -14.515625 
C 15.90625 -14.515625 9.703125 -11.25 9.703125 -6.796875 
C 9.703125 -6.296875 9.703125 -0.15625 16.59375 -0.15625 
z
" id="CMSS17-103"/>
      <path d="M 40.796875 69 
L 33.40625 69 
L 33.40625 38.09375 
C 30.296875 40.671875 25.203125 43.0625 19.59375 43.0625 
C 10.5 43.0625 3.296875 33.296875 3.296875 21.046875 
C 3.296875 8.78125 10.40625 -1 19.296875 -1 
C 26.203125 -1 30.796875 2.6875 33.203125 4.78125 
L 33.203125 -0.203125 
L 40.796875 -0.203125 
z
M 33.203125 13.0625 
C 33.203125 11.671875 33.203125 10.203125 30.09375 7.53125 
C 28.09375 5.859375 25.703125 5.078125 23.40625 5.078125 
C 18 5.078125 10.90625 9 10.90625 20.9375 
C 10.90625 33.34375 18.90625 37 24.40625 37 
C 28.09375 37 31.09375 35.21875 33.203125 32.265625 
z
" id="CMSS17-100"/>
      <path d="M 44.203125 21.1875 
C 44.203125 34 34.703125 44 23.5 44 
C 12 44 2.703125 33.703125 2.703125 21.1875 
C 2.703125 8.5 12.296875 -1 23.40625 -1 
C 34.796875 -1 44.203125 8.796875 44.203125 21.1875 
M 23.5 5.265625 
C 16.40625 5.265625 10.296875 11.078125 10.296875 22 
C 10.296875 33.609375 17.40625 37.921875 23.40625 37.921875 
C 29.90625 37.921875 36.59375 33.21875 36.59375 22 
C 36.59375 10.671875 30.09375 5.265625 23.5 5.265625 
" id="CMSS17-111"/>
      <path d="M 15.09375 5.203125 
C 18.40625 2.015625 22.90625 -0.078125 27.703125 -0.078125 
C 37 -0.078125 45 9.421875 45 22.0625 
C 45 33.734375 39 44 30.40625 44 
C 25.40625 44 19.40625 42.21875 14.90625 38.625 
L 14.90625 43.203125 
L 7.5 43.203125 
L 7.5 -19 
L 15.09375 -19 
z
M 15.09375 32.8125 
C 15.90625 34 19.296875 37.734375 24.796875 37.734375 
C 31.796875 37.734375 37.40625 30.625 37.40625 22.0625 
C 37.40625 12.296875 30.59375 6 23.90625 6 
C 21.90625 6 19.796875 6.484375 17.796875 8.171875 
C 15.09375 10.53125 15.09375 12 15.09375 13.390625 
z
" id="CMSS17-112"/>
      <path d="M 14.796875 69 
L 7.40625 69 
L 7.40625 0 
L 14.796875 0 
z
" id="CMSS17-108"/>
      <path d="M 16.703125 37 
L 29.703125 37 
L 29.703125 42.765625 
L 16.703125 42.765625 
L 16.703125 55 
L 9.59375 55 
L 9.59375 42.765625 
L 1.703125 42.765625 
L 1.703125 37 
L 9.40625 37 
L 9.40625 11.703125 
C 9.40625 6 10.703125 -1 17.296875 -1 
C 22.296875 -1 26.90625 0.390625 31.296875 2.6875 
L 29.703125 8.5625 
C 27.296875 6.46875 24.40625 5.265625 21.296875 5.265625 
C 16.90625 5.265625 16.703125 10.875 16.703125 13.375 
z
" id="CMSS17-116"/>
      <path d="M 40.90625 42.796875 
L 33.296875 42.796875 
L 33.296875 15.1875 
C 33.296875 7.78125 27.90625 4.78125 22.203125 4.78125 
C 15.59375 4.78125 15 6.984375 15 11.078125 
L 15 42.796875 
L 7.40625 42.796875 
L 7.40625 10.59375 
C 7.40625 2.796875 10.09375 -1 17 -1 
C 20.40625 -1 28.09375 -0.203125 33.5 4.78125 
L 33.5 0 
L 40.90625 0 
z
" id="CMSS17-117"/>
      <path d="M 32.203125 41.046875 
C 26.296875 43.859375 21.703125 43.859375 18.703125 43.859375 
C 11.59375 43.859375 3.09375 41.375 3.09375 31.296875 
C 3.09375 21.234375 14.09375 19.03125 17.09375 18.421875 
C 21.703125 17.53125 26.796875 16.53125 26.796875 11.5625 
C 26.796875 5.265625 19.59375 5.265625 18.296875 5.265625 
C 14.296875 5.265625 8.796875 6.359375 3.796875 9.96875 
L 2.59375 3.28125 
C 8.296875 0 13.796875 -1 18.40625 -1 
C 30.703125 -1 33.796875 6.5 33.796875 12.203125 
C 33.796875 17.09375 31 20.390625 29.09375 21.890625 
C 25.796875 24.5 24.59375 24.796875 16.40625 26.5 
C 15 26.703125 10.09375 27.796875 10.09375 32.28125 
C 10.09375 38 16.40625 38 17.796875 38 
C 24.296875 38 28.296875 35.984375 31 34.5 
z
" id="CMSS17-115"/>
      <path d="M 32.796875 71.203125 
C 33.296875 72.296875 33.296875 72.5 33.296875 73 
C 33.296875 74.09375 32.40625 75 31.296875 75 
C 30.40625 75 29.703125 74.5 29 72.703125 
L 11.5 26.796875 
C 11.296875 26.203125 11 25.59375 11 25 
C 11 24.703125 11 24.5 11.5 23.296875 
L 29 -22.59375 
C 29.40625 -23.703125 29.90625 -25 31.296875 -25 
C 32.40625 -25 33.296875 -24.09375 33.296875 -23 
C 33.296875 -22.703125 33.296875 -22.5 32.796875 -21.40625 
L 15.09375 25 
z
" id="CMSY10-104"/>
      <path d="M 36.796875 61.3125 
C 37.703125 65 38.09375 65 42 65 
L 49.203125 65 
C 57.796875 65 64.203125 62.421875 64.203125 54.671875 
C 64.203125 49.609375 61.59375 35 41.5 35 
L 30.203125 35 
z
M 50.703125 33.890625 
C 63.09375 36.578125 72.796875 44.546875 72.796875 53.09375 
C 72.796875 60.84375 64.90625 68 51 68 
L 23.90625 68 
C 21.90625 68 21 68 21 66.03125 
C 21 65 21.703125 65 23.59375 65 
C 29.59375 65 29.59375 64.25 29.59375 63.203125 
C 29.59375 63.015625 29.59375 62.40625 29.203125 60.921875 
L 15.703125 7.484375 
C 14.796875 4 14.59375 3 7.703125 3 
C 5.40625 3 4.703125 3 4.703125 1.109375 
C 4.703125 0.109375 5.796875 0.109375 6.09375 0.109375 
C 7.90625 0.109375 10 0.109375 11.90625 0.109375 
L 23.703125 0.109375 
C 25.5 0.109375 27.59375 0.109375 29.40625 0.109375 
C 30.203125 0.109375 31.296875 0.109375 31.296875 2 
C 31.296875 3 30.40625 3 28.90625 3 
C 22.796875 3 22.796875 3.796875 22.796875 4.78125 
C 22.796875 4.890625 22.796875 5.578125 23 6.359375 
L 29.703125 33 
L 41.703125 33 
C 51.203125 33 53 27.046875 53 23.78125 
C 53 22.296875 52 18.421875 51.296875 15.84375 
C 50.203125 11.296875 49.90625 10.1875 49.90625 8.3125 
C 49.90625 1.28125 55.703125 -2 62.40625 -2 
C 70.5 -2 74 7.828125 74 9.234375 
C 74 9.921875 73.5 10.21875 72.90625 10.21875 
C 72.09375 10.21875 71.90625 9.625 71.703125 8.828125 
C 69.296875 1.78125 65.203125 0 62.703125 0 
C 60.203125 0 58.59375 1.09375 58.59375 5.5625 
C 58.59375 7.953125 59.796875 17 59.90625 17.5 
C 60.40625 21.171875 60.40625 21.5625 60.40625 22.375 
C 60.40625 29.625 54.5 32.703125 50.703125 33.890625 
" id="CMMI12-82"/>
      <path d="M 27.296875 23.296875 
C 27.796875 24.5 27.796875 24.703125 27.796875 25 
C 27.796875 25.296875 27.796875 25.5 27.296875 26.703125 
L 9.796875 72.703125 
C 9.203125 74.40625 8.59375 75 7.5 75 
C 6.40625 75 5.5 74.09375 5.5 73 
C 5.5 72.703125 5.5 72.5 6 71.40625 
L 23.703125 25 
L 6 -21.203125 
C 5.5 -22.296875 5.5 -22.5 5.5 -23 
C 5.5 -24.09375 6.40625 -25 7.5 -25 
C 8.796875 -25 9.203125 -24 9.59375 -23 
z
" id="CMSY10-105"/>
     </defs>
     <g transform="translate(45.523225 374.427328)rotate(-90)scale(0.16 -0.16)">
      <use transform="scale(0.996264)" xlink:href="#CMSS17-65"/>
      <use transform="translate(62.217855 0)scale(0.996264)" xlink:href="#CMSS17-118"/>
      <use transform="translate(105.217997 0)scale(0.996264)" xlink:href="#CMSS17-101"/>
      <use transform="translate(146.856819 0)scale(0.996264)" xlink:href="#CMSS17-114"/>
      <use transform="translate(178.766591 0)scale(0.996264)" xlink:href="#CMSS17-97"/>
      <use transform="translate(223.688512 0)scale(0.996264)" xlink:href="#CMSS17-103"/>
      <use transform="translate(270.532135 0)scale(0.996264)" xlink:href="#CMSS17-101"/>
      <use transform="translate(343.40007 0)scale(0.996264)" xlink:href="#CMSS17-100"/>
      <use transform="translate(391.605013 0)scale(0.996264)" xlink:href="#CMSS17-114"/>
      <use transform="translate(423.514786 0)scale(0.996264)" xlink:href="#CMSS17-111"/>
      <use transform="translate(470.358409 0)scale(0.996264)" xlink:href="#CMSS17-112"/>
      <use transform="translate(518.563353 0)scale(0.996264)" xlink:href="#CMSS17-108"/>
      <use transform="translate(540.744076 0)scale(0.996264)" xlink:href="#CMSS17-101"/>
      <use transform="translate(582.382898 0)scale(0.996264)" xlink:href="#CMSS17-116"/>
      <use transform="translate(647.443577 0)scale(0.996264)" xlink:href="#CMSS17-114"/>
      <use transform="translate(679.35335 0)scale(0.996264)" xlink:href="#CMSS17-97"/>
      <use transform="translate(724.27527 0)scale(0.996264)" xlink:href="#CMSS17-100"/>
      <use transform="translate(772.480213 0)scale(0.996264)" xlink:href="#CMSS17-105"/>
      <use transform="translate(794.660936 0)scale(0.996264)" xlink:href="#CMSS17-117"/>
      <use transform="translate(842.86588 0)scale(0.996264)" xlink:href="#CMSS17-115"/>
      <use transform="translate(910.008534 0)scale(0.996264)" xlink:href="#CMSY10-104"/>
      <use transform="translate(948.752268 0)scale(0.996264)" xlink:href="#CMMI12-82"/>
      <use transform="translate(1023.82323 0)scale(0.996264)" xlink:href="#CMSY10-105"/>
     </g>
    </g>
   </g>
   <g id="line2d_17">
    <path clip-path="url(#p44d0454e73)" d="M 215.734533 422.00422 
L 217.693232 420.500077 
L 219.642446 418.599477 
L 221.582267 417.512112 
L 223.512783 416.101164 
L 227.346259 413.017195 
L 231.143569 410.862049 
L 233.028875 409.564527 
L 234.90539 408.456619 
L 236.773198 407.955314 
L 240.483012 405.426649 
L 244.158945 403.196417 
L 247.801612 401.132193 
L 249.610657 399.866188 
L 256.766613 395.449877 
L 262.05131 391.999297 
L 268.991342 387.52979 
L 282.522429 378.524502 
L 297.220237 368.805531 
L 306.728835 362.571748 
L 338.344145 342.207725 
L 369 322.742971 
L 392.45393 308.109725 
L 412.213083 296.059321 
L 431.047486 284.8458 
L 456.665463 269.878558 
L 533.098016 225.724831 
L 559.019756 210.741984 
L 588.849098 193.378358 
L 610.775355 180.63422 
L 632.26686 168.105172 
L 653.331362 155.8123 
L 660.548558 151.565011 
L 680.836917 139.685363 
L 714.052612 120.081209 
L 721 116.065202 
L 721 116.065202 
" style="fill:none;stroke:#1f77b4;stroke-linecap:square;"/>
   </g>
   <g id="line2d_18">
    <path clip-path="url(#p44d0454e73)" d="M 145.087452 473.249166 
L 147.420861 471.390172 
L 152.047486 468.660831 
L 156.621534 465.510753 
L 158.889213 464.341382 
L 163.386599 461.109685 
L 167.83429 458.630104 
L 170.03984 457.199769 
L 176.584894 453.340642 
L 178.74314 451.866279 
L 185.1493 447.80044 
L 189.364123 445.175606 
L 201.750082 437.185936 
L 209.800589 431.841095 
L 219.642446 425.279974 
L 245.984399 407.925969 
L 260.297442 398.893488 
L 279.182062 387.37027 
L 300.414793 374.711471 
L 328.079168 358.877067 
L 349.763688 346.566269 
L 363.597074 338.648639 
L 371.674508 333.988839 
L 398.733494 317.957471 
L 403.68755 314.914295 
L 450.1381 287.118826 
L 460.958964 280.610316 
L 463.088662 279.369065 
L 465.207151 278.064422 
L 478.712043 269.992329 
L 480.750082 268.637251 
L 482.777854 267.511223 
L 485.800486 265.591808 
L 488.800589 263.759293 
L 493.751598 260.603995 
L 494.734533 260.084389 
L 496.693232 258.772038 
L 497.669019 258.258864 
L 498.642446 257.414703 
L 502.512783 254.91158 
L 509.197595 251.320922 
L 510.143569 250.534575 
L 513.90539 248.532247 
L 514.840378 247.884002 
L 515.773198 247.390237 
L 516.703862 246.730772 
L 520.405147 244.779362 
L 521.325175 244.146468 
L 522.243104 243.670131 
L 523.158945 243.01738 
L 524.072707 242.54474 
L 524.984399 241.874865 
L 525.894031 241.401146 
L 526.801612 240.707978 
L 527.707151 240.231945 
L 528.610657 239.50052 
L 539.297442 233.668935 
L 540.175331 232.96375 
L 543.667864 231.139426 
L 544.536283 230.423298 
L 547.991342 228.634012 
L 548.850493 227.865383 
L 553.967239 225.205781 
L 554.813741 224.448779 
L 558.182062 222.71144 
L 559.019756 221.83177 
L 571.380356 215.324635 
L 573.000124 214.526047 
L 573.807571 213.893498 
L 580.209486 210.687225 
L 715.189652 129.165457 
L 715.189652 129.165457 
" style="fill:none;stroke:#ff7f0e;stroke-linecap:square;"/>
   </g>
   <g id="line2d_19">
    <path clip-path="url(#p44d0454e73)" d="M 90 487.897946 
L 721 106.532782 
L 721 106.532782 
" style="fill:none;stroke:#000000;stroke-dasharray:9.6,2.4,1.6,2.4;stroke-dashoffset:0;"/>
   </g>
   <g id="line2d_20">
    <path clip-path="url(#p44d0454e73)" d="M 90 509.79234 
L 721 128.427175 
L 721 128.427175 
" style="fill:none;stroke:#000000;stroke-dasharray:9.6,2.4,1.6,2.4;stroke-dashoffset:0;"/>
   </g>
   <g id="patch_5">
    <path d="M 90 504 
L 90 69.12 
" style="fill:none;stroke:#000000;stroke-linecap:square;stroke-linejoin:miter;stroke-width:0.8;"/>
   </g>
   <g id="patch_6">
    <path d="M 648 504 
L 648 69.12 
" style="fill:none;stroke:#000000;stroke-linecap:square;stroke-linejoin:miter;stroke-width:0.8;"/>
   </g>
   <g id="patch_7">
    <path d="M 90 504 
L 648 504 
" style="fill:none;stroke:#000000;stroke-linecap:square;stroke-linejoin:miter;stroke-width:0.8;"/>
   </g>
   <g id="patch_8">
    <path d="M 90 69.12 
L 648 69.12 
" style="fill:none;stroke:#000000;stroke-linecap:square;stroke-linejoin:miter;stroke-width:0.8;"/>
   </g>
   <g id="text_10">
    <!-- Droplet growth rates -->
    <defs>
     <path d="M 8.90625 69 
L 8.90625 0 
L 33.5 0 
C 49.90625 0 62.5 15.3125 62.5 33.90625 
C 62.5 53.09375 49.90625 69 33.5 69 
z
M 17.09375 5.578125 
L 17.09375 63.421875 
L 31.296875 63.421875 
C 44.703125 63.421875 54.296875 51.203125 54.296875 33.90625 
C 54.296875 17.296875 44.796875 5.578125 31.296875 5.578125 
z
" id="CMSS17-68"/>
     <path d="M 62.703125 43 
L 55.09375 43 
L 49.796875 25.015625 
C 48.703125 21.21875 45.59375 10.703125 45.203125 5.796875 
L 45.09375 5.796875 
C 44.90625 8.8125 43.203125 16 40.40625 25.515625 
L 35.296875 43 
L 28.40625 43 
L 23.40625 25.90625 
C 20.90625 17.203125 19 9.796875 18.796875 5.796875 
L 18.703125 5.796875 
C 18.296875 11.703125 14.203125 25.515625 13.59375 27.703125 
L 9.09375 43 
L 1.296875 43 
L 14.296875 0 
L 21.90625 0 
C 27.09375 17.125 31.09375 30.359375 31.40625 37.03125 
C 31.59375 33.75 33.296875 26.671875 34.296875 23.1875 
L 40.90625 0 
L 49.703125 0 
z
" id="CMSS17-119"/>
     <path d="M 40.90625 29.546875 
C 40.90625 35.8125 39.40625 44.0625 28.09375 44.0625 
C 21.796875 44.0625 17.703125 40.984375 14.796875 37.609375 
L 14.796875 69.5 
L 7.40625 69.5 
L 7.40625 0.5 
L 15 0.5 
L 15 24.578125 
C 15 30.828125 17.40625 38 24.203125 38 
C 33 38 33.296875 32.125 33.296875 28.734375 
L 33.296875 0.5 
L 40.90625 0.5 
z
" id="CMSS17-104"/>
    </defs>
    <g transform="translate(295.949135 63.12)scale(0.18 -0.18)">
     <use transform="scale(0.996264)" xlink:href="#CMSS17-68"/>
     <use transform="translate(67.542842 0)scale(0.996264)" xlink:href="#CMSS17-114"/>
     <use transform="translate(99.452614 0)scale(0.996264)" xlink:href="#CMSS17-111"/>
     <use transform="translate(146.296238 0)scale(0.996264)" xlink:href="#CMSS17-112"/>
     <use transform="translate(194.501181 0)scale(0.996264)" xlink:href="#CMSS17-108"/>
     <use transform="translate(216.681904 0)scale(0.996264)" xlink:href="#CMSS17-101"/>
     <use transform="translate(258.320726 0)scale(0.996264)" xlink:href="#CMSS17-116"/>
     <use transform="translate(323.381405 0)scale(0.996264)" xlink:href="#CMSS17-103"/>
     <use transform="translate(370.225029 0)scale(0.996264)" xlink:href="#CMSS17-114"/>
     <use transform="translate(402.134802 0)scale(0.996264)" xlink:href="#CMSS17-111"/>
     <use transform="translate(446.375971 0)scale(0.996264)" xlink:href="#CMSS17-119"/>
     <use transform="translate(510.195516 0)scale(0.996264)" xlink:href="#CMSS17-116"/>
     <use transform="translate(544.027083 0)scale(0.996264)" xlink:href="#CMSS17-104"/>
     <use transform="translate(623.461139 0)scale(0.996264)" xlink:href="#CMSS17-114"/>
     <use transform="translate(655.370911 0)scale(0.996264)" xlink:href="#CMSS17-97"/>
     <use transform="translate(700.292832 0)scale(0.996264)" xlink:href="#CMSS17-116"/>
     <use transform="translate(734.124399 0)scale(0.996264)" xlink:href="#CMSS17-101"/>
     <use transform="translate(775.763221 0)scale(0.996264)" xlink:href="#CMSS17-115"/>
    </g>
   </g>
   <g id="legend_1">
    <g id="patch_9">
     <path d="M 500.936253 138.856085 
L 638.2 138.856085 
Q 641 138.856085 641 136.056085 
L 641 78.92 
Q 641 76.12 638.2 76.12 
L 500.936253 76.12 
Q 498.136253 76.12 498.136253 78.92 
L 498.136253 136.056085 
Q 498.136253 138.856085 500.936253 138.856085 
z
" style="fill:#ffffff;opacity:0.8;stroke:#cccccc;stroke-linejoin:miter;"/>
    </g>
    <g id="line2d_21">
     <path d="M 503.736253 86.62 
L 531.736253 86.62 
" style="fill:none;stroke:#1f77b4;stroke-linecap:square;"/>
    </g>
    <g id="line2d_22"/>
    <g id="text_11">
     <!-- Solid -->
     <defs>
      <path d="M 43.703125 65.140625 
C 39.296875 67.71875 34.5 70 26.40625 70 
C 13.5 70 5.203125 60.609375 5.203125 51.03125 
C 5.203125 47.265625 6.296875 43.015625 10.203125 38.671875 
C 14.09375 34.3125 18.5 33.140625 24.09375 31.765625 
C 26.40625 31.15625 30.296875 30.0625 31 29.78125 
C 36.59375 27.609375 39.296875 22.5625 39.296875 17.8125 
C 39.296875 11.59375 34.40625 4.96875 25.703125 4.96875 
C 22.703125 4.96875 13.90625 4.96875 5.59375 12.796875 
L 4.203125 4.96875 
C 12.40625 -1 21.296875 -2 25.796875 -2 
C 38.09375 -2 46.90625 7.625 46.90625 18.53125 
C 46.90625 22.5 45.703125 27.546875 41.5 32.203125 
C 37.40625 36.671875 33.796875 37.65625 25.59375 39.828125 
C 20.90625 41.03125 17.90625 41.828125 15.40625 44.890625 
C 13.703125 47.078125 12.796875 49.15625 12.796875 51.828125 
C 12.796875 57.390625 17.59375 63.4375 26.40625 63.4375 
C 30.796875 63.4375 36.5 62.53125 42.296875 57.1875 
z
" id="CMSS17-83"/>
     </defs>
     <g transform="translate(542.936253 91.52)scale(0.14 -0.14)">
      <use transform="scale(0.996264)" xlink:href="#CMSS17-83"/>
      <use transform="translate(52.048516 0)scale(0.996264)" xlink:href="#CMSS17-111"/>
      <use transform="translate(98.89214 0)scale(0.996264)" xlink:href="#CMSS17-108"/>
      <use transform="translate(121.072863 0)scale(0.996264)" xlink:href="#CMSS17-105"/>
      <use transform="translate(143.253586 0)scale(0.996264)" xlink:href="#CMSS17-100"/>
     </g>
    </g>
    <g id="line2d_23">
     <path d="M 503.736253 106.132028 
L 531.736253 106.132028 
" style="fill:none;stroke:#ff7f0e;stroke-linecap:square;"/>
    </g>
    <g id="line2d_24"/>
    <g id="text_12">
     <!-- Liquid -->
     <defs>
      <path d="M 26.09375 6.46875 
C 24.90625 6.46875 23.703125 6.46875 22.5 6.46875 
L 17.203125 6.46875 
L 17.203125 69 
L 8.796875 69 
L 8.796875 0 
L 46.90625 0 
L 46.90625 6.46875 
z
" id="CMSS17-76"/>
      <path d="M 40.796875 44 
L 33.40625 44 
L 33.40625 37.9375 
C 33 38.4375 28.40625 44 20.59375 44 
C 11.5 44 3.296875 34.8125 3.296875 21.859375 
C 3.296875 9.890625 10.203125 -0.078125 19.203125 -0.078125 
C 23.40625 -0.078125 28.703125 1.421875 33.203125 5.703125 
L 33.203125 -19 
L 40.796875 -19 
z
M 33.40625 14.28125 
C 33.40625 13 33.40625 11.21875 30.296875 8.65625 
C 29.5 7.96875 27.296875 6 23.5 6 
C 16.40625 6 10.90625 13.28125 10.90625 21.859375 
C 10.90625 31.421875 17.59375 37.734375 24.40625 37.734375 
C 30.09375 37.734375 33.40625 32.203125 33.40625 28.078125 
z
" id="CMSS17-113"/>
     </defs>
     <g transform="translate(542.936253 111.032028)scale(0.14 -0.14)">
      <use transform="scale(0.996264)" xlink:href="#CMSS17-76"/>
      <use transform="translate(50.687105 0)scale(0.996264)" xlink:href="#CMSS17-105"/>
      <use transform="translate(72.867828 0)scale(0.996264)" xlink:href="#CMSS17-113"/>
      <use transform="translate(121.072772 0)scale(0.996264)" xlink:href="#CMSS17-117"/>
      <use transform="translate(169.277715 0)scale(0.996264)" xlink:href="#CMSS17-105"/>
      <use transform="translate(191.458438 0)scale(0.996264)" xlink:href="#CMSS17-100"/>
     </g>
    </g>
    <g id="line2d_25">
     <path d="M 503.736253 125.644057 
L 531.736253 125.644057 
" style="fill:none;stroke:#000000;stroke-dasharray:9.6,2.4,1.6,2.4;stroke-dashoffset:0;"/>
    </g>
    <g id="line2d_26"/>
    <g id="text_13">
     <!-- Diffusive growth -->
     <defs>
      <path d="M 16.796875 37 
L 27.09375 37 
L 27.09375 42.765625 
L 16.59375 42.765625 
L 16.59375 55.609375 
C 16.59375 62.515625 21.796875 63.9375 25.203125 63.9375 
C 28.703125 63.9375 31.59375 63.03125 32.703125 62.640625 
L 32.703125 69.203125 
C 31.59375 69.40625 28.59375 70 25.296875 70 
C 16.09375 70 9.40625 62.484375 9.40625 52.484375 
L 9.40625 42.765625 
L 2.5 42.765625 
L 2.5 37 
L 9.40625 37 
L 9.40625 0 
L 16.796875 0 
z
M 42.796875 37 
L 53.09375 37 
L 53.09375 42.765625 
L 42.59375 42.765625 
L 42.59375 55.609375 
C 42.59375 62.515625 47.796875 63.9375 51.203125 63.9375 
C 54.703125 63.9375 57.59375 63.03125 58.703125 62.640625 
L 58.703125 69.203125 
C 57.59375 69.40625 54.59375 70 51.296875 70 
C 42.09375 70 35.40625 62.515625 35.40625 52.546875 
L 35.40625 0 
L 42.796875 0 
z
" id="CMSS17-11"/>
     </defs>
     <g transform="translate(542.936253 130.544057)scale(0.14 -0.14)">
      <use transform="scale(0.996264)" xlink:href="#CMSS17-68"/>
      <use transform="translate(67.542842 0)scale(0.996264)" xlink:href="#CMSS17-105"/>
      <use transform="translate(89.723565 0)scale(0.996264)" xlink:href="#CMSS17-11"/>
      <use transform="translate(144.374535 0)scale(0.996264)" xlink:href="#CMSS17-117"/>
      <use transform="translate(192.579478 0)scale(0.996264)" xlink:href="#CMSS17-115"/>
      <use transform="translate(228.49302 0)scale(0.996264)" xlink:href="#CMSS17-105"/>
      <use transform="translate(250.673743 0)scale(0.996264)" xlink:href="#CMSS17-118"/>
      <use transform="translate(293.673885 0)scale(0.996264)" xlink:href="#CMSS17-101"/>
      <use transform="translate(366.541819 0)scale(0.996264)" xlink:href="#CMSS17-103"/>
      <use transform="translate(413.385443 0)scale(0.996264)" xlink:href="#CMSS17-114"/>
      <use transform="translate(445.295216 0)scale(0.996264)" xlink:href="#CMSS17-111"/>
      <use transform="translate(489.536385 0)scale(0.996264)" xlink:href="#CMSS17-119"/>
      <use transform="translate(553.35593 0)scale(0.996264)" xlink:href="#CMSS17-116"/>
      <use transform="translate(587.187497 0)scale(0.996264)" xlink:href="#CMSS17-104"/>
     </g>
    </g>
   </g>
  </g>
  <g id="axes_2">
   <g id="patch_10">
    <path d="M 95 272.51127 
L 327.969444 272.51127 
L 327.969444 74.12 
L 95 74.12 
z
" style="fill:#ffffff;"/>
   </g>
   <g id="patch_11">
    <path d="M 95 272.51127 
L 244.158945 415.292892 
" style="fill:none;stroke:#000000;stroke-linejoin:miter;"/>
   </g>
   <g id="patch_12">
    <path d="M 327.969444 74.12 
L 341.229547 332.629863 
" style="fill:none;stroke:#000000;stroke-linejoin:miter;"/>
   </g>
   <g id="line2d_27">
    <path clip-path="url(#pa9c4c95a53)" d="M 26.78141 288.618456 
L 31.482289 285.008514 
L 36.160403 280.447074 
L 40.815971 277.837397 
L 45.449211 274.451123 
L 54.649553 267.049597 
L 63.763098 261.877246 
L 68.28783 258.763194 
L 72.791468 256.104215 
L 77.274207 254.901082 
L 86.17776 248.832287 
L 90.598951 245.996153 
L 103.7424 238.525592 
L 108.084109 235.487179 
L 116.709421 230.142902 
L 125.258403 224.888032 
L 133.732392 219.306691 
L 154.597752 205.879823 
L 175.02195 192.200483 
L 191.055988 181.606926 
L 214.61883 166.002429 
L 233.824802 153.434919 
L 252.656365 141.122958 
L 285.654858 119.793779 
L 327.969444 92.684681 
L 378.382374 60.634631 
L 416.900244 36.406019 
L 450.907963 15.271669 
L 477.453608 -1 
L 477.453608 -1 
" style="fill:none;stroke:#1f77b4;stroke-linecap:square;stroke-width:2;"/>
   </g>
   <g id="line2d_28">
    <path clip-path="url(#pa9c4c95a53)" d="M -1 321.279817 
L 81.736241 266.201194 
L 99.38109 254.830655 
L 120.993369 241.104248 
L 162.819322 215.36771 
L 175.02195 207.948251 
L 202.909249 191.115326 
L 218.490693 181.825695 
L 233.824802 172.917337 
L 271.127838 151.436037 
L 321.044478 123.167196 
L 358.531773 101.815974 
L 365.194065 98.02454 
L 381.651509 88.565061 
L 391.393057 82.970893 
L 459.97872 42.63739 
L 477.86865 31.602638 
L 492.527939 22.96416 
L 495.43329 21.340484 
L 504.097282 16.093455 
L 512.68426 10.903855 
L 532.850559 -1 
L 532.850559 -1 
" style="fill:none;stroke:#ff7f0e;stroke-linecap:square;stroke-width:2;"/>
   </g>
   <g id="line2d_29">
    <path clip-path="url(#pa9c4c95a53)" d="M -1 281.173879 
L 465.879867 -1 
L 465.879867 -1 
" style="fill:none;stroke:#000000;stroke-dasharray:9.6,2.4,1.6,2.4;stroke-dashoffset:0;stroke-width:2;"/>
   </g>
   <g id="line2d_30">
    <path clip-path="url(#pa9c4c95a53)" d="M -1 333.720422 
L 552.822441 -1 
L 552.822441 -1 
" style="fill:none;stroke:#000000;stroke-dasharray:9.6,2.4,1.6,2.4;stroke-dashoffset:0;stroke-width:2;"/>
   </g>
   <g id="patch_13">
    <path d="M 95 272.51127 
L 95 74.12 
" style="fill:none;stroke:#000000;stroke-linecap:square;stroke-linejoin:miter;stroke-width:0.8;"/>
   </g>
   <g id="patch_14">
    <path d="M 327.969444 272.51127 
L 327.969444 74.12 
" style="fill:none;stroke:#000000;stroke-linecap:square;stroke-linejoin:miter;stroke-width:0.8;"/>
   </g>
   <g id="patch_15">
    <path d="M 95 272.51127 
L 327.969444 272.51127 
" style="fill:none;stroke:#000000;stroke-linecap:square;stroke-linejoin:miter;stroke-width:0.8;"/>
   </g>
   <g id="patch_16">
    <path d="M 95 74.12 
L 327.969444 74.12 
" style="fill:none;stroke:#000000;stroke-linecap:square;stroke-linejoin:miter;stroke-width:0.8;"/>
   </g>
  </g>
  <g id="axes_3">
   <g id="patch_17">
    <path d="M 423.984739 499 
L 643 499 
L 643 317.383513 
L 423.984739 317.383513 
z
" style="fill:#ffffff;"/>
   </g>
   <g id="patch_18">
    <path d="M 423.984739 317.383513 
L 484.795462 145.597399 
" style="fill:none;stroke:#000000;stroke-linejoin:miter;"/>
   </g>
   <g id="patch_19">
    <path d="M 643 317.383513 
L 641.234935 145.597399 
" style="fill:none;stroke:#000000;stroke-linejoin:miter;"/>
   </g>
   <g id="line2d_31">
    <path clip-path="url(#pedde372d38)" d="M 243.501228 577 
L 273.030202 558.380089 
L 298.239625 542.724634 
L 320.679701 529.048923 
L 342.260297 516.156445 
L 369.288844 500.293513 
L 419.742435 471.022294 
L 463.426608 445.784562 
L 480.249251 436.071825 
L 525.55076 409.989874 
L 538.34529 402.459905 
L 557.564372 391.301511 
L 563.094511 388.093854 
L 584.68783 375.556365 
L 604.462375 364.041955 
L 624.554224 352.334899 
L 641.086529 342.696386 
L 659.934998 331.684374 
L 667.301334 327.335597 
L 693.224991 312.197957 
L 705.325507 305.066828 
L 713.812365 300.023291 
L 721 295.770144 
L 721 295.770144 
" style="fill:none;stroke:#1f77b4;stroke-linecap:square;stroke-width:2;"/>
   </g>
   <g id="line2d_32">
    <path clip-path="url(#pedde372d38)" d="M 272.665401 577 
L 282.163574 571.419683 
L 285.775873 569.240767 
L 306.976493 556.554712 
L 312.154324 553.402189 
L 348.737571 531.64956 
L 351.948501 529.770735 
L 381.573073 511.813452 
L 383.089943 510.807502 
L 389.116917 507.34091 
L 390.613642 506.401597 
L 392.106402 505.602814 
L 398.038211 501.966274 
L 402.446448 499.402711 
L 403.90823 498.346861 
L 409.717732 495.103588 
L 419.742435 488.880892 
L 421.160088 488.062867 
L 423.984739 486.200843 
L 429.591916 482.810164 
L 435.14385 479.248645 
L 442.007719 475.109564 
L 443.370517 473.927739 
L 444.730027 473.015913 
L 446.086265 472.290196 
L 447.439247 471.15844 
L 458.147725 465.396446 
L 459.472089 464.29556 
L 464.738638 461.4923 
L 466.047621 460.584757 
L 467.353569 459.893486 
L 468.656499 458.970235 
L 473.838298 456.238262 
L 475.126337 455.352209 
L 476.411438 454.685337 
L 477.693615 453.771487 
L 478.972882 453.10979 
L 480.249251 452.171965 
L 481.522735 451.508759 
L 482.793348 450.538323 
L 484.061103 449.871877 
L 485.326012 448.847882 
L 497.821351 442.24478 
L 499.05578 441.323479 
L 500.287511 440.683663 
L 501.516555 439.696405 
L 506.406102 437.142351 
L 507.621888 436.139771 
L 512.458971 433.634771 
L 513.661781 432.55869 
L 520.825226 428.835248 
L 522.010329 427.775446 
L 526.725978 425.343171 
L 527.89875 424.111633 
L 544.066321 415.58009 
L 547.471266 413.88362 
L 548.601691 412.998052 
L 554.220049 410.306128 
L 555.33703 409.487158 
L 557.564372 408.509269 
L 721 309.801721 
L 721 309.801721 
" style="fill:none;stroke:#ff7f0e;stroke-linecap:square;stroke-width:2;"/>
   </g>
   <g id="line2d_33">
    <path clip-path="url(#pedde372d38)" d="M 234.624416 577 
L 721 283.043257 
L 721 283.043257 
" style="fill:none;stroke:#000000;stroke-dasharray:9.6,2.4,1.6,2.4;stroke-dashoffset:0;stroke-width:2;"/>
   </g>
   <g id="line2d_34">
    <path clip-path="url(#pedde372d38)" d="M 285.340917 577 
L 721 313.695408 
L 721 313.695408 
" style="fill:none;stroke:#000000;stroke-dasharray:9.6,2.4,1.6,2.4;stroke-dashoffset:0;stroke-width:2;"/>
   </g>
   <g id="patch_20">
    <path d="M 423.984739 499 
L 423.984739 317.383513 
" style="fill:none;stroke:#000000;stroke-linecap:square;stroke-linejoin:miter;stroke-width:0.8;"/>
   </g>
   <g id="patch_21">
    <path d="M 643 499 
L 643 317.383513 
" style="fill:none;stroke:#000000;stroke-linecap:square;stroke-linejoin:miter;stroke-width:0.8;"/>
   </g>
   <g id="patch_22">
    <path d="M 423.984739 499 
L 643 499 
" style="fill:none;stroke:#000000;stroke-linecap:square;stroke-linejoin:miter;stroke-width:0.8;"/>
   </g>
   <g id="patch_23">
    <path d="M 423.984739 317.383513 
L 643 317.383513 
" style="fill:none;stroke:#000000;stroke-linecap:square;stroke-linejoin:miter;stroke-width:0.8;"/>
   </g>
  </g>
 </g>
 <defs>
  <clipPath id="p44d0454e73">
   <rect height="434.88" width="558" x="90" y="69.12"/>
  </clipPath>
  <clipPath id="pa9c4c95a53">
   <rect height="198.39127" width="232.969444" x="95" y="74.12"/>
  </clipPath>
  <clipPath id="pedde372d38">
   <rect height="181.616487" width="219.015261" x="423.984739" y="317.383513"/>
  </clipPath>
 </defs>
</svg>
