<?xml version="1.0" encoding="UTF-8" standalone="no"?>
<!-- Created with matplotlib (http://matplotlib.org/) -->

<svg
   xmlns:dc="http://purl.org/dc/elements/1.1/"
   xmlns:cc="http://creativecommons.org/ns#"
   xmlns:rdf="http://www.w3.org/1999/02/22-rdf-syntax-ns#"
   xmlns:svg="http://www.w3.org/2000/svg"
   xmlns="http://www.w3.org/2000/svg"
   xmlns:xlink="http://www.w3.org/1999/xlink"
   xmlns:sodipodi="http://sodipodi.sourceforge.net/DTD/sodipodi-0.dtd"
   xmlns:inkscape="http://www.inkscape.org/namespaces/inkscape"
   sodipodi:docname="Monotectic Phase Diagram.svg"
   inkscape:version="0.91 r13725"
   id="svg2"
   width="576pt"
   viewBox="0 0 576 432"
   version="1.1"
   height="432pt">
  <sodipodi:namedview
     inkscape:current-layer="svg2"
     inkscape:window-maximized="1"
     inkscape:window-y="27"
     inkscape:window-x="0"
     inkscape:cy="274.1803"
     inkscape:cx="306.53452"
     inkscape:zoom="1.7481481"
     inkscape:snap-smooth-nodes="true"
     inkscape:object-nodes="true"
     inkscape:snap-intersection-paths="true"
     inkscape:object-paths="true"
     showgrid="false"
     id="namedview695"
     inkscape:window-height="1016"
     inkscape:window-width="1920"
     inkscape:pageshadow="2"
     inkscape:pageopacity="0"
     guidetolerance="10"
     gridtolerance="10"
     objecttolerance="10"
     borderopacity="1"
     bordercolor="#666666"
     pagecolor="#ffffff" />
  <metadata
     id="metadata697">
    <rdf:RDF>
      <cc:Work
         rdf:about="">
        <dc:format>image/svg+xml</dc:format>
        <dc:type
           rdf:resource="http://purl.org/dc/dcmitype/StillImage" />
        <dc:title></dc:title>
      </cc:Work>
    </rdf:RDF>
  </metadata>
  <defs
     id="defs4">
    <style
       type="text/css"
       id="style6">
*{stroke-linecap:butt;stroke-linejoin:round;stroke-miterlimit:100000;}
  </style>
  </defs>
  <g
     id="figure_1">
    <g
       id="patch_1">
      <path
         d="M 0 432  L 576 432  L 576 0  L 0 0  z "
         style="fill:#ffffff;"
         id="path10" />
    </g>
    <g
       id="axes_1">
      <g
         id="patch_2">
        <path
           d="M 72 388.8  L 518.4 388.8  L 518.4 43.2  L 72 43.2  z "
           style="fill:#ffffff;"
           id="path14" />
      </g>
      <g
         id="PathCollection_1">
        <defs
           id="defs17">
          <path
             d="M 0 2.236068  C 0.593012 2.236068 1.161816 2.000462 1.581139 1.581139  C 2.000462 1.161816 2.236068 0.593012 2.236068 0  C 2.236068 -0.593012 2.000462 -1.161816 1.581139 -1.581139  C 1.161816 -2.000462 0.593012 -2.236068 0 -2.236068  C -0.593012 -2.236068 -1.161816 -2.000462 -1.581139 -1.581139  C -2.000462 -1.161816 -2.236068 -0.593012 -2.236068 0  C -2.236068 0.593012 -2.000462 1.161816 -1.581139 1.581139  C -1.161816 2.000462 -0.593012 2.236068 0 2.236068  z "
             id="m1b3cb6afaf"
             style="stroke:#000000;" />
        </defs>
        <g
           clip-path="url(#pe1a0d5d15a)"
           id="g20">
          <use
             style="stroke:#000000;"
             x="87.1776"
             xlink:href="#m1b3cb6afaf"
             y="388.8"
             id="use22" />
          <use
             style="stroke:#000000;"
             x="508.1328"
             xlink:href="#m1b3cb6afaf"
             y="388.8"
             id="use24" />
          <use
             style="stroke:#000000;"
             x="87.624"
             xlink:href="#m1b3cb6afaf"
             y="380.16"
             id="use26" />
          <use
             style="stroke:#000000;"
             x="507.24"
             xlink:href="#m1b3cb6afaf"
             y="380.16"
             id="use28" />
          <use
             style="stroke:#000000;"
             x="88.0704"
             xlink:href="#m1b3cb6afaf"
             y="371.52"
             id="use30" />
          <use
             style="stroke:#000000;"
             x="506.7936"
             xlink:href="#m1b3cb6afaf"
             y="371.52"
             id="use32" />
          <use
             style="stroke:#000000;"
             x="88.9632"
             xlink:href="#m1b3cb6afaf"
             y="362.88"
             id="use34" />
          <use
             style="stroke:#000000;"
             x="506.3472"
             xlink:href="#m1b3cb6afaf"
             y="362.88"
             id="use36" />
          <use
             style="stroke:#000000;"
             x="89.4096"
             xlink:href="#m1b3cb6afaf"
             y="354.24"
             id="use38" />
          <use
             style="stroke:#000000;"
             x="505.4544"
             xlink:href="#m1b3cb6afaf"
             y="354.24"
             id="use40" />
          <use
             style="stroke:#000000;"
             x="90.3024"
             xlink:href="#m1b3cb6afaf"
             y="345.6"
             id="use42" />
          <use
             style="stroke:#000000;"
             x="504.5616"
             xlink:href="#m1b3cb6afaf"
             y="345.6"
             id="use44" />
          <use
             style="stroke:#000000;"
             x="90.7488"
             xlink:href="#m1b3cb6afaf"
             y="336.96"
             id="use46" />
          <use
             style="stroke:#000000;"
             x="503.6688"
             xlink:href="#m1b3cb6afaf"
             y="336.96"
             id="use48" />
          <use
             style="stroke:#000000;"
             x="91.6416"
             xlink:href="#m1b3cb6afaf"
             y="328.32"
             id="use50" />
          <use
             style="stroke:#000000;"
             x="502.776"
             xlink:href="#m1b3cb6afaf"
             y="328.32"
             id="use52" />
          <use
             style="stroke:#000000;"
             x="92.088"
             xlink:href="#m1b3cb6afaf"
             y="319.68"
             id="use54" />
          <use
             style="stroke:#000000;"
             x="501.4368"
             xlink:href="#m1b3cb6afaf"
             y="319.68"
             id="use56" />
          <use
             style="stroke:#000000;"
             x="92.9808"
             xlink:href="#m1b3cb6afaf"
             y="311.04"
             id="use58" />
          <use
             style="stroke:#000000;"
             x="500.544"
             xlink:href="#m1b3cb6afaf"
             y="311.04"
             id="use60" />
          <use
             style="stroke:#000000;"
             x="93.4272"
             xlink:href="#m1b3cb6afaf"
             y="302.4"
             id="use62" />
          <use
             style="stroke:#000000;"
             x="499.2048"
             xlink:href="#m1b3cb6afaf"
             y="302.4"
             id="use64" />
          <use
             style="stroke:#000000;"
             x="94.32"
             xlink:href="#m1b3cb6afaf"
             y="293.76"
             id="use66" />
          <use
             style="stroke:#000000;"
             x="497.8656"
             xlink:href="#m1b3cb6afaf"
             y="293.76"
             id="use68" />
          <use
             style="stroke:#000000;"
             x="95.2128"
             xlink:href="#m1b3cb6afaf"
             y="285.12"
             id="use70" />
          <use
             style="stroke:#000000;"
             x="496.08"
             xlink:href="#m1b3cb6afaf"
             y="285.12"
             id="use72" />
          <use
             style="stroke:#000000;"
             x="96.1056"
             xlink:href="#m1b3cb6afaf"
             y="276.48"
             id="use74" />
          <use
             style="stroke:#000000;"
             x="494.2944"
             xlink:href="#m1b3cb6afaf"
             y="276.48"
             id="use76" />
          <use
             style="stroke:#000000;"
             x="96.9984"
             xlink:href="#m1b3cb6afaf"
             y="267.84"
             id="use78" />
          <use
             style="stroke:#000000;"
             x="492.0624"
             xlink:href="#m1b3cb6afaf"
             y="267.84"
             id="use80" />
          <use
             style="stroke:#000000;"
             x="97.8912"
             xlink:href="#m1b3cb6afaf"
             y="259.2"
             id="use82" />
          <use
             style="stroke:#000000;"
             x="489.8304"
             xlink:href="#m1b3cb6afaf"
             y="259.2"
             id="use84" />
          <use
             style="stroke:#000000;"
             x="98.784"
             xlink:href="#m1b3cb6afaf"
             y="250.56"
             id="use86" />
          <use
             style="stroke:#000000;"
             x="487.5984"
             xlink:href="#m1b3cb6afaf"
             y="250.56"
             id="use88" />
          <use
             style="stroke:#000000;"
             x="100.1232"
             xlink:href="#m1b3cb6afaf"
             y="241.92"
             id="use90" />
          <use
             style="stroke:#000000;"
             x="484.92"
             xlink:href="#m1b3cb6afaf"
             y="241.92"
             id="use92" />
          <use
             style="stroke:#000000;"
             x="101.016"
             xlink:href="#m1b3cb6afaf"
             y="233.28"
             id="use94" />
          <use
             style="stroke:#000000;"
             x="481.7952"
             xlink:href="#m1b3cb6afaf"
             y="233.28"
             id="use96" />
          <use
             style="stroke:#000000;"
             x="102.3552"
             xlink:href="#m1b3cb6afaf"
             y="224.64"
             id="use98" />
          <use
             style="stroke:#000000;"
             x="478.224"
             xlink:href="#m1b3cb6afaf"
             y="224.64"
             id="use100" />
          <use
             style="stroke:#000000;"
             x="103.6944"
             xlink:href="#m1b3cb6afaf"
             y="216.0"
             id="use102" />
          <use
             style="stroke:#000000;"
             x="474.2064"
             xlink:href="#m1b3cb6afaf"
             y="216.0"
             id="use104" />
          <use
             style="stroke:#000000;"
             x="105.0336"
             xlink:href="#m1b3cb6afaf"
             y="207.36"
             id="use106" />
          <use
             style="stroke:#000000;"
             x="469.296"
             xlink:href="#m1b3cb6afaf"
             y="207.36"
             id="use108" />
          <use
             style="stroke:#000000;"
             x="106.8192"
             xlink:href="#m1b3cb6afaf"
             y="198.72"
             id="use110" />
          <use
             style="stroke:#000000;"
             x="463.9392"
             xlink:href="#m1b3cb6afaf"
             y="198.72"
             id="use112" />
          <use
             style="stroke:#000000;"
             x="108.6048"
             xlink:href="#m1b3cb6afaf"
             y="190.08"
             id="use114" />
          <use
             style="stroke:#000000;"
             x="457.6896"
             xlink:href="#m1b3cb6afaf"
             y="190.08"
             id="use116" />
          <use
             style="stroke:#000000;"
             x="110.8368"
             xlink:href="#m1b3cb6afaf"
             y="181.44"
             id="use118" />
          <use
             style="stroke:#000000;"
             x="450.5472"
             xlink:href="#m1b3cb6afaf"
             y="181.44"
             id="use120" />
          <use
             style="stroke:#000000;"
             x="113.5152"
             xlink:href="#m1b3cb6afaf"
             y="172.8"
             id="use122" />
          <use
             style="stroke:#000000;"
             x="441.6192"
             xlink:href="#m1b3cb6afaf"
             y="172.8"
             id="use124" />
          <use
             style="stroke:#000000;"
             x="112.6224"
             xlink:href="#m1b3cb6afaf"
             y="164.16"
             id="use126" />
          <use
             style="stroke:#000000;"
             x="139.4064"
             xlink:href="#m1b3cb6afaf"
             y="164.16"
             id="use128" />
          <use
             style="stroke:#000000;"
             x="157.7088"
             xlink:href="#m1b3cb6afaf"
             y="164.16"
             id="use130" />
          <use
             style="stroke:#000000;"
             x="432.6912"
             xlink:href="#m1b3cb6afaf"
             y="164.16"
             id="use132" />
          <use
             style="stroke:#000000;"
             x="105.48"
             xlink:href="#m1b3cb6afaf"
             y="155.52"
             id="use134" />
          <use
             style="stroke:#000000;"
             x="127.8"
             xlink:href="#m1b3cb6afaf"
             y="155.52"
             id="use136" />
          <use
             style="stroke:#000000;"
             x="165.2976"
             xlink:href="#m1b3cb6afaf"
             y="155.52"
             id="use138" />
          <use
             style="stroke:#000000;"
             x="425.1024"
             xlink:href="#m1b3cb6afaf"
             y="155.52"
             id="use140" />
          <use
             style="stroke:#000000;"
             x="96.552"
             xlink:href="#m1b3cb6afaf"
             y="146.88"
             id="use142" />
          <use
             style="stroke:#000000;"
             x="114.408"
             xlink:href="#m1b3cb6afaf"
             y="146.88"
             id="use144" />
          <use
             style="stroke:#000000;"
             x="174.672"
             xlink:href="#m1b3cb6afaf"
             y="146.88"
             id="use146" />
          <use
             style="stroke:#000000;"
             x="415.728"
             xlink:href="#m1b3cb6afaf"
             y="146.88"
             id="use148" />
          <use
             style="stroke:#000000;"
             x="80.928"
             xlink:href="#m1b3cb6afaf"
             y="138.24"
             id="use150" />
          <use
             style="stroke:#000000;"
             x="92.088"
             xlink:href="#m1b3cb6afaf"
             y="138.24"
             id="use152" />
          <use
             style="stroke:#000000;"
             x="185.3856"
             xlink:href="#m1b3cb6afaf"
             y="138.24"
             id="use154" />
          <use
             style="stroke:#000000;"
             x="405.0144"
             xlink:href="#m1b3cb6afaf"
             y="138.24"
             id="use156" />
          <use
             style="stroke:#000000;"
             x="197.8848"
             xlink:href="#m1b3cb6afaf"
             y="129.6"
             id="use158" />
          <use
             style="stroke:#000000;"
             x="392.5152"
             xlink:href="#m1b3cb6afaf"
             y="129.6"
             id="use160" />
          <use
             style="stroke:#000000;"
             x="214.4016"
             xlink:href="#m1b3cb6afaf"
             y="120.96"
             id="use162" />
          <use
             style="stroke:#000000;"
             x="375.9984"
             xlink:href="#m1b3cb6afaf"
             y="120.96"
             id="use164" />
          <use
             style="stroke:#000000;"
             x="236.7216"
             xlink:href="#m1b3cb6afaf"
             y="112.32"
             id="use166" />
          <use
             style="stroke:#000000;"
             x="353.6784"
             xlink:href="#m1b3cb6afaf"
             y="112.32"
             id="use168" />
        </g>
      </g>
      <g
         id="patch_3">
        <path
           d="M 72 43.2  L 518.4 43.2  "
           style="fill:none;stroke:#000000;stroke-linecap:square;stroke-linejoin:miter;"
           id="path171" />
      </g>
      <g
         id="patch_4">
        <path
           d="M 518.4 388.8  L 518.4 43.2  "
           style="fill:none;stroke:#000000;stroke-linecap:square;stroke-linejoin:miter;"
           id="path174" />
      </g>
      <g
         id="patch_5">
        <path
           d="M 72 388.8  L 518.4 388.8  "
           style="fill:none;stroke:#000000;stroke-linecap:square;stroke-linejoin:miter;"
           id="path177" />
      </g>
      <g
         id="patch_6">
        <path
           d="M 72 388.8  L 72 43.2  "
           style="fill:none;stroke:#000000;stroke-linecap:square;stroke-linejoin:miter;"
           id="path180" />
      </g>
      <g
         id="matplotlib.axis_1">
        <g
           id="xtick_1">
          <g
             id="line2d_1">
            <defs
               id="defs185">
              <path
                 d="M 0 0  L 0 -4  "
                 id="mfc1559acc8"
                 style="stroke:#000000;stroke-width:0.5;" />
            </defs>
            <g
               id="g188">
              <use
                 style="stroke:#000000;stroke-width:0.5;"
                 x="72.0"
                 xlink:href="#mfc1559acc8"
                 y="388.8"
                 id="use190" />
            </g>
          </g>
          <g
             id="line2d_2">
            <defs
               id="defs193">
              <path
                 d="M 0 0  L 0 4  "
                 id="m4ae1a40625"
                 style="stroke:#000000;stroke-width:0.5;" />
            </defs>
            <g
               id="g196">
              <use
                 style="stroke:#000000;stroke-width:0.5;"
                 x="72.0"
                 xlink:href="#m4ae1a40625"
                 y="43.2"
                 id="use198" />
            </g>
          </g>
          <g
             id="text_1">
            <!-- 0.0 -->
            <defs
               id="defs201">
              <path
                 d="M 31.78125 66.40625  Q 24.171875 66.40625 20.328125 58.90625  Q 16.5 51.421875 16.5 36.375  Q 16.5 21.390625 20.328125 13.890625  Q 24.171875 6.390625 31.78125 6.390625  Q 39.453125 6.390625 43.28125 13.890625  Q 47.125 21.390625 47.125 36.375  Q 47.125 51.421875 43.28125 58.90625  Q 39.453125 66.40625 31.78125 66.40625  M 31.78125 74.21875  Q 44.046875 74.21875 50.515625 64.515625  Q 56.984375 54.828125 56.984375 36.375  Q 56.984375 17.96875 50.515625 8.265625  Q 44.046875 -1.421875 31.78125 -1.421875  Q 19.53125 -1.421875 13.0625 8.265625  Q 6.59375 17.96875 6.59375 36.375  Q 6.59375 54.828125 13.0625 64.515625  Q 19.53125 74.21875 31.78125 74.21875  "
                 id="BitstreamVeraSans-Roman-30" />
              <path
                 d="M 10.6875 12.40625  L 21 12.40625  L 21 0  L 10.6875 0  z "
                 id="BitstreamVeraSans-Roman-2e" />
            </defs>
            <g
               transform="translate(62.458125 401.918125)scale(0.12 -0.12)"
               id="g205">
              <use
                 xlink:href="#BitstreamVeraSans-Roman-30"
                 id="use207" />
              <use
                 x="63.623046875"
                 xlink:href="#BitstreamVeraSans-Roman-2e"
                 id="use209" />
              <use
                 x="95.41015625"
                 xlink:href="#BitstreamVeraSans-Roman-30"
                 id="use211" />
            </g>
          </g>
        </g>
        <g
           id="xtick_2">
          <g
             id="line2d_3">
            <g
               id="g215">
              <use
                 style="stroke:#000000;stroke-width:0.5;"
                 x="161.28"
                 xlink:href="#mfc1559acc8"
                 y="388.8"
                 id="use217" />
            </g>
          </g>
          <g
             id="line2d_4">
            <g
               id="g220">
              <use
                 style="stroke:#000000;stroke-width:0.5;"
                 x="161.28"
                 xlink:href="#m4ae1a40625"
                 y="43.2"
                 id="use222" />
            </g>
          </g>
          <g
             id="text_2">
            <!-- 0.2 -->
            <defs
               id="defs225">
              <path
                 d="M 19.1875 8.296875  L 53.609375 8.296875  L 53.609375 0  L 7.328125 0  L 7.328125 8.296875  Q 12.9375 14.109375 22.625 23.890625  Q 32.328125 33.6875 34.8125 36.53125  Q 39.546875 41.84375 41.421875 45.53125  Q 43.3125 49.21875 43.3125 52.78125  Q 43.3125 58.59375 39.234375 62.25  Q 35.15625 65.921875 28.609375 65.921875  Q 23.96875 65.921875 18.8125 64.3125  Q 13.671875 62.703125 7.8125 59.421875  L 7.8125 69.390625  Q 13.765625 71.78125 18.9375 73  Q 24.125 74.21875 28.421875 74.21875  Q 39.75 74.21875 46.484375 68.546875  Q 53.21875 62.890625 53.21875 53.421875  Q 53.21875 48.921875 51.53125 44.890625  Q 49.859375 40.875 45.40625 35.40625  Q 44.1875 33.984375 37.640625 27.21875  Q 31.109375 20.453125 19.1875 8.296875  "
                 id="BitstreamVeraSans-Roman-32" />
            </defs>
            <g
               transform="translate(151.738125 401.918125)scale(0.12 -0.12)"
               id="g228">
              <use
                 xlink:href="#BitstreamVeraSans-Roman-30"
                 id="use230" />
              <use
                 x="63.623046875"
                 xlink:href="#BitstreamVeraSans-Roman-2e"
                 id="use232" />
              <use
                 x="95.41015625"
                 xlink:href="#BitstreamVeraSans-Roman-32"
                 id="use234" />
            </g>
          </g>
        </g>
        <g
           id="xtick_3">
          <g
             id="line2d_5">
            <g
               id="g238">
              <use
                 style="stroke:#000000;stroke-width:0.5;"
                 x="250.56"
                 xlink:href="#mfc1559acc8"
                 y="388.8"
                 id="use240" />
            </g>
          </g>
          <g
             id="line2d_6">
            <g
               id="g243">
              <use
                 style="stroke:#000000;stroke-width:0.5;"
                 x="250.56"
                 xlink:href="#m4ae1a40625"
                 y="43.2"
                 id="use245" />
            </g>
          </g>
          <g
             id="text_3">
            <!-- 0.4 -->
            <defs
               id="defs248">
              <path
                 d="M 37.796875 64.3125  L 12.890625 25.390625  L 37.796875 25.390625  z M 35.203125 72.90625  L 47.609375 72.90625  L 47.609375 25.390625  L 58.015625 25.390625  L 58.015625 17.1875  L 47.609375 17.1875  L 47.609375 0  L 37.796875 0  L 37.796875 17.1875  L 4.890625 17.1875  L 4.890625 26.703125  z "
                 id="BitstreamVeraSans-Roman-34" />
            </defs>
            <g
               transform="translate(241.018125 401.918125)scale(0.12 -0.12)"
               id="g251">
              <use
                 xlink:href="#BitstreamVeraSans-Roman-30"
                 id="use253" />
              <use
                 x="63.623046875"
                 xlink:href="#BitstreamVeraSans-Roman-2e"
                 id="use255" />
              <use
                 x="95.41015625"
                 xlink:href="#BitstreamVeraSans-Roman-34"
                 id="use257" />
            </g>
          </g>
        </g>
        <g
           id="xtick_4">
          <g
             id="line2d_7">
            <g
               id="g261">
              <use
                 style="stroke:#000000;stroke-width:0.5;"
                 x="339.84"
                 xlink:href="#mfc1559acc8"
                 y="388.8"
                 id="use263" />
            </g>
          </g>
          <g
             id="line2d_8">
            <g
               id="g266">
              <use
                 style="stroke:#000000;stroke-width:0.5;"
                 x="339.84"
                 xlink:href="#m4ae1a40625"
                 y="43.2"
                 id="use268" />
            </g>
          </g>
          <g
             id="text_4">
            <!-- 0.6 -->
            <defs
               id="defs271">
              <path
                 d="M 33.015625 40.375  Q 26.375 40.375 22.484375 35.828125  Q 18.609375 31.296875 18.609375 23.390625  Q 18.609375 15.53125 22.484375 10.953125  Q 26.375 6.390625 33.015625 6.390625  Q 39.65625 6.390625 43.53125 10.953125  Q 47.40625 15.53125 47.40625 23.390625  Q 47.40625 31.296875 43.53125 35.828125  Q 39.65625 40.375 33.015625 40.375  M 52.59375 71.296875  L 52.59375 62.3125  Q 48.875 64.0625 45.09375 64.984375  Q 41.3125 65.921875 37.59375 65.921875  Q 27.828125 65.921875 22.671875 59.328125  Q 17.53125 52.734375 16.796875 39.40625  Q 19.671875 43.65625 24.015625 45.921875  Q 28.375 48.1875 33.59375 48.1875  Q 44.578125 48.1875 50.953125 41.515625  Q 57.328125 34.859375 57.328125 23.390625  Q 57.328125 12.15625 50.6875 5.359375  Q 44.046875 -1.421875 33.015625 -1.421875  Q 20.359375 -1.421875 13.671875 8.265625  Q 6.984375 17.96875 6.984375 36.375  Q 6.984375 53.65625 15.1875 63.9375  Q 23.390625 74.21875 37.203125 74.21875  Q 40.921875 74.21875 44.703125 73.484375  Q 48.484375 72.75 52.59375 71.296875  "
                 id="BitstreamVeraSans-Roman-36" />
            </defs>
            <g
               transform="translate(330.298125 401.918125)scale(0.12 -0.12)"
               id="g274">
              <use
                 xlink:href="#BitstreamVeraSans-Roman-30"
                 id="use276" />
              <use
                 x="63.623046875"
                 xlink:href="#BitstreamVeraSans-Roman-2e"
                 id="use278" />
              <use
                 x="95.41015625"
                 xlink:href="#BitstreamVeraSans-Roman-36"
                 id="use280" />
            </g>
          </g>
        </g>
        <g
           id="xtick_5">
          <g
             id="line2d_9">
            <g
               id="g284">
              <use
                 style="stroke:#000000;stroke-width:0.5;"
                 x="429.12"
                 xlink:href="#mfc1559acc8"
                 y="388.8"
                 id="use286" />
            </g>
          </g>
          <g
             id="line2d_10">
            <g
               id="g289">
              <use
                 style="stroke:#000000;stroke-width:0.5;"
                 x="429.12"
                 xlink:href="#m4ae1a40625"
                 y="43.2"
                 id="use291" />
            </g>
          </g>
          <g
             id="text_5">
            <!-- 0.8 -->
            <defs
               id="defs294">
              <path
                 d="M 31.78125 34.625  Q 24.75 34.625 20.71875 30.859375  Q 16.703125 27.09375 16.703125 20.515625  Q 16.703125 13.921875 20.71875 10.15625  Q 24.75 6.390625 31.78125 6.390625  Q 38.8125 6.390625 42.859375 10.171875  Q 46.921875 13.96875 46.921875 20.515625  Q 46.921875 27.09375 42.890625 30.859375  Q 38.875 34.625 31.78125 34.625  M 21.921875 38.8125  Q 15.578125 40.375 12.03125 44.71875  Q 8.5 49.078125 8.5 55.328125  Q 8.5 64.0625 14.71875 69.140625  Q 20.953125 74.21875 31.78125 74.21875  Q 42.671875 74.21875 48.875 69.140625  Q 55.078125 64.0625 55.078125 55.328125  Q 55.078125 49.078125 51.53125 44.71875  Q 48 40.375 41.703125 38.8125  Q 48.828125 37.15625 52.796875 32.3125  Q 56.78125 27.484375 56.78125 20.515625  Q 56.78125 9.90625 50.3125 4.234375  Q 43.84375 -1.421875 31.78125 -1.421875  Q 19.734375 -1.421875 13.25 4.234375  Q 6.78125 9.90625 6.78125 20.515625  Q 6.78125 27.484375 10.78125 32.3125  Q 14.796875 37.15625 21.921875 38.8125  M 18.3125 54.390625  Q 18.3125 48.734375 21.84375 45.5625  Q 25.390625 42.390625 31.78125 42.390625  Q 38.140625 42.390625 41.71875 45.5625  Q 45.3125 48.734375 45.3125 54.390625  Q 45.3125 60.0625 41.71875 63.234375  Q 38.140625 66.40625 31.78125 66.40625  Q 25.390625 66.40625 21.84375 63.234375  Q 18.3125 60.0625 18.3125 54.390625  "
                 id="BitstreamVeraSans-Roman-38" />
            </defs>
            <g
               transform="translate(419.578125 401.918125)scale(0.12 -0.12)"
               id="g297">
              <use
                 xlink:href="#BitstreamVeraSans-Roman-30"
                 id="use299" />
              <use
                 x="63.623046875"
                 xlink:href="#BitstreamVeraSans-Roman-2e"
                 id="use301" />
              <use
                 x="95.41015625"
                 xlink:href="#BitstreamVeraSans-Roman-38"
                 id="use303" />
            </g>
          </g>
        </g>
        <g
           id="xtick_6">
          <g
             id="line2d_11">
            <g
               id="g307">
              <use
                 style="stroke:#000000;stroke-width:0.5;"
                 x="518.4"
                 xlink:href="#mfc1559acc8"
                 y="388.8"
                 id="use309" />
            </g>
          </g>
          <g
             id="line2d_12">
            <g
               id="g312">
              <use
                 style="stroke:#000000;stroke-width:0.5;"
                 x="518.4"
                 xlink:href="#m4ae1a40625"
                 y="43.2"
                 id="use314" />
            </g>
          </g>
          <g
             id="text_6">
            <!-- 1.0 -->
            <defs
               id="defs317">
              <path
                 d="M 12.40625 8.296875  L 28.515625 8.296875  L 28.515625 63.921875  L 10.984375 60.40625  L 10.984375 69.390625  L 28.421875 72.90625  L 38.28125 72.90625  L 38.28125 8.296875  L 54.390625 8.296875  L 54.390625 0  L 12.40625 0  z "
                 id="BitstreamVeraSans-Roman-31" />
            </defs>
            <g
               transform="translate(508.858125 401.918125)scale(0.12 -0.12)"
               id="g320">
              <use
                 xlink:href="#BitstreamVeraSans-Roman-31"
                 id="use322" />
              <use
                 x="63.623046875"
                 xlink:href="#BitstreamVeraSans-Roman-2e"
                 id="use324" />
              <use
                 x="95.41015625"
                 xlink:href="#BitstreamVeraSans-Roman-30"
                 id="use326" />
            </g>
          </g>
        </g>
        <g
           id="text_7">
          <!-- Concentration $(c)$ -->
          <defs
             id="defs329">
            <path
               id="BitstreamVeraSans-Roman-20" />
            <path
               d="M 54.890625 33.015625  L 54.890625 0  L 45.90625 0  L 45.90625 32.71875  Q 45.90625 40.484375 42.875 44.328125  Q 39.84375 48.1875 33.796875 48.1875  Q 26.515625 48.1875 22.3125 43.546875  Q 18.109375 38.921875 18.109375 30.90625  L 18.109375 0  L 9.078125 0  L 9.078125 54.6875  L 18.109375 54.6875  L 18.109375 46.1875  Q 21.34375 51.125 25.703125 53.5625  Q 30.078125 56 35.796875 56  Q 45.21875 56 50.046875 50.171875  Q 54.890625 44.34375 54.890625 33.015625  "
               id="BitstreamVeraSans-Roman-6e" />
            <path
               d="M 34.28125 27.484375  Q 23.390625 27.484375 19.1875 25  Q 14.984375 22.515625 14.984375 16.5  Q 14.984375 11.71875 18.140625 8.90625  Q 21.296875 6.109375 26.703125 6.109375  Q 34.1875 6.109375 38.703125 11.40625  Q 43.21875 16.703125 43.21875 25.484375  L 43.21875 27.484375  z M 52.203125 31.203125  L 52.203125 0  L 43.21875 0  L 43.21875 8.296875  Q 40.140625 3.328125 35.546875 0.953125  Q 30.953125 -1.421875 24.3125 -1.421875  Q 15.921875 -1.421875 10.953125 3.296875  Q 6 8.015625 6 15.921875  Q 6 25.140625 12.171875 29.828125  Q 18.359375 34.515625 30.609375 34.515625  L 43.21875 34.515625  L 43.21875 35.40625  Q 43.21875 41.609375 39.140625 45  Q 35.0625 48.390625 27.6875 48.390625  Q 23 48.390625 18.546875 47.265625  Q 14.109375 46.140625 10.015625 43.890625  L 10.015625 52.203125  Q 14.9375 54.109375 19.578125 55.046875  Q 24.21875 56 28.609375 56  Q 40.484375 56 46.34375 49.84375  Q 52.203125 43.703125 52.203125 31.203125  "
               id="BitstreamVeraSans-Roman-61" />
            <path
               d="M 30.609375 48.390625  Q 23.390625 48.390625 19.1875 42.75  Q 14.984375 37.109375 14.984375 27.296875  Q 14.984375 17.484375 19.15625 11.84375  Q 23.34375 6.203125 30.609375 6.203125  Q 37.796875 6.203125 41.984375 11.859375  Q 46.1875 17.53125 46.1875 27.296875  Q 46.1875 37.015625 41.984375 42.703125  Q 37.796875 48.390625 30.609375 48.390625  M 30.609375 56  Q 42.328125 56 49.015625 48.375  Q 55.71875 40.765625 55.71875 27.296875  Q 55.71875 13.875 49.015625 6.21875  Q 42.328125 -1.421875 30.609375 -1.421875  Q 18.84375 -1.421875 12.171875 6.21875  Q 5.515625 13.875 5.515625 27.296875  Q 5.515625 40.765625 12.171875 48.375  Q 18.84375 56 30.609375 56  "
               id="BitstreamVeraSans-Roman-6f" />
            <path
               d="M 31 -24.8125  Q 25.4375 -20.40625 21.40625 -14.71875  Q 17.390625 -9.03125 14.8125 -2.578125  Q 12.25 3.859375 10.984375 10.890625  Q 9.71875 17.921875 9.71875 25  Q 9.71875 32.171875 10.984375 39.203125  Q 12.25 46.234375 14.859375 52.734375  Q 17.484375 59.234375 21.53125 64.890625  Q 25.59375 70.5625 31 74.8125  Q 31 75 31.5 75  L 32.421875 75  Q 32.71875 75 32.953125 74.734375  Q 33.203125 74.46875 33.203125 74.125  Q 33.203125 73.6875 33.015625 73.484375  Q 28.125 68.703125 24.875 63.234375  Q 21.625 57.765625 19.640625 51.578125  Q 17.671875 45.40625 16.796875 38.78125  Q 15.921875 32.171875 15.921875 25  Q 15.921875 -6.78125 32.90625 -23.296875  Q 33.203125 -23.578125 33.203125 -24.125  Q 33.203125 -24.359375 32.9375 -24.671875  Q 32.671875 -25 32.421875 -25  L 31.5 -25  Q 31 -25 31 -24.8125  "
               id="Cmr10-28" />
            <path
               d="M 11.71875 11.921875  Q 11.71875 7.5625 13.9375 4.53125  Q 16.15625 1.515625 20.3125 1.515625  Q 26.265625 1.515625 31.75 4.25  Q 37.25 6.984375 40.71875 11.8125  Q 41.015625 12.109375 41.5 12.109375  Q 42 12.109375 42.5 11.546875  Q 43.015625 10.984375 43.015625 10.5  Q 43.015625 10.109375 42.828125 9.90625  Q 39.15625 4.78125 32.953125 1.828125  Q 26.765625 -1.125 20.125 -1.125  Q 15.328125 -1.125 11.671875 1.140625  Q 8.015625 3.421875 6 7.21875  Q 4 11.03125 4 15.828125  Q 4 22.5625 7.765625 29.203125  Q 11.53125 35.84375 17.78125 40.015625  Q 24.03125 44.1875 30.90625 44.1875  Q 35.40625 44.1875 38.984375 42.015625  Q 42.578125 39.84375 42.578125 35.59375  Q 42.578125 32.859375 40.984375 30.921875  Q 39.40625 29 36.71875 29  Q 35.109375 29 34 30  Q 32.90625 31 32.90625 32.625  Q 32.90625 34.96875 34.609375 36.625  Q 36.328125 38.28125 38.625 38.28125  L 38.8125 38.28125  Q 37.640625 39.984375 35.421875 40.796875  Q 33.203125 41.609375 30.8125 41.609375  Q 24.953125 41.609375 20.546875 36.59375  Q 16.15625 31.59375 13.9375 24.625  Q 11.71875 17.671875 11.71875 11.921875  "
               id="Cmmi10-63" />
            <path
               d="M 64.40625 67.28125  L 64.40625 56.890625  Q 59.421875 61.53125 53.78125 63.8125  Q 48.140625 66.109375 41.796875 66.109375  Q 29.296875 66.109375 22.65625 58.46875  Q 16.015625 50.828125 16.015625 36.375  Q 16.015625 21.96875 22.65625 14.328125  Q 29.296875 6.6875 41.796875 6.6875  Q 48.140625 6.6875 53.78125 8.984375  Q 59.421875 11.28125 64.40625 15.921875  L 64.40625 5.609375  Q 59.234375 2.09375 53.4375 0.328125  Q 47.65625 -1.421875 41.21875 -1.421875  Q 24.65625 -1.421875 15.125 8.703125  Q 5.609375 18.84375 5.609375 36.375  Q 5.609375 53.953125 15.125 64.078125  Q 24.65625 74.21875 41.21875 74.21875  Q 47.75 74.21875 53.53125 72.484375  Q 59.328125 70.75 64.40625 67.28125  "
               id="BitstreamVeraSans-Roman-43" />
            <path
               d="M 6.5 -25  Q 5.609375 -25 5.609375 -24.125  Q 5.609375 -23.6875 5.8125 -23.484375  Q 22.90625 -6.78125 22.90625 25  Q 22.90625 56.78125 6 73.296875  Q 5.609375 73.53125 5.609375 74.125  Q 5.609375 74.46875 5.875 74.734375  Q 6.15625 75 6.5 75  L 7.421875 75  Q 7.71875 75 7.90625 74.8125  Q 15.09375 69.140625 19.875 61.03125  Q 24.65625 52.9375 26.875 43.75  Q 29.109375 34.578125 29.109375 25  Q 29.109375 17.921875 27.90625 11.0625  Q 26.703125 4.203125 24.09375 -2.453125  Q 21.484375 -9.125 17.484375 -14.765625  Q 13.484375 -20.40625 7.90625 -24.8125  Q 7.71875 -25 7.421875 -25  z "
               id="Cmr10-29" />
            <path
               d="M 56.203125 29.59375  L 56.203125 25.203125  L 14.890625 25.203125  Q 15.484375 15.921875 20.484375 11.0625  Q 25.484375 6.203125 34.421875 6.203125  Q 39.59375 6.203125 44.453125 7.46875  Q 49.3125 8.734375 54.109375 11.28125  L 54.109375 2.78125  Q 49.265625 0.734375 44.1875 -0.34375  Q 39.109375 -1.421875 33.890625 -1.421875  Q 20.796875 -1.421875 13.15625 6.1875  Q 5.515625 13.8125 5.515625 26.8125  Q 5.515625 40.234375 12.765625 48.109375  Q 20.015625 56 32.328125 56  Q 43.359375 56 49.78125 48.890625  Q 56.203125 41.796875 56.203125 29.59375  M 47.21875 32.234375  Q 47.125 39.59375 43.09375 43.984375  Q 39.0625 48.390625 32.421875 48.390625  Q 24.90625 48.390625 20.390625 44.140625  Q 15.875 39.890625 15.1875 32.171875  z "
               id="BitstreamVeraSans-Roman-65" />
            <path
               d="M 9.421875 54.6875  L 18.40625 54.6875  L 18.40625 0  L 9.421875 0  z M 9.421875 75.984375  L 18.40625 75.984375  L 18.40625 64.59375  L 9.421875 64.59375  z "
               id="BitstreamVeraSans-Roman-69" />
            <path
               d="M 18.3125 70.21875  L 18.3125 54.6875  L 36.8125 54.6875  L 36.8125 47.703125  L 18.3125 47.703125  L 18.3125 18.015625  Q 18.3125 11.328125 20.140625 9.421875  Q 21.96875 7.515625 27.59375 7.515625  L 36.8125 7.515625  L 36.8125 0  L 27.59375 0  Q 17.1875 0 13.234375 3.875  Q 9.28125 7.765625 9.28125 18.015625  L 9.28125 47.703125  L 2.6875 47.703125  L 2.6875 54.6875  L 9.28125 54.6875  L 9.28125 70.21875  z "
               id="BitstreamVeraSans-Roman-74" />
            <path
               d="M 41.109375 46.296875  Q 39.59375 47.171875 37.8125 47.578125  Q 36.03125 48 33.890625 48  Q 26.265625 48 22.1875 43.046875  Q 18.109375 38.09375 18.109375 28.8125  L 18.109375 0  L 9.078125 0  L 9.078125 54.6875  L 18.109375 54.6875  L 18.109375 46.1875  Q 20.953125 51.171875 25.484375 53.578125  Q 30.03125 56 36.53125 56  Q 37.453125 56 38.578125 55.875  Q 39.703125 55.765625 41.0625 55.515625  z "
               id="BitstreamVeraSans-Roman-72" />
            <path
               d="M 48.78125 52.59375  L 48.78125 44.1875  Q 44.96875 46.296875 41.140625 47.34375  Q 37.3125 48.390625 33.40625 48.390625  Q 24.65625 48.390625 19.8125 42.84375  Q 14.984375 37.3125 14.984375 27.296875  Q 14.984375 17.28125 19.8125 11.734375  Q 24.65625 6.203125 33.40625 6.203125  Q 37.3125 6.203125 41.140625 7.25  Q 44.96875 8.296875 48.78125 10.40625  L 48.78125 2.09375  Q 45.015625 0.34375 40.984375 -0.53125  Q 36.96875 -1.421875 32.421875 -1.421875  Q 20.0625 -1.421875 12.78125 6.34375  Q 5.515625 14.109375 5.515625 27.296875  Q 5.515625 40.671875 12.859375 48.328125  Q 20.21875 56 33.015625 56  Q 37.15625 56 41.109375 55.140625  Q 45.0625 54.296875 48.78125 52.59375  "
               id="BitstreamVeraSans-Roman-63" />
          </defs>
          <g
             transform="translate(243.54 418.53375)scale(0.12 -0.12)"
             id="g344">
            <use
               transform="translate(0.0 0.015625)"
               xlink:href="#BitstreamVeraSans-Roman-43"
               id="use346" />
            <use
               transform="translate(69.82421875 0.015625)"
               xlink:href="#BitstreamVeraSans-Roman-6f"
               id="use348" />
            <use
               transform="translate(131.005859375 0.015625)"
               xlink:href="#BitstreamVeraSans-Roman-6e"
               id="use350" />
            <use
               transform="translate(194.384765625 0.015625)"
               xlink:href="#BitstreamVeraSans-Roman-63"
               id="use352" />
            <use
               transform="translate(249.365234375 0.015625)"
               xlink:href="#BitstreamVeraSans-Roman-65"
               id="use354" />
            <use
               transform="translate(310.888671875 0.015625)"
               xlink:href="#BitstreamVeraSans-Roman-6e"
               id="use356" />
            <use
               transform="translate(374.267578125 0.015625)"
               xlink:href="#BitstreamVeraSans-Roman-74"
               id="use358" />
            <use
               transform="translate(413.4765625 0.015625)"
               xlink:href="#BitstreamVeraSans-Roman-72"
               id="use360" />
            <use
               transform="translate(454.58984375 0.015625)"
               xlink:href="#BitstreamVeraSans-Roman-61"
               id="use362" />
            <use
               transform="translate(515.869140625 0.015625)"
               xlink:href="#BitstreamVeraSans-Roman-74"
               id="use364" />
            <use
               transform="translate(555.078125 0.015625)"
               xlink:href="#BitstreamVeraSans-Roman-69"
               id="use366" />
            <use
               transform="translate(582.861328125 0.015625)"
               xlink:href="#BitstreamVeraSans-Roman-6f"
               id="use368" />
            <use
               transform="translate(644.04296875 0.015625)"
               xlink:href="#BitstreamVeraSans-Roman-6e"
               id="use370" />
            <use
               transform="translate(707.421875 0.015625)"
               xlink:href="#BitstreamVeraSans-Roman-20"
               id="use372" />
            <use
               transform="translate(739.208984375 0.015625)"
               xlink:href="#Cmr10-28"
               id="use374" />
            <use
               transform="translate(778.02734375 0.015625)"
               xlink:href="#Cmmi10-63"
               id="use376" />
            <use
               transform="translate(821.240234375 0.015625)"
               xlink:href="#Cmr10-29"
               id="use378" />
          </g>
        </g>
      </g>
      <g
         id="matplotlib.axis_2">
        <g
           id="ytick_1">
          <g
             id="line2d_13">
            <defs
               id="defs383">
              <path
                 d="M 0 0  L 4 0  "
                 id="m9e4ccbbd9f"
                 style="stroke:#000000;stroke-width:0.5;" />
            </defs>
            <g
               id="g386">
              <use
                 style="stroke:#000000;stroke-width:0.5;"
                 x="72.0"
                 xlink:href="#m9e4ccbbd9f"
                 y="388.8"
                 id="use388" />
            </g>
          </g>
          <g
             id="line2d_14">
            <defs
               id="defs391">
              <path
                 d="M 0 0  L -4 0  "
                 id="m9c88b63855"
                 style="stroke:#000000;stroke-width:0.5;" />
            </defs>
            <g
               id="g394">
              <use
                 style="stroke:#000000;stroke-width:0.5;"
                 x="518.4"
                 xlink:href="#m9c88b63855"
                 y="388.8"
                 id="use396" />
            </g>
          </g>
          <g
             id="text_8">
            <!-- 0.00 -->
            <g
               transform="translate(41.28125 392.11125)scale(0.12 -0.12)"
               id="g399">
              <use
                 xlink:href="#BitstreamVeraSans-Roman-30"
                 id="use401" />
              <use
                 x="63.623046875"
                 xlink:href="#BitstreamVeraSans-Roman-2e"
                 id="use403" />
              <use
                 x="95.41015625"
                 xlink:href="#BitstreamVeraSans-Roman-30"
                 id="use405" />
              <use
                 x="159.033203125"
                 xlink:href="#BitstreamVeraSans-Roman-30"
                 id="use407" />
            </g>
          </g>
        </g>
        <g
           id="ytick_2">
          <g
             id="line2d_15">
            <g
               id="g411">
              <use
                 style="stroke:#000000;stroke-width:0.5;"
                 x="72.0"
                 xlink:href="#m9e4ccbbd9f"
                 y="345.6"
                 id="use413" />
            </g>
          </g>
          <g
             id="line2d_16">
            <g
               id="g416">
              <use
                 style="stroke:#000000;stroke-width:0.5;"
                 x="518.4"
                 xlink:href="#m9c88b63855"
                 y="345.6"
                 id="use418" />
            </g>
          </g>
          <g
             id="text_9">
            <!-- 0.05 -->
            <defs
               id="defs421">
              <path
                 d="M 10.796875 72.90625  L 49.515625 72.90625  L 49.515625 64.59375  L 19.828125 64.59375  L 19.828125 46.734375  Q 21.96875 47.46875 24.109375 47.828125  Q 26.265625 48.1875 28.421875 48.1875  Q 40.625 48.1875 47.75 41.5  Q 54.890625 34.8125 54.890625 23.390625  Q 54.890625 11.625 47.5625 5.09375  Q 40.234375 -1.421875 26.90625 -1.421875  Q 22.3125 -1.421875 17.546875 -0.640625  Q 12.796875 0.140625 7.71875 1.703125  L 7.71875 11.625  Q 12.109375 9.234375 16.796875 8.0625  Q 21.484375 6.890625 26.703125 6.890625  Q 35.15625 6.890625 40.078125 11.328125  Q 45.015625 15.765625 45.015625 23.390625  Q 45.015625 31 40.078125 35.4375  Q 35.15625 39.890625 26.703125 39.890625  Q 22.75 39.890625 18.8125 39.015625  Q 14.890625 38.140625 10.796875 36.28125  z "
                 id="BitstreamVeraSans-Roman-35" />
            </defs>
            <g
               transform="translate(41.28125 348.91125)scale(0.12 -0.12)"
               id="g424">
              <use
                 xlink:href="#BitstreamVeraSans-Roman-30"
                 id="use426" />
              <use
                 x="63.623046875"
                 xlink:href="#BitstreamVeraSans-Roman-2e"
                 id="use428" />
              <use
                 x="95.41015625"
                 xlink:href="#BitstreamVeraSans-Roman-30"
                 id="use430" />
              <use
                 x="159.033203125"
                 xlink:href="#BitstreamVeraSans-Roman-35"
                 id="use432" />
            </g>
          </g>
        </g>
        <g
           id="ytick_3">
          <g
             id="line2d_17">
            <g
               id="g436">
              <use
                 style="stroke:#000000;stroke-width:0.5;"
                 x="72.0"
                 xlink:href="#m9e4ccbbd9f"
                 y="302.4"
                 id="use438" />
            </g>
          </g>
          <g
             id="line2d_18">
            <g
               id="g441">
              <use
                 style="stroke:#000000;stroke-width:0.5;"
                 x="518.4"
                 xlink:href="#m9c88b63855"
                 y="302.4"
                 id="use443" />
            </g>
          </g>
          <g
             id="text_10">
            <!-- 0.10 -->
            <g
               transform="translate(41.28125 305.71125)scale(0.12 -0.12)"
               id="g446">
              <use
                 xlink:href="#BitstreamVeraSans-Roman-30"
                 id="use448" />
              <use
                 x="63.623046875"
                 xlink:href="#BitstreamVeraSans-Roman-2e"
                 id="use450" />
              <use
                 x="95.41015625"
                 xlink:href="#BitstreamVeraSans-Roman-31"
                 id="use452" />
              <use
                 x="159.033203125"
                 xlink:href="#BitstreamVeraSans-Roman-30"
                 id="use454" />
            </g>
          </g>
        </g>
        <g
           id="ytick_4">
          <g
             id="line2d_19">
            <g
               id="g458">
              <use
                 style="stroke:#000000;stroke-width:0.5;"
                 x="72.0"
                 xlink:href="#m9e4ccbbd9f"
                 y="259.2"
                 id="use460" />
            </g>
          </g>
          <g
             id="line2d_20">
            <g
               id="g463">
              <use
                 style="stroke:#000000;stroke-width:0.5;"
                 x="518.4"
                 xlink:href="#m9c88b63855"
                 y="259.2"
                 id="use465" />
            </g>
          </g>
          <g
             id="text_11">
            <!-- 0.15 -->
            <g
               transform="translate(41.28125 262.51125)scale(0.12 -0.12)"
               id="g468">
              <use
                 xlink:href="#BitstreamVeraSans-Roman-30"
                 id="use470" />
              <use
                 x="63.623046875"
                 xlink:href="#BitstreamVeraSans-Roman-2e"
                 id="use472" />
              <use
                 x="95.41015625"
                 xlink:href="#BitstreamVeraSans-Roman-31"
                 id="use474" />
              <use
                 x="159.033203125"
                 xlink:href="#BitstreamVeraSans-Roman-35"
                 id="use476" />
            </g>
          </g>
        </g>
        <g
           id="ytick_5">
          <g
             id="line2d_21">
            <g
               id="g480">
              <use
                 style="stroke:#000000;stroke-width:0.5;"
                 x="72.0"
                 xlink:href="#m9e4ccbbd9f"
                 y="216.0"
                 id="use482" />
            </g>
          </g>
          <g
             id="line2d_22">
            <g
               id="g485">
              <use
                 style="stroke:#000000;stroke-width:0.5;"
                 x="518.4"
                 xlink:href="#m9c88b63855"
                 y="216.0"
                 id="use487" />
            </g>
          </g>
          <g
             id="text_12">
            <!-- 0.20 -->
            <g
               transform="translate(41.28125 219.31125)scale(0.12 -0.12)"
               id="g490">
              <use
                 xlink:href="#BitstreamVeraSans-Roman-30"
                 id="use492" />
              <use
                 x="63.623046875"
                 xlink:href="#BitstreamVeraSans-Roman-2e"
                 id="use494" />
              <use
                 x="95.41015625"
                 xlink:href="#BitstreamVeraSans-Roman-32"
                 id="use496" />
              <use
                 x="159.033203125"
                 xlink:href="#BitstreamVeraSans-Roman-30"
                 id="use498" />
            </g>
          </g>
        </g>
        <g
           id="ytick_6">
          <g
             id="line2d_23">
            <g
               id="g502">
              <use
                 style="stroke:#000000;stroke-width:0.5;"
                 x="72.0"
                 xlink:href="#m9e4ccbbd9f"
                 y="172.8"
                 id="use504" />
            </g>
          </g>
          <g
             id="line2d_24">
            <g
               id="g507">
              <use
                 style="stroke:#000000;stroke-width:0.5;"
                 x="518.4"
                 xlink:href="#m9c88b63855"
                 y="172.8"
                 id="use509" />
            </g>
          </g>
          <g
             id="text_13">
            <!-- 0.25 -->
            <g
               transform="translate(41.28125 176.11125)scale(0.12 -0.12)"
               id="g512">
              <use
                 xlink:href="#BitstreamVeraSans-Roman-30"
                 id="use514" />
              <use
                 x="63.623046875"
                 xlink:href="#BitstreamVeraSans-Roman-2e"
                 id="use516" />
              <use
                 x="95.41015625"
                 xlink:href="#BitstreamVeraSans-Roman-32"
                 id="use518" />
              <use
                 x="159.033203125"
                 xlink:href="#BitstreamVeraSans-Roman-35"
                 id="use520" />
            </g>
          </g>
        </g>
        <g
           id="ytick_7">
          <g
             id="line2d_25">
            <g
               id="g524">
              <use
                 style="stroke:#000000;stroke-width:0.5;"
                 x="72.0"
                 xlink:href="#m9e4ccbbd9f"
                 y="129.6"
                 id="use526" />
            </g>
          </g>
          <g
             id="line2d_26">
            <g
               id="g529">
              <use
                 style="stroke:#000000;stroke-width:0.5;"
                 x="518.4"
                 xlink:href="#m9c88b63855"
                 y="129.6"
                 id="use531" />
            </g>
          </g>
          <g
             id="text_14">
            <!-- 0.30 -->
            <defs
               id="defs534">
              <path
                 d="M 40.578125 39.3125  Q 47.65625 37.796875 51.625 33  Q 55.609375 28.21875 55.609375 21.1875  Q 55.609375 10.40625 48.1875 4.484375  Q 40.765625 -1.421875 27.09375 -1.421875  Q 22.515625 -1.421875 17.65625 -0.515625  Q 12.796875 0.390625 7.625 2.203125  L 7.625 11.71875  Q 11.71875 9.328125 16.59375 8.109375  Q 21.484375 6.890625 26.8125 6.890625  Q 36.078125 6.890625 40.9375 10.546875  Q 45.796875 14.203125 45.796875 21.1875  Q 45.796875 27.640625 41.28125 31.265625  Q 36.765625 34.90625 28.71875 34.90625  L 20.21875 34.90625  L 20.21875 43.015625  L 29.109375 43.015625  Q 36.375 43.015625 40.234375 45.921875  Q 44.09375 48.828125 44.09375 54.296875  Q 44.09375 59.90625 40.109375 62.90625  Q 36.140625 65.921875 28.71875 65.921875  Q 24.65625 65.921875 20.015625 65.03125  Q 15.375 64.15625 9.8125 62.3125  L 9.8125 71.09375  Q 15.4375 72.65625 20.34375 73.4375  Q 25.25 74.21875 29.59375 74.21875  Q 40.828125 74.21875 47.359375 69.109375  Q 53.90625 64.015625 53.90625 55.328125  Q 53.90625 49.265625 50.4375 45.09375  Q 46.96875 40.921875 40.578125 39.3125  "
                 id="BitstreamVeraSans-Roman-33" />
            </defs>
            <g
               transform="translate(41.28125 132.91125)scale(0.12 -0.12)"
               id="g537">
              <use
                 xlink:href="#BitstreamVeraSans-Roman-30"
                 id="use539" />
              <use
                 x="63.623046875"
                 xlink:href="#BitstreamVeraSans-Roman-2e"
                 id="use541" />
              <use
                 x="95.41015625"
                 xlink:href="#BitstreamVeraSans-Roman-33"
                 id="use543" />
              <use
                 x="159.033203125"
                 xlink:href="#BitstreamVeraSans-Roman-30"
                 id="use545" />
            </g>
          </g>
        </g>
        <g
           id="ytick_8">
          <g
             id="line2d_27">
            <g
               id="g549">
              <use
                 style="stroke:#000000;stroke-width:0.5;"
                 x="72.0"
                 xlink:href="#m9e4ccbbd9f"
                 y="86.4"
                 id="use551" />
            </g>
          </g>
          <g
             id="line2d_28">
            <g
               id="g554">
              <use
                 style="stroke:#000000;stroke-width:0.5;"
                 x="518.4"
                 xlink:href="#m9c88b63855"
                 y="86.4"
                 id="use556" />
            </g>
          </g>
          <g
             id="text_15">
            <!-- 0.35 -->
            <g
               transform="translate(41.28125 89.71125)scale(0.12 -0.12)"
               id="g559">
              <use
                 xlink:href="#BitstreamVeraSans-Roman-30"
                 id="use561" />
              <use
                 x="63.623046875"
                 xlink:href="#BitstreamVeraSans-Roman-2e"
                 id="use563" />
              <use
                 x="95.41015625"
                 xlink:href="#BitstreamVeraSans-Roman-33"
                 id="use565" />
              <use
                 x="159.033203125"
                 xlink:href="#BitstreamVeraSans-Roman-35"
                 id="use567" />
            </g>
          </g>
        </g>
        <g
           id="ytick_9">
          <g
             id="line2d_29">
            <g
               id="g571">
              <use
                 style="stroke:#000000;stroke-width:0.5;"
                 x="72.0"
                 xlink:href="#m9e4ccbbd9f"
                 y="43.2"
                 id="use573" />
            </g>
          </g>
          <g
             id="line2d_30">
            <g
               id="g576">
              <use
                 style="stroke:#000000;stroke-width:0.5;"
                 x="518.4"
                 xlink:href="#m9c88b63855"
                 y="43.2"
                 id="use578" />
            </g>
          </g>
          <g
             id="text_16">
            <!-- 0.40 -->
            <g
               transform="translate(41.28125 46.51125)scale(0.12 -0.12)"
               id="g581">
              <use
                 xlink:href="#BitstreamVeraSans-Roman-30"
                 id="use583" />
              <use
                 x="63.623046875"
                 xlink:href="#BitstreamVeraSans-Roman-2e"
                 id="use585" />
              <use
                 x="95.41015625"
                 xlink:href="#BitstreamVeraSans-Roman-34"
                 id="use587" />
              <use
                 x="159.033203125"
                 xlink:href="#BitstreamVeraSans-Roman-30"
                 id="use589" />
            </g>
          </g>
        </g>
        <g
           id="text_17">
          <!-- Temperature $(T)$ -->
          <defs
             id="defs592">
            <path
               d="M 4.59375 1.3125  Q 4.640625 1.5625 4.8125 2.1875  Q 4.984375 2.828125 5.25 3.171875  Q 5.515625 3.515625 6 3.515625  Q 14.59375 3.515625 17.390625 4  Q 20.0625 4.6875 20.609375 6.890625  L 34.28125 61.8125  Q 34.71875 63.03125 34.71875 64.015625  Q 34.71875 64.796875 31.203125 64.796875  L 25.390625 64.796875  Q 18.703125 64.796875 15.0625 62.734375  Q 11.421875 60.6875 9.71875 57.3125  Q 8.015625 53.953125 5.328125 46.296875  Q 4.984375 45.40625 4.296875 45.40625  L 3.421875 45.40625  Q 2.390625 45.40625 2.390625 46.6875  L 9.515625 67.390625  Q 9.71875 68.3125 10.5 68.3125  L 69.578125 68.3125  Q 70.609375 68.3125 70.609375 67  L 67.28125 46.296875  Q 67.28125 46 66.9375 45.703125  Q 66.609375 45.40625 66.3125 45.40625  L 65.375 45.40625  Q 64.40625 45.40625 64.40625 46.6875  Q 65.484375 53.765625 65.484375 56.6875  Q 65.484375 60.203125 64.015625 62  Q 62.546875 63.8125 60.203125 64.296875  Q 57.859375 64.796875 54.109375 64.796875  L 48.1875 64.796875  Q 45.515625 64.796875 44.578125 64.296875  Q 43.65625 63.8125 43.015625 61.375  L 29.296875 6.5  Q 29.25 6.296875 29.21875 6.09375  Q 29.203125 5.90625 29.109375 5.609375  Q 29.109375 4.34375 30.609375 4  Q 33.203125 3.515625 41.703125 3.515625  Q 42.671875 3.515625 42.671875 2.203125  Q 42.328125 0.78125 42.125 0.390625  Q 41.9375 0 41.015625 0  L 5.609375 0  Q 4.59375 0 4.59375 1.3125  "
               id="Cmmi10-54" />
            <path
               d="M 52 44.1875  Q 55.375 50.25 60.0625 53.125  Q 64.75 56 71.09375 56  Q 79.640625 56 84.28125 50.015625  Q 88.921875 44.046875 88.921875 33.015625  L 88.921875 0  L 79.890625 0  L 79.890625 32.71875  Q 79.890625 40.578125 77.09375 44.375  Q 74.3125 48.1875 68.609375 48.1875  Q 61.625 48.1875 57.5625 43.546875  Q 53.515625 38.921875 53.515625 30.90625  L 53.515625 0  L 44.484375 0  L 44.484375 32.71875  Q 44.484375 40.625 41.703125 44.40625  Q 38.921875 48.1875 33.109375 48.1875  Q 26.21875 48.1875 22.15625 43.53125  Q 18.109375 38.875 18.109375 30.90625  L 18.109375 0  L 9.078125 0  L 9.078125 54.6875  L 18.109375 54.6875  L 18.109375 46.1875  Q 21.1875 51.21875 25.484375 53.609375  Q 29.78125 56 35.6875 56  Q 41.65625 56 45.828125 52.96875  Q 50 49.953125 52 44.1875  "
               id="BitstreamVeraSans-Roman-6d" />
            <path
               d="M 8.5 21.578125  L 8.5 54.6875  L 17.484375 54.6875  L 17.484375 21.921875  Q 17.484375 14.15625 20.5 10.265625  Q 23.53125 6.390625 29.59375 6.390625  Q 36.859375 6.390625 41.078125 11.03125  Q 45.3125 15.671875 45.3125 23.6875  L 45.3125 54.6875  L 54.296875 54.6875  L 54.296875 0  L 45.3125 0  L 45.3125 8.40625  Q 42.046875 3.421875 37.71875 1  Q 33.40625 -1.421875 27.6875 -1.421875  Q 18.265625 -1.421875 13.375 4.4375  Q 8.5 10.296875 8.5 21.578125  "
               id="BitstreamVeraSans-Roman-75" />
            <path
               d="M -0.296875 72.90625  L 61.375 72.90625  L 61.375 64.59375  L 35.5 64.59375  L 35.5 0  L 25.59375 0  L 25.59375 64.59375  L -0.296875 64.59375  z "
               id="BitstreamVeraSans-Roman-54" />
            <path
               d="M 18.109375 8.203125  L 18.109375 -20.796875  L 9.078125 -20.796875  L 9.078125 54.6875  L 18.109375 54.6875  L 18.109375 46.390625  Q 20.953125 51.265625 25.265625 53.625  Q 29.59375 56 35.59375 56  Q 45.5625 56 51.78125 48.09375  Q 58.015625 40.1875 58.015625 27.296875  Q 58.015625 14.40625 51.78125 6.484375  Q 45.5625 -1.421875 35.59375 -1.421875  Q 29.59375 -1.421875 25.265625 0.953125  Q 20.953125 3.328125 18.109375 8.203125  M 48.6875 27.296875  Q 48.6875 37.203125 44.609375 42.84375  Q 40.53125 48.484375 33.40625 48.484375  Q 26.265625 48.484375 22.1875 42.84375  Q 18.109375 37.203125 18.109375 27.296875  Q 18.109375 17.390625 22.1875 11.75  Q 26.265625 6.109375 33.40625 6.109375  Q 40.53125 6.109375 44.609375 11.75  Q 48.6875 17.390625 48.6875 27.296875  "
               id="BitstreamVeraSans-Roman-70" />
          </defs>
          <g
             transform="translate(33.28125 265.26)rotate(-90.0)scale(0.12 -0.12)"
             id="g599">
            <use
               xlink:href="#BitstreamVeraSans-Roman-54"
               id="use601" />
            <use
               transform="translate(61.083984375 0.0)"
               xlink:href="#BitstreamVeraSans-Roman-65"
               id="use603" />
            <use
               transform="translate(122.607421875 0.0)"
               xlink:href="#BitstreamVeraSans-Roman-6d"
               id="use605" />
            <use
               transform="translate(220.01953125 0.0)"
               xlink:href="#BitstreamVeraSans-Roman-70"
               id="use607" />
            <use
               transform="translate(283.49609375 0.0)"
               xlink:href="#BitstreamVeraSans-Roman-65"
               id="use609" />
            <use
               transform="translate(345.01953125 0.0)"
               xlink:href="#BitstreamVeraSans-Roman-72"
               id="use611" />
            <use
               transform="translate(386.1328125 0.0)"
               xlink:href="#BitstreamVeraSans-Roman-61"
               id="use613" />
            <use
               transform="translate(447.412109375 0.0)"
               xlink:href="#BitstreamVeraSans-Roman-74"
               id="use615" />
            <use
               transform="translate(486.62109375 0.0)"
               xlink:href="#BitstreamVeraSans-Roman-75"
               id="use617" />
            <use
               transform="translate(550.0 0.0)"
               xlink:href="#BitstreamVeraSans-Roman-72"
               id="use619" />
            <use
               transform="translate(591.11328125 0.0)"
               xlink:href="#BitstreamVeraSans-Roman-65"
               id="use621" />
            <use
               transform="translate(652.63671875 0.0)"
               xlink:href="#BitstreamVeraSans-Roman-20"
               id="use623" />
            <use
               transform="translate(684.423828125 0.0)"
               xlink:href="#Cmr10-28"
               id="use625" />
            <use
               transform="translate(723.2421875 0.0)"
               xlink:href="#Cmmi10-54"
               id="use627" />
            <use
               transform="translate(781.640625 0.0)"
               xlink:href="#Cmr10-29"
               id="use629" />
          </g>
        </g>
      </g>
      <g
         id="text_18">
        <!-- Monotectic Phase Diagram -->
        <defs
           id="defs632">
          <path
             d="M 9.8125 72.90625  L 24.515625 72.90625  L 43.109375 23.296875  L 61.8125 72.90625  L 76.515625 72.90625  L 76.515625 0  L 66.890625 0  L 66.890625 64.015625  L 48.09375 14.015625  L 38.1875 14.015625  L 19.390625 64.015625  L 19.390625 0  L 9.8125 0  z "
             id="BitstreamVeraSans-Roman-4d" />
          <path
             d="M 19.671875 64.796875  L 19.671875 37.40625  L 32.078125 37.40625  Q 38.96875 37.40625 42.71875 40.96875  Q 46.484375 44.53125 46.484375 51.125  Q 46.484375 57.671875 42.71875 61.234375  Q 38.96875 64.796875 32.078125 64.796875  z M 9.8125 72.90625  L 32.078125 72.90625  Q 44.34375 72.90625 50.609375 67.359375  Q 56.890625 61.8125 56.890625 51.125  Q 56.890625 40.328125 50.609375 34.8125  Q 44.34375 29.296875 32.078125 29.296875  L 19.671875 29.296875  L 19.671875 0  L 9.8125 0  z "
             id="BitstreamVeraSans-Roman-50" />
          <path
             d="M 19.671875 64.796875  L 19.671875 8.109375  L 31.59375 8.109375  Q 46.6875 8.109375 53.6875 14.9375  Q 60.6875 21.78125 60.6875 36.53125  Q 60.6875 51.171875 53.6875 57.984375  Q 46.6875 64.796875 31.59375 64.796875  z M 9.8125 72.90625  L 30.078125 72.90625  Q 51.265625 72.90625 61.171875 64.09375  Q 71.09375 55.28125 71.09375 36.53125  Q 71.09375 17.671875 61.125 8.828125  Q 51.171875 0 30.078125 0  L 9.8125 0  z "
             id="BitstreamVeraSans-Roman-44" />
          <path
             d="M 54.890625 33.015625  L 54.890625 0  L 45.90625 0  L 45.90625 32.71875  Q 45.90625 40.484375 42.875 44.328125  Q 39.84375 48.1875 33.796875 48.1875  Q 26.515625 48.1875 22.3125 43.546875  Q 18.109375 38.921875 18.109375 30.90625  L 18.109375 0  L 9.078125 0  L 9.078125 75.984375  L 18.109375 75.984375  L 18.109375 46.1875  Q 21.34375 51.125 25.703125 53.5625  Q 30.078125 56 35.796875 56  Q 45.21875 56 50.046875 50.171875  Q 54.890625 44.34375 54.890625 33.015625  "
             id="BitstreamVeraSans-Roman-68" />
          <path
             d="M 45.40625 27.984375  Q 45.40625 37.75 41.375 43.109375  Q 37.359375 48.484375 30.078125 48.484375  Q 22.859375 48.484375 18.828125 43.109375  Q 14.796875 37.75 14.796875 27.984375  Q 14.796875 18.265625 18.828125 12.890625  Q 22.859375 7.515625 30.078125 7.515625  Q 37.359375 7.515625 41.375 12.890625  Q 45.40625 18.265625 45.40625 27.984375  M 54.390625 6.78125  Q 54.390625 -7.171875 48.1875 -13.984375  Q 42 -20.796875 29.203125 -20.796875  Q 24.46875 -20.796875 20.265625 -20.09375  Q 16.0625 -19.390625 12.109375 -17.921875  L 12.109375 -9.1875  Q 16.0625 -11.328125 19.921875 -12.34375  Q 23.78125 -13.375 27.78125 -13.375  Q 36.625 -13.375 41.015625 -8.765625  Q 45.40625 -4.15625 45.40625 5.171875  L 45.40625 9.625  Q 42.625 4.78125 38.28125 2.390625  Q 33.9375 0 27.875 0  Q 17.828125 0 11.671875 7.65625  Q 5.515625 15.328125 5.515625 27.984375  Q 5.515625 40.671875 11.671875 48.328125  Q 17.828125 56 27.875 56  Q 33.9375 56 38.28125 53.609375  Q 42.625 51.21875 45.40625 46.390625  L 45.40625 54.6875  L 54.390625 54.6875  z "
             id="BitstreamVeraSans-Roman-67" />
          <path
             d="M 44.28125 53.078125  L 44.28125 44.578125  Q 40.484375 46.53125 36.375 47.5  Q 32.28125 48.484375 27.875 48.484375  Q 21.1875 48.484375 17.84375 46.4375  Q 14.5 44.390625 14.5 40.28125  Q 14.5 37.15625 16.890625 35.375  Q 19.28125 33.59375 26.515625 31.984375  L 29.59375 31.296875  Q 39.15625 29.25 43.1875 25.515625  Q 47.21875 21.78125 47.21875 15.09375  Q 47.21875 7.46875 41.1875 3.015625  Q 35.15625 -1.421875 24.609375 -1.421875  Q 20.21875 -1.421875 15.453125 -0.5625  Q 10.6875 0.296875 5.421875 2  L 5.421875 11.28125  Q 10.40625 8.6875 15.234375 7.390625  Q 20.0625 6.109375 24.8125 6.109375  Q 31.15625 6.109375 34.5625 8.28125  Q 37.984375 10.453125 37.984375 14.40625  Q 37.984375 18.0625 35.515625 20.015625  Q 33.0625 21.96875 24.703125 23.78125  L 21.578125 24.515625  Q 13.234375 26.265625 9.515625 29.90625  Q 5.8125 33.546875 5.8125 39.890625  Q 5.8125 47.609375 11.28125 51.796875  Q 16.75 56 26.8125 56  Q 31.78125 56 36.171875 55.265625  Q 40.578125 54.546875 44.28125 53.078125  "
             id="BitstreamVeraSans-Roman-73" />
        </defs>
        <g
           transform="translate(198.633375 38.2)scale(0.144 -0.144)"
           id="g640">
          <use
             xlink:href="#BitstreamVeraSans-Roman-4d"
             id="use642" />
          <use
             x="86.279296875"
             xlink:href="#BitstreamVeraSans-Roman-6f"
             id="use644" />
          <use
             x="147.4609375"
             xlink:href="#BitstreamVeraSans-Roman-6e"
             id="use646" />
          <use
             x="210.83984375"
             xlink:href="#BitstreamVeraSans-Roman-6f"
             id="use648" />
          <use
             x="272.021484375"
             xlink:href="#BitstreamVeraSans-Roman-74"
             id="use650" />
          <use
             x="311.23046875"
             xlink:href="#BitstreamVeraSans-Roman-65"
             id="use652" />
          <use
             x="372.75390625"
             xlink:href="#BitstreamVeraSans-Roman-63"
             id="use654" />
          <use
             x="427.734375"
             xlink:href="#BitstreamVeraSans-Roman-74"
             id="use656" />
          <use
             x="466.943359375"
             xlink:href="#BitstreamVeraSans-Roman-69"
             id="use658" />
          <use
             x="494.7265625"
             xlink:href="#BitstreamVeraSans-Roman-63"
             id="use660" />
          <use
             x="549.70703125"
             xlink:href="#BitstreamVeraSans-Roman-20"
             id="use662" />
          <use
             x="581.494140625"
             xlink:href="#BitstreamVeraSans-Roman-50"
             id="use664" />
          <use
             x="641.796875"
             xlink:href="#BitstreamVeraSans-Roman-68"
             id="use666" />
          <use
             x="705.17578125"
             xlink:href="#BitstreamVeraSans-Roman-61"
             id="use668" />
          <use
             x="766.455078125"
             xlink:href="#BitstreamVeraSans-Roman-73"
             id="use670" />
          <use
             x="818.5546875"
             xlink:href="#BitstreamVeraSans-Roman-65"
             id="use672" />
          <use
             x="880.078125"
             xlink:href="#BitstreamVeraSans-Roman-20"
             id="use674" />
          <use
             x="911.865234375"
             xlink:href="#BitstreamVeraSans-Roman-44"
             id="use676" />
          <use
             x="988.8671875"
             xlink:href="#BitstreamVeraSans-Roman-69"
             id="use678" />
          <use
             x="1016.65039062"
             xlink:href="#BitstreamVeraSans-Roman-61"
             id="use680" />
          <use
             x="1077.9296875"
             xlink:href="#BitstreamVeraSans-Roman-67"
             id="use682" />
          <use
             x="1141.40625"
             xlink:href="#BitstreamVeraSans-Roman-72"
             id="use684" />
          <use
             x="1182.51953125"
             xlink:href="#BitstreamVeraSans-Roman-61"
             id="use686" />
          <use
             x="1243.79882812"
             xlink:href="#BitstreamVeraSans-Roman-6d"
             id="use688" />
        </g>
      </g>
    </g>
  </g>
  <defs
     id="defs690">
    <clipPath
       id="pe1a0d5d15a">
      <rect
         height="345.6"
         width="446.4"
         x="72.0"
         y="43.2"
         id="rect693" />
    </clipPath>
  </defs>
  <path
     style="fill:none;fill-rule:evenodd;stroke:#000000;stroke-width:0.80000001px;stroke-linecap:butt;stroke-linejoin:miter;stroke-miterlimit:100000;stroke-opacity:1"
     d="m 114.86441,169.32203 323.08474,-0.45762"
     id="path4825"
     inkscape:connector-curvature="0" />
  <path
     style="fill:#9999ea;fill-opacity:0.73399012;fill-rule:evenodd;stroke:#000000;stroke-width:0.80000001px;stroke-linecap:butt;stroke-linejoin:miter;stroke-miterlimit:100000;stroke-opacity:1"
     d="m 72,131.33898 c 15.402079,10.9901 34.15527,16.95354 42.86441,37.98305 C 93.155392,241.51547 94.897323,315.51283 87.406776,388.8 L 72,388.8 Z"
     id="path4829"
     inkscape:connector-curvature="0"
     sodipodi:nodetypes="ccccc" />
  <path
     style="fill:none;fill-rule:evenodd;stroke:#000000;stroke-width:0.80000001px;stroke-linecap:butt;stroke-linejoin:miter;stroke-miterlimit:100000;stroke-opacity:1"
     d="m 72,131.33898 c 25.004227,6.93927 42.73737,11.12716 79.01428,37.93185 37.0039,-35.35944 72.4791,-66.70356 136.83318,-66.30473 89.86099,0.71181 121.03286,36.94312 150.10169,65.89831 73.09714,67.14039 66.50204,195.12166 69.55932,219.93559"
     id="path4831"
     inkscape:connector-curvature="0"
     sodipodi:nodetypes="ccccc" />
  <g
     style="stroke-linecap:butt;stroke-linejoin:round;stroke-miterlimit:100000"
     transform="matrix(0.78775666,0,0,0.78775666,-55.886027,44.29518)"
     id="g6063">
    <g
       style="font-style:normal;font-variant:normal;font-weight:normal;font-stretch:normal;letter-spacing:normal;word-spacing:normal;text-anchor:start;fill:none;fill-opacity:1;fill-rule:evenodd;stroke:#000000;stroke-linecap:butt;stroke-linejoin:round;stroke-miterlimit:100000;stroke-dasharray:none;stroke-dashoffset:0;stroke-opacity:1"
       id="content"
       transform="matrix(0.61714286,0,0,-0.61714286,-108,432)"
       xml:space="preserve"
       stroke-miterlimit="10.433"
       font-style="normal"
       font-variant="normal"
       font-weight="normal"
       font-stretch="normal"
       font-size-adjust="none"
       letter-spacing="normal"
       word-spacing="normal"><path
         style="fill:#000000;stroke-width:0;stroke-linecap:butt;stroke-linejoin:round;stroke-miterlimit:100000"
         inkscape:connector-curvature="0"
         d="m 479.29,417.96 -0.01,0.37 -0.01,0.35 -0.02,0.35 -0.02,0.34 -0.06,0.65 -0.09,0.63 -0.11,0.59 -0.14,0.57 -0.15,0.54 -0.18,0.51 -0.19,0.49 -0.21,0.45 -0.23,0.44 -0.25,0.4 -0.26,0.38 -0.27,0.36 -0.29,0.33 -0.3,0.31 -0.31,0.29 -0.31,0.26 -0.33,0.24 -0.34,0.22 -0.34,0.2 -0.35,0.18 -0.35,0.16 -0.36,0.14 -0.35,0.12 -0.36,0.11 -0.37,0.09 -0.36,0.06 -0.36,0.06 -0.35,0.04 -0.35,0.02 -0.35,0 -0.05,-1.09 c 4.94,0 4.94,-6.53 4.94,-10.41 0,-1.84 0,-4.73 0.09,-5.57 l 0,0 c -4.37,-3.85 -8.22,-4.39 -10.2,-4.39 -3,0 -4.49,2.25 -4.49,5.43 0,2.44 1.3,7.82 2.89,10.36 2.33,3.64 5.04,4.58 6.77,4.58 l 0.05,1.09 c -6.82,0 -13.39,-7.12 -13.39,-14.14 0,-4.64 2.98,-8.42 8.06,-8.42 3.14,0 6.73,1.14 10.51,4.19 0.66,-2.64 2.3,-4.19 4.54,-4.19 2.64,0 4.18,2.74 4.18,3.53 0,0.36 -0.29,0.5 -0.59,0.5 -0.36,0 -0.5,-0.14 -0.66,-0.5 -0.89,-2.43 -2.68,-2.43 -2.78,-2.43 -1.54,0 -1.54,3.89 -1.54,5.07 0,1.05 0,1.16 0.5,1.75 4.68,5.88 5.73,11.66 5.73,11.71 0,0.11 -0.06,0.5 -0.61,0.5 -0.5,0 -0.5,-0.14 -0.75,-1.05 -0.89,-3.14 -2.53,-6.92 -4.87,-9.86 z"
         id="path6066" /></g>  </g>
  <g
     id="g6888"
     transform="matrix(0.66470776,0,0,0.66470776,147.70758,136.46914)"
     style="stroke-linecap:butt;stroke-linejoin:round;stroke-miterlimit:100000">
    <g
       word-spacing="normal"
       letter-spacing="normal"
       font-size-adjust="none"
       font-stretch="normal"
       font-weight="normal"
       font-variant="normal"
       font-style="normal"
       stroke-miterlimit="10.433"
       xml:space="preserve"
       transform="matrix(0.61714286,0,0,-0.61714286,-108,432)"
       id="g6890"
       style="font-style:normal;font-variant:normal;font-weight:normal;font-stretch:normal;letter-spacing:normal;word-spacing:normal;text-anchor:start;fill:none;fill-opacity:1;fill-rule:evenodd;stroke:#000000;stroke-linecap:butt;stroke-linejoin:round;stroke-miterlimit:100000;stroke-dasharray:none;stroke-dashoffset:0;stroke-opacity:1"><path
         id="path6892"
         d="m 479.29,417.96 -0.01,0.37 -0.01,0.35 -0.02,0.35 -0.02,0.34 -0.06,0.65 -0.09,0.63 -0.11,0.59 -0.14,0.57 -0.15,0.54 -0.18,0.51 -0.19,0.49 -0.21,0.45 -0.23,0.44 -0.25,0.4 -0.26,0.38 -0.27,0.36 -0.29,0.33 -0.3,0.31 -0.31,0.29 -0.31,0.26 -0.33,0.24 -0.34,0.22 -0.34,0.2 -0.35,0.18 -0.35,0.16 -0.36,0.14 -0.35,0.12 -0.36,0.11 -0.37,0.09 -0.36,0.06 -0.36,0.06 -0.35,0.04 -0.35,0.02 -0.35,0 -0.05,-1.09 c 4.94,0 4.94,-6.53 4.94,-10.41 0,-1.84 0,-4.73 0.09,-5.57 l 0,0 c -4.37,-3.85 -8.22,-4.39 -10.2,-4.39 -3,0 -4.49,2.25 -4.49,5.43 0,2.44 1.3,7.82 2.89,10.36 2.33,3.64 5.04,4.58 6.77,4.58 l 0.05,1.09 c -6.82,0 -13.39,-7.12 -13.39,-14.14 0,-4.64 2.98,-8.42 8.06,-8.42 3.14,0 6.73,1.14 10.51,4.19 0.66,-2.64 2.3,-4.19 4.54,-4.19 2.64,0 4.18,2.74 4.18,3.53 0,0.36 -0.29,0.5 -0.59,0.5 -0.36,0 -0.5,-0.14 -0.66,-0.5 -0.89,-2.43 -2.68,-2.43 -2.78,-2.43 -1.54,0 -1.54,3.89 -1.54,5.07 0,1.05 0,1.16 0.5,1.75 4.68,5.88 5.73,11.66 5.73,11.71 0,0.11 -0.06,0.5 -0.61,0.5 -0.5,0 -0.5,-0.14 -0.75,-1.05 -0.89,-3.14 -2.53,-6.92 -4.87,-9.86 z"
         inkscape:connector-curvature="0"
         style="fill:#000000;stroke-width:0;stroke-linecap:butt;stroke-linejoin:round;stroke-miterlimit:100000" /><path
         id="path6894"
         d="m 519.09,417.65 13.91,0 c 0.69,0 1.64,0 1.64,1 0,1 -0.95,1 -1.64,1 l -13.91,0 0,13.96 c 0,0.68 0,1.64 -1,1.64 -0.98,0 -0.98,-0.96 -0.98,-1.64 l 0,-13.96 -13.95,0 c -0.71,0 -1.64,0 -1.64,-1 0,-1 0.93,-1 1.64,-1 l 13.95,0 0,-13.94 c 0,-0.7 0,-1.65 0.98,-1.65 1,0 1,0.95 1,1.65 z"
         inkscape:connector-curvature="0"
         style="fill:#000000;stroke-width:0;stroke-linecap:butt;stroke-linejoin:round;stroke-miterlimit:100000" /><path
         id="path6896"
         d="m 561.38,440.23 -0.01,0 0,0.01 0,0 0,0.01 0,0.02 0,0.01 0,0.02 0,0.02 -0.01,0.02 0,0.02 -0.01,0.02 0,0.02 -0.01,0.02 -0.01,0.03 -0.01,0.02 -0.01,0.03 -0.02,0.02 -0.01,0.03 -0.02,0.02 -0.02,0.02 -0.03,0.03 -0.01,0.01 -0.01,0.01 -0.01,0.01 -0.02,0.01 -0.01,0.01 -0.02,0.01 -0.01,0.01 -0.02,0.01 -0.02,0.01 -0.02,0.01 -0.02,0 -0.02,0.01 -0.02,0.01 -0.02,0 -0.02,0.01 -0.02,0.01 -0.03,0 -0.02,0 -0.03,0.01 -0.03,0 -0.02,0 -0.03,0.01 -0.03,0 -0.03,0 c -1.14,0 -4.78,-0.41 -6.08,-0.5 -0.39,-0.05 -0.94,-0.1 -0.94,-1.05 0,-0.55 0.49,-0.55 1.24,-0.55 2.39,0 2.45,-0.45 2.45,-0.84 l -0.16,-1 -6.28,-24.91 c -0.14,-0.54 -0.25,-0.9 -0.25,-1.7 0,-2.83 2.21,-4.58 4.53,-4.58 1.66,0 2.89,1 3.75,2.78 0.9,1.91 1.49,4.8 1.49,4.89 0,0.5 -0.44,0.5 -0.59,0.5 -0.5,0 -0.55,-0.2 -0.71,-0.9 -0.84,-3.24 -1.78,-6.17 -3.78,-6.17 -1.5,0 -1.5,1.59 -1.5,2.29 0,1.19 0.06,1.44 0.3,2.39 z"
         inkscape:connector-curvature="0"
         style="fill:#000000;stroke-width:0;stroke-linecap:butt;stroke-linejoin:round;stroke-miterlimit:100000" /><path
         id="path6898"
         d="m 580.99,405.11 -1.19,0 c -0.09,-0.77 -0.45,-2.83 -0.9,-3.18 -0.27,-0.2 -2.95,-0.2 -3.44,-0.2 l -6.42,0 c 3.66,3.23 4.87,4.2 6.97,5.84 2.58,2.07 4.98,4.22 4.98,7.54 0,4.21 -3.69,6.79 -8.15,6.79 -4.32,0 -7.25,-3.03 -7.25,-6.23 0,-1.78 1.5,-1.96 1.86,-1.96 0.82,0 1.84,0.6 1.84,1.85 0,0.62 -0.25,1.84 -2.06,1.84 1.07,2.47 3.45,3.24 5.09,3.24 3.48,0 5.3,-2.71 5.3,-5.53 0,-3.04 -2.16,-5.44 -3.28,-6.69 l -8.39,-8.3 c -0.36,-0.31 -0.36,-0.39 -0.36,-1.36 l 14.36,0 z"
         inkscape:connector-curvature="0"
         style="fill:#000000;stroke-width:0;stroke-linecap:butt;stroke-linejoin:round;stroke-miterlimit:100000" /></g>  </g>
  <g
     id="g7732"
     transform="matrix(0.60218222,0,0,0.60218222,162.30655,36.641204)"
     style="stroke-linecap:butt;stroke-linejoin:round;stroke-miterlimit:100000">
    <g
       id="g7734"
       transform="matrix(0.61714286,0,0,-0.61714286,-108,432)"
       xml:space="preserve"
       stroke-miterlimit="10.433"
       font-style="normal"
       font-variant="normal"
       font-weight="normal"
       font-stretch="normal"
       font-size-adjust="none"
       letter-spacing="normal"
       word-spacing="normal"
       style="font-style:normal;font-variant:normal;font-weight:normal;font-stretch:normal;letter-spacing:normal;word-spacing:normal;text-anchor:start;fill:none;fill-opacity:1;fill-rule:evenodd;stroke:#000000;stroke-linecap:butt;stroke-linejoin:round;stroke-miterlimit:100000;stroke-dasharray:none;stroke-dashoffset:0;stroke-opacity:1"><path
         d="m 468.38,440.23 0,0 0,0.01 0,0 0,0.01 0,0.02 0,0.01 -0.01,0.02 0,0.02 0,0.02 -0.01,0.02 0,0.02 -0.01,0.02 -0.01,0.02 0,0.03 -0.02,0.02 -0.01,0.03 -0.01,0.02 -0.02,0.03 -0.02,0.02 -0.02,0.02 -0.02,0.03 -0.01,0.01 -0.02,0.01 -0.01,0.01 -0.01,0.01 -0.02,0.01 -0.01,0.01 -0.02,0.01 -0.02,0.01 -0.02,0.01 -0.01,0.01 -0.02,0 -0.02,0.01 -0.02,0.01 -0.03,0 -0.02,0.01 -0.02,0.01 -0.02,0 -0.03,0 -0.02,0.01 -0.03,0 -0.03,0 -0.03,0.01 -0.03,0 -0.03,0 c -1.14,0 -4.78,-0.41 -6.08,-0.5 -0.39,-0.05 -0.93,-0.1 -0.93,-1.05 0,-0.55 0.48,-0.55 1.23,-0.55 2.39,0 2.45,-0.45 2.45,-0.84 l -0.15,-1 -6.28,-24.91 c -0.14,-0.54 -0.25,-0.9 -0.25,-1.7 0,-2.83 2.2,-4.58 4.53,-4.58 1.65,0 2.89,1 3.75,2.78 0.89,1.91 1.48,4.8 1.48,4.89 0,0.5 -0.43,0.5 -0.59,0.5 -0.5,0 -0.55,-0.2 -0.7,-0.9 -0.85,-3.24 -1.79,-6.17 -3.79,-6.17 -1.5,0 -1.5,1.59 -1.5,2.29 0,1.19 0.07,1.44 0.3,2.39 z"
         id="path7736"
         inkscape:connector-curvature="0"
         style="fill:#000000;stroke-width:0;stroke-linecap:butt;stroke-linejoin:round;stroke-miterlimit:100000" /><path
         d="m 482.07,420.92 0,0.04 0,0.04 0,0.05 0,0.04 0,0.03 0,0.04 0,0.04 0,0.03 -0.01,0.04 0,0.03 0,0.03 0,0.03 0,0.03 -0.01,0.03 0,0.03 -0.01,0.02 0,0.03 0,0.02 -0.01,0.03 0,0.02 -0.02,0.04 -0.01,0.04 -0.02,0.03 -0.02,0.03 -0.02,0.03 -0.02,0.03 -0.03,0.02 -0.03,0.02 -0.04,0.02 -0.03,0.01 -0.04,0.01 -0.05,0.02 -0.02,0 -0.03,0 -0.02,0.01 -0.03,0 -0.03,0.01 -0.02,0 -0.03,0 -0.03,0 -0.04,0 -0.03,0.01 -0.03,0 -0.04,0 -0.04,0 -0.03,0 -0.04,0 -0.04,0 -0.04,0 -0.05,0 -0.04,0 -0.05,0 c -2.23,-2.2 -5.39,-2.23 -6.82,-2.23 l 0,-1.25 c 0.84,0 3.14,0 5.04,0.97 l 0,-17.77 c 0,-1.16 0,-1.61 -3.48,-1.61 l -1.31,0 0,-1.25 c 0.62,0.03 4.9,0.14 6.2,0.14 1.08,0 5.47,-0.11 6.23,-0.14 l 0,1.25 -1.33,0 c -3.48,0 -3.48,0.45 -3.48,1.61 z"
         id="path7738"
         inkscape:connector-curvature="0"
         style="fill:#000000;stroke-width:0;stroke-linecap:butt;stroke-linejoin:round;stroke-miterlimit:100000" /><path
         d="m 524.25,417.65 13.91,0 c 0.69,0 1.64,0 1.64,1 0,1 -0.95,1 -1.64,1 l -13.91,0 0,13.96 c 0,0.68 0,1.64 -1,1.64 -0.98,0 -0.98,-0.96 -0.98,-1.64 l 0,-13.96 -13.95,0 c -0.71,0 -1.64,0 -1.64,-1 0,-1 0.93,-1 1.64,-1 l 13.95,0 0,-13.94 c 0,-0.7 0,-1.65 0.98,-1.65 1,0 1,0.95 1,1.65 z"
         id="path7740"
         inkscape:connector-curvature="0"
         style="fill:#000000;stroke-width:0;stroke-linecap:butt;stroke-linejoin:round;stroke-miterlimit:100000" /><path
         d="m 566.54,440.23 0,0 0,0.01 0,0 0,0.01 0,0.02 0,0.01 -0.01,0.02 0,0.02 0,0.02 -0.01,0.02 0,0.02 -0.01,0.02 -0.01,0.02 0,0.03 -0.02,0.02 -0.01,0.03 -0.01,0.02 -0.02,0.03 -0.02,0.02 -0.02,0.02 -0.02,0.03 -0.01,0.01 -0.02,0.01 -0.01,0.01 -0.01,0.01 -0.02,0.01 -0.01,0.01 -0.02,0.01 -0.02,0.01 -0.02,0.01 -0.01,0.01 -0.02,0 -0.02,0.01 -0.02,0.01 -0.03,0 -0.02,0.01 -0.02,0.01 -0.02,0 -0.03,0 -0.02,0.01 -0.03,0 -0.03,0 -0.03,0.01 -0.03,0 -0.03,0 c -1.14,0 -4.78,-0.41 -6.08,-0.5 -0.39,-0.05 -0.93,-0.1 -0.93,-1.05 0,-0.55 0.48,-0.55 1.23,-0.55 2.39,0 2.45,-0.45 2.45,-0.84 l -0.15,-1 -6.28,-24.91 c -0.14,-0.54 -0.25,-0.9 -0.25,-1.7 0,-2.83 2.2,-4.58 4.53,-4.58 1.65,0 2.89,1 3.75,2.78 0.89,1.91 1.48,4.8 1.48,4.89 0,0.5 -0.43,0.5 -0.59,0.5 -0.5,0 -0.55,-0.2 -0.7,-0.9 -0.85,-3.24 -1.79,-6.17 -3.79,-6.17 -1.5,0 -1.5,1.59 -1.5,2.29 0,1.19 0.07,1.44 0.3,2.39 z"
         id="path7742"
         inkscape:connector-curvature="0"
         style="fill:#000000;stroke-width:0;stroke-linecap:butt;stroke-linejoin:round;stroke-miterlimit:100000" /><path
         d="m 586.15,405.11 -1.18,0 c -0.1,-0.77 -0.46,-2.83 -0.91,-3.18 -0.27,-0.2 -2.96,-0.2 -3.44,-0.2 l -6.42,0 c 3.65,3.23 4.87,4.2 6.97,5.84 2.58,2.07 4.98,4.22 4.98,7.54 0,4.21 -3.68,6.79 -8.15,6.79 -4.32,0 -7.25,-3.03 -7.25,-6.23 0,-1.78 1.5,-1.96 1.85,-1.96 0.83,0 1.85,0.6 1.85,1.85 0,0.62 -0.25,1.84 -2.06,1.84 1.08,2.47 3.45,3.24 5.09,3.24 3.49,0 5.3,-2.71 5.3,-5.53 0,-3.04 -2.16,-5.44 -3.28,-6.69 l -8.4,-8.3 c -0.35,-0.31 -0.35,-0.39 -0.35,-1.36 l 14.35,0 z"
         id="path7744"
         inkscape:connector-curvature="0"
         style="fill:#000000;stroke-width:0;stroke-linecap:butt;stroke-linejoin:round;stroke-miterlimit:100000" /></g>  </g>
  <g
     id="g8592"
     transform="matrix(0.7220151,0,0,0.7220151,167.02613,-61.241012)"
     style="stroke-linecap:butt;stroke-linejoin:round;stroke-miterlimit:100000">
    <g
       word-spacing="normal"
       letter-spacing="normal"
       font-size-adjust="none"
       font-stretch="normal"
       font-weight="normal"
       font-variant="normal"
       font-style="normal"
       stroke-miterlimit="10.433"
       xml:space="preserve"
       transform="matrix(0.61714286,0,0,-0.61714286,-108,432)"
       id="g8594"
       style="font-style:normal;font-variant:normal;font-weight:normal;font-stretch:normal;letter-spacing:normal;word-spacing:normal;text-anchor:start;fill:none;fill-opacity:1;fill-rule:evenodd;stroke:#000000;stroke-linecap:butt;stroke-linejoin:round;stroke-miterlimit:100000;stroke-dasharray:none;stroke-dashoffset:0;stroke-opacity:1"><path
         id="path8596"
         d="m 468.38,440.23 0,0 0,0.01 0,0 0,0.01 0,0.02 0,0.01 -0.01,0.02 0,0.02 0,0.02 -0.01,0.02 0,0.02 -0.01,0.02 -0.01,0.02 0,0.03 -0.02,0.02 -0.01,0.03 -0.01,0.02 -0.02,0.03 -0.02,0.02 -0.02,0.02 -0.02,0.03 -0.01,0.01 -0.02,0.01 -0.01,0.01 -0.01,0.01 -0.02,0.01 -0.01,0.01 -0.02,0.01 -0.02,0.01 -0.02,0.01 -0.01,0.01 -0.02,0 -0.02,0.01 -0.02,0.01 -0.03,0 -0.02,0.01 -0.02,0.01 -0.02,0 -0.03,0 -0.02,0.01 -0.03,0 -0.03,0 -0.03,0.01 -0.03,0 -0.03,0 c -1.14,0 -4.78,-0.41 -6.08,-0.5 -0.39,-0.05 -0.93,-0.1 -0.93,-1.05 0,-0.55 0.48,-0.55 1.23,-0.55 2.39,0 2.45,-0.45 2.45,-0.84 l -0.15,-1 -6.28,-24.91 c -0.14,-0.54 -0.25,-0.9 -0.25,-1.7 0,-2.83 2.2,-4.58 4.53,-4.58 1.65,0 2.89,1 3.75,2.78 0.89,1.91 1.48,4.8 1.48,4.89 0,0.5 -0.43,0.5 -0.59,0.5 -0.5,0 -0.55,-0.2 -0.7,-0.9 -0.85,-3.24 -1.79,-6.17 -3.79,-6.17 -1.5,0 -1.5,1.59 -1.5,2.29 0,1.19 0.07,1.44 0.3,2.39 z"
         inkscape:connector-curvature="0"
         style="fill:#000000;stroke-width:0;stroke-linecap:butt;stroke-linejoin:round;stroke-miterlimit:100000" /></g>  </g>
  <g
     id="g9469"
     transform="matrix(0.59326696,0,0,0.59326696,40.302695,35.321666)"
     style="stroke-linecap:butt;stroke-linejoin:round;stroke-miterlimit:100000">
    <g
       id="g9471"
       transform="matrix(0.61714286,0,0,-0.61714286,-108,432)"
       xml:space="preserve"
       stroke-miterlimit="10.433"
       font-style="normal"
       font-variant="normal"
       font-weight="normal"
       font-stretch="normal"
       font-size-adjust="none"
       letter-spacing="normal"
       word-spacing="normal"
       style="font-style:normal;font-variant:normal;font-weight:normal;font-stretch:normal;letter-spacing:normal;word-spacing:normal;text-anchor:start;fill:none;fill-opacity:1;fill-rule:evenodd;stroke:#000000;stroke-linecap:butt;stroke-linejoin:round;stroke-miterlimit:100000;stroke-dasharray:none;stroke-dashoffset:0;stroke-opacity:1"><path
         d="m 468.38,440.23 0,0 0,0.01 0,0 0,0.01 0,0.02 0,0.01 -0.01,0.02 0,0.02 0,0.02 -0.01,0.02 0,0.02 -0.01,0.02 -0.01,0.02 0,0.03 -0.02,0.02 -0.01,0.03 -0.01,0.02 -0.02,0.03 -0.02,0.02 -0.02,0.02 -0.02,0.03 -0.01,0.01 -0.02,0.01 -0.01,0.01 -0.01,0.01 -0.02,0.01 -0.01,0.01 -0.02,0.01 -0.02,0.01 -0.02,0.01 -0.01,0.01 -0.02,0 -0.02,0.01 -0.02,0.01 -0.03,0 -0.02,0.01 -0.02,0.01 -0.02,0 -0.03,0 -0.02,0.01 -0.03,0 -0.03,0 -0.03,0.01 -0.03,0 -0.03,0 c -1.14,0 -4.78,-0.41 -6.08,-0.5 -0.39,-0.05 -0.93,-0.1 -0.93,-1.05 0,-0.55 0.48,-0.55 1.23,-0.55 2.39,0 2.45,-0.45 2.45,-0.84 l -0.15,-1 -6.28,-24.91 c -0.14,-0.54 -0.25,-0.9 -0.25,-1.7 0,-2.83 2.2,-4.58 4.53,-4.58 1.65,0 2.89,1 3.75,2.78 0.89,1.91 1.48,4.8 1.48,4.89 0,0.5 -0.43,0.5 -0.59,0.5 -0.5,0 -0.55,-0.2 -0.7,-0.9 -0.85,-3.24 -1.79,-6.17 -3.79,-6.17 -1.5,0 -1.5,1.59 -1.5,2.29 0,1.19 0.07,1.44 0.3,2.39 z"
         id="path9473"
         inkscape:connector-curvature="0"
         style="fill:#000000;stroke-width:0;stroke-linecap:butt;stroke-linejoin:round;stroke-miterlimit:100000" /><path
         d="m 482.07,420.92 0,0.04 0,0.04 0,0.05 0,0.04 0,0.03 0,0.04 0,0.04 0,0.03 -0.01,0.04 0,0.03 0,0.03 0,0.03 0,0.03 -0.01,0.03 0,0.03 -0.01,0.02 0,0.03 0,0.02 -0.01,0.03 0,0.02 -0.02,0.04 -0.01,0.04 -0.02,0.03 -0.02,0.03 -0.02,0.03 -0.02,0.03 -0.03,0.02 -0.03,0.02 -0.04,0.02 -0.03,0.01 -0.04,0.01 -0.05,0.02 -0.02,0 -0.03,0 -0.02,0.01 -0.03,0 -0.03,0.01 -0.02,0 -0.03,0 -0.03,0 -0.04,0 -0.03,0.01 -0.03,0 -0.04,0 -0.04,0 -0.03,0 -0.04,0 -0.04,0 -0.04,0 -0.05,0 -0.04,0 -0.05,0 c -2.23,-2.2 -5.39,-2.23 -6.82,-2.23 l 0,-1.25 c 0.84,0 3.14,0 5.04,0.97 l 0,-17.77 c 0,-1.16 0,-1.61 -3.48,-1.61 l -1.31,0 0,-1.25 c 0.62,0.03 4.9,0.14 6.2,0.14 1.08,0 5.47,-0.11 6.23,-0.14 l 0,1.25 -1.33,0 c -3.48,0 -3.48,0.45 -3.48,1.61 z"
         id="path9475"
         inkscape:connector-curvature="0"
         style="fill:#000000;stroke-width:0;stroke-linecap:butt;stroke-linejoin:round;stroke-miterlimit:100000" /></g>  </g>
  <g
     id="g10337"
     transform="matrix(0.73062163,0,0,0.73062163,354.98216,47.212655)"
     style="stroke-linecap:butt;stroke-linejoin:round;stroke-miterlimit:100000">
    <g
       word-spacing="normal"
       letter-spacing="normal"
       font-size-adjust="none"
       font-stretch="normal"
       font-weight="normal"
       font-variant="normal"
       font-style="normal"
       stroke-miterlimit="10.433"
       xml:space="preserve"
       transform="matrix(0.61714286,0,0,-0.61714286,-108,432)"
       id="g10339"
       style="font-style:normal;font-variant:normal;font-weight:normal;font-stretch:normal;letter-spacing:normal;word-spacing:normal;text-anchor:start;fill:none;fill-opacity:1;fill-rule:evenodd;stroke:#000000;stroke-linecap:butt;stroke-linejoin:round;stroke-miterlimit:100000;stroke-dasharray:none;stroke-dashoffset:0;stroke-opacity:1"><path
         id="path10341"
         d="m 468.38,440.23 0,0 0,0.01 0,0 0,0.01 0,0.02 0,0.01 -0.01,0.02 0,0.02 0,0.02 -0.01,0.02 0,0.02 -0.01,0.02 -0.01,0.02 0,0.03 -0.02,0.02 -0.01,0.03 -0.01,0.02 -0.02,0.03 -0.02,0.02 -0.02,0.02 -0.02,0.03 -0.01,0.01 -0.02,0.01 -0.01,0.01 -0.01,0.01 -0.02,0.01 -0.01,0.01 -0.02,0.01 -0.02,0.01 -0.02,0.01 -0.01,0.01 -0.02,0 -0.02,0.01 -0.02,0.01 -0.03,0 -0.02,0.01 -0.02,0.01 -0.02,0 -0.03,0 -0.02,0.01 -0.03,0 -0.03,0 -0.03,0.01 -0.03,0 -0.03,0 c -1.14,0 -4.78,-0.41 -6.08,-0.5 -0.39,-0.05 -0.93,-0.1 -0.93,-1.05 0,-0.55 0.48,-0.55 1.23,-0.55 2.39,0 2.45,-0.45 2.45,-0.84 l -0.15,-1 -6.28,-24.91 c -0.14,-0.54 -0.25,-0.9 -0.25,-1.7 0,-2.83 2.2,-4.58 4.53,-4.58 1.65,0 2.89,1 3.75,2.78 0.89,1.91 1.48,4.8 1.48,4.89 0,0.5 -0.43,0.5 -0.59,0.5 -0.5,0 -0.55,-0.2 -0.7,-0.9 -0.85,-3.24 -1.79,-6.17 -3.79,-6.17 -1.5,0 -1.5,1.59 -1.5,2.29 0,1.19 0.07,1.44 0.3,2.39 z"
         inkscape:connector-curvature="0"
         style="fill:#000000;stroke-width:0;stroke-linecap:butt;stroke-linejoin:round;stroke-miterlimit:100000" /><path
         id="path10343"
         d="m 487.99,405.11 -1.19,0 c -0.09,-0.77 -0.45,-2.83 -0.9,-3.18 -0.27,-0.2 -2.95,-0.2 -3.44,-0.2 l -6.42,0 c 3.66,3.23 4.87,4.2 6.97,5.84 2.58,2.07 4.98,4.22 4.98,7.54 0,4.21 -3.69,6.79 -8.15,6.79 -4.32,0 -7.25,-3.03 -7.25,-6.23 0,-1.78 1.5,-1.96 1.86,-1.96 0.82,0 1.84,0.6 1.84,1.85 0,0.62 -0.25,1.84 -2.06,1.84 1.07,2.47 3.45,3.24 5.09,3.24 3.48,0 5.3,-2.71 5.3,-5.53 0,-3.04 -2.16,-5.44 -3.28,-6.69 l -8.39,-8.3 c -0.36,-0.31 -0.36,-0.39 -0.36,-1.36 l 14.36,0 z"
         inkscape:connector-curvature="0"
         style="fill:#000000;stroke-width:0;stroke-linecap:butt;stroke-linejoin:round;stroke-miterlimit:100000" /></g>  </g>
</svg>
