<?xml version="1.0" encoding="utf-8" standalone="no"?>
<!DOCTYPE svg PUBLIC "-//W3C//DTD SVG 1.1//EN"
  "http://www.w3.org/Graphics/SVG/1.1/DTD/svg11.dtd">
<!-- Created with matplotlib (http://matplotlib.org/) -->
<svg height="432pt" version="1.1" viewBox="0 0 576 432" width="576pt" xmlns="http://www.w3.org/2000/svg" xmlns:xlink="http://www.w3.org/1999/xlink">
 <defs>
  <style type="text/css">
*{stroke-linecap:butt;stroke-linejoin:round;}
  </style>
 </defs>
 <g id="figure_1">
  <g id="patch_1">
   <path d="M 0 432 
L 576 432 
L 576 0 
L 0 0 
z
" style="fill:#ffffff;"/>
  </g>
  <g id="axes_1">
   <g id="patch_2">
    <path d="M 72 384.48 
L 518.4 384.48 
L 518.4 51.84 
L 72 51.84 
z
" style="fill:#ffffff;"/>
   </g>
   <g id="PathCollection_1">
    <defs>
     <path d="M 0 1.118034 
C 0.296506 1.118034 0.580908 1.000231 0.790569 0.790569 
C 1.000231 0.580908 1.118034 0.296506 1.118034 0 
C 1.118034 -0.296506 1.000231 -0.580908 0.790569 -0.790569 
C 0.580908 -1.000231 0.296506 -1.118034 0 -1.118034 
C -0.296506 -1.118034 -0.580908 -1.000231 -0.790569 -0.790569 
C -1.000231 -0.580908 -1.118034 -0.296506 -1.118034 0 
C -1.118034 0.296506 -1.000231 0.580908 -0.790569 0.790569 
C -0.580908 1.000231 -0.296506 1.118034 0 1.118034 
z
" id="mae7dac3686" style="stroke:#1f77b4;"/>
    </defs>
    <g clip-path="url(#paf79b7607c)">
     <use style="fill:#1f77b4;stroke:#1f77b4;" x="76.6872" xlink:href="#mae7dac3686" y="384.48"/>
     <use style="fill:#1f77b4;stroke:#1f77b4;" x="513.7128" xlink:href="#mae7dac3686" y="384.48"/>
     <use style="fill:#1f77b4;stroke:#1f77b4;" x="77.1336" xlink:href="#mae7dac3686" y="377.088"/>
     <use style="fill:#1f77b4;stroke:#1f77b4;" x="513.2664" xlink:href="#mae7dac3686" y="377.088"/>
     <use style="fill:#1f77b4;stroke:#1f77b4;" x="77.3568" xlink:href="#mae7dac3686" y="369.696"/>
     <use style="fill:#1f77b4;stroke:#1f77b4;" x="513.0432" xlink:href="#mae7dac3686" y="369.696"/>
     <use style="fill:#1f77b4;stroke:#1f77b4;" x="78.0264" xlink:href="#mae7dac3686" y="362.304"/>
     <use style="fill:#1f77b4;stroke:#1f77b4;" x="512.3736" xlink:href="#mae7dac3686" y="362.304"/>
     <use style="fill:#1f77b4;stroke:#1f77b4;" x="78.4728" xlink:href="#mae7dac3686" y="354.912"/>
     <use style="fill:#1f77b4;stroke:#1f77b4;" x="511.9272" xlink:href="#mae7dac3686" y="354.912"/>
     <use style="fill:#1f77b4;stroke:#1f77b4;" x="78.9192" xlink:href="#mae7dac3686" y="347.52"/>
     <use style="fill:#1f77b4;stroke:#1f77b4;" x="511.4808" xlink:href="#mae7dac3686" y="347.52"/>
     <use style="fill:#1f77b4;stroke:#1f77b4;" x="79.5888" xlink:href="#mae7dac3686" y="340.128"/>
     <use style="fill:#1f77b4;stroke:#1f77b4;" x="510.8112" xlink:href="#mae7dac3686" y="340.128"/>
     <use style="fill:#1f77b4;stroke:#1f77b4;" x="80.2584" xlink:href="#mae7dac3686" y="332.736"/>
     <use style="fill:#1f77b4;stroke:#1f77b4;" x="510.1416" xlink:href="#mae7dac3686" y="332.736"/>
     <use style="fill:#1f77b4;stroke:#1f77b4;" x="80.928" xlink:href="#mae7dac3686" y="325.344"/>
     <use style="fill:#1f77b4;stroke:#1f77b4;" x="509.472" xlink:href="#mae7dac3686" y="325.344"/>
     <use style="fill:#1f77b4;stroke:#1f77b4;" x="81.5976" xlink:href="#mae7dac3686" y="317.952"/>
     <use style="fill:#1f77b4;stroke:#1f77b4;" x="508.8024" xlink:href="#mae7dac3686" y="317.952"/>
     <use style="fill:#1f77b4;stroke:#1f77b4;" x="82.2672" xlink:href="#mae7dac3686" y="310.56"/>
     <use style="fill:#1f77b4;stroke:#1f77b4;" x="508.1328" xlink:href="#mae7dac3686" y="310.56"/>
     <use style="fill:#1f77b4;stroke:#1f77b4;" x="83.16" xlink:href="#mae7dac3686" y="303.168"/>
     <use style="fill:#1f77b4;stroke:#1f77b4;" x="507.24" xlink:href="#mae7dac3686" y="303.168"/>
     <use style="fill:#1f77b4;stroke:#1f77b4;" x="84.0528" xlink:href="#mae7dac3686" y="295.776"/>
     <use style="fill:#1f77b4;stroke:#1f77b4;" x="506.3472" xlink:href="#mae7dac3686" y="295.776"/>
     <use style="fill:#1f77b4;stroke:#1f77b4;" x="84.9456" xlink:href="#mae7dac3686" y="288.384"/>
     <use style="fill:#1f77b4;stroke:#1f77b4;" x="505.4544" xlink:href="#mae7dac3686" y="288.384"/>
     <use style="fill:#1f77b4;stroke:#1f77b4;" x="85.8384" xlink:href="#mae7dac3686" y="280.992"/>
     <use style="fill:#1f77b4;stroke:#1f77b4;" x="504.5616" xlink:href="#mae7dac3686" y="280.992"/>
     <use style="fill:#1f77b4;stroke:#1f77b4;" x="86.9544" xlink:href="#mae7dac3686" y="273.6"/>
     <use style="fill:#1f77b4;stroke:#1f77b4;" x="503.4456" xlink:href="#mae7dac3686" y="273.6"/>
     <use style="fill:#1f77b4;stroke:#1f77b4;" x="88.0704" xlink:href="#mae7dac3686" y="266.208"/>
     <use style="fill:#1f77b4;stroke:#1f77b4;" x="502.3296" xlink:href="#mae7dac3686" y="266.208"/>
     <use style="fill:#1f77b4;stroke:#1f77b4;" x="89.4096" xlink:href="#mae7dac3686" y="258.816"/>
     <use style="fill:#1f77b4;stroke:#1f77b4;" x="500.9904" xlink:href="#mae7dac3686" y="258.816"/>
     <use style="fill:#1f77b4;stroke:#1f77b4;" x="90.7488" xlink:href="#mae7dac3686" y="251.424"/>
     <use style="fill:#1f77b4;stroke:#1f77b4;" x="499.6512" xlink:href="#mae7dac3686" y="251.424"/>
     <use style="fill:#1f77b4;stroke:#1f77b4;" x="92.3112" xlink:href="#mae7dac3686" y="244.032"/>
     <use style="fill:#1f77b4;stroke:#1f77b4;" x="498.0888" xlink:href="#mae7dac3686" y="244.032"/>
     <use style="fill:#1f77b4;stroke:#1f77b4;" x="93.8736" xlink:href="#mae7dac3686" y="236.64"/>
     <use style="fill:#1f77b4;stroke:#1f77b4;" x="496.5264" xlink:href="#mae7dac3686" y="236.64"/>
     <use style="fill:#1f77b4;stroke:#1f77b4;" x="95.6592" xlink:href="#mae7dac3686" y="229.248"/>
     <use style="fill:#1f77b4;stroke:#1f77b4;" x="494.7408" xlink:href="#mae7dac3686" y="229.248"/>
     <use style="fill:#1f77b4;stroke:#1f77b4;" x="97.4448" xlink:href="#mae7dac3686" y="221.856"/>
     <use style="fill:#1f77b4;stroke:#1f77b4;" x="492.9552" xlink:href="#mae7dac3686" y="221.856"/>
     <use style="fill:#1f77b4;stroke:#1f77b4;" x="99.6768" xlink:href="#mae7dac3686" y="214.464"/>
     <use style="fill:#1f77b4;stroke:#1f77b4;" x="490.7232" xlink:href="#mae7dac3686" y="214.464"/>
     <use style="fill:#1f77b4;stroke:#1f77b4;" x="101.9088" xlink:href="#mae7dac3686" y="207.072"/>
     <use style="fill:#1f77b4;stroke:#1f77b4;" x="488.4912" xlink:href="#mae7dac3686" y="207.072"/>
     <use style="fill:#1f77b4;stroke:#1f77b4;" x="104.5872" xlink:href="#mae7dac3686" y="199.68"/>
     <use style="fill:#1f77b4;stroke:#1f77b4;" x="485.8128" xlink:href="#mae7dac3686" y="199.68"/>
     <use style="fill:#1f77b4;stroke:#1f77b4;" x="104.364" xlink:href="#mae7dac3686" y="192.288"/>
     <use style="fill:#1f77b4;stroke:#1f77b4;" x="255.6936" xlink:href="#mae7dac3686" y="192.288"/>
     <use style="fill:#1f77b4;stroke:#1f77b4;" x="334.7064" xlink:href="#mae7dac3686" y="192.288"/>
     <use style="fill:#1f77b4;stroke:#1f77b4;" x="486.036" xlink:href="#mae7dac3686" y="192.288"/>
     <use style="fill:#1f77b4;stroke:#1f77b4;" x="102.5784" xlink:href="#mae7dac3686" y="184.896"/>
     <use style="fill:#1f77b4;stroke:#1f77b4;" x="213.2856" xlink:href="#mae7dac3686" y="184.896"/>
     <use style="fill:#1f77b4;stroke:#1f77b4;" x="377.1144" xlink:href="#mae7dac3686" y="184.896"/>
     <use style="fill:#1f77b4;stroke:#1f77b4;" x="487.8216" xlink:href="#mae7dac3686" y="184.896"/>
     <use style="fill:#1f77b4;stroke:#1f77b4;" x="99.4536" xlink:href="#mae7dac3686" y="177.504"/>
     <use style="fill:#1f77b4;stroke:#1f77b4;" x="171.5472" xlink:href="#mae7dac3686" y="177.504"/>
     <use style="fill:#1f77b4;stroke:#1f77b4;" x="418.8528" xlink:href="#mae7dac3686" y="177.504"/>
     <use style="fill:#1f77b4;stroke:#1f77b4;" x="490.9464" xlink:href="#mae7dac3686" y="177.504"/>
     <use style="fill:#1f77b4;stroke:#1f77b4;" x="93.8736" xlink:href="#mae7dac3686" y="170.112"/>
     <use style="fill:#1f77b4;stroke:#1f77b4;" x="142.7544" xlink:href="#mae7dac3686" y="170.112"/>
     <use style="fill:#1f77b4;stroke:#1f77b4;" x="447.6456" xlink:href="#mae7dac3686" y="170.112"/>
     <use style="fill:#1f77b4;stroke:#1f77b4;" x="496.5264" xlink:href="#mae7dac3686" y="170.112"/>
     <use style="fill:#1f77b4;stroke:#1f77b4;" x="86.9544" xlink:href="#mae7dac3686" y="162.72"/>
     <use style="fill:#1f77b4;stroke:#1f77b4;" x="131.5944" xlink:href="#mae7dac3686" y="162.72"/>
     <use style="fill:#1f77b4;stroke:#1f77b4;" x="458.8056" xlink:href="#mae7dac3686" y="162.72"/>
     <use style="fill:#1f77b4;stroke:#1f77b4;" x="503.4456" xlink:href="#mae7dac3686" y="162.72"/>
     <use style="fill:#1f77b4;stroke:#1f77b4;" x="79.5888" xlink:href="#mae7dac3686" y="155.328"/>
     <use style="fill:#1f77b4;stroke:#1f77b4;" x="118.2024" xlink:href="#mae7dac3686" y="155.328"/>
     <use style="fill:#1f77b4;stroke:#1f77b4;" x="472.1976" xlink:href="#mae7dac3686" y="155.328"/>
     <use style="fill:#1f77b4;stroke:#1f77b4;" x="510.8112" xlink:href="#mae7dac3686" y="155.328"/>
     <use style="fill:#1f77b4;stroke:#1f77b4;" x="73.3392" xlink:href="#mae7dac3686" y="147.936"/>
     <use style="fill:#1f77b4;stroke:#1f77b4;" x="99.4536" xlink:href="#mae7dac3686" y="147.936"/>
     <use style="fill:#1f77b4;stroke:#1f77b4;" x="490.9464" xlink:href="#mae7dac3686" y="147.936"/>
     <use style="fill:#1f77b4;stroke:#1f77b4;" x="517.0608" xlink:href="#mae7dac3686" y="147.936"/>
    </g>
   </g>
   <g id="PathCollection_2">
    <defs>
     <path d="M 0 1.118034 
C 0.296506 1.118034 0.580908 1.000231 0.790569 0.790569 
C 1.000231 0.580908 1.118034 0.296506 1.118034 0 
C 1.118034 -0.296506 1.000231 -0.580908 0.790569 -0.790569 
C 0.580908 -1.000231 0.296506 -1.118034 0 -1.118034 
C -0.296506 -1.118034 -0.580908 -1.000231 -0.790569 -0.790569 
C -1.000231 -0.580908 -1.118034 -0.296506 -1.118034 0 
C -1.118034 0.296506 -1.000231 0.580908 -0.790569 0.790569 
C -0.580908 1.000231 -0.296506 1.118034 0 1.118034 
z
" id="meb9bde2520" style="stroke:#ff7f0e;"/>
    </defs>
    <g clip-path="url(#paf79b7607c)">
     <use style="fill:#ff7f0e;stroke:#ff7f0e;" x="83.8296" xlink:href="#meb9bde2520" y="384.48"/>
     <use style="fill:#ff7f0e;stroke:#ff7f0e;" x="506.5704" xlink:href="#meb9bde2520" y="384.48"/>
     <use style="fill:#ff7f0e;stroke:#ff7f0e;" x="85.6152" xlink:href="#meb9bde2520" y="377.088"/>
     <use style="fill:#ff7f0e;stroke:#ff7f0e;" x="504.7848" xlink:href="#meb9bde2520" y="377.088"/>
     <use style="fill:#ff7f0e;stroke:#ff7f0e;" x="87.8472" xlink:href="#meb9bde2520" y="369.696"/>
     <use style="fill:#ff7f0e;stroke:#ff7f0e;" x="502.5528" xlink:href="#meb9bde2520" y="369.696"/>
     <use style="fill:#ff7f0e;stroke:#ff7f0e;" x="90.5256" xlink:href="#meb9bde2520" y="362.304"/>
     <use style="fill:#ff7f0e;stroke:#ff7f0e;" x="499.8744" xlink:href="#meb9bde2520" y="362.304"/>
     <use style="fill:#ff7f0e;stroke:#ff7f0e;" x="93.4272" xlink:href="#meb9bde2520" y="354.912"/>
     <use style="fill:#ff7f0e;stroke:#ff7f0e;" x="496.9728" xlink:href="#meb9bde2520" y="354.912"/>
     <use style="fill:#ff7f0e;stroke:#ff7f0e;" x="97.2216" xlink:href="#meb9bde2520" y="347.52"/>
     <use style="fill:#ff7f0e;stroke:#ff7f0e;" x="493.1784" xlink:href="#meb9bde2520" y="347.52"/>
     <use style="fill:#ff7f0e;stroke:#ff7f0e;" x="101.6856" xlink:href="#meb9bde2520" y="340.128"/>
     <use style="fill:#ff7f0e;stroke:#ff7f0e;" x="488.7144" xlink:href="#meb9bde2520" y="340.128"/>
     <use style="fill:#ff7f0e;stroke:#ff7f0e;" x="107.0424" xlink:href="#meb9bde2520" y="332.736"/>
     <use style="fill:#ff7f0e;stroke:#ff7f0e;" x="483.3576" xlink:href="#meb9bde2520" y="332.736"/>
     <use style="fill:#ff7f0e;stroke:#ff7f0e;" x="113.7384" xlink:href="#meb9bde2520" y="325.344"/>
     <use style="fill:#ff7f0e;stroke:#ff7f0e;" x="476.6616" xlink:href="#meb9bde2520" y="325.344"/>
     <use style="fill:#ff7f0e;stroke:#ff7f0e;" x="121.9968" xlink:href="#meb9bde2520" y="317.952"/>
     <use style="fill:#ff7f0e;stroke:#ff7f0e;" x="468.4032" xlink:href="#meb9bde2520" y="317.952"/>
     <use style="fill:#ff7f0e;stroke:#ff7f0e;" x="132.7104" xlink:href="#meb9bde2520" y="310.56"/>
     <use style="fill:#ff7f0e;stroke:#ff7f0e;" x="457.6896" xlink:href="#meb9bde2520" y="310.56"/>
     <use style="fill:#ff7f0e;stroke:#ff7f0e;" x="146.5488" xlink:href="#meb9bde2520" y="303.168"/>
     <use style="fill:#ff7f0e;stroke:#ff7f0e;" x="443.8512" xlink:href="#meb9bde2520" y="303.168"/>
     <use style="fill:#ff7f0e;stroke:#ff7f0e;" x="165.5208" xlink:href="#meb9bde2520" y="295.776"/>
     <use style="fill:#ff7f0e;stroke:#ff7f0e;" x="424.8792" xlink:href="#meb9bde2520" y="295.776"/>
     <use style="fill:#ff7f0e;stroke:#ff7f0e;" x="193.4208" xlink:href="#meb9bde2520" y="288.384"/>
     <use style="fill:#ff7f0e;stroke:#ff7f0e;" x="396.9792" xlink:href="#meb9bde2520" y="288.384"/>
     <use style="fill:#ff7f0e;stroke:#ff7f0e;" x="247.212" xlink:href="#meb9bde2520" y="280.992"/>
     <use style="fill:#ff7f0e;stroke:#ff7f0e;" x="343.188" xlink:href="#meb9bde2520" y="280.992"/>
    </g>
   </g>
   <g id="PathCollection_3">
    <defs>
     <path d="M 0 1.118034 
C 0.296506 1.118034 0.580908 1.000231 0.790569 0.790569 
C 1.000231 0.580908 1.118034 0.296506 1.118034 0 
C 1.118034 -0.296506 1.000231 -0.580908 0.790569 -0.790569 
C 0.580908 -1.000231 0.296506 -1.118034 0 -1.118034 
C -0.296506 -1.118034 -0.580908 -1.000231 -0.790569 -0.790569 
C -1.000231 -0.580908 -1.118034 -0.296506 -1.118034 0 
C -1.118034 0.296506 -1.000231 0.580908 -0.790569 0.790569 
C -0.580908 1.000231 -0.296506 1.118034 0 1.118034 
z
" id="ma60ef9e789" style="stroke:#2ca02c;"/>
    </defs>
    <g clip-path="url(#paf79b7607c)">
     <use style="fill:#2ca02c;stroke:#2ca02c;" x="80.928" xlink:href="#ma60ef9e789" y="1647.72"/>
     <use style="fill:#2ca02c;stroke:#2ca02c;" x="89.856" xlink:href="#ma60ef9e789" y="920.68875"/>
     <use style="fill:#2ca02c;stroke:#2ca02c;" x="98.784" xlink:href="#ma60ef9e789" y="678.78383"/>
     <use style="fill:#2ca02c;stroke:#2ca02c;" x="107.712" xlink:href="#ma60ef9e789" y="558.181957"/>
     <use style="fill:#2ca02c;stroke:#2ca02c;" x="116.64" xlink:href="#ma60ef9e789" y="486.12"/>
     <use style="fill:#2ca02c;stroke:#2ca02c;" x="125.568" xlink:href="#ma60ef9e789" y="438.345"/>
     <use style="fill:#2ca02c;stroke:#2ca02c;" x="134.496" xlink:href="#ma60ef9e789" y="404.464186"/>
     <use style="fill:#2ca02c;stroke:#2ca02c;" x="143.424" xlink:href="#ma60ef9e789" y="379.2825"/>
     <use style="fill:#2ca02c;stroke:#2ca02c;" x="152.352" xlink:href="#ma60ef9e789" y="359.915122"/>
     <use style="fill:#2ca02c;stroke:#2ca02c;" x="161.28" xlink:href="#ma60ef9e789" y="344.6325"/>
     <use style="fill:#2ca02c;stroke:#2ca02c;" x="170.208" xlink:href="#ma60ef9e789" y="332.335385"/>
     <use style="fill:#2ca02c;stroke:#2ca02c;" x="179.136" xlink:href="#ma60ef9e789" y="322.292368"/>
     <use style="fill:#2ca02c;stroke:#2ca02c;" x="188.064" xlink:href="#ma60ef9e789" y="313.998586"/>
     <use style="fill:#2ca02c;stroke:#2ca02c;" x="196.992" xlink:href="#ma60ef9e789" y="307.095"/>
     <use style="fill:#2ca02c;stroke:#2ca02c;" x="205.92" xlink:href="#ma60ef9e789" y="301.32"/>
     <use style="fill:#2ca02c;stroke:#2ca02c;" x="214.848" xlink:href="#ma60ef9e789" y="296.479191"/>
     <use style="fill:#2ca02c;stroke:#2ca02c;" x="223.776" xlink:href="#ma60ef9e789" y="292.425882"/>
     <use style="fill:#2ca02c;stroke:#2ca02c;" x="232.704" xlink:href="#ma60ef9e789" y="289.048125"/>
     <use style="fill:#2ca02c;stroke:#2ca02c;" x="241.632" xlink:href="#ma60ef9e789" y="286.259898"/>
     <use style="fill:#2ca02c;stroke:#2ca02c;" x="250.56" xlink:href="#ma60ef9e789" y="283.995"/>
     <use style="fill:#2ca02c;stroke:#2ca02c;" x="259.488" xlink:href="#ma60ef9e789" y="282.202759"/>
     <use style="fill:#2ca02c;stroke:#2ca02c;" x="268.416" xlink:href="#ma60ef9e789" y="280.845"/>
     <use style="fill:#2ca02c;stroke:#2ca02c;" x="277.344" xlink:href="#ma60ef9e789" y="279.893913"/>
     <use style="fill:#2ca02c;stroke:#2ca02c;" x="286.272" xlink:href="#ma60ef9e789" y="279.330577"/>
     <use style="fill:#2ca02c;stroke:#2ca02c;" x="295.2" xlink:href="#ma60ef9e789" y="279.144"/>
     <use style="fill:#2ca02c;stroke:#2ca02c;" x="304.128" xlink:href="#ma60ef9e789" y="279.330577"/>
     <use style="fill:#2ca02c;stroke:#2ca02c;" x="313.056" xlink:href="#ma60ef9e789" y="279.893913"/>
     <use style="fill:#2ca02c;stroke:#2ca02c;" x="321.984" xlink:href="#ma60ef9e789" y="280.845"/>
     <use style="fill:#2ca02c;stroke:#2ca02c;" x="330.912" xlink:href="#ma60ef9e789" y="282.202759"/>
     <use style="fill:#2ca02c;stroke:#2ca02c;" x="339.84" xlink:href="#ma60ef9e789" y="283.995"/>
     <use style="fill:#2ca02c;stroke:#2ca02c;" x="348.768" xlink:href="#ma60ef9e789" y="286.259898"/>
     <use style="fill:#2ca02c;stroke:#2ca02c;" x="357.696" xlink:href="#ma60ef9e789" y="289.048125"/>
     <use style="fill:#2ca02c;stroke:#2ca02c;" x="366.624" xlink:href="#ma60ef9e789" y="292.425882"/>
     <use style="fill:#2ca02c;stroke:#2ca02c;" x="375.552" xlink:href="#ma60ef9e789" y="296.479191"/>
     <use style="fill:#2ca02c;stroke:#2ca02c;" x="384.48" xlink:href="#ma60ef9e789" y="301.32"/>
     <use style="fill:#2ca02c;stroke:#2ca02c;" x="393.408" xlink:href="#ma60ef9e789" y="307.095"/>
     <use style="fill:#2ca02c;stroke:#2ca02c;" x="402.336" xlink:href="#ma60ef9e789" y="313.998586"/>
     <use style="fill:#2ca02c;stroke:#2ca02c;" x="411.264" xlink:href="#ma60ef9e789" y="322.292368"/>
     <use style="fill:#2ca02c;stroke:#2ca02c;" x="420.192" xlink:href="#ma60ef9e789" y="332.335385"/>
     <use style="fill:#2ca02c;stroke:#2ca02c;" x="429.12" xlink:href="#ma60ef9e789" y="344.6325"/>
     <use style="fill:#2ca02c;stroke:#2ca02c;" x="438.048" xlink:href="#ma60ef9e789" y="359.915122"/>
     <use style="fill:#2ca02c;stroke:#2ca02c;" x="446.976" xlink:href="#ma60ef9e789" y="379.2825"/>
     <use style="fill:#2ca02c;stroke:#2ca02c;" x="455.904" xlink:href="#ma60ef9e789" y="404.464186"/>
     <use style="fill:#2ca02c;stroke:#2ca02c;" x="464.832" xlink:href="#ma60ef9e789" y="438.345"/>
     <use style="fill:#2ca02c;stroke:#2ca02c;" x="473.76" xlink:href="#ma60ef9e789" y="486.12"/>
     <use style="fill:#2ca02c;stroke:#2ca02c;" x="482.688" xlink:href="#ma60ef9e789" y="558.181957"/>
     <use style="fill:#2ca02c;stroke:#2ca02c;" x="491.616" xlink:href="#ma60ef9e789" y="678.78383"/>
     <use style="fill:#2ca02c;stroke:#2ca02c;" x="500.544" xlink:href="#ma60ef9e789" y="920.68875"/>
     <use style="fill:#2ca02c;stroke:#2ca02c;" x="509.472" xlink:href="#ma60ef9e789" y="1647.72"/>
    </g>
   </g>
   <g id="matplotlib.axis_1">
    <g id="xtick_1">
     <g id="line2d_1">
      <defs>
       <path d="M 0 0 
L 0 3.5 
" id="m1f19937d18" style="stroke:#000000;stroke-width:0.8;"/>
      </defs>
      <g>
       <use style="stroke:#000000;stroke-width:0.8;" x="72" xlink:href="#m1f19937d18" y="384.48"/>
      </g>
     </g>
     <g id="text_1">
      <!-- 0.0 -->
      <defs>
       <path d="M 31.78125 66.40625 
Q 24.171875 66.40625 20.328125 58.90625 
Q 16.5 51.421875 16.5 36.375 
Q 16.5 21.390625 20.328125 13.890625 
Q 24.171875 6.390625 31.78125 6.390625 
Q 39.453125 6.390625 43.28125 13.890625 
Q 47.125 21.390625 47.125 36.375 
Q 47.125 51.421875 43.28125 58.90625 
Q 39.453125 66.40625 31.78125 66.40625 
M 31.78125 74.21875 
Q 44.046875 74.21875 50.515625 64.515625 
Q 56.984375 54.828125 56.984375 36.375 
Q 56.984375 17.96875 50.515625 8.265625 
Q 44.046875 -1.421875 31.78125 -1.421875 
Q 19.53125 -1.421875 13.0625 8.265625 
Q 6.59375 17.96875 6.59375 36.375 
Q 6.59375 54.828125 13.0625 64.515625 
Q 19.53125 74.21875 31.78125 74.21875 
" id="DejaVuSans-30"/>
       <path d="M 10.6875 12.40625 
L 21 12.40625 
L 21 0 
L 10.6875 0 
z
" id="DejaVuSans-2e"/>
      </defs>
      <g transform="translate(64.048438 399.078438)scale(0.1 -0.1)">
       <use xlink:href="#DejaVuSans-30"/>
       <use x="63.623047" xlink:href="#DejaVuSans-2e"/>
       <use x="95.410156" xlink:href="#DejaVuSans-30"/>
      </g>
     </g>
    </g>
    <g id="xtick_2">
     <g id="line2d_2">
      <g>
       <use style="stroke:#000000;stroke-width:0.8;" x="161.28" xlink:href="#m1f19937d18" y="384.48"/>
      </g>
     </g>
     <g id="text_2">
      <!-- 0.2 -->
      <defs>
       <path d="M 19.1875 8.296875 
L 53.609375 8.296875 
L 53.609375 0 
L 7.328125 0 
L 7.328125 8.296875 
Q 12.9375 14.109375 22.625 23.890625 
Q 32.328125 33.6875 34.8125 36.53125 
Q 39.546875 41.84375 41.421875 45.53125 
Q 43.3125 49.21875 43.3125 52.78125 
Q 43.3125 58.59375 39.234375 62.25 
Q 35.15625 65.921875 28.609375 65.921875 
Q 23.96875 65.921875 18.8125 64.3125 
Q 13.671875 62.703125 7.8125 59.421875 
L 7.8125 69.390625 
Q 13.765625 71.78125 18.9375 73 
Q 24.125 74.21875 28.421875 74.21875 
Q 39.75 74.21875 46.484375 68.546875 
Q 53.21875 62.890625 53.21875 53.421875 
Q 53.21875 48.921875 51.53125 44.890625 
Q 49.859375 40.875 45.40625 35.40625 
Q 44.1875 33.984375 37.640625 27.21875 
Q 31.109375 20.453125 19.1875 8.296875 
" id="DejaVuSans-32"/>
      </defs>
      <g transform="translate(153.328438 399.078438)scale(0.1 -0.1)">
       <use xlink:href="#DejaVuSans-30"/>
       <use x="63.623047" xlink:href="#DejaVuSans-2e"/>
       <use x="95.410156" xlink:href="#DejaVuSans-32"/>
      </g>
     </g>
    </g>
    <g id="xtick_3">
     <g id="line2d_3">
      <g>
       <use style="stroke:#000000;stroke-width:0.8;" x="250.56" xlink:href="#m1f19937d18" y="384.48"/>
      </g>
     </g>
     <g id="text_3">
      <!-- 0.4 -->
      <defs>
       <path d="M 37.796875 64.3125 
L 12.890625 25.390625 
L 37.796875 25.390625 
z
M 35.203125 72.90625 
L 47.609375 72.90625 
L 47.609375 25.390625 
L 58.015625 25.390625 
L 58.015625 17.1875 
L 47.609375 17.1875 
L 47.609375 0 
L 37.796875 0 
L 37.796875 17.1875 
L 4.890625 17.1875 
L 4.890625 26.703125 
z
" id="DejaVuSans-34"/>
      </defs>
      <g transform="translate(242.608438 399.078438)scale(0.1 -0.1)">
       <use xlink:href="#DejaVuSans-30"/>
       <use x="63.623047" xlink:href="#DejaVuSans-2e"/>
       <use x="95.410156" xlink:href="#DejaVuSans-34"/>
      </g>
     </g>
    </g>
    <g id="xtick_4">
     <g id="line2d_4">
      <g>
       <use style="stroke:#000000;stroke-width:0.8;" x="339.84" xlink:href="#m1f19937d18" y="384.48"/>
      </g>
     </g>
     <g id="text_4">
      <!-- 0.6 -->
      <defs>
       <path d="M 33.015625 40.375 
Q 26.375 40.375 22.484375 35.828125 
Q 18.609375 31.296875 18.609375 23.390625 
Q 18.609375 15.53125 22.484375 10.953125 
Q 26.375 6.390625 33.015625 6.390625 
Q 39.65625 6.390625 43.53125 10.953125 
Q 47.40625 15.53125 47.40625 23.390625 
Q 47.40625 31.296875 43.53125 35.828125 
Q 39.65625 40.375 33.015625 40.375 
M 52.59375 71.296875 
L 52.59375 62.3125 
Q 48.875 64.0625 45.09375 64.984375 
Q 41.3125 65.921875 37.59375 65.921875 
Q 27.828125 65.921875 22.671875 59.328125 
Q 17.53125 52.734375 16.796875 39.40625 
Q 19.671875 43.65625 24.015625 45.921875 
Q 28.375 48.1875 33.59375 48.1875 
Q 44.578125 48.1875 50.953125 41.515625 
Q 57.328125 34.859375 57.328125 23.390625 
Q 57.328125 12.15625 50.6875 5.359375 
Q 44.046875 -1.421875 33.015625 -1.421875 
Q 20.359375 -1.421875 13.671875 8.265625 
Q 6.984375 17.96875 6.984375 36.375 
Q 6.984375 53.65625 15.1875 63.9375 
Q 23.390625 74.21875 37.203125 74.21875 
Q 40.921875 74.21875 44.703125 73.484375 
Q 48.484375 72.75 52.59375 71.296875 
" id="DejaVuSans-36"/>
      </defs>
      <g transform="translate(331.888438 399.078438)scale(0.1 -0.1)">
       <use xlink:href="#DejaVuSans-30"/>
       <use x="63.623047" xlink:href="#DejaVuSans-2e"/>
       <use x="95.410156" xlink:href="#DejaVuSans-36"/>
      </g>
     </g>
    </g>
    <g id="xtick_5">
     <g id="line2d_5">
      <g>
       <use style="stroke:#000000;stroke-width:0.8;" x="429.12" xlink:href="#m1f19937d18" y="384.48"/>
      </g>
     </g>
     <g id="text_5">
      <!-- 0.8 -->
      <defs>
       <path d="M 31.78125 34.625 
Q 24.75 34.625 20.71875 30.859375 
Q 16.703125 27.09375 16.703125 20.515625 
Q 16.703125 13.921875 20.71875 10.15625 
Q 24.75 6.390625 31.78125 6.390625 
Q 38.8125 6.390625 42.859375 10.171875 
Q 46.921875 13.96875 46.921875 20.515625 
Q 46.921875 27.09375 42.890625 30.859375 
Q 38.875 34.625 31.78125 34.625 
M 21.921875 38.8125 
Q 15.578125 40.375 12.03125 44.71875 
Q 8.5 49.078125 8.5 55.328125 
Q 8.5 64.0625 14.71875 69.140625 
Q 20.953125 74.21875 31.78125 74.21875 
Q 42.671875 74.21875 48.875 69.140625 
Q 55.078125 64.0625 55.078125 55.328125 
Q 55.078125 49.078125 51.53125 44.71875 
Q 48 40.375 41.703125 38.8125 
Q 48.828125 37.15625 52.796875 32.3125 
Q 56.78125 27.484375 56.78125 20.515625 
Q 56.78125 9.90625 50.3125 4.234375 
Q 43.84375 -1.421875 31.78125 -1.421875 
Q 19.734375 -1.421875 13.25 4.234375 
Q 6.78125 9.90625 6.78125 20.515625 
Q 6.78125 27.484375 10.78125 32.3125 
Q 14.796875 37.15625 21.921875 38.8125 
M 18.3125 54.390625 
Q 18.3125 48.734375 21.84375 45.5625 
Q 25.390625 42.390625 31.78125 42.390625 
Q 38.140625 42.390625 41.71875 45.5625 
Q 45.3125 48.734375 45.3125 54.390625 
Q 45.3125 60.0625 41.71875 63.234375 
Q 38.140625 66.40625 31.78125 66.40625 
Q 25.390625 66.40625 21.84375 63.234375 
Q 18.3125 60.0625 18.3125 54.390625 
" id="DejaVuSans-38"/>
      </defs>
      <g transform="translate(421.168437 399.078438)scale(0.1 -0.1)">
       <use xlink:href="#DejaVuSans-30"/>
       <use x="63.623047" xlink:href="#DejaVuSans-2e"/>
       <use x="95.410156" xlink:href="#DejaVuSans-38"/>
      </g>
     </g>
    </g>
    <g id="xtick_6">
     <g id="line2d_6">
      <g>
       <use style="stroke:#000000;stroke-width:0.8;" x="518.4" xlink:href="#m1f19937d18" y="384.48"/>
      </g>
     </g>
     <g id="text_6">
      <!-- 1.0 -->
      <defs>
       <path d="M 12.40625 8.296875 
L 28.515625 8.296875 
L 28.515625 63.921875 
L 10.984375 60.40625 
L 10.984375 69.390625 
L 28.421875 72.90625 
L 38.28125 72.90625 
L 38.28125 8.296875 
L 54.390625 8.296875 
L 54.390625 0 
L 12.40625 0 
z
" id="DejaVuSans-31"/>
      </defs>
      <g transform="translate(510.448437 399.078438)scale(0.1 -0.1)">
       <use xlink:href="#DejaVuSans-31"/>
       <use x="63.623047" xlink:href="#DejaVuSans-2e"/>
       <use x="95.410156" xlink:href="#DejaVuSans-30"/>
      </g>
     </g>
    </g>
    <g id="text_7">
     <!-- Concentration $(c)$ -->
     <defs>
      <path d="M 64.40625 67.28125 
L 64.40625 56.890625 
Q 59.421875 61.53125 53.78125 63.8125 
Q 48.140625 66.109375 41.796875 66.109375 
Q 29.296875 66.109375 22.65625 58.46875 
Q 16.015625 50.828125 16.015625 36.375 
Q 16.015625 21.96875 22.65625 14.328125 
Q 29.296875 6.6875 41.796875 6.6875 
Q 48.140625 6.6875 53.78125 8.984375 
Q 59.421875 11.28125 64.40625 15.921875 
L 64.40625 5.609375 
Q 59.234375 2.09375 53.4375 0.328125 
Q 47.65625 -1.421875 41.21875 -1.421875 
Q 24.65625 -1.421875 15.125 8.703125 
Q 5.609375 18.84375 5.609375 36.375 
Q 5.609375 53.953125 15.125 64.078125 
Q 24.65625 74.21875 41.21875 74.21875 
Q 47.75 74.21875 53.53125 72.484375 
Q 59.328125 70.75 64.40625 67.28125 
" id="DejaVuSans-43"/>
      <path d="M 30.609375 48.390625 
Q 23.390625 48.390625 19.1875 42.75 
Q 14.984375 37.109375 14.984375 27.296875 
Q 14.984375 17.484375 19.15625 11.84375 
Q 23.34375 6.203125 30.609375 6.203125 
Q 37.796875 6.203125 41.984375 11.859375 
Q 46.1875 17.53125 46.1875 27.296875 
Q 46.1875 37.015625 41.984375 42.703125 
Q 37.796875 48.390625 30.609375 48.390625 
M 30.609375 56 
Q 42.328125 56 49.015625 48.375 
Q 55.71875 40.765625 55.71875 27.296875 
Q 55.71875 13.875 49.015625 6.21875 
Q 42.328125 -1.421875 30.609375 -1.421875 
Q 18.84375 -1.421875 12.171875 6.21875 
Q 5.515625 13.875 5.515625 27.296875 
Q 5.515625 40.765625 12.171875 48.375 
Q 18.84375 56 30.609375 56 
" id="DejaVuSans-6f"/>
      <path d="M 54.890625 33.015625 
L 54.890625 0 
L 45.90625 0 
L 45.90625 32.71875 
Q 45.90625 40.484375 42.875 44.328125 
Q 39.84375 48.1875 33.796875 48.1875 
Q 26.515625 48.1875 22.3125 43.546875 
Q 18.109375 38.921875 18.109375 30.90625 
L 18.109375 0 
L 9.078125 0 
L 9.078125 54.6875 
L 18.109375 54.6875 
L 18.109375 46.1875 
Q 21.34375 51.125 25.703125 53.5625 
Q 30.078125 56 35.796875 56 
Q 45.21875 56 50.046875 50.171875 
Q 54.890625 44.34375 54.890625 33.015625 
" id="DejaVuSans-6e"/>
      <path d="M 48.78125 52.59375 
L 48.78125 44.1875 
Q 44.96875 46.296875 41.140625 47.34375 
Q 37.3125 48.390625 33.40625 48.390625 
Q 24.65625 48.390625 19.8125 42.84375 
Q 14.984375 37.3125 14.984375 27.296875 
Q 14.984375 17.28125 19.8125 11.734375 
Q 24.65625 6.203125 33.40625 6.203125 
Q 37.3125 6.203125 41.140625 7.25 
Q 44.96875 8.296875 48.78125 10.40625 
L 48.78125 2.09375 
Q 45.015625 0.34375 40.984375 -0.53125 
Q 36.96875 -1.421875 32.421875 -1.421875 
Q 20.0625 -1.421875 12.78125 6.34375 
Q 5.515625 14.109375 5.515625 27.296875 
Q 5.515625 40.671875 12.859375 48.328125 
Q 20.21875 56 33.015625 56 
Q 37.15625 56 41.109375 55.140625 
Q 45.0625 54.296875 48.78125 52.59375 
" id="DejaVuSans-63"/>
      <path d="M 56.203125 29.59375 
L 56.203125 25.203125 
L 14.890625 25.203125 
Q 15.484375 15.921875 20.484375 11.0625 
Q 25.484375 6.203125 34.421875 6.203125 
Q 39.59375 6.203125 44.453125 7.46875 
Q 49.3125 8.734375 54.109375 11.28125 
L 54.109375 2.78125 
Q 49.265625 0.734375 44.1875 -0.34375 
Q 39.109375 -1.421875 33.890625 -1.421875 
Q 20.796875 -1.421875 13.15625 6.1875 
Q 5.515625 13.8125 5.515625 26.8125 
Q 5.515625 40.234375 12.765625 48.109375 
Q 20.015625 56 32.328125 56 
Q 43.359375 56 49.78125 48.890625 
Q 56.203125 41.796875 56.203125 29.59375 
M 47.21875 32.234375 
Q 47.125 39.59375 43.09375 43.984375 
Q 39.0625 48.390625 32.421875 48.390625 
Q 24.90625 48.390625 20.390625 44.140625 
Q 15.875 39.890625 15.1875 32.171875 
z
" id="DejaVuSans-65"/>
      <path d="M 18.3125 70.21875 
L 18.3125 54.6875 
L 36.8125 54.6875 
L 36.8125 47.703125 
L 18.3125 47.703125 
L 18.3125 18.015625 
Q 18.3125 11.328125 20.140625 9.421875 
Q 21.96875 7.515625 27.59375 7.515625 
L 36.8125 7.515625 
L 36.8125 0 
L 27.59375 0 
Q 17.1875 0 13.234375 3.875 
Q 9.28125 7.765625 9.28125 18.015625 
L 9.28125 47.703125 
L 2.6875 47.703125 
L 2.6875 54.6875 
L 9.28125 54.6875 
L 9.28125 70.21875 
z
" id="DejaVuSans-74"/>
      <path d="M 41.109375 46.296875 
Q 39.59375 47.171875 37.8125 47.578125 
Q 36.03125 48 33.890625 48 
Q 26.265625 48 22.1875 43.046875 
Q 18.109375 38.09375 18.109375 28.8125 
L 18.109375 0 
L 9.078125 0 
L 9.078125 54.6875 
L 18.109375 54.6875 
L 18.109375 46.1875 
Q 20.953125 51.171875 25.484375 53.578125 
Q 30.03125 56 36.53125 56 
Q 37.453125 56 38.578125 55.875 
Q 39.703125 55.765625 41.0625 55.515625 
z
" id="DejaVuSans-72"/>
      <path d="M 34.28125 27.484375 
Q 23.390625 27.484375 19.1875 25 
Q 14.984375 22.515625 14.984375 16.5 
Q 14.984375 11.71875 18.140625 8.90625 
Q 21.296875 6.109375 26.703125 6.109375 
Q 34.1875 6.109375 38.703125 11.40625 
Q 43.21875 16.703125 43.21875 25.484375 
L 43.21875 27.484375 
z
M 52.203125 31.203125 
L 52.203125 0 
L 43.21875 0 
L 43.21875 8.296875 
Q 40.140625 3.328125 35.546875 0.953125 
Q 30.953125 -1.421875 24.3125 -1.421875 
Q 15.921875 -1.421875 10.953125 3.296875 
Q 6 8.015625 6 15.921875 
Q 6 25.140625 12.171875 29.828125 
Q 18.359375 34.515625 30.609375 34.515625 
L 43.21875 34.515625 
L 43.21875 35.40625 
Q 43.21875 41.609375 39.140625 45 
Q 35.0625 48.390625 27.6875 48.390625 
Q 23 48.390625 18.546875 47.265625 
Q 14.109375 46.140625 10.015625 43.890625 
L 10.015625 52.203125 
Q 14.9375 54.109375 19.578125 55.046875 
Q 24.21875 56 28.609375 56 
Q 40.484375 56 46.34375 49.84375 
Q 52.203125 43.703125 52.203125 31.203125 
" id="DejaVuSans-61"/>
      <path d="M 9.421875 54.6875 
L 18.40625 54.6875 
L 18.40625 0 
L 9.421875 0 
z
M 9.421875 75.984375 
L 18.40625 75.984375 
L 18.40625 64.59375 
L 9.421875 64.59375 
z
" id="DejaVuSans-69"/>
      <path id="DejaVuSans-20"/>
      <path d="M 31 75.875 
Q 24.46875 64.65625 21.28125 53.65625 
Q 18.109375 42.671875 18.109375 31.390625 
Q 18.109375 20.125 21.3125 9.0625 
Q 24.515625 -2 31 -13.1875 
L 23.1875 -13.1875 
Q 15.875 -1.703125 12.234375 9.375 
Q 8.59375 20.453125 8.59375 31.390625 
Q 8.59375 42.28125 12.203125 53.3125 
Q 15.828125 64.359375 23.1875 75.875 
z
" id="DejaVuSans-28"/>
      <path d="M 53.609375 52.59375 
L 51.8125 43.703125 
Q 48.578125 46.046875 44.9375 47.21875 
Q 41.3125 48.390625 37.40625 48.390625 
Q 33.109375 48.390625 29.21875 46.875 
Q 25.34375 45.359375 22.703125 42.578125 
Q 18.5 38.328125 16.203125 32.609375 
Q 13.921875 26.90625 13.921875 20.796875 
Q 13.921875 13.421875 17.609375 9.8125 
Q 21.296875 6.203125 28.8125 6.203125 
Q 32.515625 6.203125 36.6875 7.328125 
Q 40.875 8.453125 45.40625 10.6875 
L 43.703125 1.8125 
Q 39.796875 0.203125 35.671875 -0.609375 
Q 31.546875 -1.421875 27.203125 -1.421875 
Q 16.3125 -1.421875 10.453125 4.015625 
Q 4.59375 9.46875 4.59375 19.578125 
Q 4.59375 28.078125 7.640625 35.234375 
Q 10.6875 42.390625 16.703125 48.09375 
Q 20.796875 52 26.3125 54 
Q 31.84375 56 38.375 56 
Q 42.1875 56 45.9375 55.140625 
Q 49.703125 54.296875 53.609375 52.59375 
" id="DejaVuSans-Oblique-63"/>
      <path d="M 8.015625 75.875 
L 15.828125 75.875 
Q 23.140625 64.359375 26.78125 53.3125 
Q 30.421875 42.28125 30.421875 31.390625 
Q 30.421875 20.453125 26.78125 9.375 
Q 23.140625 -1.703125 15.828125 -13.1875 
L 8.015625 -13.1875 
Q 14.5 -2 17.703125 9.0625 
Q 20.90625 20.125 20.90625 31.390625 
Q 20.90625 42.671875 17.703125 53.65625 
Q 14.5 64.65625 8.015625 75.875 
" id="DejaVuSans-29"/>
     </defs>
     <g transform="translate(234.09 415.795938)scale(0.14 -0.14)">
      <use transform="translate(0 0.015625)" xlink:href="#DejaVuSans-43"/>
      <use transform="translate(69.824219 0.015625)" xlink:href="#DejaVuSans-6f"/>
      <use transform="translate(131.005859 0.015625)" xlink:href="#DejaVuSans-6e"/>
      <use transform="translate(194.384766 0.015625)" xlink:href="#DejaVuSans-63"/>
      <use transform="translate(249.365234 0.015625)" xlink:href="#DejaVuSans-65"/>
      <use transform="translate(310.888672 0.015625)" xlink:href="#DejaVuSans-6e"/>
      <use transform="translate(374.267578 0.015625)" xlink:href="#DejaVuSans-74"/>
      <use transform="translate(413.476562 0.015625)" xlink:href="#DejaVuSans-72"/>
      <use transform="translate(454.589844 0.015625)" xlink:href="#DejaVuSans-61"/>
      <use transform="translate(515.869141 0.015625)" xlink:href="#DejaVuSans-74"/>
      <use transform="translate(555.078125 0.015625)" xlink:href="#DejaVuSans-69"/>
      <use transform="translate(582.861328 0.015625)" xlink:href="#DejaVuSans-6f"/>
      <use transform="translate(644.042969 0.015625)" xlink:href="#DejaVuSans-6e"/>
      <use transform="translate(707.421875 0.015625)" xlink:href="#DejaVuSans-20"/>
      <use transform="translate(739.208984 0.015625)" xlink:href="#DejaVuSans-28"/>
      <use transform="translate(778.222656 0.015625)" xlink:href="#DejaVuSans-Oblique-63"/>
      <use transform="translate(833.203125 0.015625)" xlink:href="#DejaVuSans-29"/>
     </g>
    </g>
   </g>
   <g id="matplotlib.axis_2">
    <g id="ytick_1">
     <g id="line2d_7">
      <defs>
       <path d="M 0 0 
L -3.5 0 
" id="mccfcac80d6" style="stroke:#000000;stroke-width:0.8;"/>
      </defs>
      <g>
       <use style="stroke:#000000;stroke-width:0.8;" x="72" xlink:href="#mccfcac80d6" y="384.48"/>
      </g>
     </g>
     <g id="text_8">
      <!-- 0.00 -->
      <g transform="translate(42.734375 388.279219)scale(0.1 -0.1)">
       <use xlink:href="#DejaVuSans-30"/>
       <use x="63.623047" xlink:href="#DejaVuSans-2e"/>
       <use x="95.410156" xlink:href="#DejaVuSans-30"/>
       <use x="159.033203" xlink:href="#DejaVuSans-30"/>
      </g>
     </g>
    </g>
    <g id="ytick_2">
     <g id="line2d_8">
      <g>
       <use style="stroke:#000000;stroke-width:0.8;" x="72" xlink:href="#mccfcac80d6" y="347.52"/>
      </g>
     </g>
     <g id="text_9">
      <!-- 0.05 -->
      <defs>
       <path d="M 10.796875 72.90625 
L 49.515625 72.90625 
L 49.515625 64.59375 
L 19.828125 64.59375 
L 19.828125 46.734375 
Q 21.96875 47.46875 24.109375 47.828125 
Q 26.265625 48.1875 28.421875 48.1875 
Q 40.625 48.1875 47.75 41.5 
Q 54.890625 34.8125 54.890625 23.390625 
Q 54.890625 11.625 47.5625 5.09375 
Q 40.234375 -1.421875 26.90625 -1.421875 
Q 22.3125 -1.421875 17.546875 -0.640625 
Q 12.796875 0.140625 7.71875 1.703125 
L 7.71875 11.625 
Q 12.109375 9.234375 16.796875 8.0625 
Q 21.484375 6.890625 26.703125 6.890625 
Q 35.15625 6.890625 40.078125 11.328125 
Q 45.015625 15.765625 45.015625 23.390625 
Q 45.015625 31 40.078125 35.4375 
Q 35.15625 39.890625 26.703125 39.890625 
Q 22.75 39.890625 18.8125 39.015625 
Q 14.890625 38.140625 10.796875 36.28125 
z
" id="DejaVuSans-35"/>
      </defs>
      <g transform="translate(42.734375 351.319219)scale(0.1 -0.1)">
       <use xlink:href="#DejaVuSans-30"/>
       <use x="63.623047" xlink:href="#DejaVuSans-2e"/>
       <use x="95.410156" xlink:href="#DejaVuSans-30"/>
       <use x="159.033203" xlink:href="#DejaVuSans-35"/>
      </g>
     </g>
    </g>
    <g id="ytick_3">
     <g id="line2d_9">
      <g>
       <use style="stroke:#000000;stroke-width:0.8;" x="72" xlink:href="#mccfcac80d6" y="310.56"/>
      </g>
     </g>
     <g id="text_10">
      <!-- 0.10 -->
      <g transform="translate(42.734375 314.359219)scale(0.1 -0.1)">
       <use xlink:href="#DejaVuSans-30"/>
       <use x="63.623047" xlink:href="#DejaVuSans-2e"/>
       <use x="95.410156" xlink:href="#DejaVuSans-31"/>
       <use x="159.033203" xlink:href="#DejaVuSans-30"/>
      </g>
     </g>
    </g>
    <g id="ytick_4">
     <g id="line2d_10">
      <g>
       <use style="stroke:#000000;stroke-width:0.8;" x="72" xlink:href="#mccfcac80d6" y="273.6"/>
      </g>
     </g>
     <g id="text_11">
      <!-- 0.15 -->
      <g transform="translate(42.734375 277.399219)scale(0.1 -0.1)">
       <use xlink:href="#DejaVuSans-30"/>
       <use x="63.623047" xlink:href="#DejaVuSans-2e"/>
       <use x="95.410156" xlink:href="#DejaVuSans-31"/>
       <use x="159.033203" xlink:href="#DejaVuSans-35"/>
      </g>
     </g>
    </g>
    <g id="ytick_5">
     <g id="line2d_11">
      <g>
       <use style="stroke:#000000;stroke-width:0.8;" x="72" xlink:href="#mccfcac80d6" y="236.64"/>
      </g>
     </g>
     <g id="text_12">
      <!-- 0.20 -->
      <g transform="translate(42.734375 240.439219)scale(0.1 -0.1)">
       <use xlink:href="#DejaVuSans-30"/>
       <use x="63.623047" xlink:href="#DejaVuSans-2e"/>
       <use x="95.410156" xlink:href="#DejaVuSans-32"/>
       <use x="159.033203" xlink:href="#DejaVuSans-30"/>
      </g>
     </g>
    </g>
    <g id="ytick_6">
     <g id="line2d_12">
      <g>
       <use style="stroke:#000000;stroke-width:0.8;" x="72" xlink:href="#mccfcac80d6" y="199.68"/>
      </g>
     </g>
     <g id="text_13">
      <!-- 0.25 -->
      <g transform="translate(42.734375 203.479219)scale(0.1 -0.1)">
       <use xlink:href="#DejaVuSans-30"/>
       <use x="63.623047" xlink:href="#DejaVuSans-2e"/>
       <use x="95.410156" xlink:href="#DejaVuSans-32"/>
       <use x="159.033203" xlink:href="#DejaVuSans-35"/>
      </g>
     </g>
    </g>
    <g id="ytick_7">
     <g id="line2d_13">
      <g>
       <use style="stroke:#000000;stroke-width:0.8;" x="72" xlink:href="#mccfcac80d6" y="162.72"/>
      </g>
     </g>
     <g id="text_14">
      <!-- 0.30 -->
      <defs>
       <path d="M 40.578125 39.3125 
Q 47.65625 37.796875 51.625 33 
Q 55.609375 28.21875 55.609375 21.1875 
Q 55.609375 10.40625 48.1875 4.484375 
Q 40.765625 -1.421875 27.09375 -1.421875 
Q 22.515625 -1.421875 17.65625 -0.515625 
Q 12.796875 0.390625 7.625 2.203125 
L 7.625 11.71875 
Q 11.71875 9.328125 16.59375 8.109375 
Q 21.484375 6.890625 26.8125 6.890625 
Q 36.078125 6.890625 40.9375 10.546875 
Q 45.796875 14.203125 45.796875 21.1875 
Q 45.796875 27.640625 41.28125 31.265625 
Q 36.765625 34.90625 28.71875 34.90625 
L 20.21875 34.90625 
L 20.21875 43.015625 
L 29.109375 43.015625 
Q 36.375 43.015625 40.234375 45.921875 
Q 44.09375 48.828125 44.09375 54.296875 
Q 44.09375 59.90625 40.109375 62.90625 
Q 36.140625 65.921875 28.71875 65.921875 
Q 24.65625 65.921875 20.015625 65.03125 
Q 15.375 64.15625 9.8125 62.3125 
L 9.8125 71.09375 
Q 15.4375 72.65625 20.34375 73.4375 
Q 25.25 74.21875 29.59375 74.21875 
Q 40.828125 74.21875 47.359375 69.109375 
Q 53.90625 64.015625 53.90625 55.328125 
Q 53.90625 49.265625 50.4375 45.09375 
Q 46.96875 40.921875 40.578125 39.3125 
" id="DejaVuSans-33"/>
      </defs>
      <g transform="translate(42.734375 166.519219)scale(0.1 -0.1)">
       <use xlink:href="#DejaVuSans-30"/>
       <use x="63.623047" xlink:href="#DejaVuSans-2e"/>
       <use x="95.410156" xlink:href="#DejaVuSans-33"/>
       <use x="159.033203" xlink:href="#DejaVuSans-30"/>
      </g>
     </g>
    </g>
    <g id="ytick_8">
     <g id="line2d_14">
      <g>
       <use style="stroke:#000000;stroke-width:0.8;" x="72" xlink:href="#mccfcac80d6" y="125.76"/>
      </g>
     </g>
     <g id="text_15">
      <!-- 0.35 -->
      <g transform="translate(42.734375 129.559219)scale(0.1 -0.1)">
       <use xlink:href="#DejaVuSans-30"/>
       <use x="63.623047" xlink:href="#DejaVuSans-2e"/>
       <use x="95.410156" xlink:href="#DejaVuSans-33"/>
       <use x="159.033203" xlink:href="#DejaVuSans-35"/>
      </g>
     </g>
    </g>
    <g id="ytick_9">
     <g id="line2d_15">
      <g>
       <use style="stroke:#000000;stroke-width:0.8;" x="72" xlink:href="#mccfcac80d6" y="88.8"/>
      </g>
     </g>
     <g id="text_16">
      <!-- 0.40 -->
      <g transform="translate(42.734375 92.599219)scale(0.1 -0.1)">
       <use xlink:href="#DejaVuSans-30"/>
       <use x="63.623047" xlink:href="#DejaVuSans-2e"/>
       <use x="95.410156" xlink:href="#DejaVuSans-34"/>
       <use x="159.033203" xlink:href="#DejaVuSans-30"/>
      </g>
     </g>
    </g>
    <g id="ytick_10">
     <g id="line2d_16">
      <g>
       <use style="stroke:#000000;stroke-width:0.8;" x="72" xlink:href="#mccfcac80d6" y="51.84"/>
      </g>
     </g>
     <g id="text_17">
      <!-- 0.45 -->
      <g transform="translate(42.734375 55.639219)scale(0.1 -0.1)">
       <use xlink:href="#DejaVuSans-30"/>
       <use x="63.623047" xlink:href="#DejaVuSans-2e"/>
       <use x="95.410156" xlink:href="#DejaVuSans-34"/>
       <use x="159.033203" xlink:href="#DejaVuSans-35"/>
      </g>
     </g>
    </g>
    <g id="text_18">
     <!-- Temperature $(T)$ -->
     <defs>
      <path d="M -0.296875 72.90625 
L 61.375 72.90625 
L 61.375 64.59375 
L 35.5 64.59375 
L 35.5 0 
L 25.59375 0 
L 25.59375 64.59375 
L -0.296875 64.59375 
z
" id="DejaVuSans-54"/>
      <path d="M 52 44.1875 
Q 55.375 50.25 60.0625 53.125 
Q 64.75 56 71.09375 56 
Q 79.640625 56 84.28125 50.015625 
Q 88.921875 44.046875 88.921875 33.015625 
L 88.921875 0 
L 79.890625 0 
L 79.890625 32.71875 
Q 79.890625 40.578125 77.09375 44.375 
Q 74.3125 48.1875 68.609375 48.1875 
Q 61.625 48.1875 57.5625 43.546875 
Q 53.515625 38.921875 53.515625 30.90625 
L 53.515625 0 
L 44.484375 0 
L 44.484375 32.71875 
Q 44.484375 40.625 41.703125 44.40625 
Q 38.921875 48.1875 33.109375 48.1875 
Q 26.21875 48.1875 22.15625 43.53125 
Q 18.109375 38.875 18.109375 30.90625 
L 18.109375 0 
L 9.078125 0 
L 9.078125 54.6875 
L 18.109375 54.6875 
L 18.109375 46.1875 
Q 21.1875 51.21875 25.484375 53.609375 
Q 29.78125 56 35.6875 56 
Q 41.65625 56 45.828125 52.96875 
Q 50 49.953125 52 44.1875 
" id="DejaVuSans-6d"/>
      <path d="M 18.109375 8.203125 
L 18.109375 -20.796875 
L 9.078125 -20.796875 
L 9.078125 54.6875 
L 18.109375 54.6875 
L 18.109375 46.390625 
Q 20.953125 51.265625 25.265625 53.625 
Q 29.59375 56 35.59375 56 
Q 45.5625 56 51.78125 48.09375 
Q 58.015625 40.1875 58.015625 27.296875 
Q 58.015625 14.40625 51.78125 6.484375 
Q 45.5625 -1.421875 35.59375 -1.421875 
Q 29.59375 -1.421875 25.265625 0.953125 
Q 20.953125 3.328125 18.109375 8.203125 
M 48.6875 27.296875 
Q 48.6875 37.203125 44.609375 42.84375 
Q 40.53125 48.484375 33.40625 48.484375 
Q 26.265625 48.484375 22.1875 42.84375 
Q 18.109375 37.203125 18.109375 27.296875 
Q 18.109375 17.390625 22.1875 11.75 
Q 26.265625 6.109375 33.40625 6.109375 
Q 40.53125 6.109375 44.609375 11.75 
Q 48.6875 17.390625 48.6875 27.296875 
" id="DejaVuSans-70"/>
      <path d="M 8.5 21.578125 
L 8.5 54.6875 
L 17.484375 54.6875 
L 17.484375 21.921875 
Q 17.484375 14.15625 20.5 10.265625 
Q 23.53125 6.390625 29.59375 6.390625 
Q 36.859375 6.390625 41.078125 11.03125 
Q 45.3125 15.671875 45.3125 23.6875 
L 45.3125 54.6875 
L 54.296875 54.6875 
L 54.296875 0 
L 45.3125 0 
L 45.3125 8.40625 
Q 42.046875 3.421875 37.71875 1 
Q 33.40625 -1.421875 27.6875 -1.421875 
Q 18.265625 -1.421875 13.375 4.4375 
Q 8.5 10.296875 8.5 21.578125 
M 31.109375 56 
z
" id="DejaVuSans-75"/>
      <path d="M 5.90625 72.90625 
L 67.578125 72.90625 
L 66.015625 64.59375 
L 39.984375 64.59375 
L 27.484375 0 
L 17.578125 0 
L 30.078125 64.59375 
L 4.296875 64.59375 
z
" id="DejaVuSans-Oblique-54"/>
     </defs>
     <g transform="translate(35.794375 275.84)rotate(-90)scale(0.14 -0.14)">
      <use transform="translate(0 0.125)" xlink:href="#DejaVuSans-54"/>
      <use transform="translate(61.083984 0.125)" xlink:href="#DejaVuSans-65"/>
      <use transform="translate(122.607422 0.125)" xlink:href="#DejaVuSans-6d"/>
      <use transform="translate(220.019531 0.125)" xlink:href="#DejaVuSans-70"/>
      <use transform="translate(283.496094 0.125)" xlink:href="#DejaVuSans-65"/>
      <use transform="translate(345.019531 0.125)" xlink:href="#DejaVuSans-72"/>
      <use transform="translate(386.132812 0.125)" xlink:href="#DejaVuSans-61"/>
      <use transform="translate(447.412109 0.125)" xlink:href="#DejaVuSans-74"/>
      <use transform="translate(486.621094 0.125)" xlink:href="#DejaVuSans-75"/>
      <use transform="translate(550 0.125)" xlink:href="#DejaVuSans-72"/>
      <use transform="translate(591.113281 0.125)" xlink:href="#DejaVuSans-65"/>
      <use transform="translate(652.636719 0.125)" xlink:href="#DejaVuSans-20"/>
      <use transform="translate(684.423828 0.125)" xlink:href="#DejaVuSans-28"/>
      <use transform="translate(723.4375 0.125)" xlink:href="#DejaVuSans-Oblique-54"/>
      <use transform="translate(784.521484 0.125)" xlink:href="#DejaVuSans-29"/>
     </g>
    </g>
   </g>
   <g id="patch_3">
    <path d="M 72 384.48 
L 72 51.84 
" style="fill:none;stroke:#000000;stroke-linecap:square;stroke-linejoin:miter;stroke-width:0.8;"/>
   </g>
   <g id="patch_4">
    <path d="M 518.4 384.48 
L 518.4 51.84 
" style="fill:none;stroke:#000000;stroke-linecap:square;stroke-linejoin:miter;stroke-width:0.8;"/>
   </g>
   <g id="patch_5">
    <path d="M 72 384.48 
L 518.4 384.48 
" style="fill:none;stroke:#000000;stroke-linecap:square;stroke-linejoin:miter;stroke-width:0.8;"/>
   </g>
   <g id="patch_6">
    <path d="M 72 51.84 
L 518.4 51.84 
" style="fill:none;stroke:#000000;stroke-linecap:square;stroke-linejoin:miter;stroke-width:0.8;"/>
   </g>
   <g id="legend_1">
    <g id="patch_7">
     <path d="M 347.148438 103.874375 
L 511.4 103.874375 
Q 513.4 103.874375 513.4 101.874375 
L 513.4 58.84 
Q 513.4 56.84 511.4 56.84 
L 347.148438 56.84 
Q 345.148438 56.84 345.148438 58.84 
L 345.148438 101.874375 
Q 345.148438 103.874375 347.148438 103.874375 
z
" style="fill:#ffffff;opacity:0.8;stroke:#cccccc;stroke-linejoin:miter;"/>
    </g>
    <g id="PathCollection_4">
     <g>
      <use style="fill:#1f77b4;stroke:#1f77b4;" x="359.148438" xlink:href="#mae7dac3686" y="65.813437"/>
     </g>
    </g>
    <g id="text_19">
     <!-- liquid-solid coexistance -->
     <defs>
      <path d="M 9.421875 75.984375 
L 18.40625 75.984375 
L 18.40625 0 
L 9.421875 0 
z
" id="DejaVuSans-6c"/>
      <path d="M 14.796875 27.296875 
Q 14.796875 17.390625 18.875 11.75 
Q 22.953125 6.109375 30.078125 6.109375 
Q 37.203125 6.109375 41.296875 11.75 
Q 45.40625 17.390625 45.40625 27.296875 
Q 45.40625 37.203125 41.296875 42.84375 
Q 37.203125 48.484375 30.078125 48.484375 
Q 22.953125 48.484375 18.875 42.84375 
Q 14.796875 37.203125 14.796875 27.296875 
M 45.40625 8.203125 
Q 42.578125 3.328125 38.25 0.953125 
Q 33.9375 -1.421875 27.875 -1.421875 
Q 17.96875 -1.421875 11.734375 6.484375 
Q 5.515625 14.40625 5.515625 27.296875 
Q 5.515625 40.1875 11.734375 48.09375 
Q 17.96875 56 27.875 56 
Q 33.9375 56 38.25 53.625 
Q 42.578125 51.265625 45.40625 46.390625 
L 45.40625 54.6875 
L 54.390625 54.6875 
L 54.390625 -20.796875 
L 45.40625 -20.796875 
z
" id="DejaVuSans-71"/>
      <path d="M 45.40625 46.390625 
L 45.40625 75.984375 
L 54.390625 75.984375 
L 54.390625 0 
L 45.40625 0 
L 45.40625 8.203125 
Q 42.578125 3.328125 38.25 0.953125 
Q 33.9375 -1.421875 27.875 -1.421875 
Q 17.96875 -1.421875 11.734375 6.484375 
Q 5.515625 14.40625 5.515625 27.296875 
Q 5.515625 40.1875 11.734375 48.09375 
Q 17.96875 56 27.875 56 
Q 33.9375 56 38.25 53.625 
Q 42.578125 51.265625 45.40625 46.390625 
M 14.796875 27.296875 
Q 14.796875 17.390625 18.875 11.75 
Q 22.953125 6.109375 30.078125 6.109375 
Q 37.203125 6.109375 41.296875 11.75 
Q 45.40625 17.390625 45.40625 27.296875 
Q 45.40625 37.203125 41.296875 42.84375 
Q 37.203125 48.484375 30.078125 48.484375 
Q 22.953125 48.484375 18.875 42.84375 
Q 14.796875 37.203125 14.796875 27.296875 
" id="DejaVuSans-64"/>
      <path d="M 4.890625 31.390625 
L 31.203125 31.390625 
L 31.203125 23.390625 
L 4.890625 23.390625 
z
" id="DejaVuSans-2d"/>
      <path d="M 44.28125 53.078125 
L 44.28125 44.578125 
Q 40.484375 46.53125 36.375 47.5 
Q 32.28125 48.484375 27.875 48.484375 
Q 21.1875 48.484375 17.84375 46.4375 
Q 14.5 44.390625 14.5 40.28125 
Q 14.5 37.15625 16.890625 35.375 
Q 19.28125 33.59375 26.515625 31.984375 
L 29.59375 31.296875 
Q 39.15625 29.25 43.1875 25.515625 
Q 47.21875 21.78125 47.21875 15.09375 
Q 47.21875 7.46875 41.1875 3.015625 
Q 35.15625 -1.421875 24.609375 -1.421875 
Q 20.21875 -1.421875 15.453125 -0.5625 
Q 10.6875 0.296875 5.421875 2 
L 5.421875 11.28125 
Q 10.40625 8.6875 15.234375 7.390625 
Q 20.0625 6.109375 24.8125 6.109375 
Q 31.15625 6.109375 34.5625 8.28125 
Q 37.984375 10.453125 37.984375 14.40625 
Q 37.984375 18.0625 35.515625 20.015625 
Q 33.0625 21.96875 24.703125 23.78125 
L 21.578125 24.515625 
Q 13.234375 26.265625 9.515625 29.90625 
Q 5.8125 33.546875 5.8125 39.890625 
Q 5.8125 47.609375 11.28125 51.796875 
Q 16.75 56 26.8125 56 
Q 31.78125 56 36.171875 55.265625 
Q 40.578125 54.546875 44.28125 53.078125 
" id="DejaVuSans-73"/>
      <path d="M 54.890625 54.6875 
L 35.109375 28.078125 
L 55.90625 0 
L 45.3125 0 
L 29.390625 21.484375 
L 13.484375 0 
L 2.875 0 
L 24.125 28.609375 
L 4.6875 54.6875 
L 15.28125 54.6875 
L 29.78125 35.203125 
L 44.28125 54.6875 
z
" id="DejaVuSans-78"/>
     </defs>
     <g transform="translate(377.148438 68.438437)scale(0.1 -0.1)">
      <use xlink:href="#DejaVuSans-6c"/>
      <use x="27.783203" xlink:href="#DejaVuSans-69"/>
      <use x="55.566406" xlink:href="#DejaVuSans-71"/>
      <use x="119.042969" xlink:href="#DejaVuSans-75"/>
      <use x="182.421875" xlink:href="#DejaVuSans-69"/>
      <use x="210.205078" xlink:href="#DejaVuSans-64"/>
      <use x="273.681641" xlink:href="#DejaVuSans-2d"/>
      <use x="309.765625" xlink:href="#DejaVuSans-73"/>
      <use x="361.865234" xlink:href="#DejaVuSans-6f"/>
      <use x="423.046875" xlink:href="#DejaVuSans-6c"/>
      <use x="450.830078" xlink:href="#DejaVuSans-69"/>
      <use x="478.613281" xlink:href="#DejaVuSans-64"/>
      <use x="542.089844" xlink:href="#DejaVuSans-20"/>
      <use x="573.876953" xlink:href="#DejaVuSans-63"/>
      <use x="628.857422" xlink:href="#DejaVuSans-6f"/>
      <use x="690.039062" xlink:href="#DejaVuSans-65"/>
      <use x="751.546875" xlink:href="#DejaVuSans-78"/>
      <use x="810.726562" xlink:href="#DejaVuSans-69"/>
      <use x="838.509766" xlink:href="#DejaVuSans-73"/>
      <use x="890.609375" xlink:href="#DejaVuSans-74"/>
      <use x="929.818359" xlink:href="#DejaVuSans-61"/>
      <use x="991.097656" xlink:href="#DejaVuSans-6e"/>
      <use x="1054.476562" xlink:href="#DejaVuSans-63"/>
      <use x="1109.457031" xlink:href="#DejaVuSans-65"/>
     </g>
    </g>
    <g id="PathCollection_5">
     <g>
      <use style="fill:#ff7f0e;stroke:#ff7f0e;" x="359.148438" xlink:href="#meb9bde2520" y="80.491562"/>
     </g>
    </g>
    <g id="text_20">
     <!-- metastable liquid binodal -->
     <defs>
      <path d="M 48.6875 27.296875 
Q 48.6875 37.203125 44.609375 42.84375 
Q 40.53125 48.484375 33.40625 48.484375 
Q 26.265625 48.484375 22.1875 42.84375 
Q 18.109375 37.203125 18.109375 27.296875 
Q 18.109375 17.390625 22.1875 11.75 
Q 26.265625 6.109375 33.40625 6.109375 
Q 40.53125 6.109375 44.609375 11.75 
Q 48.6875 17.390625 48.6875 27.296875 
M 18.109375 46.390625 
Q 20.953125 51.265625 25.265625 53.625 
Q 29.59375 56 35.59375 56 
Q 45.5625 56 51.78125 48.09375 
Q 58.015625 40.1875 58.015625 27.296875 
Q 58.015625 14.40625 51.78125 6.484375 
Q 45.5625 -1.421875 35.59375 -1.421875 
Q 29.59375 -1.421875 25.265625 0.953125 
Q 20.953125 3.328125 18.109375 8.203125 
L 18.109375 0 
L 9.078125 0 
L 9.078125 75.984375 
L 18.109375 75.984375 
z
" id="DejaVuSans-62"/>
     </defs>
     <g transform="translate(377.148438 83.116562)scale(0.1 -0.1)">
      <use xlink:href="#DejaVuSans-6d"/>
      <use x="97.412109" xlink:href="#DejaVuSans-65"/>
      <use x="158.935547" xlink:href="#DejaVuSans-74"/>
      <use x="198.144531" xlink:href="#DejaVuSans-61"/>
      <use x="259.423828" xlink:href="#DejaVuSans-73"/>
      <use x="311.523438" xlink:href="#DejaVuSans-74"/>
      <use x="350.732422" xlink:href="#DejaVuSans-61"/>
      <use x="412.011719" xlink:href="#DejaVuSans-62"/>
      <use x="475.488281" xlink:href="#DejaVuSans-6c"/>
      <use x="503.271484" xlink:href="#DejaVuSans-65"/>
      <use x="564.794922" xlink:href="#DejaVuSans-20"/>
      <use x="596.582031" xlink:href="#DejaVuSans-6c"/>
      <use x="624.365234" xlink:href="#DejaVuSans-69"/>
      <use x="652.148438" xlink:href="#DejaVuSans-71"/>
      <use x="715.625" xlink:href="#DejaVuSans-75"/>
      <use x="779.003906" xlink:href="#DejaVuSans-69"/>
      <use x="806.787109" xlink:href="#DejaVuSans-64"/>
      <use x="870.263672" xlink:href="#DejaVuSans-20"/>
      <use x="902.050781" xlink:href="#DejaVuSans-62"/>
      <use x="965.527344" xlink:href="#DejaVuSans-69"/>
      <use x="993.310547" xlink:href="#DejaVuSans-6e"/>
      <use x="1056.689453" xlink:href="#DejaVuSans-6f"/>
      <use x="1117.871094" xlink:href="#DejaVuSans-64"/>
      <use x="1181.347656" xlink:href="#DejaVuSans-61"/>
      <use x="1242.626953" xlink:href="#DejaVuSans-6c"/>
     </g>
    </g>
    <g id="PathCollection_6">
     <g>
      <use style="fill:#2ca02c;stroke:#2ca02c;" x="359.148438" xlink:href="#ma60ef9e789" y="95.169687"/>
     </g>
    </g>
    <g id="text_21">
     <!-- metastable liquid spinodal -->
     <g transform="translate(377.148438 97.794687)scale(0.1 -0.1)">
      <use xlink:href="#DejaVuSans-6d"/>
      <use x="97.412109" xlink:href="#DejaVuSans-65"/>
      <use x="158.935547" xlink:href="#DejaVuSans-74"/>
      <use x="198.144531" xlink:href="#DejaVuSans-61"/>
      <use x="259.423828" xlink:href="#DejaVuSans-73"/>
      <use x="311.523438" xlink:href="#DejaVuSans-74"/>
      <use x="350.732422" xlink:href="#DejaVuSans-61"/>
      <use x="412.011719" xlink:href="#DejaVuSans-62"/>
      <use x="475.488281" xlink:href="#DejaVuSans-6c"/>
      <use x="503.271484" xlink:href="#DejaVuSans-65"/>
      <use x="564.794922" xlink:href="#DejaVuSans-20"/>
      <use x="596.582031" xlink:href="#DejaVuSans-6c"/>
      <use x="624.365234" xlink:href="#DejaVuSans-69"/>
      <use x="652.148438" xlink:href="#DejaVuSans-71"/>
      <use x="715.625" xlink:href="#DejaVuSans-75"/>
      <use x="779.003906" xlink:href="#DejaVuSans-69"/>
      <use x="806.787109" xlink:href="#DejaVuSans-64"/>
      <use x="870.263672" xlink:href="#DejaVuSans-20"/>
      <use x="902.050781" xlink:href="#DejaVuSans-73"/>
      <use x="954.150391" xlink:href="#DejaVuSans-70"/>
      <use x="1017.626953" xlink:href="#DejaVuSans-69"/>
      <use x="1045.410156" xlink:href="#DejaVuSans-6e"/>
      <use x="1108.789062" xlink:href="#DejaVuSans-6f"/>
      <use x="1169.970703" xlink:href="#DejaVuSans-64"/>
      <use x="1233.447266" xlink:href="#DejaVuSans-61"/>
      <use x="1294.726562" xlink:href="#DejaVuSans-6c"/>
     </g>
    </g>
   </g>
  </g>
 </g>
 <defs>
  <clipPath id="paf79b7607c">
   <rect height="332.64" width="446.4" x="72" y="51.84"/>
  </clipPath>
 </defs>
</svg>
