<?xml version="1.0" encoding="UTF-8" standalone="no"?>
<!-- Created with Inkscape (http://www.inkscape.org/) -->

<svg
   xmlns:dc="http://purl.org/dc/elements/1.1/"
   xmlns:cc="http://creativecommons.org/ns#"
   xmlns:rdf="http://www.w3.org/1999/02/22-rdf-syntax-ns#"
   xmlns:svg="http://www.w3.org/2000/svg"
   xmlns="http://www.w3.org/2000/svg"
   xmlns:sodipodi="http://sodipodi.sourceforge.net/DTD/sodipodi-0.dtd"
   xmlns:inkscape="http://www.inkscape.org/namespaces/inkscape"
   width="184.25586mm"
   height="132.42725mm"
   viewBox="0 0 184.25586 132.42725"
   version="1.1"
   id="svg8"
   inkscape:version="0.92+devel unknown"
   sodipodi:docname="amplitude_transition.svg">
  <sodipodi:namedview
     id="base"
     pagecolor="#ffffff"
     bordercolor="#666666"
     borderopacity="1.0"
     inkscape:pageopacity="0.0"
     inkscape:pageshadow="2"
     inkscape:zoom="1.4"
     inkscape:cx="342.46071"
     inkscape:cy="225.10274"
     inkscape:document-units="mm"
     inkscape:current-layer="layer1"
     inkscape:document-rotation="0"
     showgrid="false"
     inkscape:snap-intersection-paths="false"
     inkscape:window-width="1920"
     inkscape:window-height="1025"
     inkscape:window-x="0"
     inkscape:window-y="27"
     inkscape:window-maximized="1"
     inkscape:object-nodes="false"
     inkscape:snap-nodes="false"
     inkscape:snap-global="false"
     fit-margin-top="0"
     fit-margin-left="0"
     fit-margin-right="0"
     fit-margin-bottom="0" />
  <defs
     id="defs2" />
  <metadata
     id="metadata5">
    <rdf:RDF>
      <cc:Work
         rdf:about="">
        <dc:format>image/svg+xml</dc:format>
        <dc:type
           rdf:resource="http://purl.org/dc/dcmitype/StillImage" />
        <dc:title></dc:title>
      </cc:Work>
    </rdf:RDF>
  </metadata>
  <g
     inkscape:label="Layer 1"
     inkscape:groupmode="layer"
     id="layer1"
     transform="translate(-24.045318,1.6022765)">
    <path
       style="fill:none;fill-rule:evenodd;stroke:#000000;stroke-width:0.26458332px;stroke-linecap:butt;stroke-linejoin:miter;stroke-opacity:1"
       d="M 64.460892,7.9213511 V 125.12287"
       id="path10"
       inkscape:connector-curvature="0" />
    <path
       style="fill:none;fill-rule:evenodd;stroke:#000000;stroke-width:0.26458332px;stroke-linecap:butt;stroke-linejoin:miter;stroke-opacity:1"
       d="M 37.151283,100.73309 H 174.5781"
       id="path12"
       inkscape:connector-curvature="0" />
    <path
       style="fill:none;fill-opacity:1;fill-rule:evenodd;stroke:#002690;stroke-width:0.76499999;stroke-linecap:butt;stroke-linejoin:miter;stroke-miterlimit:4;stroke-dasharray:none;stroke-opacity:1"
       d="M 35.998311,8.6233054 C 36.881811,40.147381 47.882132,100.73309 64.460892,100.73309 86.823794,101.06663 102.86037,41.711177 110.57737,7.6922071"
       id="path14"
       inkscape:connector-curvature="0"
       sodipodi:nodetypes="ccc" />
    <path
       style="opacity:1;vector-effect:none;fill:none;fill-opacity:1;fill-rule:evenodd;stroke:#900800;stroke-width:0.76499999;stroke-linecap:butt;stroke-linejoin:miter;stroke-miterlimit:4;stroke-dasharray:none;stroke-dashoffset:0;stroke-opacity:1"
       d="m 25.794216,15.790158 c 2.503094,31.466376 20.899363,84.942932 38.666676,84.942932 15.401904,0 20.234827,-16.054492 30.993044,-16.054492 14.057474,0 19.063114,16.120372 31.458324,16.120372 19.68577,0 29.57079,-57.212593 35.10519,-84.602013"
       id="path16"
       inkscape:connector-curvature="0"
       sodipodi:nodetypes="ccccc" />
    <path
       style="opacity:1;vector-effect:none;fill:none;fill-opacity:1;fill-rule:evenodd;stroke:#379000;stroke-width:0.76499999;stroke-linecap:butt;stroke-linejoin:miter;stroke-miterlimit:4;stroke-dasharray:none;stroke-dashoffset:0;stroke-opacity:1"
       d="m 24.417535,44.636492 c 4.10649,17.35093 12.733748,56.096598 40.043357,56.096598 11.414937,0 22.354214,-9.046164 34.187802,-5.366525 19.001686,5.091485 18.367376,35.075905 38.003176,35.075905 23.12774,0 45.20855,-53.335662 51.13043,-92.156561"
       id="path18"
       inkscape:connector-curvature="0"
       sodipodi:nodetypes="ccccc" />
    <g
       id="g989"
       transform="matrix(0.50692016,0,0,0.50692016,-3.750045,-37.56757)">
      <g
         text-anchor="start"
         word-spacing="normal"
         letter-spacing="normal"
         font-size-adjust="none"
         font-stretch="normal"
         font-weight="normal"
         font-variant="normal"
         font-style="normal"
         fill-opacity="1"
         fill-rule="evenodd"
         fill="none"
         stroke-opacity="1"
         stroke-dashoffset="0"
         stroke-dasharray="none"
         stroke-miterlimit="10.433"
         stroke-linejoin="miter"
         stroke-linecap="butt"
         stroke="black"
         xml:space="preserve"
         transform="matrix(0.3,0,0,-0.3,-52.5,222.75)"
         id="g987"><path
           id="path967"
           fill="black"
           stroke-width="0"
           d="m 483.58,448.12 -0.01,0.28 -0.02,0.28 -0.04,0.26 -0.05,0.26 -0.06,0.26 -0.08,0.24 -0.1,0.24 -0.1,0.23 -0.12,0.22 -0.13,0.21 -0.14,0.2 -0.15,0.2 -0.16,0.18 -0.17,0.18 -0.19,0.17 -0.19,0.16 -0.2,0.15 -0.21,0.14 -0.22,0.13 -0.22,0.13 -0.23,0.11 -0.24,0.1 -0.25,0.1 -0.25,0.08 -0.26,0.08 -0.26,0.07 -0.27,0.05 -0.27,0.05 -0.28,0.03 -0.28,0.03 -0.28,0.02 h -0.29 l -0.07,-0.97 c 2.06,0 3.48,-1.12 3.48,-3.25 v 0 c 0,-1.84 -0.91,-4.56 -3.06,-5.78 -0.66,0.22 -1.33,0.45 -3.27,0.45 -1.22,0 -2.97,-0.06 -2.97,-1.32 0,-0.86 1.08,-1 2.86,-1 l 0.06,0.93 c -0.54,0 -1.39,0.03 -1.62,0.18 0.34,0.2 1.31,0.25 1.62,0.25 0.54,0 1.3,-0.05 1.79,-0.18 v 0 c -0.52,-0.11 -0.77,-0.25 -1.79,-0.25 l -0.06,-0.93 c 1.19,0 2.24,0.17 3.31,0.48 1.05,-0.73 1.6,-2.16 1.6,-3.69 0,-5.06 -3.44,-8.83 -7.7,-8.83 -2.68,0 -4.6,1.65 -4.6,4.4 0,0.35 0.03,0.7 0.11,1.01 l 2.3,9.27 c 0.84,3.31 3.9,8.26 7.94,8.26 l 0.07,0.97 c -4.78,0 -8.29,-5.44 -9.17,-8.95 l -5.47,-21.96 c -0.06,-0.23 0.28,-0.42 0.49,-0.42 0.33,0 0.59,0.05 0.67,0.25 l 2.33,9.3 c 0.73,-1.59 2.4,-3.09 5.23,-3.09 4.88,0 10.38,3.51 10.38,8.84 0,2.06 -0.94,4.16 -2.72,5.3 1.72,1.07 3.98,3.07 3.98,5.89 z"
           inkscape:connector-curvature="0" /><path
           id="path969"
           fill="black"
           stroke-width="0"
           d="m 503.33,452.45 -0.03,0.05 -0.03,0.06 -0.03,0.05 -0.03,0.05 -0.03,0.05 -0.02,0.04 -0.03,0.04 -0.02,0.04 -0.03,0.04 -0.03,0.04 -0.02,0.03 -0.03,0.03 -0.03,0.03 -0.02,0.03 -0.03,0.02 -0.03,0.03 -0.03,0.02 -0.03,0.02 -0.03,0.02 -0.04,0.01 -0.03,0.02 -0.04,0.01 -0.04,0.01 -0.04,0.02 h -0.04 l -0.05,0.01 -0.05,0.01 h -0.05 l -0.05,0.01 h -0.06 -0.06 -0.06 c -0.42,0 -0.76,-0.11 -1.08,-0.65 l -0.07,-2.77 10.25,-18.56 h -20.5 l 10.25,18.56 0.07,2.77 -12.86,-23.35 c -0.25,-0.39 -0.25,-0.45 -0.25,-0.5 0,-0.34 0.29,-0.34 0.85,-0.34 h 26.72 c 0.56,0 0.84,0 0.84,0.34 0,0.05 0,0.11 -0.25,0.5 z"
           inkscape:connector-curvature="0" /><path
           id="path971"
           fill="black"
           stroke-width="0"
           d="m 545.01,434.26 h -1.19 c -0.03,-0.11 -0.34,-1.75 -0.62,-2.55 -0.2,-0.56 -0.31,-0.84 -2.47,-0.84 h -2.97 c 0.59,1.95 1.61,3.31 3.56,5.92 1.71,2.31 3.24,4.61 3.24,7.42 0,4.7 -5.05,8.69 -11.74,8.69 -6.7,0 -11.75,-3.99 -11.75,-8.69 0,-3.06 1.68,-5.33 4.11,-8.59 1.02,-1.33 2.13,-2.89 2.69,-4.75 h -2.97 c -2.08,0 -2.22,0.28 -2.39,0.67 -0.28,0.66 -0.7,2.64 -0.7,2.72 h -1.19 l 1.25,-5.86 h 6.28 c 0.74,0 0.97,0 0.97,0.76 0,2.52 -1.28,5.47 -2.02,7.18 -1.32,3.07 -2.29,5.34 -2.29,7.92 0,4.94 3.94,7.65 8.01,7.65 4.11,0 8.02,-2.75 8.02,-7.65 0,-2.63 -1.05,-5.02 -2.24,-7.74 -0.76,-1.75 -2.09,-4.81 -2.09,-7.32 0,-0.8 0.21,-0.8 1.02,-0.8 h 6.23 z"
           inkscape:connector-curvature="0" /><path
           id="path973"
           fill="black"
           stroke-width="0"
           d="m 559.91,432.73 -0.05,-0.01 -0.04,-0.02 -0.05,-0.02 -0.04,-0.02 -0.05,-0.02 -0.05,-0.02 -0.05,-0.03 -0.04,-0.03 -0.05,-0.03 -0.05,-0.03 -0.05,-0.03 -0.04,-0.04 -0.05,-0.04 -0.05,-0.04 -0.04,-0.05 -0.04,-0.04 -0.05,-0.05 -0.04,-0.05 -0.04,-0.05 -0.03,-0.06 -0.04,-0.05 -0.03,-0.06 -0.03,-0.06 -0.03,-0.06 -0.03,-0.07 -0.02,-0.06 -0.02,-0.07 -0.01,-0.07 -0.02,-0.08 -0.01,-0.07 v -0.08 -0.07 c 0,-0.66 0.46,-1.04 1.09,-1.04 0.59,0 1.55,0.49 1.55,1.72 0,1.88 -2.43,2.21 -3.8,2.21 -4.2,0 -7.86,-3.44 -7.86,-6.75 0,-2.18 1.59,-4.55 5.34,-4.55 0.49,0 2.47,0 4.18,0.66 1.65,0.64 2.65,1.79 2.65,2.06 0,0.2 -0.33,0.58 -0.54,0.58 -0.13,0 -0.15,-0.03 -0.55,-0.43 -1.13,-1.28 -3.22,-2.01 -5.71,-2.01 -2.09,0 -3.09,1.17 -3.09,2.89 0,2.53 1.64,6.69 5.58,6.69 0.28,0 1.53,0 2.3,-0.55 z"
           inkscape:connector-curvature="0" /><path
           id="path975"
           fill="black"
           stroke-width="0"
           d="m 570.37,428.73 -0.12,0.84 h -1.44 c 1.12,3.47 4.19,3.71 4.94,3.71 1.23,0 2.32,-0.49 2.32,-1.41 0,-2.3 -4.65,-2.3 -5.82,-2.3 l 0.12,-0.84 c 2.52,0 6.98,0.3 6.98,3.16 0,1.26 -1.29,2.25 -3.59,2.25 -3.39,0 -7.69,-2.27 -7.69,-6.41 0,-2.27 1.47,-4.89 5.25,-4.89 0.47,0 2.47,0 4.15,0.66 1.65,0.64 2.65,1.79 2.65,2.06 0,0.2 -0.33,0.58 -0.55,0.58 -0.12,0 -0.14,-0.03 -0.54,-0.43 -1.22,-1.37 -3.44,-2.01 -5.68,-2.01 -2.04,0 -3.01,1.26 -3.01,3.14 0,0.23 0,0.89 0.25,1.89 z"
           inkscape:connector-curvature="0" /><path
           id="path977"
           fill="black"
           stroke-width="0"
           d="m 588.49,439.46 0.01,0.02 v 0.02 0.01 l 0.01,0.02 v 0.01 l 0.01,0.01 v 0.02 0.01 l 0.01,0.03 0.01,0.02 v 0.02 l 0.01,0.02 v 0.02 l 0.01,0.02 v 0.02 0.02 l 0.01,0.01 v 0.02 0.01 0.01 l 0.01,0.02 v 0.01 0.01 0.01 0.01 0.01 0.03 l 0.01,0.02 v 0.02 0.02 0.01 0.01 c 0,0.42 -0.38,0.42 -0.77,0.41 l -3.06,-0.24 c -0.42,-0.01 -0.49,-0.04 -0.61,-0.14 -0.1,-0.12 -0.17,-0.42 -0.17,-0.58 0,-0.42 0.4,-0.42 0.75,-0.42 0.87,0 1.07,-0.08 1.34,-0.17 0,-0.2 -0.02,-0.47 -0.09,-0.77 l -3.02,-11.96 c -0.08,-0.27 -0.12,-0.5 -0.12,-0.85 0,-1.5 1.46,-2.42 3.01,-2.42 0.83,0 1.5,0.37 2.1,1.2 0.71,1.02 1.09,2.52 1.09,2.67 0,0.35 -0.42,0.35 -0.53,0.35 -0.44,0 -0.47,-0.16 -0.6,-0.55 -0.39,-1.62 -1,-2.81 -1.96,-2.81 -0.69,0 -0.99,0.55 -0.99,1.31 0,0.28 0.02,0.55 0.09,0.8 z"
           inkscape:connector-curvature="0" /><path
           id="path979"
           fill="black"
           stroke-width="0"
           d="m 600.49,439.46 v 0.02 l 0.01,0.02 v 0.01 0.02 l 0.01,0.01 v 0.01 l 0.01,0.02 v 0.01 l 0.01,0.03 v 0.02 l 0.01,0.02 v 0.02 l 0.01,0.02 v 0.02 l 0.01,0.02 v 0.02 0.01 l 0.01,0.02 v 0.01 0.01 0.02 0.01 l 0.01,0.01 v 0.01 0.01 0.01 0.03 0.02 0.02 0.02 0.01 0.01 c 0,0.42 -0.37,0.42 -0.76,0.41 l -3.07,-0.24 c -0.42,-0.01 -0.48,-0.04 -0.6,-0.14 -0.1,-0.12 -0.18,-0.42 -0.18,-0.58 0,-0.42 0.41,-0.42 0.75,-0.42 0.88,0 1.08,-0.08 1.35,-0.17 0,-0.2 -0.02,-0.47 -0.1,-0.77 l -3.01,-11.96 c -0.08,-0.27 -0.13,-0.5 -0.13,-0.85 0,-1.5 1.47,-2.42 3.02,-2.42 0.83,0 1.5,0.37 2.09,1.2 0.72,1.02 1.09,2.52 1.09,2.67 0,0.35 -0.42,0.35 -0.53,0.35 -0.43,0 -0.47,-0.16 -0.59,-0.55 -0.39,-1.62 -1,-2.81 -1.97,-2.81 -0.69,0 -0.98,0.55 -0.98,1.31 0,0.28 0.01,0.55 0.09,0.8 z"
           inkscape:connector-curvature="0" /><polyline
           id="polyline981"
           fill-rule="nonzero"
           fill="black"
           stroke-width="0"
           points="462,418 607.08,418 607.08,420.04 462,420.04 " /><path
           id="path983"
           fill="black"
           stroke-width="0"
           d="m 518.35,383.43 -0.01,-0.05 -0.01,-0.04 -0.01,-0.05 -0.01,-0.04 v -0.04 l -0.01,-0.04 -0.01,-0.03 -0.01,-0.04 v -0.03 l -0.01,-0.03 v -0.03 l -0.01,-0.03 v -0.03 l -0.01,-0.02 v -0.03 -0.02 l -0.01,-0.02 v -0.02 -0.02 -0.01 -0.02 l -0.01,-0.01 v -0.02 -0.01 -0.01 -0.01 -0.01 -0.01 0 -0.01 0 0 c 0,-0.77 0.62,-1.11 1.17,-1.11 1.27,0 1.53,1.04 1.78,2.15 0.49,1.81 1.47,5.78 1.82,7.11 0.31,-0.51 1.42,-2.15 3.82,-2.15 l -0.03,0.96 c -2.57,0 -3.34,2.58 -3.34,3.04 0,0.07 0.2,0.84 0.31,1.25 1.05,4.29 1.25,5.09 2.27,6.62 1.25,1.84 3,2.86 4.39,2.86 1.42,0 2.78,-1.02 2.78,-3.52 0,-1.61 -0.91,-5.46 -1.98,-7.21 -1.6,-2.47 -3.35,-3.04 -4.43,-3.04 v 0 l 0.03,-0.96 c 4.47,0 9.21,4.73 9.21,9.82 0,3.69 -2.47,5.88 -5.55,5.88 -3.41,0 -7.63,-2.99 -8.84,-7.91 z"
           inkscape:connector-curvature="0" /><path
           id="path985"
           fill="black"
           stroke-width="0"
           d="m 545.42,400.11 v 0.01 l 0.01,0.02 v 0.01 0.02 l 0.01,0.01 v 0.01 l 0.01,0.02 v 0.01 l 0.01,0.03 v 0.02 l 0.01,0.02 v 0.02 l 0.01,0.02 v 0.02 l 0.01,0.02 v 0.02 0.01 l 0.01,0.02 v 0.01 0.02 0.01 0.01 l 0.01,0.01 v 0.01 0.01 0.02 0.02 0.02 0.02 0.02 0.01 0.01 c 0,0.42 -0.37,0.42 -0.76,0.41 l -3.07,-0.24 c -0.42,-0.01 -0.48,-0.04 -0.61,-0.14 -0.09,-0.12 -0.17,-0.42 -0.17,-0.58 0,-0.42 0.41,-0.42 0.75,-0.42 0.88,0 1.08,-0.08 1.35,-0.17 0,-0.2 -0.02,-0.47 -0.1,-0.77 l -3.01,-11.96 c -0.08,-0.27 -0.13,-0.5 -0.13,-0.85 0,-1.5 1.47,-2.42 3.02,-2.42 0.82,0 1.5,0.38 2.09,1.2 0.72,1.02 1.1,2.52 1.1,2.68 0,0.34 -0.43,0.34 -0.54,0.34 -0.43,0 -0.46,-0.16 -0.59,-0.55 -0.39,-1.62 -1,-2.81 -1.97,-2.81 -0.69,0 -0.98,0.55 -0.98,1.31 0,0.28 0.01,0.55 0.09,0.8 z"
           inkscape:connector-curvature="0" /></g>    </g>
    <g
       transform="matrix(0.52454039,0,0,0.52454039,129.44749,56.19272)"
       id="g1057">
      <g
         id="content"
         transform="matrix(0.3,0,0,-0.3,-52.5,222.75)"
         xml:space="preserve"
         stroke="black"
         stroke-linecap="butt"
         stroke-linejoin="miter"
         stroke-miterlimit="10.433"
         stroke-dasharray="none"
         stroke-dashoffset="0"
         stroke-opacity="1"
         fill="none"
         fill-rule="evenodd"
         fill-opacity="1"
         font-style="normal"
         font-variant="normal"
         font-weight="normal"
         font-stretch="normal"
         font-size-adjust="none"
         letter-spacing="normal"
         word-spacing="normal"
         text-anchor="start"><path
           inkscape:connector-curvature="0"
           d="m 463.19,421.45 -0.5,-0.34 -0.47,-0.35 -0.45,-0.35 -0.42,-0.35 -0.4,-0.36 -0.38,-0.36 -0.36,-0.36 -0.33,-0.37 -0.32,-0.36 -0.29,-0.37 -0.28,-0.36 -0.25,-0.36 -0.24,-0.36 -0.22,-0.36 -0.21,-0.35 -0.18,-0.35 -0.17,-0.34 -0.16,-0.34 -0.14,-0.33 -0.13,-0.32 -0.11,-0.32 -0.1,-0.3 -0.09,-0.3 -0.07,-0.28 -0.07,-0.28 -0.05,-0.26 -0.05,-0.25 -0.03,-0.24 -0.03,-0.22 -0.02,-0.21 -0.01,-0.19 v -0.17 c 0,-2.39 1.34,-3.8 1.45,-3.94 1.6,-1.66 2.05,-1.84 5.78,-3.25 l 6.02,-2.33 c 0.75,-0.36 1.75,-0.7 1.75,-2.16 0,-1.14 -0.89,-2.64 -2.44,-2.64 -2.18,0 -3.84,1.21 -4.39,1.61 -0.29,0.19 -0.34,0.24 -0.54,0.24 -0.4,0 -0.5,-0.35 -0.5,-0.55 0,-0.59 2.64,-2.39 5.43,-2.39 3.1,0 5.17,2.89 5.17,5.34 0,2.39 -1.84,3.29 -2.39,3.54 -0.68,0.25 -2.39,0.89 -3.03,1.14 -1,0.4 -2,0.79 -3.04,1.15 l -2.99,1.19 c -2.23,0.91 -3.73,2.34 -3.73,4.44 0,2.04 1.93,6.37 6.12,8.47 1.85,-0.66 3.35,-0.66 4.39,-0.66 1.49,0 4.63,0 4.63,1.55 0,1.25 -2.14,1.34 -4.08,1.34 l -0.05,-1.09 c 1.74,0 1.94,-0.05 2.83,-0.3 -0.39,-0.2 -0.89,-0.39 -3.19,-0.39 -1.14,0 -1.59,0 -2.48,0.39 v 0 c 1.14,0.3 2.23,0.3 2.84,0.3 l 0.05,1.09 c -0.91,0 -2.34,0 -4.19,-0.59 -1.29,1.29 -1.5,2.93 -1.5,3.89 0,2.78 1.8,6.62 5.53,8.47 0.91,-1.1 2.05,-1.1 3.19,-1.1 l 0.06,1.1 c -0.95,0 -1.54,0 -2.09,0.45 v 0 c 0.8,0.25 1.84,0.25 2.39,0.25 1.69,0 1.89,-0.06 2.78,-0.31 -0.39,-0.14 -0.89,-0.39 -3.08,-0.39 l -0.06,-1.1 c 1.25,0 4.44,0 4.44,1.55 0,1.3 -2.19,1.34 -4.14,1.34 -0.64,0 -1.85,0 -3.13,-0.25 -0.15,0.44 -0.25,0.8 -0.25,1.64 0,0.71 0.25,1.75 0.25,1.85 0,0.39 -0.25,0.64 -0.61,0.64 -0.89,0 -0.89,-2.28 -0.89,-2.44 0,-1 0.3,-1.73 0.35,-1.94 -5.33,-1.5 -8.72,-5.48 -8.72,-9.31 0,-1.84 0.9,-3.94 3.23,-5.28 z"
           stroke-width="0"
           fill="black"
           id="path1052" /><path
           inkscape:connector-curvature="0"
           d="m 496.42,403.67 0.3,0.31 0.28,0.32 0.27,0.33 0.26,0.33 0.26,0.34 0.24,0.33 0.23,0.34 0.22,0.34 0.21,0.34 0.19,0.34 0.19,0.34 0.18,0.33 0.17,0.33 0.16,0.32 0.15,0.32 0.14,0.3 0.13,0.3 0.13,0.29 0.11,0.28 0.1,0.27 0.1,0.25 0.08,0.25 0.08,0.22 0.07,0.21 0.06,0.2 0.05,0.17 0.04,0.16 0.04,0.14 0.03,0.11 0.02,0.1 0.01,0.07 V 412 c 0,0.45 -0.42,0.45 -0.59,0.45 -0.5,0 -0.5,-0.09 -0.74,-0.86 -0.62,-2.31 -1.78,-4.44 -3.25,-6.31 -0.03,0.51 -0.09,2.86 -0.17,3.17 -0.51,3.45 -3.12,5.67 -6.61,5.67 l -0.04,-0.97 c 2.79,0 3.59,-2.69 3.87,-4.84 0.2,-1.5 0.14,-3.97 0.31,-5.81 v 0 c -3.42,-2.8 -6.37,-3.11 -7.7,-3.11 -2.3,0 -3.59,1.53 -3.59,3.87 0,1 0.5,4.8 2.31,7.2 1.59,2.1 3.58,2.69 4.8,2.69 l 0.04,0.97 c -5.12,0 -10.04,-4.76 -10.04,-9.64 0,-3.2 2.34,-6.06 6.37,-6.06 3.22,0 6.11,1.45 8.05,2.95 0.81,-2.55 2.59,-2.95 3.62,-2.95 2.03,0 3.28,1.7 3.28,2.44 0,0.42 -0.42,0.42 -0.59,0.42 -0.45,0 -0.52,-0.14 -0.59,-0.36 -0.49,-1.31 -1.57,-1.53 -1.99,-1.53 -0.48,0 -1.08,0 -1.25,4.28 z"
           stroke-width="0"
           fill="black"
           id="path1054" /></g>    </g>
  </g>
  <g
     id="g1907"
     transform="matrix(0.36131022,0,0,0.36131022,34.915201,-32.403023)">
    <g
       text-anchor="start"
       word-spacing="normal"
       letter-spacing="normal"
       font-size-adjust="none"
       font-stretch="normal"
       font-weight="normal"
       font-variant="normal"
       font-style="normal"
       fill-opacity="1"
       fill-rule="evenodd"
       fill="none"
       stroke-opacity="1"
       stroke-dashoffset="0"
       stroke-dasharray="none"
       stroke-miterlimit="10.433"
       stroke-linejoin="miter"
       stroke-linecap="butt"
       stroke="black"
       xml:space="preserve"
       transform="matrix(0.3,0,0,-0.3,-52.5,222.75)"
       id="g1905"><path
         id="path1879"
         fill="black"
         stroke-width="0"
         d="m 487.66,440.82 v 0.02 0.02 0.01 l -0.01,0.02 v 0.02 0.02 l -0.01,0.02 v 0.02 l -0.01,0.02 -0.01,0.02 -0.01,0.02 -0.01,0.02 -0.01,0.02 -0.01,0.02 -0.01,0.02 -0.02,0.02 -0.02,0.02 -0.01,0.02 -0.02,0.02 -0.02,0.02 -0.02,0.01 -0.03,0.02 -0.02,0.01 -0.03,0.02 -0.02,0.01 -0.03,0.01 -0.02,0.01 h -0.01 l -0.02,0.01 h -0.02 -0.01 l -0.02,0.01 h -0.02 -0.02 -0.02 -0.02 -0.02 -0.02 c -0.25,0 -0.31,-0.04 -0.9,-0.75 l -2.39,-2.84 c -1.3,2.34 -3.89,3.59 -7.13,3.59 -6.33,0 -12.3,-5.73 -12.3,-11.76 0,-4.03 2.65,-6.33 5.18,-7.06 l 5.32,-1.41 c 1.85,-0.44 4.6,-1.19 4.6,-5.28 0,-4.49 -4.1,-9.16 -8.97,-9.16 -3.19,0 -8.72,1.1 -8.72,7.27 0,1.2 0.25,2.39 0.3,2.69 0.04,0.2 0.09,0.25 0.09,0.35 0,0.5 -0.34,0.55 -0.59,0.55 -0.25,0 -0.35,-0.05 -0.5,-0.2 -0.21,-0.2 -2.99,-11.56 -2.99,-11.7 0,-0.3 0.25,-0.5 0.55,-0.5 0.25,0 0.3,0.04 0.89,0.75 l 2.45,2.82 c 2.14,-2.89 5.52,-3.57 8.41,-3.57 6.78,0 12.66,6.62 12.66,12.79 0,3.44 -1.69,5.14 -2.44,5.83 -1.14,1.16 -1.89,1.34 -6.33,2.5 -1.09,0.3 -2.89,0.8 -3.34,0.89 -1.35,0.45 -3.03,1.89 -3.03,4.53 0,4.05 3.98,8.28 8.71,8.28 4.15,0 7.18,-2.14 7.18,-7.73 0,-1.59 -0.21,-2.49 -0.21,-2.78 0,-0.05 0,-0.5 0.61,-0.5 0.5,0 0.55,0.15 0.74,1 z"
         inkscape:connector-curvature="0" /><path
         id="path1881"
         fill="black"
         stroke-width="0"
         d="m 504.11,409.87 -0.01,0.71 -0.02,0.68 -0.03,0.66 -0.04,0.64 -0.06,0.62 -0.07,0.6 -0.09,0.57 -0.11,0.56 -0.13,0.55 -0.15,0.53 -0.17,0.51 -0.19,0.5 -0.21,0.49 -0.24,0.48 -0.26,0.47 -0.14,0.23 -0.15,0.23 c -1.08,1.61 -3.23,3 -6.03,3 v -0.98 c 1.89,0 3.7,-1.14 4.33,-3.17 0.56,-1.88 0.59,-4.39 0.59,-7.43 0,-2.57 0,-5.15 -0.45,-7.34 -0.7,-3.17 -3.06,-3.94 -4.47,-3.94 v 0 c -1.59,0 -3.72,0.94 -4.42,3.8 -0.48,2.05 -0.48,4.91 -0.48,7.48 0,2.55 0,5.21 0.51,7.11 0.74,2.75 2.97,3.49 4.39,3.49 v 0.98 c -8.08,0 -8.08,-9.51 -8.08,-12.03 0,-2.5 0,-11.81 8.08,-11.81 8.1,0 8.1,9.31 8.1,11.81 z"
         inkscape:connector-curvature="0" /><path
         id="path1883"
         fill="black"
         stroke-width="0"
         d="m 524.93,394.25 v 0.02 l -0.01,0.03 v 0.01 0.02 0.01 l -0.01,0.02 v 0.01 l -0.01,0.02 -0.01,0.02 -0.01,0.02 -0.01,0.02 -0.01,0.03 -0.02,0.02 -0.02,0.03 -0.02,0.03 -0.02,0.03 -0.03,0.03 -0.03,0.04 -0.02,0.02 -0.01,0.02 -0.02,0.02 -0.02,0.02 -0.02,0.02 -0.02,0.03 -0.02,0.02 -0.02,0.02 -0.02,0.03 -0.03,0.02 -0.02,0.03 -0.03,0.03 -0.02,0.03 -0.03,0.03 -0.03,0.03 -0.03,0.03 -0.03,0.03 -0.03,0.03 -0.04,0.04 -0.03,0.03 -0.03,0.04 -0.04,0.03 -0.04,0.04 -0.04,0.04 c -6.22,6.28 -7.81,15.69 -7.81,23.31 0,8.67 1.89,17.35 8.01,23.56 0.65,0.61 0.65,0.71 0.65,0.86 0,0.35 -0.19,0.49 -0.49,0.49 -0.5,0 -4.98,-3.38 -7.92,-9.7 -2.55,-5.49 -3.14,-11.02 -3.14,-15.21 0,-3.89 0.55,-9.9 3.28,-15.54 2.99,-6.13 7.28,-9.36 7.78,-9.36 0.3,0 0.49,0.14 0.49,0.5 z"
         inkscape:connector-curvature="0" /><path
         id="path1885"
         fill="black"
         stroke-width="0"
         d="m 560.29,408.84 0.15,-0.13 0.15,-0.12 0.17,-0.13 0.17,-0.12 0.17,-0.12 0.18,-0.12 0.19,-0.12 0.19,-0.12 0.38,-0.23 0.38,-0.22 0.38,-0.2 0.19,-0.1 0.19,-0.09 0.18,-0.09 0.18,-0.09 0.17,-0.08 0.17,-0.08 0.16,-0.07 0.16,-0.07 0.14,-0.06 0.14,-0.06 0.13,-0.05 0.12,-0.04 0.1,-0.04 0.1,-0.03 0.08,-0.03 0.07,-0.02 0.06,-0.01 h 0.02 0.02 c 0.69,0 0.69,0.64 0.69,1.39 v 10.02 h 3.98 v 2.34 c -1.73,-0.16 -6.08,-0.16 -8.01,-0.16 -2.89,0 -7.52,0 -10.22,0.16 v -2.34 h 7.17 v -5.04 c 0,-0.93 0,-2.39 -1.94,-3.53 -1.3,-0.75 -2.89,-1.04 -4.48,-1.04 -4.28,0 -8.57,1.43 -11.02,4.53 -2.14,2.73 -2.78,6.28 -2.78,10.81 0,5.58 1,8.47 2.84,10.91 1.99,2.5 5.83,4.34 10.61,4.34 5.33,0 10.07,-3.8 11.16,-10.13 0.16,-0.93 0.2,-1.04 1.34,-1.04 1.3,0 1.35,0.11 1.35,1.4 v 10.71 c 0,0.95 0,1.39 -0.89,1.39 -0.46,0 -0.55,-0.1 -0.96,-0.44 l -3.28,-2.94 c -3.64,2.89 -7.23,3.38 -9.81,3.38 -12.27,0 -19.98,-7.31 -19.98,-17.63 0,-9.92 7.21,-17.64 20.07,-17.64 1.64,0 6.78,0.1 9.27,3.19 z"
         inkscape:connector-curvature="0" /><path
         id="path1887"
         fill="black"
         stroke-width="0"
         d="m 591.82,403.67 0.3,0.31 0.28,0.32 0.28,0.33 0.26,0.33 0.25,0.34 0.24,0.33 0.23,0.34 0.22,0.34 0.21,0.34 0.2,0.34 0.19,0.34 0.18,0.33 0.16,0.33 0.16,0.32 0.15,0.32 0.15,0.3 0.13,0.3 0.12,0.29 0.11,0.28 0.1,0.27 0.1,0.25 0.09,0.25 0.07,0.22 0.07,0.21 0.06,0.2 0.05,0.17 0.05,0.16 0.03,0.14 0.03,0.11 0.02,0.1 0.01,0.07 V 412 c 0,0.45 -0.42,0.45 -0.59,0.45 -0.5,0 -0.5,-0.09 -0.73,-0.86 -0.63,-2.31 -1.78,-4.44 -3.25,-6.31 -0.03,0.51 -0.1,2.86 -0.18,3.17 -0.51,3.45 -3.12,5.67 -6.6,5.67 l -0.05,-0.97 c 2.8,0 3.59,-2.69 3.87,-4.84 0.21,-1.5 0.14,-3.97 0.31,-5.81 v 0 c -3.42,-2.8 -6.37,-3.11 -7.7,-3.11 -2.3,0 -3.59,1.53 -3.59,3.87 0,1 0.5,4.8 2.31,7.2 1.6,2.1 3.58,2.69 4.8,2.69 l 0.05,0.97 c -5.13,0 -10.05,-4.76 -10.05,-9.64 0,-3.2 2.34,-6.06 6.37,-6.06 3.22,0 6.11,1.45 8.05,2.95 0.81,-2.55 2.59,-2.95 3.63,-2.95 2.03,0 3.28,1.7 3.28,2.44 0,0.42 -0.43,0.42 -0.6,0.42 -0.45,0 -0.51,-0.14 -0.59,-0.36 -0.49,-1.31 -1.56,-1.53 -1.99,-1.53 -0.48,0 -1.07,0 -1.25,4.28 z"
         inkscape:connector-curvature="0" /><path
         id="path1889"
         fill="black"
         stroke-width="0"
         d="m 615.59,418.65 v 0.37 l -0.01,0.39 -0.01,0.39 -0.01,0.41 -0.04,0.84 -0.06,0.88 -0.08,0.92 -0.11,0.95 -0.13,0.97 -0.17,1.01 -0.19,1.02 -0.23,1.03 -0.27,1.05 -0.3,1.06 -0.35,1.07 -0.4,1.07 -0.21,0.53 -0.22,0.53 -0.24,0.53 -0.25,0.53 c -2.99,6.12 -7.27,9.36 -7.77,9.36 -0.29,0 -0.5,-0.19 -0.5,-0.49 0,-0.15 0,-0.25 0.94,-1.15 4.89,-4.92 7.74,-12.85 7.74,-23.27 0,-8.51 -1.85,-17.28 -8.04,-23.56 -0.64,-0.59 -0.64,-0.7 -0.64,-0.84 0,-0.3 0.21,-0.5 0.5,-0.5 0.5,0 4.97,3.39 7.93,9.71 2.53,5.47 3.12,11 3.12,15.19 z"
         inkscape:connector-curvature="0" /><path
         id="path1891"
         fill="black"
         stroke-width="0"
         d="m 668.06,431.01 0.06,0.03 0.05,0.03 0.06,0.02 0.05,0.03 0.05,0.03 0.05,0.03 0.04,0.02 0.05,0.03 0.04,0.03 0.04,0.03 0.04,0.03 0.04,0.02 0.04,0.03 0.03,0.03 0.04,0.03 0.03,0.04 0.03,0.03 0.03,0.03 0.02,0.03 0.03,0.04 0.02,0.03 0.02,0.04 0.02,0.04 0.01,0.04 0.02,0.04 0.01,0.04 0.01,0.04 0.01,0.04 0.01,0.05 v 0.05 0.04 l 0.01,0.06 c 0,0.54 -0.46,1 -1,1 -0.14,0 -0.25,0 -0.9,-0.35 l -27.6,-13.01 c -0.55,-0.25 -0.94,-0.5 -0.94,-1.1 0,-0.59 0.39,-0.84 0.94,-1.09 l 27.6,-13 c 0.65,-0.36 0.76,-0.36 0.9,-0.36 0.54,0 1,0.45 1,1 0,0.55 -0.35,0.8 -0.96,1.09 l -26.15,12.36 z"
         inkscape:connector-curvature="0" /><path
         id="path1893"
         fill="black"
         stroke-width="0"
         d="m 719.14,440.82 v 0.02 0.02 l -0.01,0.01 v 0.02 0.02 l -0.01,0.02 v 0.02 l -0.01,0.02 v 0.02 l -0.01,0.02 -0.01,0.02 -0.01,0.02 -0.01,0.02 -0.01,0.02 -0.02,0.02 -0.01,0.02 -0.02,0.02 -0.02,0.02 -0.01,0.02 -0.02,0.02 -0.03,0.01 -0.02,0.02 -0.02,0.01 -0.03,0.02 -0.03,0.01 -0.03,0.01 -0.01,0.01 h -0.02 l -0.01,0.01 h -0.02 -0.02 l -0.02,0.01 h -0.01 -0.02 -0.02 -0.02 -0.02 -0.02 c -0.25,0 -0.31,-0.04 -0.91,-0.75 l -2.39,-2.84 c -1.29,2.34 -3.89,3.59 -7.12,3.59 -6.33,0 -12.3,-5.73 -12.3,-11.76 0,-4.03 2.64,-6.33 5.17,-7.06 l 5.33,-1.41 c 1.85,-0.44 4.6,-1.19 4.6,-5.28 0,-4.49 -4.1,-9.16 -8.97,-9.16 -3.19,0 -8.72,1.1 -8.72,7.27 0,1.2 0.25,2.39 0.29,2.69 0.05,0.2 0.1,0.25 0.1,0.35 0,0.5 -0.35,0.55 -0.6,0.55 -0.25,0 -0.34,-0.05 -0.5,-0.2 -0.2,-0.2 -2.98,-11.56 -2.98,-11.7 0,-0.3 0.25,-0.5 0.55,-0.5 0.25,0 0.29,0.04 0.89,0.75 l 2.45,2.82 c 2.14,-2.89 5.52,-3.57 8.41,-3.57 6.78,0 12.65,6.62 12.65,12.79 0,3.44 -1.69,5.14 -2.44,5.83 -1.13,1.16 -1.88,1.34 -6.32,2.5 -1.1,0.3 -2.89,0.8 -3.35,0.89 -1.34,0.45 -3.03,1.89 -3.03,4.53 0,4.05 3.99,8.28 8.72,8.28 4.14,0 7.17,-2.14 7.17,-7.73 0,-1.59 -0.2,-2.49 -0.2,-2.78 0,-0.05 0,-0.5 0.61,-0.5 0.5,0 0.55,0.15 0.73,1 z"
         inkscape:connector-curvature="0" /><path
         id="path1895"
         fill="black"
         stroke-width="0"
         d="m 731.73,432.87 0.26,0.12 0.26,0.11 0.24,0.11 0.24,0.1 0.23,0.1 0.22,0.1 0.21,0.09 0.21,0.09 0.2,0.08 0.19,0.08 0.18,0.08 0.18,0.07 0.17,0.08 0.16,0.06 0.16,0.07 0.15,0.06 0.14,0.06 0.14,0.06 0.14,0.06 0.13,0.05 0.12,0.06 0.12,0.05 0.11,0.05 0.11,0.04 0.11,0.05 0.1,0.04 0.19,0.09 0.18,0.08 0.17,0.08 c 0.67,0.27 0.98,0.41 0.98,1.08 0,0.59 -0.45,1.11 -1.08,1.11 -0.25,0 -0.31,0 -0.73,-0.31 l -4.74,-3.17 0.52,5.15 c 0.08,0.63 0,1.5 -1.05,1.5 -0.42,0 -1.08,-0.28 -1.08,-1.04 0,-0.32 0.15,-1.36 0.18,-1.71 0.07,-0.59 0.31,-3.11 0.39,-3.9 l -4.71,3.17 c -0.36,0.2 -0.45,0.31 -0.76,0.31 -0.64,0 -1.1,-0.52 -1.1,-1.11 0,-0.7 0.43,-0.87 0.74,-1.01 l 5.26,-2.19 c -2.85,-1.27 -4.14,-1.75 -5.01,-2.17 -0.66,-0.29 -0.99,-0.43 -0.99,-1.08 0,-0.6 0.46,-1.11 1.1,-1.11 0.23,0 0.31,0 0.72,0.31 l 4.75,3.17 -0.57,-5.61 c 0,-0.76 0.66,-1.04 1.08,-1.04 0.42,0 1.08,0.28 1.08,1.04 0,0.32 -0.14,1.36 -0.17,1.71 -0.06,0.59 -0.31,3.09 -0.38,3.9 l 4.17,-2.79 c 0.91,-0.69 0.99,-0.69 1.3,-0.69 0.63,0 1.08,0.51 1.08,1.11 0,0.7 -0.42,0.87 -0.73,1.01 z"
         inkscape:connector-curvature="0" /><path
         id="path1897"
         fill="black"
         stroke-width="0"
         d="m 759.88,394.25 v 0.02 0.03 0.01 0.02 l -0.01,0.01 v 0.02 l -0.01,0.01 v 0.02 l -0.01,0.02 -0.01,0.02 -0.01,0.02 -0.02,0.03 -0.01,0.02 -0.02,0.03 -0.02,0.03 -0.03,0.03 -0.02,0.03 -0.03,0.04 -0.02,0.02 -0.02,0.02 -0.01,0.02 -0.02,0.02 -0.02,0.02 -0.02,0.03 -0.02,0.02 -0.02,0.02 -0.03,0.03 -0.02,0.02 -0.02,0.03 -0.03,0.03 -0.03,0.03 -0.02,0.03 -0.03,0.03 -0.03,0.03 -0.03,0.03 -0.04,0.03 -0.03,0.04 -0.03,0.03 -0.04,0.04 -0.03,0.03 -0.04,0.04 -0.04,0.04 c -6.22,6.28 -7.81,15.69 -7.81,23.31 0,8.67 1.89,17.35 8.01,23.56 0.64,0.61 0.64,0.71 0.64,0.86 0,0.35 -0.18,0.49 -0.48,0.49 -0.5,0 -4.99,-3.38 -7.92,-9.7 -2.55,-5.49 -3.14,-11.02 -3.14,-15.21 0,-3.89 0.54,-9.9 3.28,-15.54 2.98,-6.13 7.28,-9.36 7.78,-9.36 0.3,0 0.48,0.14 0.48,0.5 z"
         inkscape:connector-curvature="0" /><path
         id="path1899"
         fill="black"
         stroke-width="0"
         d="m 795.25,408.84 0.15,-0.13 0.15,-0.12 0.17,-0.13 0.17,-0.12 0.17,-0.12 0.18,-0.12 0.18,-0.12 0.19,-0.12 0.38,-0.23 0.39,-0.22 0.38,-0.2 0.19,-0.1 0.19,-0.09 0.18,-0.09 0.18,-0.09 0.17,-0.08 0.17,-0.08 0.16,-0.07 0.15,-0.07 0.15,-0.06 0.14,-0.06 0.13,-0.05 0.11,-0.04 0.11,-0.04 0.1,-0.03 0.08,-0.03 0.07,-0.02 0.06,-0.01 h 0.02 0.02 c 0.68,0 0.68,0.64 0.68,1.39 v 10.02 h 3.99 v 2.34 c -1.74,-0.16 -6.08,-0.16 -8.02,-0.16 -2.89,0 -7.51,0 -10.22,0.16 v -2.34 h 7.18 v -5.04 c 0,-0.93 0,-2.39 -1.94,-3.53 -1.3,-0.75 -2.89,-1.04 -4.49,-1.04 -4.28,0 -8.56,1.43 -11.01,4.53 -2.14,2.73 -2.78,6.28 -2.78,10.81 0,5.58 1,8.47 2.84,10.91 1.98,2.5 5.83,4.34 10.61,4.34 5.33,0 10.06,-3.8 11.16,-10.13 0.15,-0.93 0.2,-1.04 1.34,-1.04 1.3,0 1.34,0.11 1.34,1.4 v 10.71 c 0,0.95 0,1.39 -0.89,1.39 -0.45,0 -0.54,-0.1 -0.95,-0.44 l -3.28,-2.94 c -3.64,2.89 -7.23,3.38 -9.81,3.38 -12.27,0 -19.99,-7.31 -19.99,-17.63 0,-9.92 7.22,-17.64 20.08,-17.64 1.64,0 6.78,0.1 9.27,3.19 z"
         inkscape:connector-curvature="0" /><path
         id="path1901"
         fill="black"
         stroke-width="0"
         d="m 826.78,403.67 0.3,0.31 0.28,0.32 0.27,0.33 0.26,0.33 0.26,0.34 0.24,0.33 0.23,0.34 0.22,0.34 0.2,0.34 0.2,0.34 0.19,0.34 0.18,0.33 0.17,0.33 0.16,0.32 0.15,0.32 0.14,0.3 0.13,0.3 0.13,0.29 0.11,0.28 0.1,0.27 0.1,0.25 0.08,0.25 0.08,0.22 0.07,0.21 0.06,0.2 0.05,0.17 0.04,0.16 0.04,0.14 0.03,0.11 0.02,0.1 0.01,0.07 V 412 c 0,0.45 -0.42,0.45 -0.59,0.45 -0.5,0 -0.5,-0.09 -0.74,-0.86 -0.62,-2.31 -1.78,-4.44 -3.25,-6.31 -0.03,0.51 -0.09,2.86 -0.17,3.17 -0.51,3.45 -3.12,5.67 -6.61,5.67 l -0.04,-0.97 c 2.79,0 3.59,-2.69 3.87,-4.84 0.2,-1.5 0.14,-3.97 0.31,-5.81 v 0 c -3.42,-2.8 -6.37,-3.11 -7.7,-3.11 -2.3,0 -3.59,1.53 -3.59,3.87 0,1 0.5,4.8 2.31,7.2 1.59,2.1 3.58,2.69 4.8,2.69 l 0.04,0.97 c -5.12,0 -10.04,-4.76 -10.04,-9.64 0,-3.2 2.34,-6.06 6.37,-6.06 3.22,0 6.11,1.45 8.05,2.95 0.81,-2.55 2.59,-2.95 3.62,-2.95 2.03,0 3.28,1.7 3.28,2.44 0,0.42 -0.42,0.42 -0.59,0.42 -0.45,0 -0.52,-0.14 -0.59,-0.36 -0.49,-1.31 -1.57,-1.53 -1.99,-1.53 -0.48,0 -1.08,0 -1.25,4.28 z"
         inkscape:connector-curvature="0" /><path
         id="path1903"
         fill="black"
         stroke-width="0"
         d="m 850.55,418.65 v 0.37 l -0.01,0.39 v 0.39 l -0.02,0.41 -0.04,0.84 -0.06,0.88 -0.08,0.92 -0.11,0.95 -0.13,0.97 -0.16,1.01 -0.2,1.02 -0.23,1.03 -0.27,1.05 -0.3,1.06 -0.35,1.07 -0.39,1.07 -0.22,0.53 -0.22,0.53 -0.24,0.53 -0.25,0.53 c -2.99,6.12 -7.27,9.36 -7.77,9.36 -0.29,0 -0.5,-0.19 -0.5,-0.49 0,-0.15 0,-0.25 0.94,-1.15 4.89,-4.92 7.74,-12.85 7.74,-23.27 0,-8.51 -1.85,-17.28 -8.03,-23.56 -0.65,-0.59 -0.65,-0.7 -0.65,-0.84 0,-0.3 0.21,-0.5 0.5,-0.5 0.5,0 4.97,3.39 7.93,9.71 2.53,5.47 3.12,11 3.12,15.19 z"
         inkscape:connector-curvature="0" /></g>  </g>
  <g
     transform="matrix(0.35179521,0,0,0.35179521,87.025793,-20.461678)"
     id="g2019">
    <g
       id="g2017"
       transform="matrix(0.3,0,0,-0.3,-52.5,222.75)"
       xml:space="preserve"
       stroke="black"
       stroke-linecap="butt"
       stroke-linejoin="miter"
       stroke-miterlimit="10.433"
       stroke-dasharray="none"
       stroke-dashoffset="0"
       stroke-opacity="1"
       fill="none"
       fill-rule="evenodd"
       fill-opacity="1"
       font-style="normal"
       font-variant="normal"
       font-weight="normal"
       font-stretch="normal"
       font-size-adjust="none"
       letter-spacing="normal"
       word-spacing="normal"
       text-anchor="start"><path
         inkscape:connector-curvature="0"
         d="m 487.66,440.82 v 0.02 0.02 0.01 l -0.01,0.02 v 0.02 0.02 l -0.01,0.02 v 0.02 l -0.01,0.02 -0.01,0.02 -0.01,0.02 -0.01,0.02 -0.01,0.02 -0.01,0.02 -0.01,0.02 -0.02,0.02 -0.02,0.02 -0.01,0.02 -0.02,0.02 -0.02,0.02 -0.02,0.01 -0.03,0.02 -0.02,0.01 -0.03,0.02 -0.02,0.01 -0.03,0.01 -0.02,0.01 h -0.01 l -0.02,0.01 h -0.02 -0.01 l -0.02,0.01 h -0.02 -0.02 -0.02 -0.02 -0.02 -0.02 c -0.25,0 -0.31,-0.04 -0.9,-0.75 l -2.39,-2.84 c -1.3,2.34 -3.89,3.59 -7.13,3.59 -6.33,0 -12.3,-5.73 -12.3,-11.76 0,-4.03 2.65,-6.33 5.18,-7.06 l 5.32,-1.41 c 1.85,-0.44 4.6,-1.19 4.6,-5.28 0,-4.49 -4.1,-9.16 -8.97,-9.16 -3.19,0 -8.72,1.1 -8.72,7.27 0,1.2 0.25,2.39 0.3,2.69 0.04,0.2 0.09,0.25 0.09,0.35 0,0.5 -0.34,0.55 -0.59,0.55 -0.25,0 -0.35,-0.05 -0.5,-0.2 -0.21,-0.2 -2.99,-11.56 -2.99,-11.7 0,-0.3 0.25,-0.5 0.55,-0.5 0.25,0 0.3,0.04 0.89,0.75 l 2.45,2.82 c 2.14,-2.89 5.52,-3.57 8.41,-3.57 6.78,0 12.66,6.62 12.66,12.79 0,3.44 -1.69,5.14 -2.44,5.83 -1.14,1.16 -1.89,1.34 -6.33,2.5 -1.09,0.3 -2.89,0.8 -3.34,0.89 -1.35,0.45 -3.03,1.89 -3.03,4.53 0,4.05 3.98,8.28 8.71,8.28 4.15,0 7.18,-2.14 7.18,-7.73 0,-1.59 -0.21,-2.49 -0.21,-2.78 0,-0.05 0,-0.5 0.61,-0.5 0.5,0 0.55,0.15 0.74,1 z"
         stroke-width="0"
         fill="black"
         id="path1989" /><path
         inkscape:connector-curvature="0"
         d="m 504.11,409.87 -0.01,0.71 -0.02,0.68 -0.03,0.66 -0.04,0.64 -0.06,0.62 -0.07,0.6 -0.09,0.57 -0.11,0.56 -0.13,0.55 -0.15,0.53 -0.17,0.51 -0.19,0.5 -0.21,0.49 -0.24,0.48 -0.26,0.47 -0.14,0.23 -0.15,0.23 c -1.08,1.61 -3.23,3 -6.03,3 v -0.98 c 1.89,0 3.7,-1.14 4.33,-3.17 0.56,-1.88 0.59,-4.39 0.59,-7.43 0,-2.57 0,-5.15 -0.45,-7.34 -0.7,-3.17 -3.06,-3.94 -4.47,-3.94 v 0 c -1.59,0 -3.72,0.94 -4.42,3.8 -0.48,2.05 -0.48,4.91 -0.48,7.48 0,2.55 0,5.21 0.51,7.11 0.74,2.75 2.97,3.49 4.39,3.49 v 0.98 c -8.08,0 -8.08,-9.51 -8.08,-12.03 0,-2.5 0,-11.81 8.08,-11.81 8.1,0 8.1,9.31 8.1,11.81 z"
         stroke-width="0"
         fill="black"
         id="path1991" /><path
         inkscape:connector-curvature="0"
         d="m 524.93,394.25 v 0.02 l -0.01,0.03 v 0.01 0.02 0.01 l -0.01,0.02 v 0.01 l -0.01,0.02 -0.01,0.02 -0.01,0.02 -0.01,0.02 -0.01,0.03 -0.02,0.02 -0.02,0.03 -0.02,0.03 -0.02,0.03 -0.03,0.03 -0.03,0.04 -0.02,0.02 -0.01,0.02 -0.02,0.02 -0.02,0.02 -0.02,0.02 -0.02,0.03 -0.02,0.02 -0.02,0.02 -0.02,0.03 -0.03,0.02 -0.02,0.03 -0.03,0.03 -0.02,0.03 -0.03,0.03 -0.03,0.03 -0.03,0.03 -0.03,0.03 -0.03,0.03 -0.04,0.04 -0.03,0.03 -0.03,0.04 -0.04,0.03 -0.04,0.04 -0.04,0.04 c -6.22,6.28 -7.81,15.69 -7.81,23.31 0,8.67 1.89,17.35 8.01,23.56 0.65,0.61 0.65,0.71 0.65,0.86 0,0.35 -0.19,0.49 -0.49,0.49 -0.5,0 -4.98,-3.38 -7.92,-9.7 -2.55,-5.49 -3.14,-11.02 -3.14,-15.21 0,-3.89 0.55,-9.9 3.28,-15.54 2.99,-6.13 7.28,-9.36 7.78,-9.36 0.3,0 0.49,0.14 0.49,0.5 z"
         stroke-width="0"
         fill="black"
         id="path1993" /><path
         inkscape:connector-curvature="0"
         d="m 560.29,408.84 0.15,-0.13 0.15,-0.12 0.17,-0.13 0.17,-0.12 0.17,-0.12 0.18,-0.12 0.19,-0.12 0.19,-0.12 0.38,-0.23 0.38,-0.22 0.38,-0.2 0.19,-0.1 0.19,-0.09 0.18,-0.09 0.18,-0.09 0.17,-0.08 0.17,-0.08 0.16,-0.07 0.16,-0.07 0.14,-0.06 0.14,-0.06 0.13,-0.05 0.12,-0.04 0.1,-0.04 0.1,-0.03 0.08,-0.03 0.07,-0.02 0.06,-0.01 h 0.02 0.02 c 0.69,0 0.69,0.64 0.69,1.39 v 10.02 h 3.98 v 2.34 c -1.73,-0.16 -6.08,-0.16 -8.01,-0.16 -2.89,0 -7.52,0 -10.22,0.16 v -2.34 h 7.17 v -5.04 c 0,-0.93 0,-2.39 -1.94,-3.53 -1.3,-0.75 -2.89,-1.04 -4.48,-1.04 -4.28,0 -8.57,1.43 -11.02,4.53 -2.14,2.73 -2.78,6.28 -2.78,10.81 0,5.58 1,8.47 2.84,10.91 1.99,2.5 5.83,4.34 10.61,4.34 5.33,0 10.07,-3.8 11.16,-10.13 0.16,-0.93 0.2,-1.04 1.34,-1.04 1.3,0 1.35,0.11 1.35,1.4 v 10.71 c 0,0.95 0,1.39 -0.89,1.39 -0.46,0 -0.55,-0.1 -0.96,-0.44 l -3.28,-2.94 c -3.64,2.89 -7.23,3.38 -9.81,3.38 -12.27,0 -19.98,-7.31 -19.98,-17.63 0,-9.92 7.21,-17.64 20.07,-17.64 1.64,0 6.78,0.1 9.27,3.19 z"
         stroke-width="0"
         fill="black"
         id="path1995" /><path
         inkscape:connector-curvature="0"
         d="m 591.82,403.67 0.3,0.31 0.28,0.32 0.28,0.33 0.26,0.33 0.25,0.34 0.24,0.33 0.23,0.34 0.22,0.34 0.21,0.34 0.2,0.34 0.19,0.34 0.18,0.33 0.16,0.33 0.16,0.32 0.15,0.32 0.15,0.3 0.13,0.3 0.12,0.29 0.11,0.28 0.1,0.27 0.1,0.25 0.09,0.25 0.07,0.22 0.07,0.21 0.06,0.2 0.05,0.17 0.05,0.16 0.03,0.14 0.03,0.11 0.02,0.1 0.01,0.07 V 412 c 0,0.45 -0.42,0.45 -0.59,0.45 -0.5,0 -0.5,-0.09 -0.73,-0.86 -0.63,-2.31 -1.78,-4.44 -3.25,-6.31 -0.03,0.51 -0.1,2.86 -0.18,3.17 -0.51,3.45 -3.12,5.67 -6.6,5.67 l -0.05,-0.97 c 2.8,0 3.59,-2.69 3.87,-4.84 0.21,-1.5 0.14,-3.97 0.31,-5.81 v 0 c -3.42,-2.8 -6.37,-3.11 -7.7,-3.11 -2.3,0 -3.59,1.53 -3.59,3.87 0,1 0.5,4.8 2.31,7.2 1.6,2.1 3.58,2.69 4.8,2.69 l 0.05,0.97 c -5.13,0 -10.05,-4.76 -10.05,-9.64 0,-3.2 2.34,-6.06 6.37,-6.06 3.22,0 6.11,1.45 8.05,2.95 0.81,-2.55 2.59,-2.95 3.63,-2.95 2.03,0 3.28,1.7 3.28,2.44 0,0.42 -0.43,0.42 -0.6,0.42 -0.45,0 -0.51,-0.14 -0.59,-0.36 -0.49,-1.31 -1.56,-1.53 -1.99,-1.53 -0.48,0 -1.07,0 -1.25,4.28 z"
         stroke-width="0"
         fill="black"
         id="path1997" /><path
         inkscape:connector-curvature="0"
         d="m 615.59,418.65 v 0.37 l -0.01,0.39 -0.01,0.39 -0.01,0.41 -0.04,0.84 -0.06,0.88 -0.08,0.92 -0.11,0.95 -0.13,0.97 -0.17,1.01 -0.19,1.02 -0.23,1.03 -0.27,1.05 -0.3,1.06 -0.35,1.07 -0.4,1.07 -0.21,0.53 -0.22,0.53 -0.24,0.53 -0.25,0.53 c -2.99,6.12 -7.27,9.36 -7.77,9.36 -0.29,0 -0.5,-0.19 -0.5,-0.49 0,-0.15 0,-0.25 0.94,-1.15 4.89,-4.92 7.74,-12.85 7.74,-23.27 0,-8.51 -1.85,-17.28 -8.04,-23.56 -0.64,-0.59 -0.64,-0.7 -0.64,-0.84 0,-0.3 0.21,-0.5 0.5,-0.5 0.5,0 4.97,3.39 7.93,9.71 2.53,5.47 3.12,11 3.12,15.19 z"
         stroke-width="0"
         fill="black"
         id="path1999" /><path
         inkscape:connector-curvature="0"
         d="m 668.67,422.5 h 0.14 0.15 0.14 l 0.07,0.01 h 0.08 l 0.07,0.01 0.07,0.01 0.07,0.01 0.07,0.01 0.07,0.01 0.06,0.02 0.07,0.02 0.06,0.02 0.06,0.02 0.06,0.03 0.06,0.03 0.05,0.04 0.05,0.03 0.05,0.05 0.04,0.04 0.04,0.05 0.02,0.03 0.01,0.03 0.02,0.02 0.02,0.03 0.01,0.03 0.01,0.04 0.02,0.03 0.01,0.04 0.01,0.03 v 0.04 l 0.01,0.04 0.01,0.04 v 0.04 l 0.01,0.04 v 0.04 0.05 c 0,1 -0.95,1 -1.64,1 h -29.84 c -0.71,0 -1.65,0 -1.65,-1 0,-0.98 0.94,-0.98 1.69,-0.98 z"
         stroke-width="0"
         fill="black"
         id="path2001" /><path
         inkscape:connector-curvature="0"
         d="m 668.72,412.82 h 0.06 0.07 l 0.14,0.01 h 0.14 0.07 l 0.07,0.01 0.06,0.01 h 0.07 l 0.07,0.01 0.07,0.02 0.07,0.01 0.06,0.02 0.06,0.02 0.07,0.02 0.06,0.02 0.05,0.03 0.06,0.03 0.05,0.04 0.05,0.04 0.05,0.04 0.04,0.05 0.02,0.02 0.02,0.03 0.02,0.02 0.01,0.03 0.02,0.03 0.02,0.03 0.01,0.03 0.01,0.03 0.02,0.04 0.01,0.03 0.01,0.04 v 0.04 l 0.01,0.04 0.01,0.04 v 0.04 l 0.01,0.04 v 0.05 0.04 c 0,1 -0.95,1 -1.69,1 h -29.75 c -0.75,0 -1.69,0 -1.69,-1 0,-1 0.94,-1 1.65,-1 z"
         stroke-width="0"
         fill="black"
         id="path2003" /><path
         inkscape:connector-curvature="0"
         d="m 719.14,440.82 v 0.02 0.02 l -0.01,0.01 v 0.02 0.02 l -0.01,0.02 v 0.02 l -0.01,0.02 v 0.02 l -0.01,0.02 -0.01,0.02 -0.01,0.02 -0.01,0.02 -0.01,0.02 -0.02,0.02 -0.01,0.02 -0.02,0.02 -0.02,0.02 -0.01,0.02 -0.02,0.02 -0.03,0.01 -0.02,0.02 -0.02,0.01 -0.03,0.02 -0.03,0.01 -0.03,0.01 -0.01,0.01 h -0.02 l -0.01,0.01 h -0.02 -0.02 l -0.02,0.01 h -0.01 -0.02 -0.02 -0.02 -0.02 -0.02 c -0.25,0 -0.31,-0.04 -0.91,-0.75 l -2.39,-2.84 c -1.29,2.34 -3.89,3.59 -7.12,3.59 -6.33,0 -12.3,-5.73 -12.3,-11.76 0,-4.03 2.64,-6.33 5.17,-7.06 l 5.33,-1.41 c 1.85,-0.44 4.6,-1.19 4.6,-5.28 0,-4.49 -4.1,-9.16 -8.97,-9.16 -3.19,0 -8.72,1.1 -8.72,7.27 0,1.2 0.25,2.39 0.29,2.69 0.05,0.2 0.1,0.25 0.1,0.35 0,0.5 -0.35,0.55 -0.6,0.55 -0.25,0 -0.34,-0.05 -0.5,-0.2 -0.2,-0.2 -2.98,-11.56 -2.98,-11.7 0,-0.3 0.25,-0.5 0.55,-0.5 0.25,0 0.29,0.04 0.89,0.75 l 2.45,2.82 c 2.14,-2.89 5.52,-3.57 8.41,-3.57 6.78,0 12.65,6.62 12.65,12.79 0,3.44 -1.69,5.14 -2.44,5.83 -1.13,1.16 -1.88,1.34 -6.32,2.5 -1.1,0.3 -2.89,0.8 -3.35,0.89 -1.34,0.45 -3.03,1.89 -3.03,4.53 0,4.05 3.99,8.28 8.72,8.28 4.14,0 7.17,-2.14 7.17,-7.73 0,-1.59 -0.2,-2.49 -0.2,-2.78 0,-0.05 0,-0.5 0.61,-0.5 0.5,0 0.55,0.15 0.73,1 z"
         stroke-width="0"
         fill="black"
         id="path2005" /><path
         inkscape:connector-curvature="0"
         d="m 731.73,432.87 0.26,0.12 0.26,0.11 0.24,0.11 0.24,0.1 0.23,0.1 0.22,0.1 0.21,0.09 0.21,0.09 0.2,0.08 0.19,0.08 0.18,0.08 0.18,0.07 0.17,0.08 0.16,0.06 0.16,0.07 0.15,0.06 0.14,0.06 0.14,0.06 0.14,0.06 0.13,0.05 0.12,0.06 0.12,0.05 0.11,0.05 0.11,0.04 0.11,0.05 0.1,0.04 0.19,0.09 0.18,0.08 0.17,0.08 c 0.67,0.27 0.98,0.41 0.98,1.08 0,0.59 -0.45,1.11 -1.08,1.11 -0.25,0 -0.31,0 -0.73,-0.31 l -4.74,-3.17 0.52,5.15 c 0.08,0.63 0,1.5 -1.05,1.5 -0.42,0 -1.08,-0.28 -1.08,-1.04 0,-0.32 0.15,-1.36 0.18,-1.71 0.07,-0.59 0.31,-3.11 0.39,-3.9 l -4.71,3.17 c -0.36,0.2 -0.45,0.31 -0.76,0.31 -0.64,0 -1.1,-0.52 -1.1,-1.11 0,-0.7 0.43,-0.87 0.74,-1.01 l 5.26,-2.19 c -2.85,-1.27 -4.14,-1.75 -5.01,-2.17 -0.66,-0.29 -0.99,-0.43 -0.99,-1.08 0,-0.6 0.46,-1.11 1.1,-1.11 0.23,0 0.31,0 0.72,0.31 l 4.75,3.17 -0.57,-5.61 c 0,-0.76 0.66,-1.04 1.08,-1.04 0.42,0 1.08,0.28 1.08,1.04 0,0.32 -0.14,1.36 -0.17,1.71 -0.06,0.59 -0.31,3.09 -0.38,3.9 l 4.17,-2.79 c 0.91,-0.69 0.99,-0.69 1.3,-0.69 0.63,0 1.08,0.51 1.08,1.11 0,0.7 -0.42,0.87 -0.73,1.01 z"
         stroke-width="0"
         fill="black"
         id="path2007" /><path
         inkscape:connector-curvature="0"
         d="m 759.88,394.25 v 0.02 0.03 0.01 0.02 l -0.01,0.01 v 0.02 l -0.01,0.01 v 0.02 l -0.01,0.02 -0.01,0.02 -0.01,0.02 -0.02,0.03 -0.01,0.02 -0.02,0.03 -0.02,0.03 -0.03,0.03 -0.02,0.03 -0.03,0.04 -0.02,0.02 -0.02,0.02 -0.01,0.02 -0.02,0.02 -0.02,0.02 -0.02,0.03 -0.02,0.02 -0.02,0.02 -0.03,0.03 -0.02,0.02 -0.02,0.03 -0.03,0.03 -0.03,0.03 -0.02,0.03 -0.03,0.03 -0.03,0.03 -0.03,0.03 -0.04,0.03 -0.03,0.04 -0.03,0.03 -0.04,0.04 -0.03,0.03 -0.04,0.04 -0.04,0.04 c -6.22,6.28 -7.81,15.69 -7.81,23.31 0,8.67 1.89,17.35 8.01,23.56 0.64,0.61 0.64,0.71 0.64,0.86 0,0.35 -0.18,0.49 -0.48,0.49 -0.5,0 -4.99,-3.38 -7.92,-9.7 -2.55,-5.49 -3.14,-11.02 -3.14,-15.21 0,-3.89 0.54,-9.9 3.28,-15.54 2.98,-6.13 7.28,-9.36 7.78,-9.36 0.3,0 0.48,0.14 0.48,0.5 z"
         stroke-width="0"
         fill="black"
         id="path2009" /><path
         inkscape:connector-curvature="0"
         d="m 795.25,408.84 0.15,-0.13 0.15,-0.12 0.17,-0.13 0.17,-0.12 0.17,-0.12 0.18,-0.12 0.18,-0.12 0.19,-0.12 0.38,-0.23 0.39,-0.22 0.38,-0.2 0.19,-0.1 0.19,-0.09 0.18,-0.09 0.18,-0.09 0.17,-0.08 0.17,-0.08 0.16,-0.07 0.15,-0.07 0.15,-0.06 0.14,-0.06 0.13,-0.05 0.11,-0.04 0.11,-0.04 0.1,-0.03 0.08,-0.03 0.07,-0.02 0.06,-0.01 h 0.02 0.02 c 0.68,0 0.68,0.64 0.68,1.39 v 10.02 h 3.99 v 2.34 c -1.74,-0.16 -6.08,-0.16 -8.02,-0.16 -2.89,0 -7.51,0 -10.22,0.16 v -2.34 h 7.18 v -5.04 c 0,-0.93 0,-2.39 -1.94,-3.53 -1.3,-0.75 -2.89,-1.04 -4.49,-1.04 -4.28,0 -8.56,1.43 -11.01,4.53 -2.14,2.73 -2.78,6.28 -2.78,10.81 0,5.58 1,8.47 2.84,10.91 1.98,2.5 5.83,4.34 10.61,4.34 5.33,0 10.06,-3.8 11.16,-10.13 0.15,-0.93 0.2,-1.04 1.34,-1.04 1.3,0 1.34,0.11 1.34,1.4 v 10.71 c 0,0.95 0,1.39 -0.89,1.39 -0.45,0 -0.54,-0.1 -0.95,-0.44 l -3.28,-2.94 c -3.64,2.89 -7.23,3.38 -9.81,3.38 -12.27,0 -19.99,-7.31 -19.99,-17.63 0,-9.92 7.22,-17.64 20.08,-17.64 1.64,0 6.78,0.1 9.27,3.19 z"
         stroke-width="0"
         fill="black"
         id="path2011" /><path
         inkscape:connector-curvature="0"
         d="m 826.78,403.67 0.3,0.31 0.28,0.32 0.27,0.33 0.26,0.33 0.26,0.34 0.24,0.33 0.23,0.34 0.22,0.34 0.2,0.34 0.2,0.34 0.19,0.34 0.18,0.33 0.17,0.33 0.16,0.32 0.15,0.32 0.14,0.3 0.13,0.3 0.13,0.29 0.11,0.28 0.1,0.27 0.1,0.25 0.08,0.25 0.08,0.22 0.07,0.21 0.06,0.2 0.05,0.17 0.04,0.16 0.04,0.14 0.03,0.11 0.02,0.1 0.01,0.07 V 412 c 0,0.45 -0.42,0.45 -0.59,0.45 -0.5,0 -0.5,-0.09 -0.74,-0.86 -0.62,-2.31 -1.78,-4.44 -3.25,-6.31 -0.03,0.51 -0.09,2.86 -0.17,3.17 -0.51,3.45 -3.12,5.67 -6.61,5.67 l -0.04,-0.97 c 2.79,0 3.59,-2.69 3.87,-4.84 0.2,-1.5 0.14,-3.97 0.31,-5.81 v 0 c -3.42,-2.8 -6.37,-3.11 -7.7,-3.11 -2.3,0 -3.59,1.53 -3.59,3.87 0,1 0.5,4.8 2.31,7.2 1.59,2.1 3.58,2.69 4.8,2.69 l 0.04,0.97 c -5.12,0 -10.04,-4.76 -10.04,-9.64 0,-3.2 2.34,-6.06 6.37,-6.06 3.22,0 6.11,1.45 8.05,2.95 0.81,-2.55 2.59,-2.95 3.62,-2.95 2.03,0 3.28,1.7 3.28,2.44 0,0.42 -0.42,0.42 -0.59,0.42 -0.45,0 -0.52,-0.14 -0.59,-0.36 -0.49,-1.31 -1.57,-1.53 -1.99,-1.53 -0.48,0 -1.08,0 -1.25,4.28 z"
         stroke-width="0"
         fill="black"
         id="path2013" /><path
         inkscape:connector-curvature="0"
         d="m 850.55,418.65 v 0.37 l -0.01,0.39 v 0.39 l -0.02,0.41 -0.04,0.84 -0.06,0.88 -0.08,0.92 -0.11,0.95 -0.13,0.97 -0.16,1.01 -0.2,1.02 -0.23,1.03 -0.27,1.05 -0.3,1.06 -0.35,1.07 -0.39,1.07 -0.22,0.53 -0.22,0.53 -0.24,0.53 -0.25,0.53 c -2.99,6.12 -7.27,9.36 -7.77,9.36 -0.29,0 -0.5,-0.19 -0.5,-0.49 0,-0.15 0,-0.25 0.94,-1.15 4.89,-4.92 7.74,-12.85 7.74,-23.27 0,-8.51 -1.85,-17.28 -8.03,-23.56 -0.65,-0.59 -0.65,-0.7 -0.65,-0.84 0,-0.3 0.21,-0.5 0.5,-0.5 0.5,0 4.97,3.39 7.93,9.71 2.53,5.47 3.12,11 3.12,15.19 z"
         stroke-width="0"
         fill="black"
         id="path2015" /></g>  </g>
  <g
     id="g2161"
     transform="matrix(0.34358858,0,0,0.34358858,114.62248,1.6336638)">
    <g
       text-anchor="start"
       word-spacing="normal"
       letter-spacing="normal"
       font-size-adjust="none"
       font-stretch="normal"
       font-weight="normal"
       font-variant="normal"
       font-style="normal"
       fill-opacity="1"
       fill-rule="evenodd"
       fill="none"
       stroke-opacity="1"
       stroke-dashoffset="0"
       stroke-dasharray="none"
       stroke-miterlimit="10.433"
       stroke-linejoin="miter"
       stroke-linecap="butt"
       stroke="black"
       xml:space="preserve"
       transform="matrix(0.3,0,0,-0.3,-52.5,222.75)"
       id="g2159"><path
         id="path2133"
         fill="black"
         stroke-width="0"
         d="m 487.66,440.82 v 0.02 0.02 0.01 l -0.01,0.02 v 0.02 0.02 l -0.01,0.02 v 0.02 l -0.01,0.02 -0.01,0.02 -0.01,0.02 -0.01,0.02 -0.01,0.02 -0.01,0.02 -0.01,0.02 -0.02,0.02 -0.02,0.02 -0.01,0.02 -0.02,0.02 -0.02,0.02 -0.02,0.01 -0.03,0.02 -0.02,0.01 -0.03,0.02 -0.02,0.01 -0.03,0.01 -0.02,0.01 h -0.01 l -0.02,0.01 h -0.02 -0.01 l -0.02,0.01 h -0.02 -0.02 -0.02 -0.02 -0.02 -0.02 c -0.25,0 -0.31,-0.04 -0.9,-0.75 l -2.39,-2.84 c -1.3,2.34 -3.89,3.59 -7.13,3.59 -6.33,0 -12.3,-5.73 -12.3,-11.76 0,-4.03 2.65,-6.33 5.18,-7.06 l 5.32,-1.41 c 1.85,-0.44 4.6,-1.19 4.6,-5.28 0,-4.49 -4.1,-9.16 -8.97,-9.16 -3.19,0 -8.72,1.1 -8.72,7.27 0,1.2 0.25,2.39 0.3,2.69 0.04,0.2 0.09,0.25 0.09,0.35 0,0.5 -0.34,0.55 -0.59,0.55 -0.25,0 -0.35,-0.05 -0.5,-0.2 -0.21,-0.2 -2.99,-11.56 -2.99,-11.7 0,-0.3 0.25,-0.5 0.55,-0.5 0.25,0 0.3,0.04 0.89,0.75 l 2.45,2.82 c 2.14,-2.89 5.52,-3.57 8.41,-3.57 6.78,0 12.66,6.62 12.66,12.79 0,3.44 -1.69,5.14 -2.44,5.83 -1.14,1.16 -1.89,1.34 -6.33,2.5 -1.09,0.3 -2.89,0.8 -3.34,0.89 -1.35,0.45 -3.03,1.89 -3.03,4.53 0,4.05 3.98,8.28 8.71,8.28 4.15,0 7.18,-2.14 7.18,-7.73 0,-1.59 -0.21,-2.49 -0.21,-2.78 0,-0.05 0,-0.5 0.61,-0.5 0.5,0 0.55,0.15 0.74,1 z"
         inkscape:connector-curvature="0" /><path
         id="path2135"
         fill="black"
         stroke-width="0"
         d="m 504.11,409.87 -0.01,0.71 -0.02,0.68 -0.03,0.66 -0.04,0.64 -0.06,0.62 -0.07,0.6 -0.09,0.57 -0.11,0.56 -0.13,0.55 -0.15,0.53 -0.17,0.51 -0.19,0.5 -0.21,0.49 -0.24,0.48 -0.26,0.47 -0.14,0.23 -0.15,0.23 c -1.08,1.61 -3.23,3 -6.03,3 v -0.98 c 1.89,0 3.7,-1.14 4.33,-3.17 0.56,-1.88 0.59,-4.39 0.59,-7.43 0,-2.57 0,-5.15 -0.45,-7.34 -0.7,-3.17 -3.06,-3.94 -4.47,-3.94 v 0 c -1.59,0 -3.72,0.94 -4.42,3.8 -0.48,2.05 -0.48,4.91 -0.48,7.48 0,2.55 0,5.21 0.51,7.11 0.74,2.75 2.97,3.49 4.39,3.49 v 0.98 c -8.08,0 -8.08,-9.51 -8.08,-12.03 0,-2.5 0,-11.81 8.08,-11.81 8.1,0 8.1,9.31 8.1,11.81 z"
         inkscape:connector-curvature="0" /><path
         id="path2137"
         fill="black"
         stroke-width="0"
         d="m 524.93,394.25 v 0.02 l -0.01,0.03 v 0.01 0.02 0.01 l -0.01,0.02 v 0.01 l -0.01,0.02 -0.01,0.02 -0.01,0.02 -0.01,0.02 -0.01,0.03 -0.02,0.02 -0.02,0.03 -0.02,0.03 -0.02,0.03 -0.03,0.03 -0.03,0.04 -0.02,0.02 -0.01,0.02 -0.02,0.02 -0.02,0.02 -0.02,0.02 -0.02,0.03 -0.02,0.02 -0.02,0.02 -0.02,0.03 -0.03,0.02 -0.02,0.03 -0.03,0.03 -0.02,0.03 -0.03,0.03 -0.03,0.03 -0.03,0.03 -0.03,0.03 -0.03,0.03 -0.04,0.04 -0.03,0.03 -0.03,0.04 -0.04,0.03 -0.04,0.04 -0.04,0.04 c -6.22,6.28 -7.81,15.69 -7.81,23.31 0,8.67 1.89,17.35 8.01,23.56 0.65,0.61 0.65,0.71 0.65,0.86 0,0.35 -0.19,0.49 -0.49,0.49 -0.5,0 -4.98,-3.38 -7.92,-9.7 -2.55,-5.49 -3.14,-11.02 -3.14,-15.21 0,-3.89 0.55,-9.9 3.28,-15.54 2.99,-6.13 7.28,-9.36 7.78,-9.36 0.3,0 0.49,0.14 0.49,0.5 z"
         inkscape:connector-curvature="0" /><path
         id="path2139"
         fill="black"
         stroke-width="0"
         d="m 560.29,408.84 0.15,-0.13 0.15,-0.12 0.17,-0.13 0.17,-0.12 0.17,-0.12 0.18,-0.12 0.19,-0.12 0.19,-0.12 0.38,-0.23 0.38,-0.22 0.38,-0.2 0.19,-0.1 0.19,-0.09 0.18,-0.09 0.18,-0.09 0.17,-0.08 0.17,-0.08 0.16,-0.07 0.16,-0.07 0.14,-0.06 0.14,-0.06 0.13,-0.05 0.12,-0.04 0.1,-0.04 0.1,-0.03 0.08,-0.03 0.07,-0.02 0.06,-0.01 h 0.02 0.02 c 0.69,0 0.69,0.64 0.69,1.39 v 10.02 h 3.98 v 2.34 c -1.73,-0.16 -6.08,-0.16 -8.01,-0.16 -2.89,0 -7.52,0 -10.22,0.16 v -2.34 h 7.17 v -5.04 c 0,-0.93 0,-2.39 -1.94,-3.53 -1.3,-0.75 -2.89,-1.04 -4.48,-1.04 -4.28,0 -8.57,1.43 -11.02,4.53 -2.14,2.73 -2.78,6.28 -2.78,10.81 0,5.58 1,8.47 2.84,10.91 1.99,2.5 5.83,4.34 10.61,4.34 5.33,0 10.07,-3.8 11.16,-10.13 0.16,-0.93 0.2,-1.04 1.34,-1.04 1.3,0 1.35,0.11 1.35,1.4 v 10.71 c 0,0.95 0,1.39 -0.89,1.39 -0.46,0 -0.55,-0.1 -0.96,-0.44 l -3.28,-2.94 c -3.64,2.89 -7.23,3.38 -9.81,3.38 -12.27,0 -19.98,-7.31 -19.98,-17.63 0,-9.92 7.21,-17.64 20.07,-17.64 1.64,0 6.78,0.1 9.27,3.19 z"
         inkscape:connector-curvature="0" /><path
         id="path2141"
         fill="black"
         stroke-width="0"
         d="m 591.82,403.67 0.3,0.31 0.28,0.32 0.28,0.33 0.26,0.33 0.25,0.34 0.24,0.33 0.23,0.34 0.22,0.34 0.21,0.34 0.2,0.34 0.19,0.34 0.18,0.33 0.16,0.33 0.16,0.32 0.15,0.32 0.15,0.3 0.13,0.3 0.12,0.29 0.11,0.28 0.1,0.27 0.1,0.25 0.09,0.25 0.07,0.22 0.07,0.21 0.06,0.2 0.05,0.17 0.05,0.16 0.03,0.14 0.03,0.11 0.02,0.1 0.01,0.07 V 412 c 0,0.45 -0.42,0.45 -0.59,0.45 -0.5,0 -0.5,-0.09 -0.73,-0.86 -0.63,-2.31 -1.78,-4.44 -3.25,-6.31 -0.03,0.51 -0.1,2.86 -0.18,3.17 -0.51,3.45 -3.12,5.67 -6.6,5.67 l -0.05,-0.97 c 2.8,0 3.59,-2.69 3.87,-4.84 0.21,-1.5 0.14,-3.97 0.31,-5.81 v 0 c -3.42,-2.8 -6.37,-3.11 -7.7,-3.11 -2.3,0 -3.59,1.53 -3.59,3.87 0,1 0.5,4.8 2.31,7.2 1.6,2.1 3.58,2.69 4.8,2.69 l 0.05,0.97 c -5.13,0 -10.05,-4.76 -10.05,-9.64 0,-3.2 2.34,-6.06 6.37,-6.06 3.22,0 6.11,1.45 8.05,2.95 0.81,-2.55 2.59,-2.95 3.63,-2.95 2.03,0 3.28,1.7 3.28,2.44 0,0.42 -0.43,0.42 -0.6,0.42 -0.45,0 -0.51,-0.14 -0.59,-0.36 -0.49,-1.31 -1.56,-1.53 -1.99,-1.53 -0.48,0 -1.07,0 -1.25,4.28 z"
         inkscape:connector-curvature="0" /><path
         id="path2143"
         fill="black"
         stroke-width="0"
         d="m 615.59,418.65 v 0.37 l -0.01,0.39 -0.01,0.39 -0.01,0.41 -0.04,0.84 -0.06,0.88 -0.08,0.92 -0.11,0.95 -0.13,0.97 -0.17,1.01 -0.19,1.02 -0.23,1.03 -0.27,1.05 -0.3,1.06 -0.35,1.07 -0.4,1.07 -0.21,0.53 -0.22,0.53 -0.24,0.53 -0.25,0.53 c -2.99,6.12 -7.27,9.36 -7.77,9.36 -0.29,0 -0.5,-0.19 -0.5,-0.49 0,-0.15 0,-0.25 0.94,-1.15 4.89,-4.92 7.74,-12.85 7.74,-23.27 0,-8.51 -1.85,-17.28 -8.04,-23.56 -0.64,-0.59 -0.64,-0.7 -0.64,-0.84 0,-0.3 0.21,-0.5 0.5,-0.5 0.5,0 4.97,3.39 7.93,9.71 2.53,5.47 3.12,11 3.12,15.19 z"
         inkscape:connector-curvature="0" /><path
         id="path2145"
         fill="black"
         stroke-width="0"
         d="m 668.06,417.56 0.1,0.05 0.1,0.04 0.05,0.03 0.04,0.02 0.05,0.03 0.04,0.02 0.04,0.03 0.05,0.02 0.04,0.03 0.03,0.03 0.04,0.03 0.04,0.03 0.03,0.03 0.03,0.03 0.04,0.03 0.02,0.03 0.03,0.04 0.03,0.03 0.02,0.04 0.02,0.04 0.03,0.04 0.01,0.04 0.02,0.04 0.01,0.04 0.02,0.05 0.01,0.05 0.01,0.04 v 0.05 0.06 l 0.01,0.05 c 0,0.6 -0.41,0.85 -0.96,1.1 l -27.59,13.01 c -0.66,0.35 -0.75,0.35 -0.91,0.35 -0.54,0 -0.98,-0.46 -0.98,-1 0,-0.46 0.25,-0.75 0.94,-1.1 l 26.15,-12.36 -26.15,-12.36 c -0.69,-0.34 -0.94,-0.64 -0.94,-1.09 0,-0.55 0.44,-1 0.98,-1 0.16,0 0.25,0 0.91,0.36 z"
         inkscape:connector-curvature="0" /><path
         id="path2147"
         fill="black"
         stroke-width="0"
         d="m 719.14,440.82 v 0.02 0.02 l -0.01,0.01 v 0.02 0.02 l -0.01,0.02 v 0.02 l -0.01,0.02 v 0.02 l -0.01,0.02 -0.01,0.02 -0.01,0.02 -0.01,0.02 -0.01,0.02 -0.02,0.02 -0.01,0.02 -0.02,0.02 -0.02,0.02 -0.01,0.02 -0.02,0.02 -0.03,0.01 -0.02,0.02 -0.02,0.01 -0.03,0.02 -0.03,0.01 -0.03,0.01 -0.01,0.01 h -0.02 l -0.01,0.01 h -0.02 -0.02 l -0.02,0.01 h -0.01 -0.02 -0.02 -0.02 -0.02 -0.02 c -0.25,0 -0.31,-0.04 -0.91,-0.75 l -2.39,-2.84 c -1.29,2.34 -3.89,3.59 -7.12,3.59 -6.33,0 -12.3,-5.73 -12.3,-11.76 0,-4.03 2.64,-6.33 5.17,-7.06 l 5.33,-1.41 c 1.85,-0.44 4.6,-1.19 4.6,-5.28 0,-4.49 -4.1,-9.16 -8.97,-9.16 -3.19,0 -8.72,1.1 -8.72,7.27 0,1.2 0.25,2.39 0.29,2.69 0.05,0.2 0.1,0.25 0.1,0.35 0,0.5 -0.35,0.55 -0.6,0.55 -0.25,0 -0.34,-0.05 -0.5,-0.2 -0.2,-0.2 -2.98,-11.56 -2.98,-11.7 0,-0.3 0.25,-0.5 0.55,-0.5 0.25,0 0.29,0.04 0.89,0.75 l 2.45,2.82 c 2.14,-2.89 5.52,-3.57 8.41,-3.57 6.78,0 12.65,6.62 12.65,12.79 0,3.44 -1.69,5.14 -2.44,5.83 -1.13,1.16 -1.88,1.34 -6.32,2.5 -1.1,0.3 -2.89,0.8 -3.35,0.89 -1.34,0.45 -3.03,1.89 -3.03,4.53 0,4.05 3.99,8.28 8.72,8.28 4.14,0 7.17,-2.14 7.17,-7.73 0,-1.59 -0.2,-2.49 -0.2,-2.78 0,-0.05 0,-0.5 0.61,-0.5 0.5,0 0.55,0.15 0.73,1 z"
         inkscape:connector-curvature="0" /><path
         id="path2149"
         fill="black"
         stroke-width="0"
         d="m 731.73,432.87 0.26,0.12 0.26,0.11 0.24,0.11 0.24,0.1 0.23,0.1 0.22,0.1 0.21,0.09 0.21,0.09 0.2,0.08 0.19,0.08 0.18,0.08 0.18,0.07 0.17,0.08 0.16,0.06 0.16,0.07 0.15,0.06 0.14,0.06 0.14,0.06 0.14,0.06 0.13,0.05 0.12,0.06 0.12,0.05 0.11,0.05 0.11,0.04 0.11,0.05 0.1,0.04 0.19,0.09 0.18,0.08 0.17,0.08 c 0.67,0.27 0.98,0.41 0.98,1.08 0,0.59 -0.45,1.11 -1.08,1.11 -0.25,0 -0.31,0 -0.73,-0.31 l -4.74,-3.17 0.52,5.15 c 0.08,0.63 0,1.5 -1.05,1.5 -0.42,0 -1.08,-0.28 -1.08,-1.04 0,-0.32 0.15,-1.36 0.18,-1.71 0.07,-0.59 0.31,-3.11 0.39,-3.9 l -4.71,3.17 c -0.36,0.2 -0.45,0.31 -0.76,0.31 -0.64,0 -1.1,-0.52 -1.1,-1.11 0,-0.7 0.43,-0.87 0.74,-1.01 l 5.26,-2.19 c -2.85,-1.27 -4.14,-1.75 -5.01,-2.17 -0.66,-0.29 -0.99,-0.43 -0.99,-1.08 0,-0.6 0.46,-1.11 1.1,-1.11 0.23,0 0.31,0 0.72,0.31 l 4.75,3.17 -0.57,-5.61 c 0,-0.76 0.66,-1.04 1.08,-1.04 0.42,0 1.08,0.28 1.08,1.04 0,0.32 -0.14,1.36 -0.17,1.71 -0.06,0.59 -0.31,3.09 -0.38,3.9 l 4.17,-2.79 c 0.91,-0.69 0.99,-0.69 1.3,-0.69 0.63,0 1.08,0.51 1.08,1.11 0,0.7 -0.42,0.87 -0.73,1.01 z"
         inkscape:connector-curvature="0" /><path
         id="path2151"
         fill="black"
         stroke-width="0"
         d="m 759.88,394.25 v 0.02 0.03 0.01 0.02 l -0.01,0.01 v 0.02 l -0.01,0.01 v 0.02 l -0.01,0.02 -0.01,0.02 -0.01,0.02 -0.02,0.03 -0.01,0.02 -0.02,0.03 -0.02,0.03 -0.03,0.03 -0.02,0.03 -0.03,0.04 -0.02,0.02 -0.02,0.02 -0.01,0.02 -0.02,0.02 -0.02,0.02 -0.02,0.03 -0.02,0.02 -0.02,0.02 -0.03,0.03 -0.02,0.02 -0.02,0.03 -0.03,0.03 -0.03,0.03 -0.02,0.03 -0.03,0.03 -0.03,0.03 -0.03,0.03 -0.04,0.03 -0.03,0.04 -0.03,0.03 -0.04,0.04 -0.03,0.03 -0.04,0.04 -0.04,0.04 c -6.22,6.28 -7.81,15.69 -7.81,23.31 0,8.67 1.89,17.35 8.01,23.56 0.64,0.61 0.64,0.71 0.64,0.86 0,0.35 -0.18,0.49 -0.48,0.49 -0.5,0 -4.99,-3.38 -7.92,-9.7 -2.55,-5.49 -3.14,-11.02 -3.14,-15.21 0,-3.89 0.54,-9.9 3.28,-15.54 2.98,-6.13 7.28,-9.36 7.78,-9.36 0.3,0 0.48,0.14 0.48,0.5 z"
         inkscape:connector-curvature="0" /><path
         id="path2153"
         fill="black"
         stroke-width="0"
         d="m 795.25,408.84 0.15,-0.13 0.15,-0.12 0.17,-0.13 0.17,-0.12 0.17,-0.12 0.18,-0.12 0.18,-0.12 0.19,-0.12 0.38,-0.23 0.39,-0.22 0.38,-0.2 0.19,-0.1 0.19,-0.09 0.18,-0.09 0.18,-0.09 0.17,-0.08 0.17,-0.08 0.16,-0.07 0.15,-0.07 0.15,-0.06 0.14,-0.06 0.13,-0.05 0.11,-0.04 0.11,-0.04 0.1,-0.03 0.08,-0.03 0.07,-0.02 0.06,-0.01 h 0.02 0.02 c 0.68,0 0.68,0.64 0.68,1.39 v 10.02 h 3.99 v 2.34 c -1.74,-0.16 -6.08,-0.16 -8.02,-0.16 -2.89,0 -7.51,0 -10.22,0.16 v -2.34 h 7.18 v -5.04 c 0,-0.93 0,-2.39 -1.94,-3.53 -1.3,-0.75 -2.89,-1.04 -4.49,-1.04 -4.28,0 -8.56,1.43 -11.01,4.53 -2.14,2.73 -2.78,6.28 -2.78,10.81 0,5.58 1,8.47 2.84,10.91 1.98,2.5 5.83,4.34 10.61,4.34 5.33,0 10.06,-3.8 11.16,-10.13 0.15,-0.93 0.2,-1.04 1.34,-1.04 1.3,0 1.34,0.11 1.34,1.4 v 10.71 c 0,0.95 0,1.39 -0.89,1.39 -0.45,0 -0.54,-0.1 -0.95,-0.44 l -3.28,-2.94 c -3.64,2.89 -7.23,3.38 -9.81,3.38 -12.27,0 -19.99,-7.31 -19.99,-17.63 0,-9.92 7.22,-17.64 20.08,-17.64 1.64,0 6.78,0.1 9.27,3.19 z"
         inkscape:connector-curvature="0" /><path
         id="path2155"
         fill="black"
         stroke-width="0"
         d="m 826.78,403.67 0.3,0.31 0.28,0.32 0.27,0.33 0.26,0.33 0.26,0.34 0.24,0.33 0.23,0.34 0.22,0.34 0.2,0.34 0.2,0.34 0.19,0.34 0.18,0.33 0.17,0.33 0.16,0.32 0.15,0.32 0.14,0.3 0.13,0.3 0.13,0.29 0.11,0.28 0.1,0.27 0.1,0.25 0.08,0.25 0.08,0.22 0.07,0.21 0.06,0.2 0.05,0.17 0.04,0.16 0.04,0.14 0.03,0.11 0.02,0.1 0.01,0.07 V 412 c 0,0.45 -0.42,0.45 -0.59,0.45 -0.5,0 -0.5,-0.09 -0.74,-0.86 -0.62,-2.31 -1.78,-4.44 -3.25,-6.31 -0.03,0.51 -0.09,2.86 -0.17,3.17 -0.51,3.45 -3.12,5.67 -6.61,5.67 l -0.04,-0.97 c 2.79,0 3.59,-2.69 3.87,-4.84 0.2,-1.5 0.14,-3.97 0.31,-5.81 v 0 c -3.42,-2.8 -6.37,-3.11 -7.7,-3.11 -2.3,0 -3.59,1.53 -3.59,3.87 0,1 0.5,4.8 2.31,7.2 1.59,2.1 3.58,2.69 4.8,2.69 l 0.04,0.97 c -5.12,0 -10.04,-4.76 -10.04,-9.64 0,-3.2 2.34,-6.06 6.37,-6.06 3.22,0 6.11,1.45 8.05,2.95 0.81,-2.55 2.59,-2.95 3.62,-2.95 2.03,0 3.28,1.7 3.28,2.44 0,0.42 -0.42,0.42 -0.59,0.42 -0.45,0 -0.52,-0.14 -0.59,-0.36 -0.49,-1.31 -1.57,-1.53 -1.99,-1.53 -0.48,0 -1.08,0 -1.25,4.28 z"
         inkscape:connector-curvature="0" /><path
         id="path2157"
         fill="black"
         stroke-width="0"
         d="m 850.55,418.65 v 0.37 l -0.01,0.39 v 0.39 l -0.02,0.41 -0.04,0.84 -0.06,0.88 -0.08,0.92 -0.11,0.95 -0.13,0.97 -0.16,1.01 -0.2,1.02 -0.23,1.03 -0.27,1.05 -0.3,1.06 -0.35,1.07 -0.39,1.07 -0.22,0.53 -0.22,0.53 -0.24,0.53 -0.25,0.53 c -2.99,6.12 -7.27,9.36 -7.77,9.36 -0.29,0 -0.5,-0.19 -0.5,-0.49 0,-0.15 0,-0.25 0.94,-1.15 4.89,-4.92 7.74,-12.85 7.74,-23.27 0,-8.51 -1.85,-17.28 -8.03,-23.56 -0.65,-0.59 -0.65,-0.7 -0.65,-0.84 0,-0.3 0.21,-0.5 0.5,-0.5 0.5,0 4.97,3.39 7.93,9.71 2.53,5.47 3.12,11 3.12,15.19 z"
         inkscape:connector-curvature="0" /></g>  </g>
</svg>
