<?xml version="1.0" encoding="UTF-8" standalone="no"?>
<!-- Created with Inkscape (http://www.inkscape.org/) -->

<svg
   xmlns:dc="http://purl.org/dc/elements/1.1/"
   xmlns:cc="http://creativecommons.org/ns#"
   xmlns:rdf="http://www.w3.org/1999/02/22-rdf-syntax-ns#"
   xmlns:svg="http://www.w3.org/2000/svg"
   xmlns="http://www.w3.org/2000/svg"
   xmlns:sodipodi="http://sodipodi.sourceforge.net/DTD/sodipodi-0.dtd"
   xmlns:inkscape="http://www.inkscape.org/namespaces/inkscape"
   width="87.367783mm"
   height="62.205559mm"
   viewBox="0 0 87.367783 62.205559"
   version="1.1"
   id="svg8"
   inkscape:version="0.92.0 r"
   sodipodi:docname="algo_diagram.svg"
   inkscape:export-filename="/home/nsmith/Projects/Nathans PhD Degree/1.0/algo_diagram.png"
   inkscape:export-xdpi="96"
   inkscape:export-ydpi="96">
  <sodipodi:namedview
     id="base"
     pagecolor="#ffffff"
     bordercolor="#666666"
     borderopacity="1.0"
     inkscape:pageopacity="0.0"
     inkscape:pageshadow="2"
     inkscape:zoom="3.959798"
     inkscape:cx="151.14158"
     inkscape:cy="71.197612"
     inkscape:document-units="mm"
     inkscape:current-layer="layer1"
     showgrid="true"
     showguides="true"
     gridtolerance="10000"
     inkscape:window-width="1920"
     inkscape:window-height="1025"
     inkscape:window-x="0"
     inkscape:window-y="27"
     inkscape:window-maximized="1"
     fit-margin-top="0"
     fit-margin-left="0"
     fit-margin-right="0"
     fit-margin-bottom="0">
    <inkscape:grid
       id="grid4489"
       type="xygrid"
       originx="-52.546554"
       originy="-165.62959" />
  </sodipodi:namedview>
  <defs
     id="defs2" />
  <metadata
     id="metadata5">
    <rdf:RDF>
      <cc:Work
         rdf:about="">
        <dc:format>image/svg+xml</dc:format>
        <dc:type
           rdf:resource="http://purl.org/dc/dcmitype/StillImage" />
        <dc:title></dc:title>
      </cc:Work>
    </rdf:RDF>
  </metadata>
  <g
     id="layer1"
     inkscape:groupmode="layer"
     inkscape:label="Layer 1"
     transform="translate(-52.546556,-69.164848)">
    <ellipse
       ry="2.6458333"
       rx="2.5513391"
       cy="85.522324"
       cx="68.508186"
       id="path4485"
       style="fill:#14142d;fill-opacity:0.73399012;stroke:#000000;stroke-width:0.41499999;stroke-miterlimit:100;stroke-dasharray:none;stroke-opacity:1" />
    <ellipse
       style="fill:#14142d;fill-opacity:0.73399012;stroke:#000000;stroke-width:0.41499999;stroke-miterlimit:100;stroke-dasharray:none;stroke-opacity:1"
       id="ellipse4487"
       cx="95.15551"
       cy="85.144348"
       rx="2.5513391"
       ry="2.6458333" />
    <ellipse
       ry="2.6458333"
       rx="2.5513391"
       cy="85.333336"
       cx="118.96801"
       id="ellipse4491"
       style="fill:#14142d;fill-opacity:0.73399012;stroke:#000000;stroke-width:0.41499999;stroke-miterlimit:100;stroke-dasharray:none;stroke-opacity:1" />
    <ellipse
       ry="2.6458333"
       rx="2.5513391"
       cy="117.27232"
       cx="95.533485"
       id="ellipse4493"
       style="fill:#14142d;fill-opacity:0.73399012;stroke:#000000;stroke-width:0.41499999;stroke-miterlimit:100;stroke-dasharray:none;stroke-opacity:1" />
    <ellipse
       style="fill:#14142d;fill-opacity:0.73399012;stroke:#000000;stroke-width:0.41499999;stroke-miterlimit:100;stroke-dasharray:none;stroke-opacity:1"
       id="ellipse4495"
       cx="69.07515"
       cy="117.08334"
       rx="2.5513391"
       ry="2.6458333" />
    <ellipse
       ry="2.6458333"
       rx="2.5513391"
       cy="117.27233"
       cx="119.72396"
       id="ellipse4497"
       style="fill:#14142d;fill-opacity:0.73399012;stroke:#000000;stroke-width:0.41499999;stroke-miterlimit:100;stroke-dasharray:none;stroke-opacity:1" />
    <path
       inkscape:connector-curvature="0"
       id="path4499"
       d="m 95.249999,114.4375 c 0,-26.458333 0,-26.458333 0,-26.458333"
       style="fill:none;fill-rule:evenodd;stroke:#000000;stroke-width:0.35277778;stroke-linecap:butt;stroke-linejoin:miter;stroke-miterlimit:4;stroke-dasharray:1.41111111, 1.41111111;stroke-dashoffset:0;stroke-opacity:1" />
    <path
       inkscape:connector-curvature="0"
       id="path4501"
       d="M 97.895832,117.08333 H 116.41667"
       style="fill:none;fill-rule:evenodd;stroke:#000000;stroke-width:0.35277778;stroke-linecap:butt;stroke-linejoin:miter;stroke-miterlimit:4;stroke-dasharray:1.41111111, 1.41111111;stroke-dashoffset:0;stroke-opacity:1" />
    <path
       inkscape:connector-curvature="0"
       id="path4503"
       d="M 97.895832,85.333334 H 116.41667"
       style="fill:none;fill-rule:evenodd;stroke:#000000;stroke-width:0.35277778;stroke-linecap:butt;stroke-linejoin:miter;stroke-miterlimit:4;stroke-dasharray:1.41111111, 1.41111111;stroke-dashoffset:0;stroke-opacity:1" />
    <path
       inkscape:connector-curvature="0"
       id="path4505"
       d="M 71.437499,117.08333 H 92.604166"
       style="fill:none;fill-rule:evenodd;stroke:#000000;stroke-width:0.35277778;stroke-linecap:butt;stroke-linejoin:miter;stroke-miterlimit:4;stroke-dasharray:1.41111111, 1.41111111;stroke-dashoffset:0;stroke-opacity:1" />
    <path
       inkscape:connector-curvature="0"
       id="path4507"
       d="M 92.604166,85.333334 H 71.437499"
       style="fill:none;fill-rule:evenodd;stroke:#000000;stroke-width:0.35277778;stroke-linecap:butt;stroke-linejoin:miter;stroke-miterlimit:4;stroke-dasharray:1.41111111, 1.41111111;stroke-dashoffset:0;stroke-opacity:1" />
    <g
       transform="matrix(0.57593151,0,0,0.57593151,41.622133,69.671507)"
       id="g4533">
      <g
         style="font-style:normal;font-variant:normal;font-weight:normal;font-stretch:normal;letter-spacing:normal;word-spacing:normal;text-anchor:start;fill:none;fill-opacity:1;fill-rule:evenodd;stroke:#000000;stroke-linecap:butt;stroke-linejoin:miter;stroke-miterlimit:10.43299961;stroke-dasharray:none;stroke-dashoffset:0;stroke-opacity:1"
         word-spacing="normal"
         letter-spacing="normal"
         font-size-adjust="none"
         font-stretch="normal"
         font-weight="normal"
         font-variant="normal"
         font-style="normal"
         stroke-miterlimit="10.433"
         xml:space="preserve"
         transform="matrix(0.3,0,0,-0.3,-52.5,222.75)"
         id="content"><path
           style="fill:#000000;stroke-width:0"
           inkscape:connector-curvature="0"
           id="path4524"
           d="m 479.54,439.48 v 0.02 0.02 l 0.01,0.04 0.02,0.04 0.01,0.05 0.01,0.04 0.01,0.05 0.01,0.05 0.01,0.05 0.01,0.05 0.01,0.05 0.01,0.05 0.01,0.05 0.01,0.05 v 0.04 0.05 l 0.01,0.03 v 0.02 c 0,0.5 -0.35,0.55 -0.6,0.55 -0.5,0 -0.54,-0.11 -0.75,-1 l -8.26,-32.94 c -3.78,0.45 -5.68,2.3 -5.68,5.59 0,0.99 0,2.28 2.69,9.27 0.21,0.59 0.55,1.44 0.55,2.44 0,2.23 -1.59,4.07 -4.09,4.07 -4.74,0 -6.58,-7.21 -6.58,-7.67 0,-0.5 0.5,-0.5 0.61,-0.5 0.5,0 0.54,0.11 0.79,0.91 1.35,4.73 3.33,6.17 5.03,6.17 0.4,0 1.25,0 1.25,-1.59 0,-1.3 -0.5,-2.53 -1.15,-4.28 -2.39,-6.29 -2.39,-7.58 -2.39,-8.43 0,-4.73 3.89,-6.78 8.67,-7.07 -0.41,-1.79 -0.41,-1.89 -1.09,-4.54 -0.16,-0.54 -1.16,-4.57 -1.16,-4.73 0,-0.05 0,-0.5 0.61,-0.5 0.09,0 0.34,0 0.44,0.2 0.15,0.1 0.45,1.35 0.61,2.05 l 1.89,7.42 c 1.84,0 6.22,0 10.9,5.33 2.05,2.3 3.1,4.48 3.64,5.98 0.46,1.24 1.55,5.58 1.55,7.77 0,2.8 -1.34,3.48 -2.2,3.48 -1.24,0 -2.49,-1.29 -2.49,-2.39 0,-0.64 0.3,-0.93 0.75,-1.34 0.55,-0.55 1.8,-1.84 1.8,-4.23 0,-3.19 -2.59,-7.27 -4.34,-9.07 -4.38,-4.43 -7.57,-4.43 -9.36,-4.43 z" /><path
           style="fill:#000000;stroke-width:0"
           inkscape:connector-curvature="0"
           id="path4526"
           d="m 493.97,426.39 -0.01,-0.05 -0.02,-0.04 -0.01,-0.05 -0.02,-0.05 -0.01,-0.05 -0.02,-0.05 -0.01,-0.05 -0.01,-0.05 -0.03,-0.11 -0.03,-0.12 -0.03,-0.11 -0.03,-0.11 -0.01,-0.05 -0.01,-0.05 -0.01,-0.05 -0.01,-0.05 -0.01,-0.05 -0.01,-0.05 -0.01,-0.04 -0.01,-0.04 -0.01,-0.04 -0.01,-0.03 v -0.03 l -0.01,-0.03 v -0.03 -0.02 0 -0.01 -0.01 l -0.01,-0.01 c 0,-0.76 0.63,-1.1 1.19,-1.1 0.63,0 1.17,0.45 1.36,0.76 0.17,0.31 0.45,1.42 0.63,2.16 0.17,0.65 0.54,2.26 0.76,3.14 0.21,0.76 0.42,1.53 0.6,2.33 0.37,1.43 0.45,1.7 1.45,3.14 0.98,1.39 2.62,3.2 5.23,3.2 2.02,0 2.05,-1.78 2.05,-2.44 0,-2.09 -1.48,-5.95 -2.05,-7.42 -0.39,-0.98 -0.53,-1.3 -0.53,-1.89 0,-1.84 1.55,-2.98 3.31,-2.98 3.49,0 5.02,4.79 5.02,5.32 0,0.46 -0.45,0.46 -0.55,0.46 -0.5,0 -0.53,-0.21 -0.67,-0.6 -0.8,-2.78 -2.3,-4.22 -3.69,-4.22 -0.73,0 -0.87,0.49 -0.87,1.22 0,0.8 0.17,1.25 0.8,2.83 0.42,1.08 1.86,4.77 1.86,6.72 0,3.39 -2.69,3.97 -4.54,3.97 -2.89,0 -4.84,-1.77 -5.89,-3.16 -0.25,2.39 -2.29,3.16 -3.73,3.16 -1.5,0 -2.3,-1.08 -2.75,-1.88 -0.77,-1.28 -1.25,-3.28 -1.25,-3.45 0,-0.45 0.48,-0.45 0.59,-0.45 0.49,0 0.52,0.11 0.77,1.04 0.51,2.07 1.19,3.77 2.55,3.77 0.9,0 1.14,-0.77 1.14,-1.7 0,-0.68 -0.32,-1.96 -0.57,-2.89 -0.23,-0.96 -0.57,-2.38 -0.76,-3.14 z" /><path
           style="fill:#000000;stroke-width:0"
           inkscape:connector-curvature="0"
           id="path4528"
           d="m 503.22,415.02 v 0.06 l -0.01,0.05 v 0.06 l -0.01,0.06 -0.01,0.06 -0.02,0.05 -0.02,0.06 -0.02,0.06 -0.02,0.05 -0.02,0.06 -0.03,0.06 -0.03,0.05 -0.04,0.05 -0.03,0.06 -0.04,0.05 -0.04,0.05 -0.05,0.04 -0.05,0.05 -0.05,0.04 -0.05,0.04 -0.06,0.04 -0.05,0.04 -0.06,0.03 -0.07,0.03 -0.07,0.03 -0.07,0.03 -0.07,0.02 -0.07,0.02 -0.08,0.01 -0.08,0.01 -0.09,0.01 h -0.08 c -1.02,0 -1.95,-0.99 -1.95,-1.92 0,-0.57 0.42,-1.33 1.39,-1.33 0.93,0 1.95,0.9 1.95,1.92 z" /><path
           style="fill:#000000;stroke-width:0"
           inkscape:connector-curvature="0"
           id="path4530"
           d="m 495.83,391.54 -0.06,-0.23 -0.07,-0.22 -0.07,-0.22 -0.08,-0.22 -0.09,-0.21 -0.09,-0.21 -0.1,-0.2 -0.11,-0.2 -0.11,-0.2 -0.11,-0.19 -0.12,-0.18 -0.13,-0.18 -0.13,-0.18 -0.14,-0.16 -0.14,-0.16 -0.15,-0.16 -0.15,-0.15 -0.15,-0.14 -0.16,-0.13 -0.16,-0.12 -0.17,-0.12 -0.17,-0.11 -0.17,-0.09 -0.18,-0.09 -0.17,-0.08 -0.18,-0.08 -0.19,-0.06 -0.18,-0.05 -0.19,-0.04 -0.18,-0.02 -0.19,-0.02 -0.2,-0.01 c -0.45,0 -0.87,0.07 -1.26,0.21 0.9,0.42 1.19,1.25 1.19,1.78 0,0.83 -0.66,1.28 -1.36,1.28 -1.08,0 -1.99,-0.94 -1.99,-2.05 0,-1.33 1.36,-2.2 3.46,-2.2 2.09,0 6.15,1.25 7.24,5.5 l 3.13,12.48 c 0.11,0.38 0.17,0.69 0.17,1.22 0,1.91 -1.62,3.27 -3.72,3.27 -3.87,0 -6.09,-4.85 -6.09,-5.33 0,-0.45 0.48,-0.45 0.59,-0.45 0.41,0 0.46,0.11 0.69,0.62 0.88,2.03 2.69,4.19 4.7,4.19 0.88,0 1.19,-0.59 1.19,-1.7 0,-0.39 -0.06,-0.88 -0.11,-1.05 z" /></g>    </g>
    <g
       transform="matrix(0.59873106,0,0,0.59873106,68.483537,67.359472)"
       id="g4593">
      <g
         style="font-style:normal;font-variant:normal;font-weight:normal;font-stretch:normal;letter-spacing:normal;word-spacing:normal;text-anchor:start;fill:none;fill-opacity:1;fill-rule:evenodd;stroke:#000000;stroke-linecap:butt;stroke-linejoin:miter;stroke-miterlimit:10.43299961;stroke-dasharray:none;stroke-dashoffset:0;stroke-opacity:1"
         id="g4591"
         transform="matrix(0.3,0,0,-0.3,-52.5,222.75)"
         xml:space="preserve"
         stroke-miterlimit="10.433"
         font-style="normal"
         font-variant="normal"
         font-weight="normal"
         font-stretch="normal"
         font-size-adjust="none"
         letter-spacing="normal"
         word-spacing="normal"><path
           style="fill:#000000;stroke-width:0"
           inkscape:connector-curvature="0"
           d="m 479.54,439.48 v 0.02 0.02 l 0.01,0.04 0.02,0.04 0.01,0.05 0.01,0.04 0.01,0.05 0.01,0.05 0.01,0.05 0.01,0.05 0.01,0.05 0.01,0.05 0.01,0.05 0.01,0.05 v 0.04 0.05 l 0.01,0.03 v 0.02 c 0,0.5 -0.35,0.55 -0.6,0.55 -0.5,0 -0.54,-0.11 -0.75,-1 l -8.26,-32.94 c -3.78,0.45 -5.68,2.3 -5.68,5.59 0,0.99 0,2.28 2.69,9.27 0.21,0.59 0.55,1.44 0.55,2.44 0,2.23 -1.59,4.07 -4.09,4.07 -4.74,0 -6.58,-7.21 -6.58,-7.67 0,-0.5 0.5,-0.5 0.61,-0.5 0.5,0 0.54,0.11 0.79,0.91 1.35,4.73 3.33,6.17 5.03,6.17 0.4,0 1.25,0 1.25,-1.59 0,-1.3 -0.5,-2.53 -1.15,-4.28 -2.39,-6.29 -2.39,-7.58 -2.39,-8.43 0,-4.73 3.89,-6.78 8.67,-7.07 -0.41,-1.79 -0.41,-1.89 -1.09,-4.54 -0.16,-0.54 -1.16,-4.57 -1.16,-4.73 0,-0.05 0,-0.5 0.61,-0.5 0.09,0 0.34,0 0.44,0.2 0.15,0.1 0.45,1.35 0.61,2.05 l 1.89,7.42 c 1.84,0 6.22,0 10.9,5.33 2.05,2.3 3.1,4.48 3.64,5.98 0.46,1.24 1.55,5.58 1.55,7.77 0,2.8 -1.34,3.48 -2.2,3.48 -1.24,0 -2.49,-1.29 -2.49,-2.39 0,-0.64 0.3,-0.93 0.75,-1.34 0.55,-0.55 1.8,-1.84 1.8,-4.23 0,-3.19 -2.59,-7.27 -4.34,-9.07 -4.38,-4.43 -7.57,-4.43 -9.36,-4.43 z"
           id="path4579" /><path
           style="fill:#000000;stroke-width:0"
           inkscape:connector-curvature="0"
           d="m 493.97,426.39 -0.01,-0.05 -0.02,-0.04 -0.01,-0.05 -0.02,-0.05 -0.01,-0.05 -0.02,-0.05 -0.01,-0.05 -0.01,-0.05 -0.03,-0.11 -0.03,-0.12 -0.03,-0.11 -0.03,-0.11 -0.01,-0.05 -0.01,-0.05 -0.01,-0.05 -0.01,-0.05 -0.01,-0.05 -0.01,-0.05 -0.01,-0.04 -0.01,-0.04 -0.01,-0.04 -0.01,-0.03 v -0.03 l -0.01,-0.03 v -0.03 -0.02 0 -0.01 -0.01 l -0.01,-0.01 c 0,-0.76 0.63,-1.1 1.19,-1.1 0.63,0 1.17,0.45 1.36,0.76 0.17,0.31 0.45,1.42 0.63,2.16 0.17,0.65 0.54,2.26 0.76,3.14 0.21,0.76 0.42,1.53 0.6,2.33 0.37,1.43 0.45,1.7 1.45,3.14 0.98,1.39 2.62,3.2 5.23,3.2 2.02,0 2.05,-1.78 2.05,-2.44 0,-2.09 -1.48,-5.95 -2.05,-7.42 -0.39,-0.98 -0.53,-1.3 -0.53,-1.89 0,-1.84 1.55,-2.98 3.31,-2.98 3.49,0 5.02,4.79 5.02,5.32 0,0.46 -0.45,0.46 -0.55,0.46 -0.5,0 -0.53,-0.21 -0.67,-0.6 -0.8,-2.78 -2.3,-4.22 -3.69,-4.22 -0.73,0 -0.87,0.49 -0.87,1.22 0,0.8 0.17,1.25 0.8,2.83 0.42,1.08 1.86,4.77 1.86,6.72 0,3.39 -2.69,3.97 -4.54,3.97 -2.89,0 -4.84,-1.77 -5.89,-3.16 -0.25,2.39 -2.29,3.16 -3.73,3.16 -1.5,0 -2.3,-1.08 -2.75,-1.88 -0.77,-1.28 -1.25,-3.28 -1.25,-3.45 0,-0.45 0.48,-0.45 0.59,-0.45 0.49,0 0.52,0.11 0.77,1.04 0.51,2.07 1.19,3.77 2.55,3.77 0.9,0 1.14,-0.77 1.14,-1.7 0,-0.68 -0.32,-1.96 -0.57,-2.89 -0.23,-0.96 -0.57,-2.38 -0.76,-3.14 z"
           id="path4581" /><path
           style="fill:#000000;stroke-width:0"
           inkscape:connector-curvature="0"
           d="m 503.22,415.02 v 0.06 l -0.01,0.05 v 0.06 l -0.01,0.06 -0.01,0.06 -0.02,0.05 -0.02,0.06 -0.02,0.06 -0.02,0.05 -0.02,0.06 -0.03,0.06 -0.03,0.05 -0.04,0.05 -0.03,0.06 -0.04,0.05 -0.04,0.05 -0.05,0.04 -0.05,0.05 -0.05,0.04 -0.05,0.04 -0.06,0.04 -0.05,0.04 -0.06,0.03 -0.07,0.03 -0.07,0.03 -0.07,0.03 -0.07,0.02 -0.07,0.02 -0.08,0.01 -0.08,0.01 -0.09,0.01 h -0.08 c -1.02,0 -1.95,-0.99 -1.95,-1.92 0,-0.57 0.42,-1.33 1.39,-1.33 0.93,0 1.95,0.9 1.95,1.92 z"
           id="path4583" /><path
           style="fill:#000000;stroke-width:0"
           inkscape:connector-curvature="0"
           d="m 495.83,391.54 -0.06,-0.23 -0.07,-0.22 -0.07,-0.22 -0.08,-0.22 -0.09,-0.21 -0.09,-0.21 -0.1,-0.2 -0.11,-0.2 -0.11,-0.2 -0.11,-0.19 -0.12,-0.18 -0.13,-0.18 -0.13,-0.18 -0.14,-0.16 -0.14,-0.16 -0.15,-0.16 -0.15,-0.15 -0.15,-0.14 -0.16,-0.13 -0.16,-0.12 -0.17,-0.12 -0.17,-0.11 -0.17,-0.09 -0.18,-0.09 -0.17,-0.08 -0.18,-0.08 -0.19,-0.06 -0.18,-0.05 -0.19,-0.04 -0.18,-0.02 -0.19,-0.02 -0.2,-0.01 c -0.45,0 -0.87,0.07 -1.26,0.21 0.9,0.42 1.19,1.25 1.19,1.78 0,0.83 -0.66,1.28 -1.36,1.28 -1.08,0 -1.99,-0.94 -1.99,-2.05 0,-1.33 1.36,-2.2 3.46,-2.2 2.09,0 6.15,1.25 7.24,5.5 l 3.13,12.48 c 0.11,0.38 0.17,0.69 0.17,1.22 0,1.91 -1.62,3.27 -3.72,3.27 -3.87,0 -6.09,-4.85 -6.09,-5.33 0,-0.45 0.48,-0.45 0.59,-0.45 0.41,0 0.46,0.11 0.69,0.62 0.88,2.03 2.69,4.19 4.7,4.19 0.88,0 1.19,-0.59 1.19,-1.7 0,-0.39 -0.06,-0.88 -0.11,-1.05 z"
           id="path4585" /><path
           style="fill:#000000;stroke-width:0"
           inkscape:connector-curvature="0"
           d="m 522.54,401.11 h 10.66 c 0.45,0 1.28,0 1.28,0.85 0,0.86 -0.8,0.86 -1.28,0.86 h -10.66 v 10.7 c 0,0.45 0,1.28 -0.84,1.28 -0.88,0 -0.88,-0.8 -0.88,-1.28 v -10.7 h -10.69 c -0.45,0 -1.29,0 -1.29,-0.83 0,-0.88 0.79,-0.88 1.29,-0.88 h 10.69 v -10.7 c 0,-0.45 0,-1.28 0.84,-1.28 0.88,0 0.88,0.8 0.88,1.28 z"
           id="path4587" /><path
           style="fill:#000000;stroke-width:0"
           inkscape:connector-curvature="0"
           d="m 548.67,415.39 v 0.05 0.04 0.04 0.04 0.04 0.04 l -0.01,0.04 v 0.03 0.03 0.04 0.03 0.03 l -0.01,0.03 v 0.03 0.02 l -0.01,0.03 v 0.03 l -0.01,0.02 v 0.02 l -0.01,0.03 -0.01,0.04 -0.01,0.04 -0.02,0.03 -0.02,0.03 -0.02,0.03 -0.03,0.02 -0.02,0.03 -0.03,0.02 -0.04,0.01 -0.04,0.02 -0.04,0.01 -0.04,0.01 -0.02,0.01 h -0.03 l -0.02,0.01 h -0.03 -0.03 l -0.03,0.01 h -0.03 -0.03 -0.03 -0.03 -0.04 l -0.03,0.01 h -0.04 -0.04 -0.03 -0.05 -0.04 -0.04 -0.04 -0.05 c -2.23,-2.2 -5.39,-2.24 -6.83,-2.24 v -1.25 c 0.85,0 3.14,0 5.05,0.97 V 396.1 c 0,-1.16 0,-1.61 -3.49,-1.61 h -1.31 v -1.25 c 0.63,0.03 4.91,0.14 6.21,0.14 1.07,0 5.47,-0.11 6.23,-0.14 v 1.25 h -1.33 c -3.48,0 -3.48,0.45 -3.48,1.61 z"
           id="path4589" /></g>    </g>
    <g
       transform="matrix(0.57707151,0,0,0.57707151,5.6942093,68.724922)"
       id="g4669">
      <g
         style="font-style:normal;font-variant:normal;font-weight:normal;font-stretch:normal;letter-spacing:normal;word-spacing:normal;text-anchor:start;fill:none;fill-opacity:1;fill-rule:evenodd;stroke:#000000;stroke-linecap:butt;stroke-linejoin:miter;stroke-miterlimit:10.43299961;stroke-dasharray:none;stroke-dashoffset:0;stroke-opacity:1"
         word-spacing="normal"
         letter-spacing="normal"
         font-size-adjust="none"
         font-stretch="normal"
         font-weight="normal"
         font-variant="normal"
         font-style="normal"
         stroke-miterlimit="10.433"
         xml:space="preserve"
         transform="matrix(0.3,0,0,-0.3,-52.5,222.75)"
         id="g4667"><path
           style="fill:#000000;stroke-width:0"
           inkscape:connector-curvature="0"
           id="path4655"
           d="m 479.54,439.48 v 0.02 0.02 l 0.01,0.04 0.02,0.04 0.01,0.05 0.01,0.04 0.01,0.05 0.01,0.05 0.01,0.05 0.01,0.05 0.01,0.05 0.01,0.05 0.01,0.05 0.01,0.05 v 0.04 0.05 l 0.01,0.03 v 0.02 c 0,0.5 -0.35,0.55 -0.6,0.55 -0.5,0 -0.54,-0.11 -0.75,-1 l -8.26,-32.94 c -3.78,0.45 -5.68,2.3 -5.68,5.59 0,0.99 0,2.28 2.69,9.27 0.21,0.59 0.55,1.44 0.55,2.44 0,2.23 -1.59,4.07 -4.09,4.07 -4.74,0 -6.58,-7.21 -6.58,-7.67 0,-0.5 0.5,-0.5 0.61,-0.5 0.5,0 0.54,0.11 0.79,0.91 1.35,4.73 3.33,6.17 5.03,6.17 0.4,0 1.25,0 1.25,-1.59 0,-1.3 -0.5,-2.53 -1.15,-4.28 -2.39,-6.29 -2.39,-7.58 -2.39,-8.43 0,-4.73 3.89,-6.78 8.67,-7.07 -0.41,-1.79 -0.41,-1.89 -1.09,-4.54 -0.16,-0.54 -1.16,-4.57 -1.16,-4.73 0,-0.05 0,-0.5 0.61,-0.5 0.09,0 0.34,0 0.44,0.2 0.15,0.1 0.45,1.35 0.61,2.05 l 1.89,7.42 c 1.84,0 6.22,0 10.9,5.33 2.05,2.3 3.1,4.48 3.64,5.98 0.46,1.24 1.55,5.58 1.55,7.77 0,2.8 -1.34,3.48 -2.2,3.48 -1.24,0 -2.49,-1.29 -2.49,-2.39 0,-0.64 0.3,-0.93 0.75,-1.34 0.55,-0.55 1.8,-1.84 1.8,-4.23 0,-3.19 -2.59,-7.27 -4.34,-9.07 -4.38,-4.43 -7.57,-4.43 -9.36,-4.43 z" /><path
           style="fill:#000000;stroke-width:0"
           inkscape:connector-curvature="0"
           id="path4657"
           d="m 493.97,426.39 -0.01,-0.05 -0.02,-0.04 -0.01,-0.05 -0.02,-0.05 -0.01,-0.05 -0.02,-0.05 -0.01,-0.05 -0.01,-0.05 -0.03,-0.11 -0.03,-0.12 -0.03,-0.11 -0.03,-0.11 -0.01,-0.05 -0.01,-0.05 -0.01,-0.05 -0.01,-0.05 -0.01,-0.05 -0.01,-0.05 -0.01,-0.04 -0.01,-0.04 -0.01,-0.04 -0.01,-0.03 v -0.03 l -0.01,-0.03 v -0.03 -0.02 0 -0.01 -0.01 l -0.01,-0.01 c 0,-0.76 0.63,-1.1 1.19,-1.1 0.63,0 1.17,0.45 1.36,0.76 0.17,0.31 0.45,1.42 0.63,2.16 0.17,0.65 0.54,2.26 0.76,3.14 0.21,0.76 0.42,1.53 0.6,2.33 0.37,1.43 0.45,1.7 1.45,3.14 0.98,1.39 2.62,3.2 5.23,3.2 2.02,0 2.05,-1.78 2.05,-2.44 0,-2.09 -1.48,-5.95 -2.05,-7.42 -0.39,-0.98 -0.53,-1.3 -0.53,-1.89 0,-1.84 1.55,-2.98 3.31,-2.98 3.49,0 5.02,4.79 5.02,5.32 0,0.46 -0.45,0.46 -0.55,0.46 -0.5,0 -0.53,-0.21 -0.67,-0.6 -0.8,-2.78 -2.3,-4.22 -3.69,-4.22 -0.73,0 -0.87,0.49 -0.87,1.22 0,0.8 0.17,1.25 0.8,2.83 0.42,1.08 1.86,4.77 1.86,6.72 0,3.39 -2.69,3.97 -4.54,3.97 -2.89,0 -4.84,-1.77 -5.89,-3.16 -0.25,2.39 -2.29,3.16 -3.73,3.16 -1.5,0 -2.3,-1.08 -2.75,-1.88 -0.77,-1.28 -1.25,-3.28 -1.25,-3.45 0,-0.45 0.48,-0.45 0.59,-0.45 0.49,0 0.52,0.11 0.77,1.04 0.51,2.07 1.19,3.77 2.55,3.77 0.9,0 1.14,-0.77 1.14,-1.7 0,-0.68 -0.32,-1.96 -0.57,-2.89 -0.23,-0.96 -0.57,-2.38 -0.76,-3.14 z" /><path
           style="fill:#000000;stroke-width:0"
           inkscape:connector-curvature="0"
           id="path4659"
           d="m 503.22,415.02 v 0.06 l -0.01,0.05 v 0.06 l -0.01,0.06 -0.01,0.06 -0.02,0.05 -0.02,0.06 -0.02,0.06 -0.02,0.05 -0.02,0.06 -0.03,0.06 -0.03,0.05 -0.04,0.05 -0.03,0.06 -0.04,0.05 -0.04,0.05 -0.05,0.04 -0.05,0.05 -0.05,0.04 -0.05,0.04 -0.06,0.04 -0.05,0.04 -0.06,0.03 -0.07,0.03 -0.07,0.03 -0.07,0.03 -0.07,0.02 -0.07,0.02 -0.08,0.01 -0.08,0.01 -0.09,0.01 h -0.08 c -1.02,0 -1.95,-0.99 -1.95,-1.92 0,-0.57 0.42,-1.33 1.39,-1.33 0.93,0 1.95,0.9 1.95,1.92 z" /><path
           style="fill:#000000;stroke-width:0"
           inkscape:connector-curvature="0"
           id="path4661"
           d="m 495.83,391.54 -0.06,-0.23 -0.07,-0.22 -0.07,-0.22 -0.08,-0.22 -0.09,-0.21 -0.09,-0.21 -0.1,-0.2 -0.11,-0.2 -0.11,-0.2 -0.11,-0.19 -0.12,-0.18 -0.13,-0.18 -0.13,-0.18 -0.14,-0.16 -0.14,-0.16 -0.15,-0.16 -0.15,-0.15 -0.15,-0.14 -0.16,-0.13 -0.16,-0.12 -0.17,-0.12 -0.17,-0.11 -0.17,-0.09 -0.18,-0.09 -0.17,-0.08 -0.18,-0.08 -0.19,-0.06 -0.18,-0.05 -0.19,-0.04 -0.18,-0.02 -0.19,-0.02 -0.2,-0.01 c -0.45,0 -0.87,0.07 -1.26,0.21 0.9,0.42 1.19,1.25 1.19,1.78 0,0.83 -0.66,1.28 -1.36,1.28 -1.08,0 -1.99,-0.94 -1.99,-2.05 0,-1.33 1.36,-2.2 3.46,-2.2 2.09,0 6.15,1.25 7.24,5.5 l 3.13,12.48 c 0.11,0.38 0.17,0.69 0.17,1.22 0,1.91 -1.62,3.27 -3.72,3.27 -3.87,0 -6.09,-4.85 -6.09,-5.33 0,-0.45 0.48,-0.45 0.59,-0.45 0.41,0 0.46,0.11 0.69,0.62 0.88,2.03 2.69,4.19 4.7,4.19 0.88,0 1.19,-0.59 1.19,-1.7 0,-0.39 -0.06,-0.88 -0.11,-1.05 z" /><path
           style="fill:#000000;stroke-width:0"
           inkscape:connector-curvature="0"
           id="path4663"
           d="m 532.32,401.11 h 0.05 0.06 0.11 l 0.12,0.01 h 0.06 l 0.05,0.01 h 0.06 l 0.06,0.01 0.06,0.01 0.06,0.01 0.05,0.01 0.06,0.01 0.05,0.02 0.06,0.02 0.05,0.02 0.05,0.02 0.04,0.03 0.05,0.03 0.04,0.03 0.04,0.04 0.04,0.04 0.02,0.02 0.01,0.02 0.02,0.02 0.01,0.03 0.02,0.02 0.01,0.03 0.01,0.02 0.01,0.03 0.01,0.03 0.01,0.03 0.01,0.03 0.01,0.03 0.01,0.03 v 0.04 l 0.01,0.03 v 0.04 0.04 0.04 c 0,0.86 -0.8,0.86 -1.39,0.86 h -20.77 c -0.56,0 -1.39,0 -1.39,-0.83 0,-0.88 0.8,-0.88 1.39,-0.88 z" /><path
           style="fill:#000000;stroke-width:0"
           inkscape:connector-curvature="0"
           id="path4665"
           d="m 549.15,415.39 v 0.05 0.04 0.04 0.04 0.04 0.04 l -0.01,0.04 v 0.03 0.03 0.04 0.03 0.03 l -0.01,0.03 v 0.03 0.02 l -0.01,0.03 v 0.03 l -0.01,0.02 v 0.02 l -0.01,0.03 -0.01,0.04 -0.01,0.04 -0.02,0.03 -0.02,0.03 -0.02,0.03 -0.03,0.02 -0.02,0.03 -0.03,0.02 -0.04,0.01 -0.03,0.02 -0.05,0.01 -0.04,0.01 -0.02,0.01 h -0.03 l -0.02,0.01 h -0.03 -0.03 l -0.03,0.01 h -0.03 -0.03 -0.03 -0.03 -0.04 l -0.03,0.01 h -0.04 -0.03 -0.04 -0.04 -0.05 -0.04 -0.04 -0.05 c -2.23,-2.2 -5.39,-2.24 -6.83,-2.24 v -1.25 c 0.85,0 3.14,0 5.05,0.97 V 396.1 c 0,-1.16 0,-1.61 -3.48,-1.61 h -1.32 v -1.25 c 0.63,0.03 4.91,0.14 6.21,0.14 1.07,0 5.47,-0.11 6.23,-0.14 v 1.25 h -1.33 c -3.48,0 -3.48,0.45 -3.48,1.61 z" /></g>    </g>
    <g
       transform="matrix(0.61025794,0,0,0.61025794,35.593137,15.887685)"
       id="g4761">
      <g
         style="font-style:normal;font-variant:normal;font-weight:normal;font-stretch:normal;letter-spacing:normal;word-spacing:normal;text-anchor:start;fill:none;fill-opacity:1;fill-rule:evenodd;stroke:#000000;stroke-linecap:butt;stroke-linejoin:miter;stroke-miterlimit:10.43299961;stroke-dasharray:none;stroke-dashoffset:0;stroke-opacity:1"
         id="g4759"
         transform="matrix(0.3,0,0,-0.3,-52.5,222.75)"
         xml:space="preserve"
         stroke-miterlimit="10.433"
         font-style="normal"
         font-variant="normal"
         font-weight="normal"
         font-stretch="normal"
         font-size-adjust="none"
         letter-spacing="normal"
         word-spacing="normal"><path
           style="fill:#000000;stroke-width:0"
           inkscape:connector-curvature="0"
           d="m 479.54,439.48 v 0.02 0.02 l 0.01,0.04 0.02,0.04 0.01,0.05 0.01,0.04 0.01,0.05 0.01,0.05 0.01,0.05 0.01,0.05 0.01,0.05 0.01,0.05 0.01,0.05 0.01,0.05 v 0.04 0.05 l 0.01,0.03 v 0.02 c 0,0.5 -0.35,0.55 -0.6,0.55 -0.5,0 -0.54,-0.11 -0.75,-1 l -8.26,-32.94 c -3.78,0.45 -5.68,2.3 -5.68,5.59 0,0.99 0,2.28 2.69,9.27 0.21,0.59 0.55,1.44 0.55,2.44 0,2.23 -1.59,4.07 -4.09,4.07 -4.74,0 -6.58,-7.21 -6.58,-7.67 0,-0.5 0.5,-0.5 0.61,-0.5 0.5,0 0.54,0.11 0.79,0.91 1.35,4.73 3.33,6.17 5.03,6.17 0.4,0 1.25,0 1.25,-1.59 0,-1.3 -0.5,-2.53 -1.15,-4.28 -2.39,-6.29 -2.39,-7.58 -2.39,-8.43 0,-4.73 3.89,-6.78 8.67,-7.07 -0.41,-1.79 -0.41,-1.89 -1.09,-4.54 -0.16,-0.54 -1.16,-4.57 -1.16,-4.73 0,-0.05 0,-0.5 0.61,-0.5 0.09,0 0.34,0 0.44,0.2 0.15,0.1 0.45,1.35 0.61,2.05 l 1.89,7.42 c 1.84,0 6.22,0 10.9,5.33 2.05,2.3 3.1,4.48 3.64,5.98 0.46,1.24 1.55,5.58 1.55,7.77 0,2.8 -1.34,3.48 -2.2,3.48 -1.24,0 -2.49,-1.29 -2.49,-2.39 0,-0.64 0.3,-0.93 0.75,-1.34 0.55,-0.55 1.8,-1.84 1.8,-4.23 0,-3.19 -2.59,-7.27 -4.34,-9.07 -4.38,-4.43 -7.57,-4.43 -9.36,-4.43 z"
           id="path4747" /><path
           style="fill:#000000;stroke-width:0"
           inkscape:connector-curvature="0"
           d="m 493.97,429.63 -0.01,-0.04 -0.02,-0.05 -0.01,-0.04 -0.02,-0.05 -0.01,-0.05 -0.02,-0.06 -0.01,-0.05 -0.01,-0.05 -0.03,-0.11 -0.03,-0.11 -0.03,-0.12 -0.03,-0.11 -0.01,-0.05 -0.01,-0.05 -0.01,-0.05 -0.01,-0.05 -0.01,-0.05 -0.01,-0.04 -0.01,-0.05 -0.01,-0.04 -0.01,-0.03 -0.01,-0.04 v -0.03 l -0.01,-0.03 v -0.02 -0.02 -0.01 -0.01 -0.01 h -0.01 c 0,-0.77 0.63,-1.11 1.19,-1.11 0.63,0 1.17,0.45 1.36,0.76 0.17,0.32 0.45,1.43 0.63,2.16 0.17,0.66 0.54,2.27 0.76,3.14 0.21,0.77 0.42,1.53 0.6,2.33 0.37,1.44 0.45,1.7 1.45,3.14 0.98,1.39 2.62,3.2 5.23,3.2 2.02,0 2.05,-1.78 2.05,-2.44 0,-2.09 -1.48,-5.95 -2.05,-7.42 -0.39,-0.98 -0.53,-1.29 -0.53,-1.89 0,-1.84 1.55,-2.98 3.31,-2.98 3.49,0 5.02,4.79 5.02,5.33 0,0.45 -0.45,0.45 -0.55,0.45 -0.5,0 -0.53,-0.2 -0.67,-0.59 -0.8,-2.79 -2.3,-4.22 -3.69,-4.22 -0.73,0 -0.87,0.48 -0.87,1.22 0,0.79 0.17,1.25 0.8,2.82 0.42,1.08 1.86,4.77 1.86,6.72 0,3.39 -2.69,3.97 -4.54,3.97 -2.89,0 -4.84,-1.76 -5.89,-3.16 -0.25,2.4 -2.29,3.16 -3.73,3.16 -1.5,0 -2.3,-1.08 -2.75,-1.87 -0.77,-1.29 -1.25,-3.29 -1.25,-3.46 0,-0.45 0.48,-0.45 0.59,-0.45 0.49,0 0.52,0.11 0.77,1.05 0.51,2.06 1.19,3.76 2.55,3.76 0.9,0 1.14,-0.76 1.14,-1.7 0,-0.67 -0.32,-1.95 -0.57,-2.89 -0.23,-0.95 -0.57,-2.38 -0.76,-3.14 z"
           id="path4749" /><path
           style="fill:#000000;stroke-width:0"
           inkscape:connector-curvature="0"
           d="m 530.46,435.32 h 10.65 c 0.46,0 1.29,0 1.29,0.84 0,0.86 -0.8,0.86 -1.29,0.86 h -10.65 v 10.7 c 0,0.46 0,1.28 -0.85,1.28 -0.87,0 -0.87,-0.79 -0.87,-1.28 v -10.7 h -10.69 c -0.45,0 -1.3,0 -1.3,-0.83 0,-0.87 0.8,-0.87 1.3,-0.87 h 10.69 v -10.71 c 0,-0.45 0,-1.28 0.84,-1.28 0.88,0 0.88,0.8 0.88,1.28 z"
           id="path4751" /><path
           style="fill:#000000;stroke-width:0"
           inkscape:connector-curvature="0"
           d="m 556.59,449.6 v 0.04 0.04 0.05 0.04 l -0.01,0.03 v 0.04 0.04 0.03 0.04 0.03 0.03 l -0.01,0.03 v 0.03 0.03 l -0.01,0.03 v 0.02 0.03 l -0.01,0.02 v 0.03 l -0.01,0.02 -0.01,0.04 -0.02,0.04 -0.01,0.03 -0.02,0.03 -0.02,0.03 -0.03,0.03 -0.03,0.02 -0.03,0.02 -0.03,0.02 -0.04,0.01 -0.04,0.01 -0.04,0.02 h -0.03 -0.02 l -0.03,0.01 h -0.02 l -0.03,0.01 h -0.03 -0.03 -0.03 -0.03 l -0.03,0.01 h -0.04 -0.03 -0.04 -0.04 -0.04 -0.04 -0.04 -0.04 -0.05 -0.04 c -2.24,-2.2 -5.39,-2.23 -6.83,-2.23 v -1.25 c 0.84,0 3.14,0 5.05,0.97 V 430.3 c 0,-1.16 0,-1.61 -3.49,-1.61 h -1.31 v -1.25 c 0.63,0.03 4.91,0.14 6.2,0.14 1.08,0 5.47,-0.11 6.24,-0.14 v 1.25 h -1.33 c -3.48,0 -3.48,0.45 -3.48,1.61 z"
           id="path4753" /><path
           style="fill:#000000;stroke-width:0"
           inkscape:connector-curvature="0"
           d="m 503.22,414.06 v 0.06 l -0.01,0.06 v 0.05 l -0.01,0.06 -0.01,0.06 -0.02,0.06 -0.02,0.05 -0.02,0.06 -0.02,0.06 -0.02,0.05 -0.03,0.06 -0.03,0.05 -0.04,0.06 -0.03,0.05 -0.04,0.05 -0.04,0.05 -0.05,0.05 -0.05,0.04 -0.05,0.05 -0.05,0.04 -0.06,0.04 -0.05,0.03 -0.06,0.04 -0.07,0.03 -0.07,0.02 -0.07,0.03 -0.07,0.02 -0.07,0.02 -0.08,0.01 -0.08,0.01 -0.09,0.01 h -0.08 c -1.02,0 -1.95,-0.98 -1.95,-1.92 0,-0.56 0.42,-1.33 1.39,-1.33 0.93,0 1.95,0.91 1.95,1.92 z"
           id="path4755" /><path
           style="fill:#000000;stroke-width:0"
           inkscape:connector-curvature="0"
           d="m 495.83,390.58 -0.06,-0.23 -0.07,-0.22 -0.07,-0.22 -0.08,-0.21 -0.09,-0.22 -0.09,-0.2 -0.1,-0.21 -0.11,-0.2 -0.11,-0.19 -0.11,-0.19 -0.12,-0.19 -0.13,-0.18 -0.13,-0.17 -0.14,-0.17 -0.14,-0.16 -0.15,-0.16 -0.15,-0.14 -0.15,-0.14 -0.16,-0.13 -0.16,-0.13 -0.17,-0.12 -0.17,-0.1 -0.17,-0.1 -0.18,-0.09 -0.17,-0.08 -0.18,-0.07 -0.19,-0.06 -0.18,-0.05 -0.19,-0.04 -0.18,-0.03 -0.19,-0.02 h -0.2 c -0.45,0 -0.87,0.06 -1.26,0.2 0.9,0.42 1.19,1.25 1.19,1.78 0,0.83 -0.66,1.28 -1.36,1.28 -1.08,0 -1.99,-0.94 -1.99,-2.04 0,-1.33 1.36,-2.21 3.46,-2.21 2.09,0 6.15,1.25 7.24,5.5 l 3.13,12.49 c 0.11,0.37 0.17,0.68 0.17,1.22 0,1.9 -1.62,3.26 -3.72,3.26 -3.87,0 -6.09,-4.84 -6.09,-5.33 0,-0.45 0.48,-0.45 0.59,-0.45 0.41,0 0.46,0.11 0.69,0.62 0.88,2.04 2.69,4.19 4.7,4.19 0.88,0 1.19,-0.59 1.19,-1.7 0,-0.39 -0.06,-0.88 -0.11,-1.05 z"
           id="path4757" /></g>    </g>
    <g
       transform="matrix(0.63511047,0,0,0.63511047,66.292331,13.544414)"
       id="g4873">
      <g
         style="font-style:normal;font-variant:normal;font-weight:normal;font-stretch:normal;letter-spacing:normal;word-spacing:normal;text-anchor:start;fill:none;fill-opacity:1;fill-rule:evenodd;stroke:#000000;stroke-linecap:butt;stroke-linejoin:miter;stroke-miterlimit:10.43299961;stroke-dasharray:none;stroke-dashoffset:0;stroke-opacity:1"
         word-spacing="normal"
         letter-spacing="normal"
         font-size-adjust="none"
         font-stretch="normal"
         font-weight="normal"
         font-variant="normal"
         font-style="normal"
         stroke-miterlimit="10.433"
         xml:space="preserve"
         transform="matrix(0.3,0,0,-0.3,-52.5,222.75)"
         id="g4871"><path
           style="fill:#000000;stroke-width:0"
           inkscape:connector-curvature="0"
           id="path4855"
           d="m 479.54,439.48 v 0.02 0.02 l 0.01,0.04 0.02,0.04 0.01,0.05 0.01,0.04 0.01,0.05 0.01,0.05 0.01,0.05 0.01,0.05 0.01,0.05 0.01,0.05 0.01,0.05 0.01,0.05 v 0.04 0.05 l 0.01,0.03 v 0.02 c 0,0.5 -0.35,0.55 -0.6,0.55 -0.5,0 -0.54,-0.11 -0.75,-1 l -8.26,-32.94 c -3.78,0.45 -5.68,2.3 -5.68,5.59 0,0.99 0,2.28 2.69,9.27 0.21,0.59 0.55,1.44 0.55,2.44 0,2.23 -1.59,4.07 -4.09,4.07 -4.74,0 -6.58,-7.21 -6.58,-7.67 0,-0.5 0.5,-0.5 0.61,-0.5 0.5,0 0.54,0.11 0.79,0.91 1.35,4.73 3.33,6.17 5.03,6.17 0.4,0 1.25,0 1.25,-1.59 0,-1.3 -0.5,-2.53 -1.15,-4.28 -2.39,-6.29 -2.39,-7.58 -2.39,-8.43 0,-4.73 3.89,-6.78 8.67,-7.07 -0.41,-1.79 -0.41,-1.89 -1.09,-4.54 -0.16,-0.54 -1.16,-4.57 -1.16,-4.73 0,-0.05 0,-0.5 0.61,-0.5 0.09,0 0.34,0 0.44,0.2 0.15,0.1 0.45,1.35 0.61,2.05 l 1.89,7.42 c 1.84,0 6.22,0 10.9,5.33 2.05,2.3 3.1,4.48 3.64,5.98 0.46,1.24 1.55,5.58 1.55,7.77 0,2.8 -1.34,3.48 -2.2,3.48 -1.24,0 -2.49,-1.29 -2.49,-2.39 0,-0.64 0.3,-0.93 0.75,-1.34 0.55,-0.55 1.8,-1.84 1.8,-4.23 0,-3.19 -2.59,-7.27 -4.34,-9.07 -4.38,-4.43 -7.57,-4.43 -9.36,-4.43 z" /><path
           style="fill:#000000;stroke-width:0"
           inkscape:connector-curvature="0"
           id="path4857"
           d="m 493.97,429.63 -0.01,-0.04 -0.02,-0.05 -0.01,-0.04 -0.02,-0.05 -0.01,-0.05 -0.02,-0.06 -0.01,-0.05 -0.01,-0.05 -0.03,-0.11 -0.03,-0.11 -0.03,-0.12 -0.03,-0.11 -0.01,-0.05 -0.01,-0.05 -0.01,-0.05 -0.01,-0.05 -0.01,-0.05 -0.01,-0.04 -0.01,-0.05 -0.01,-0.04 -0.01,-0.03 -0.01,-0.04 v -0.03 l -0.01,-0.03 v -0.02 -0.02 -0.01 -0.01 -0.01 h -0.01 c 0,-0.77 0.63,-1.11 1.19,-1.11 0.63,0 1.17,0.45 1.36,0.76 0.17,0.32 0.45,1.43 0.63,2.16 0.17,0.66 0.54,2.27 0.76,3.14 0.21,0.77 0.42,1.53 0.6,2.33 0.37,1.44 0.45,1.7 1.45,3.14 0.98,1.39 2.62,3.2 5.23,3.2 2.02,0 2.05,-1.78 2.05,-2.44 0,-2.09 -1.48,-5.95 -2.05,-7.42 -0.39,-0.98 -0.53,-1.29 -0.53,-1.89 0,-1.84 1.55,-2.98 3.31,-2.98 3.49,0 5.02,4.79 5.02,5.33 0,0.45 -0.45,0.45 -0.55,0.45 -0.5,0 -0.53,-0.2 -0.67,-0.59 -0.8,-2.79 -2.3,-4.22 -3.69,-4.22 -0.73,0 -0.87,0.48 -0.87,1.22 0,0.79 0.17,1.25 0.8,2.82 0.42,1.08 1.86,4.77 1.86,6.72 0,3.39 -2.69,3.97 -4.54,3.97 -2.89,0 -4.84,-1.76 -5.89,-3.16 -0.25,2.4 -2.29,3.16 -3.73,3.16 -1.5,0 -2.3,-1.08 -2.75,-1.87 -0.77,-1.29 -1.25,-3.29 -1.25,-3.46 0,-0.45 0.48,-0.45 0.59,-0.45 0.49,0 0.52,0.11 0.77,1.05 0.51,2.06 1.19,3.76 2.55,3.76 0.9,0 1.14,-0.76 1.14,-1.7 0,-0.67 -0.32,-1.95 -0.57,-2.89 -0.23,-0.95 -0.57,-2.38 -0.76,-3.14 z" /><path
           style="fill:#000000;stroke-width:0"
           inkscape:connector-curvature="0"
           id="path4859"
           d="m 530.46,435.32 h 10.65 c 0.46,0 1.29,0 1.29,0.84 0,0.86 -0.8,0.86 -1.29,0.86 h -10.65 v 10.7 c 0,0.46 0,1.28 -0.85,1.28 -0.87,0 -0.87,-0.79 -0.87,-1.28 v -10.7 h -10.69 c -0.45,0 -1.3,0 -1.3,-0.83 0,-0.87 0.8,-0.87 1.3,-0.87 h 10.69 v -10.71 c 0,-0.45 0,-1.28 0.84,-1.28 0.88,0 0.88,0.8 0.88,1.28 z" /><path
           style="fill:#000000;stroke-width:0"
           inkscape:connector-curvature="0"
           id="path4861"
           d="m 556.59,449.6 v 0.04 0.04 0.05 0.04 l -0.01,0.03 v 0.04 0.04 0.03 0.04 0.03 0.03 l -0.01,0.03 v 0.03 0.03 l -0.01,0.03 v 0.02 0.03 l -0.01,0.02 v 0.03 l -0.01,0.02 -0.01,0.04 -0.02,0.04 -0.01,0.03 -0.02,0.03 -0.02,0.03 -0.03,0.03 -0.03,0.02 -0.03,0.02 -0.03,0.02 -0.04,0.01 -0.04,0.01 -0.04,0.02 h -0.03 -0.02 l -0.03,0.01 h -0.02 l -0.03,0.01 h -0.03 -0.03 -0.03 -0.03 l -0.03,0.01 h -0.04 -0.03 -0.04 -0.04 -0.04 -0.04 -0.04 -0.04 -0.05 -0.04 c -2.24,-2.2 -5.39,-2.23 -6.83,-2.23 v -1.25 c 0.84,0 3.14,0 5.05,0.97 V 430.3 c 0,-1.16 0,-1.61 -3.49,-1.61 h -1.31 v -1.25 c 0.63,0.03 4.91,0.14 6.2,0.14 1.08,0 5.47,-0.11 6.24,-0.14 v 1.25 h -1.33 c -3.48,0 -3.48,0.45 -3.48,1.61 z" /><path
           style="fill:#000000;stroke-width:0"
           inkscape:connector-curvature="0"
           id="path4863"
           d="m 503.22,414.06 v 0.06 l -0.01,0.06 v 0.05 l -0.01,0.06 -0.01,0.06 -0.02,0.06 -0.02,0.05 -0.02,0.06 -0.02,0.06 -0.02,0.05 -0.03,0.06 -0.03,0.05 -0.04,0.06 -0.03,0.05 -0.04,0.05 -0.04,0.05 -0.05,0.05 -0.05,0.04 -0.05,0.05 -0.05,0.04 -0.06,0.04 -0.05,0.03 -0.06,0.04 -0.07,0.03 -0.07,0.02 -0.07,0.03 -0.07,0.02 -0.07,0.02 -0.08,0.01 -0.08,0.01 -0.09,0.01 h -0.08 c -1.02,0 -1.95,-0.98 -1.95,-1.92 0,-0.56 0.42,-1.33 1.39,-1.33 0.93,0 1.95,0.91 1.95,1.92 z" /><path
           style="fill:#000000;stroke-width:0"
           inkscape:connector-curvature="0"
           id="path4865"
           d="m 495.83,390.58 -0.06,-0.23 -0.07,-0.22 -0.07,-0.22 -0.08,-0.21 -0.09,-0.22 -0.09,-0.2 -0.1,-0.21 -0.11,-0.2 -0.11,-0.19 -0.11,-0.19 -0.12,-0.19 -0.13,-0.18 -0.13,-0.17 -0.14,-0.17 -0.14,-0.16 -0.15,-0.16 -0.15,-0.14 -0.15,-0.14 -0.16,-0.13 -0.16,-0.13 -0.17,-0.12 -0.17,-0.1 -0.17,-0.1 -0.18,-0.09 -0.17,-0.08 -0.18,-0.07 -0.19,-0.06 -0.18,-0.05 -0.19,-0.04 -0.18,-0.03 -0.19,-0.02 h -0.2 c -0.45,0 -0.87,0.06 -1.26,0.2 0.9,0.42 1.19,1.25 1.19,1.78 0,0.83 -0.66,1.28 -1.36,1.28 -1.08,0 -1.99,-0.94 -1.99,-2.04 0,-1.33 1.36,-2.21 3.46,-2.21 2.09,0 6.15,1.25 7.24,5.5 l 3.13,12.49 c 0.11,0.37 0.17,0.68 0.17,1.22 0,1.9 -1.62,3.26 -3.72,3.26 -3.87,0 -6.09,-4.84 -6.09,-5.33 0,-0.45 0.48,-0.45 0.59,-0.45 0.41,0 0.46,0.11 0.69,0.62 0.88,2.04 2.69,4.19 4.7,4.19 0.88,0 1.19,-0.59 1.19,-1.7 0,-0.39 -0.06,-0.88 -0.11,-1.05 z" /><path
           style="fill:#000000;stroke-width:0"
           inkscape:connector-curvature="0"
           id="path4867"
           d="m 522.54,400.16 h 10.66 c 0.45,0 1.28,0 1.28,0.84 0,0.86 -0.8,0.86 -1.28,0.86 h -10.66 v 10.7 c 0,0.46 0,1.28 -0.84,1.28 -0.88,0 -0.88,-0.79 -0.88,-1.28 v -10.7 h -10.69 c -0.45,0 -1.29,0 -1.29,-0.83 0,-0.87 0.79,-0.87 1.29,-0.87 h 10.69 v -10.71 c 0,-0.45 0,-1.28 0.84,-1.28 0.88,0 0.88,0.8 0.88,1.28 z" /><path
           style="fill:#000000;stroke-width:0"
           inkscape:connector-curvature="0"
           id="path4869"
           d="m 548.67,414.44 v 0.04 0.04 0.05 0.04 0.03 0.04 l -0.01,0.04 v 0.03 0.04 0.03 0.03 0.03 l -0.01,0.03 v 0.03 0.03 l -0.01,0.02 v 0.03 l -0.01,0.02 v 0.03 l -0.01,0.02 -0.01,0.04 -0.01,0.04 -0.02,0.03 -0.02,0.03 -0.02,0.03 -0.03,0.03 -0.02,0.02 -0.03,0.02 -0.04,0.02 -0.04,0.01 -0.04,0.01 -0.04,0.02 h -0.02 -0.03 l -0.02,0.01 h -0.03 l -0.03,0.01 h -0.03 -0.03 -0.03 -0.03 l -0.03,0.01 h -0.04 -0.03 -0.04 -0.04 -0.03 -0.05 -0.04 -0.04 -0.04 -0.05 c -2.23,-2.2 -5.39,-2.23 -6.83,-2.23 v -1.25 c 0.85,0 3.14,0 5.05,0.97 v -17.77 c 0,-1.16 0,-1.61 -3.49,-1.61 h -1.31 v -1.25 c 0.63,0.03 4.91,0.14 6.21,0.14 1.07,0 5.47,-0.11 6.23,-0.14 v 1.25 h -1.33 c -3.48,0 -3.48,0.45 -3.48,1.61 z" /></g>    </g>
    <g
       transform="matrix(0.61606311,0,0,0.61606311,0.43500928,15.616787)"
       id="g5005">
      <g
         style="font-style:normal;font-variant:normal;font-weight:normal;font-stretch:normal;letter-spacing:normal;word-spacing:normal;text-anchor:start;fill:none;fill-opacity:1;fill-rule:evenodd;stroke:#000000;stroke-linecap:butt;stroke-linejoin:miter;stroke-miterlimit:10.43299961;stroke-dasharray:none;stroke-dashoffset:0;stroke-opacity:1"
         id="g5003"
         transform="matrix(0.3,0,0,-0.3,-52.5,222.75)"
         xml:space="preserve"
         stroke-miterlimit="10.433"
         font-style="normal"
         font-variant="normal"
         font-weight="normal"
         font-stretch="normal"
         font-size-adjust="none"
         letter-spacing="normal"
         word-spacing="normal"><path
           style="fill:#000000;stroke-width:0"
           inkscape:connector-curvature="0"
           d="m 479.54,439.48 v 0.02 0.02 l 0.01,0.04 0.02,0.04 0.01,0.05 0.01,0.04 0.01,0.05 0.01,0.05 0.01,0.05 0.01,0.05 0.01,0.05 0.01,0.05 0.01,0.05 0.01,0.05 v 0.04 0.05 l 0.01,0.03 v 0.02 c 0,0.5 -0.35,0.55 -0.6,0.55 -0.5,0 -0.54,-0.11 -0.75,-1 l -8.26,-32.94 c -3.78,0.45 -5.68,2.3 -5.68,5.59 0,0.99 0,2.28 2.69,9.27 0.21,0.59 0.55,1.44 0.55,2.44 0,2.23 -1.59,4.07 -4.09,4.07 -4.74,0 -6.58,-7.21 -6.58,-7.67 0,-0.5 0.5,-0.5 0.61,-0.5 0.5,0 0.54,0.11 0.79,0.91 1.35,4.73 3.33,6.17 5.03,6.17 0.4,0 1.25,0 1.25,-1.59 0,-1.3 -0.5,-2.53 -1.15,-4.28 -2.39,-6.29 -2.39,-7.58 -2.39,-8.43 0,-4.73 3.89,-6.78 8.67,-7.07 -0.41,-1.79 -0.41,-1.89 -1.09,-4.54 -0.16,-0.54 -1.16,-4.57 -1.16,-4.73 0,-0.05 0,-0.5 0.61,-0.5 0.09,0 0.34,0 0.44,0.2 0.15,0.1 0.45,1.35 0.61,2.05 l 1.89,7.42 c 1.84,0 6.22,0 10.9,5.33 2.05,2.3 3.1,4.48 3.64,5.98 0.46,1.24 1.55,5.58 1.55,7.77 0,2.8 -1.34,3.48 -2.2,3.48 -1.24,0 -2.49,-1.29 -2.49,-2.39 0,-0.64 0.3,-0.93 0.75,-1.34 0.55,-0.55 1.8,-1.84 1.8,-4.23 0,-3.19 -2.59,-7.27 -4.34,-9.07 -4.38,-4.43 -7.57,-4.43 -9.36,-4.43 z"
           id="path4987" /><path
           style="fill:#000000;stroke-width:0"
           inkscape:connector-curvature="0"
           d="m 493.97,429.63 -0.01,-0.04 -0.02,-0.05 -0.01,-0.04 -0.02,-0.05 -0.01,-0.05 -0.02,-0.06 -0.01,-0.05 -0.01,-0.05 -0.03,-0.11 -0.03,-0.11 -0.03,-0.12 -0.03,-0.11 -0.01,-0.05 -0.01,-0.05 -0.01,-0.05 -0.01,-0.05 -0.01,-0.05 -0.01,-0.04 -0.01,-0.05 -0.01,-0.04 -0.01,-0.03 -0.01,-0.04 v -0.03 l -0.01,-0.03 v -0.02 -0.02 -0.01 -0.01 -0.01 h -0.01 c 0,-0.77 0.63,-1.11 1.19,-1.11 0.63,0 1.17,0.45 1.36,0.76 0.17,0.32 0.45,1.43 0.63,2.16 0.17,0.66 0.54,2.27 0.76,3.14 0.21,0.77 0.42,1.53 0.6,2.33 0.37,1.44 0.45,1.7 1.45,3.14 0.98,1.39 2.62,3.2 5.23,3.2 2.02,0 2.05,-1.78 2.05,-2.44 0,-2.09 -1.48,-5.95 -2.05,-7.42 -0.39,-0.98 -0.53,-1.29 -0.53,-1.89 0,-1.84 1.55,-2.98 3.31,-2.98 3.49,0 5.02,4.79 5.02,5.33 0,0.45 -0.45,0.45 -0.55,0.45 -0.5,0 -0.53,-0.2 -0.67,-0.59 -0.8,-2.79 -2.3,-4.22 -3.69,-4.22 -0.73,0 -0.87,0.48 -0.87,1.22 0,0.79 0.17,1.25 0.8,2.82 0.42,1.08 1.86,4.77 1.86,6.72 0,3.39 -2.69,3.97 -4.54,3.97 -2.89,0 -4.84,-1.76 -5.89,-3.16 -0.25,2.4 -2.29,3.16 -3.73,3.16 -1.5,0 -2.3,-1.08 -2.75,-1.87 -0.77,-1.29 -1.25,-3.29 -1.25,-3.46 0,-0.45 0.48,-0.45 0.59,-0.45 0.49,0 0.52,0.11 0.77,1.05 0.51,2.06 1.19,3.76 2.55,3.76 0.9,0 1.14,-0.76 1.14,-1.7 0,-0.67 -0.32,-1.95 -0.57,-2.89 -0.23,-0.95 -0.57,-2.38 -0.76,-3.14 z"
           id="path4989" /><path
           style="fill:#000000;stroke-width:0"
           inkscape:connector-curvature="0"
           d="m 530.46,435.32 h 10.65 c 0.46,0 1.29,0 1.29,0.84 0,0.86 -0.8,0.86 -1.29,0.86 h -10.65 v 10.7 c 0,0.46 0,1.28 -0.85,1.28 -0.87,0 -0.87,-0.79 -0.87,-1.28 v -10.7 h -10.69 c -0.45,0 -1.3,0 -1.3,-0.83 0,-0.87 0.8,-0.87 1.3,-0.87 h 10.69 v -10.71 c 0,-0.45 0,-1.28 0.84,-1.28 0.88,0 0.88,0.8 0.88,1.28 z"
           id="path4991" /><path
           style="fill:#000000;stroke-width:0"
           inkscape:connector-curvature="0"
           d="m 556.59,449.6 v 0.04 0.04 0.05 0.04 l -0.01,0.03 v 0.04 0.04 0.03 0.04 0.03 0.03 l -0.01,0.03 v 0.03 0.03 l -0.01,0.03 v 0.02 0.03 l -0.01,0.02 v 0.03 l -0.01,0.02 -0.01,0.04 -0.02,0.04 -0.01,0.03 -0.02,0.03 -0.02,0.03 -0.03,0.03 -0.03,0.02 -0.03,0.02 -0.03,0.02 -0.04,0.01 -0.04,0.01 -0.04,0.02 h -0.03 -0.02 l -0.03,0.01 h -0.02 l -0.03,0.01 h -0.03 -0.03 -0.03 -0.03 l -0.03,0.01 h -0.04 -0.03 -0.04 -0.04 -0.04 -0.04 -0.04 -0.04 -0.05 -0.04 c -2.24,-2.2 -5.39,-2.23 -6.83,-2.23 v -1.25 c 0.84,0 3.14,0 5.05,0.97 V 430.3 c 0,-1.16 0,-1.61 -3.49,-1.61 h -1.31 v -1.25 c 0.63,0.03 4.91,0.14 6.2,0.14 1.08,0 5.47,-0.11 6.24,-0.14 v 1.25 h -1.33 c -3.48,0 -3.48,0.45 -3.48,1.61 z"
           id="path4993" /><path
           style="fill:#000000;stroke-width:0"
           inkscape:connector-curvature="0"
           d="m 503.22,414.06 v 0.06 l -0.01,0.06 v 0.05 l -0.01,0.06 -0.01,0.06 -0.02,0.06 -0.02,0.05 -0.02,0.06 -0.02,0.06 -0.02,0.05 -0.03,0.06 -0.03,0.05 -0.04,0.06 -0.03,0.05 -0.04,0.05 -0.04,0.05 -0.05,0.05 -0.05,0.04 -0.05,0.05 -0.05,0.04 -0.06,0.04 -0.05,0.03 -0.06,0.04 -0.07,0.03 -0.07,0.02 -0.07,0.03 -0.07,0.02 -0.07,0.02 -0.08,0.01 -0.08,0.01 -0.09,0.01 h -0.08 c -1.02,0 -1.95,-0.98 -1.95,-1.92 0,-0.56 0.42,-1.33 1.39,-1.33 0.93,0 1.95,0.91 1.95,1.92 z"
           id="path4995" /><path
           style="fill:#000000;stroke-width:0"
           inkscape:connector-curvature="0"
           d="m 495.83,390.58 -0.06,-0.23 -0.07,-0.22 -0.07,-0.22 -0.08,-0.21 -0.09,-0.22 -0.09,-0.2 -0.1,-0.21 -0.11,-0.2 -0.11,-0.19 -0.11,-0.19 -0.12,-0.19 -0.13,-0.18 -0.13,-0.17 -0.14,-0.17 -0.14,-0.16 -0.15,-0.16 -0.15,-0.14 -0.15,-0.14 -0.16,-0.13 -0.16,-0.13 -0.17,-0.12 -0.17,-0.1 -0.17,-0.1 -0.18,-0.09 -0.17,-0.08 -0.18,-0.07 -0.19,-0.06 -0.18,-0.05 -0.19,-0.04 -0.18,-0.03 -0.19,-0.02 h -0.2 c -0.45,0 -0.87,0.06 -1.26,0.2 0.9,0.42 1.19,1.25 1.19,1.78 0,0.83 -0.66,1.28 -1.36,1.28 -1.08,0 -1.99,-0.94 -1.99,-2.04 0,-1.33 1.36,-2.21 3.46,-2.21 2.09,0 6.15,1.25 7.24,5.5 l 3.13,12.49 c 0.11,0.37 0.17,0.68 0.17,1.22 0,1.9 -1.62,3.26 -3.72,3.26 -3.87,0 -6.09,-4.84 -6.09,-5.33 0,-0.45 0.48,-0.45 0.59,-0.45 0.41,0 0.46,0.11 0.69,0.62 0.88,2.04 2.69,4.19 4.7,4.19 0.88,0 1.19,-0.59 1.19,-1.7 0,-0.39 -0.06,-0.88 -0.11,-1.05 z"
           id="path4997" /><path
           style="fill:#000000;stroke-width:0"
           inkscape:connector-curvature="0"
           d="m 532.32,400.16 h 0.05 0.06 0.11 0.12 0.06 l 0.05,0.01 h 0.06 l 0.06,0.01 0.06,0.01 0.06,0.01 0.05,0.01 0.06,0.02 0.05,0.01 0.06,0.02 0.05,0.02 0.05,0.03 0.04,0.02 0.05,0.03 0.04,0.03 0.04,0.04 0.04,0.04 0.02,0.02 0.01,0.02 0.02,0.02 0.01,0.03 0.02,0.02 0.01,0.03 0.01,0.03 0.01,0.02 0.01,0.03 0.01,0.03 0.01,0.03 0.01,0.03 0.01,0.04 v 0.03 l 0.01,0.04 v 0.03 0.04 0.04 c 0,0.86 -0.8,0.86 -1.39,0.86 h -20.77 c -0.56,0 -1.39,0 -1.39,-0.83 0,-0.87 0.8,-0.87 1.39,-0.87 z"
           id="path4999" /><path
           style="fill:#000000;stroke-width:0"
           inkscape:connector-curvature="0"
           d="m 549.15,414.44 v 0.04 0.04 0.05 0.04 0.03 0.04 l -0.01,0.04 v 0.03 0.04 0.03 0.03 0.03 l -0.01,0.03 v 0.03 0.03 l -0.01,0.02 v 0.03 l -0.01,0.02 v 0.03 l -0.01,0.02 -0.01,0.04 -0.01,0.04 -0.02,0.03 -0.02,0.03 -0.02,0.03 -0.03,0.03 -0.02,0.02 -0.03,0.02 -0.04,0.02 -0.03,0.01 -0.05,0.01 -0.04,0.02 h -0.02 -0.03 l -0.02,0.01 h -0.03 l -0.03,0.01 h -0.03 -0.03 -0.03 -0.03 l -0.03,0.01 h -0.04 -0.03 -0.04 -0.03 -0.04 -0.04 -0.05 -0.04 -0.04 -0.05 c -2.23,-2.2 -5.39,-2.23 -6.83,-2.23 v -1.25 c 0.85,0 3.14,0 5.05,0.97 v -17.77 c 0,-1.16 0,-1.61 -3.48,-1.61 h -1.32 v -1.25 c 0.63,0.03 4.91,0.14 6.21,0.14 1.07,0 5.47,-0.11 6.23,-0.14 v 1.25 h -1.33 c -3.48,0 -3.48,0.45 -3.48,1.61 z"
           id="path5001" /></g>    </g>
    <path
       inkscape:connector-curvature="0"
       id="path5082"
       d="m 94.622119,103.30618 1.32292,1.32292"
       style="fill:none;fill-rule:evenodd;stroke:#000000;stroke-width:0.13229199px;stroke-linecap:butt;stroke-linejoin:miter;stroke-opacity:1" />
    <path
       inkscape:connector-curvature="0"
       id="path5084"
       d="m 95.945036,103.30618 -1.32292,1.32292"
       style="fill:none;fill-rule:evenodd;stroke:#000000;stroke-width:0.13229199px;stroke-linecap:butt;stroke-linejoin:miter;stroke-opacity:1" />
    <g
       transform="matrix(0.52374479,0,0,0.52374479,38.883977,57.306089)"
       id="g5157">
      <g
         style="font-style:normal;font-variant:normal;font-weight:normal;font-stretch:normal;letter-spacing:normal;word-spacing:normal;text-anchor:start;fill:none;fill-opacity:1;fill-rule:evenodd;stroke:#000000;stroke-linecap:butt;stroke-linejoin:miter;stroke-miterlimit:10.43299961;stroke-dasharray:none;stroke-dashoffset:0;stroke-opacity:1"
         word-spacing="normal"
         letter-spacing="normal"
         font-size-adjust="none"
         font-stretch="normal"
         font-weight="normal"
         font-variant="normal"
         font-style="normal"
         stroke-miterlimit="10.433"
         xml:space="preserve"
         transform="matrix(0.3,0,0,-0.3,-52.5,222.75)"
         id="g5155"><path
           style="fill:#000000;stroke-width:0"
           inkscape:connector-curvature="0"
           id="path5153"
           d="m 457.57,418.86 0.09,0.26 0.1,0.26 0.1,0.24 0.11,0.25 0.11,0.23 0.12,0.22 0.12,0.22 0.12,0.21 0.13,0.2 0.13,0.2 0.13,0.19 0.14,0.18 0.28,0.34 0.29,0.32 0.3,0.29 0.31,0.27 0.31,0.24 0.32,0.22 0.32,0.21 0.32,0.18 0.31,0.16 0.32,0.15 0.31,0.13 0.3,0.11 0.3,0.1 0.29,0.08 0.28,0.07 0.27,0.06 0.25,0.05 0.24,0.04 0.22,0.03 0.21,0.02 0.19,0.02 0.16,0.01 0.14,0.01 0.12,0.01 h 0.09 0.07 c 7.51,0 8.06,-8.72 8.06,-12.66 0,-3.05 -0.25,-3.89 -0.59,-4.89 -1.1,-3.63 -2.6,-9.41 -2.6,-10.7 0,-0.55 0.25,-0.91 0.66,-0.91 0.64,0 1.05,1.11 1.59,3 1.14,4.19 1.64,7.02 1.85,8.56 0.09,0.66 0.18,1.3 0.39,1.96 1.59,4.92 4.78,12.34 6.78,16.28 0.34,0.59 0.94,1.7 0.94,1.89 0,0.5 -0.49,0.5 -0.6,0.5 -0.14,0 -0.45,0 -0.59,-0.35 -2.59,-4.73 -4.58,-9.71 -6.58,-14.75 -0.05,1.55 -0.09,5.33 -2.05,10.18 -1.18,3.03 -3.18,5.46 -6.62,5.46 -6.22,0 -9.72,-7.56 -9.72,-9.1 0,-0.5 0.45,-0.5 0.95,-0.5 z" /></g>    </g>
    <g
       transform="matrix(0.7483232,0,0,0.7483232,24.800234,36.999593)"
       id="g5305">
      <g
         style="font-style:normal;font-variant:normal;font-weight:normal;font-stretch:normal;letter-spacing:normal;word-spacing:normal;text-anchor:start;fill:none;fill-opacity:1;fill-rule:evenodd;stroke:#000000;stroke-linecap:butt;stroke-linejoin:miter;stroke-miterlimit:10.43299961;stroke-dasharray:none;stroke-dashoffset:0;stroke-opacity:1"
         id="g5303"
         transform="matrix(0.3,0,0,-0.3,-52.5,222.75)"
         xml:space="preserve"
         stroke-miterlimit="10.433"
         font-style="normal"
         font-variant="normal"
         font-weight="normal"
         font-stretch="normal"
         font-size-adjust="none"
         letter-spacing="normal"
         word-spacing="normal"><path
           style="fill:#000000;stroke-width:0"
           inkscape:connector-curvature="0"
           d="m 469.61,436.93 0.01,0.19 0.01,0.2 0.02,0.2 0.03,0.21 0.04,0.21 0.05,0.22 0.06,0.21 0.07,0.22 0.08,0.22 0.1,0.22 0.11,0.22 0.12,0.22 0.14,0.22 0.15,0.21 0.16,0.21 0.18,0.21 0.2,0.2 0.21,0.2 0.23,0.19 0.25,0.18 0.26,0.18 0.29,0.16 0.3,0.16 0.32,0.15 0.34,0.13 0.37,0.13 0.38,0.11 0.41,0.1 0.21,0.05 0.22,0.04 0.22,0.03 0.23,0.04 0.23,0.03 0.24,0.02 0.25,0.03 0.25,0.01 c 0.25,0.05 0.45,0.25 0.45,0.55 0,0.55 -0.41,0.55 -0.95,0.55 -4.99,0 -9.52,-2.53 -9.56,-6.22 v -11.36 c 0,-1.94 0,-3.55 -2,-5.19 -1.74,-1.43 -3.65,-1.54 -4.74,-1.59 -0.25,-0.05 -0.44,-0.25 -0.44,-0.55 0,-0.5 0.3,-0.5 0.8,-0.54 3.28,-0.21 5.67,-1.99 6.22,-4.44 0.16,-0.55 0.16,-0.64 0.16,-2.44 v -9.86 c 0,-2.09 0,-3.69 2.39,-5.58 1.93,-1.5 5.23,-2.04 7.17,-2.04 0.54,0 0.95,0 0.95,0.54 0,0.5 -0.31,0.5 -0.8,0.55 -3.14,0.2 -5.59,1.8 -6.23,4.33 -0.16,0.45 -0.16,0.54 -0.16,2.34 v 10.47 c 0,2.3 -0.39,3.14 -1.98,4.73 -1.05,1.05 -2.5,1.55 -3.89,1.94 4.09,1.14 5.87,3.44 5.87,6.33 z"
           id="path5301" /></g>    </g>
    <g
       id="g5469"
       transform="matrix(0.46525761,0,0,0.46525761,57.392469,53.738919)">
      <g
         word-spacing="normal"
         letter-spacing="normal"
         font-size-adjust="none"
         font-stretch="normal"
         font-weight="normal"
         font-variant="normal"
         font-style="normal"
         stroke-miterlimit="10.433"
         xml:space="preserve"
         transform="matrix(0.3,0,0,-0.3,-52.5,222.75)"
         id="g5467"
         style="font-style:normal;font-variant:normal;font-weight:normal;font-stretch:normal;letter-spacing:normal;word-spacing:normal;text-anchor:start;fill:none;fill-opacity:1;fill-rule:evenodd;stroke:#000000;stroke-linecap:butt;stroke-linejoin:miter;stroke-miterlimit:10.43299961;stroke-dasharray:none;stroke-dashoffset:0;stroke-opacity:1"><path
           id="path5455"
           d="m 479.54,439.48 v 0.02 0.02 l 0.01,0.04 0.02,0.04 0.01,0.05 0.01,0.04 0.01,0.05 0.01,0.05 0.01,0.05 0.01,0.05 0.01,0.05 0.01,0.05 0.01,0.05 0.01,0.05 v 0.04 0.05 l 0.01,0.03 v 0.02 c 0,0.5 -0.35,0.55 -0.6,0.55 -0.5,0 -0.54,-0.11 -0.75,-1 l -8.26,-32.94 c -3.78,0.45 -5.68,2.3 -5.68,5.59 0,0.99 0,2.28 2.69,9.27 0.21,0.59 0.55,1.44 0.55,2.44 0,2.23 -1.59,4.07 -4.09,4.07 -4.74,0 -6.58,-7.21 -6.58,-7.67 0,-0.5 0.5,-0.5 0.61,-0.5 0.5,0 0.54,0.11 0.79,0.91 1.35,4.73 3.33,6.17 5.03,6.17 0.4,0 1.25,0 1.25,-1.59 0,-1.3 -0.5,-2.53 -1.15,-4.28 -2.39,-6.29 -2.39,-7.58 -2.39,-8.43 0,-4.73 3.89,-6.78 8.67,-7.07 -0.41,-1.79 -0.41,-1.89 -1.09,-4.54 -0.16,-0.54 -1.16,-4.57 -1.16,-4.73 0,-0.05 0,-0.5 0.61,-0.5 0.09,0 0.34,0 0.44,0.2 0.15,0.1 0.45,1.35 0.61,2.05 l 1.89,7.42 c 1.84,0 6.22,0 10.9,5.33 2.05,2.3 3.1,4.48 3.64,5.98 0.46,1.24 1.55,5.58 1.55,7.77 0,2.8 -1.34,3.48 -2.2,3.48 -1.24,0 -2.49,-1.29 -2.49,-2.39 0,-0.64 0.3,-0.93 0.75,-1.34 0.55,-0.55 1.8,-1.84 1.8,-4.23 0,-3.19 -2.59,-7.27 -4.34,-9.07 -4.38,-4.43 -7.57,-4.43 -9.36,-4.43 z"
           inkscape:connector-curvature="0"
           style="fill:#000000;stroke-width:0" /><path
           id="path5457"
           d="m 493.97,432.27 -0.01,-0.05 -0.02,-0.04 -0.01,-0.05 -0.02,-0.05 -0.01,-0.05 -0.02,-0.05 -0.01,-0.05 -0.01,-0.06 -0.03,-0.11 -0.03,-0.11 -0.03,-0.11 -0.03,-0.11 -0.01,-0.05 -0.01,-0.05 -0.01,-0.05 -0.01,-0.05 -0.01,-0.05 -0.01,-0.05 -0.01,-0.04 -0.01,-0.04 -0.01,-0.04 -0.01,-0.03 v -0.03 l -0.01,-0.03 v -0.03 -0.02 -0.01 0 -0.01 l -0.01,-0.01 c 0,-0.76 0.63,-1.11 1.19,-1.11 0.63,0 1.17,0.46 1.36,0.77 0.17,0.31 0.45,1.42 0.63,2.16 0.17,0.65 0.54,2.26 0.76,3.14 0.21,0.76 0.42,1.53 0.6,2.32 0.37,1.44 0.45,1.71 1.45,3.15 0.98,1.39 2.62,3.2 5.23,3.2 2.02,0 2.05,-1.78 2.05,-2.44 0,-2.09 -1.48,-5.95 -2.05,-7.42 -0.39,-0.99 -0.53,-1.3 -0.53,-1.89 0,-1.84 1.55,-2.99 3.31,-2.99 3.49,0 5.02,4.8 5.02,5.33 0,0.46 -0.45,0.46 -0.55,0.46 -0.5,0 -0.53,-0.21 -0.67,-0.6 -0.8,-2.78 -2.3,-4.22 -3.69,-4.22 -0.73,0 -0.87,0.49 -0.87,1.22 0,0.8 0.17,1.25 0.8,2.83 0.42,1.08 1.86,4.77 1.86,6.72 0,3.39 -2.69,3.97 -4.54,3.97 -2.89,0 -4.84,-1.77 -5.89,-3.16 -0.25,2.39 -2.29,3.16 -3.73,3.16 -1.5,0 -2.3,-1.08 -2.75,-1.88 -0.77,-1.28 -1.25,-3.28 -1.25,-3.45 0,-0.45 0.48,-0.45 0.59,-0.45 0.49,0 0.52,0.11 0.77,1.04 0.51,2.07 1.19,3.77 2.55,3.77 0.9,0 1.14,-0.77 1.14,-1.7 0,-0.68 -0.32,-1.96 -0.57,-2.89 -0.23,-0.96 -0.57,-2.38 -0.76,-3.15 z"
           inkscape:connector-curvature="0"
           style="fill:#000000;stroke-width:0" /><path
           id="path5459"
           d="m 530.46,437.95 h 10.65 c 0.46,0 1.29,0 1.29,0.85 0,0.86 -0.8,0.86 -1.29,0.86 h -10.65 v 10.7 c 0,0.45 0,1.28 -0.85,1.28 -0.87,0 -0.87,-0.8 -0.87,-1.28 v -10.7 h -10.69 c -0.45,0 -1.3,0 -1.3,-0.83 0,-0.88 0.8,-0.88 1.3,-0.88 h 10.69 v -10.7 c 0,-0.45 0,-1.28 0.84,-1.28 0.88,0 0.88,0.8 0.88,1.28 z"
           inkscape:connector-curvature="0"
           style="fill:#000000;stroke-width:0" /><path
           id="path5461"
           d="m 560.49,434.95 -0.01,0.1 -0.01,0.11 -0.02,0.25 -0.04,0.27 -0.04,0.31 -0.05,0.33 -0.05,0.35 -0.07,0.38 -0.08,0.4 -0.09,0.41 -0.1,0.42 -0.12,0.44 -0.12,0.44 -0.14,0.45 -0.16,0.45 -0.17,0.45 -0.18,0.45 -0.2,0.44 -0.22,0.43 -0.24,0.42 -0.25,0.41 -0.27,0.39 -0.29,0.37 -0.32,0.34 -0.33,0.33 -0.35,0.29 -0.19,0.14 -0.19,0.12 -0.19,0.12 -0.21,0.12 -0.2,0.1 -0.22,0.09 -0.22,0.08 -0.22,0.08 -0.23,0.06 -0.24,0.05 -0.24,0.04 -0.25,0.03 -0.26,0.02 -0.26,0.01 c -2.05,0 -3.83,-1.11 -4.8,-2.02 -2.13,-1.92 -2.55,-4.14 -2.55,-4.25 0,-0.42 0.45,-0.42 0.56,-0.42 0.44,0 0.49,0.08 0.66,0.59 0.73,2.07 3.31,3.32 5.64,3.32 5.61,0 6.34,-5.61 6.34,-9.16 0,-1.75 -0.1,-2.12 -0.25,-2.52 -0.79,-2.6 -1.84,-6.48 -1.84,-7.53 0,-0.37 0.14,-0.83 0.59,-0.83 0.25,0 0.63,0 1.19,1.82 0.42,1.36 1.08,3.94 1.36,6.44 0.14,1.21 2.1,5.92 2.83,7.59 0.48,1.09 1.22,2.72 2.84,5.75 0.11,0.19 0.19,0.31 0.19,0.45 0,0.42 -0.45,0.42 -0.56,0.42 -0.11,0 -0.42,0 -0.53,-0.17 -0.41,-0.73 -3.07,-5.72 -4.63,-9.97 z"
           inkscape:connector-curvature="0"
           style="fill:#000000;stroke-width:0" /><path
           id="path5463"
           d="m 503.22,414.06 v 0.06 l -0.01,0.06 v 0.05 l -0.01,0.06 -0.01,0.06 -0.02,0.06 -0.02,0.05 -0.02,0.06 -0.02,0.06 -0.02,0.05 -0.03,0.06 -0.03,0.05 -0.04,0.06 -0.03,0.05 -0.04,0.05 -0.04,0.05 -0.05,0.05 -0.05,0.04 -0.05,0.05 -0.05,0.04 -0.06,0.04 -0.05,0.03 -0.06,0.04 -0.07,0.03 -0.07,0.02 -0.07,0.03 -0.07,0.02 -0.07,0.02 -0.08,0.01 -0.08,0.01 -0.09,0.01 h -0.08 c -1.02,0 -1.95,-0.98 -1.95,-1.92 0,-0.56 0.42,-1.33 1.39,-1.33 0.93,0 1.95,0.91 1.95,1.92 z"
           inkscape:connector-curvature="0"
           style="fill:#000000;stroke-width:0" /><path
           id="path5465"
           d="m 495.83,390.58 -0.06,-0.23 -0.07,-0.22 -0.07,-0.22 -0.08,-0.21 -0.09,-0.22 -0.09,-0.2 -0.1,-0.21 -0.11,-0.2 -0.11,-0.19 -0.11,-0.19 -0.12,-0.19 -0.13,-0.18 -0.13,-0.17 -0.14,-0.17 -0.14,-0.16 -0.15,-0.16 -0.15,-0.14 -0.15,-0.14 -0.16,-0.13 -0.16,-0.13 -0.17,-0.12 -0.17,-0.1 -0.17,-0.1 -0.18,-0.09 -0.17,-0.08 -0.18,-0.07 -0.19,-0.06 -0.18,-0.05 -0.19,-0.04 -0.18,-0.03 -0.19,-0.02 h -0.2 c -0.45,0 -0.87,0.06 -1.26,0.2 0.9,0.42 1.19,1.25 1.19,1.78 0,0.83 -0.66,1.28 -1.36,1.28 -1.08,0 -1.99,-0.94 -1.99,-2.04 0,-1.33 1.36,-2.21 3.46,-2.21 2.09,0 6.15,1.25 7.24,5.5 l 3.13,12.49 c 0.11,0.37 0.17,0.68 0.17,1.22 0,1.9 -1.62,3.26 -3.72,3.26 -3.87,0 -6.09,-4.84 -6.09,-5.33 0,-0.45 0.48,-0.45 0.59,-0.45 0.41,0 0.46,0.11 0.69,0.62 0.88,2.04 2.69,4.19 4.7,4.19 0.88,0 1.19,-0.59 1.19,-1.7 0,-0.39 -0.06,-0.88 -0.11,-1.05 z"
           inkscape:connector-curvature="0"
           style="fill:#000000;stroke-width:0" /></g>    </g>
  </g>
</svg>
